<?xml version="1.0" standalone="no"?>
<!DOCTYPE svg PUBLIC "-//W3C//DTD SVG 1.1//EN" "http://www.w3.org/Graphics/SVG/1.1/DTD/svg11.dtd">
<svg width="500" height="500" title="polygons" version="1.1" viewBox="0 0 500 500" xmlns="http://www.w3.org/2000/svg" class="svg-paper">
  <g>
    <!--  Created by Sandify -->
    <!--  https://sandify.org -->
    <!--  Version: 0.2.8 -->

    <!--  Machine type: Rectangular -->
    <!--    Min X (mm): 0 -->
    <!--    Max X (mm): 500 -->
    <!--    Min Y (mm): 0 -->
    <!--    Max Y (mm): 500 -->
    <!--  Content type: shape -->
    <!--  Layer: -->
    <!--    Shape: Clover -->
    <!--    Name: polygon -->
    <!--    Large circle radius: 7 -->
    <!--    Small circle radius: 2 -->
    <!--    Visible: true -->
    <!--    Initial width: 10 -->
    <!--    Initial height: 10 -->
    <!--    X offset: 0 -->
    <!--    Y offset: 0 -->
    <!--    Rotate (degrees): 56 -->
    <!--    Reverse path: false -->
    <!--    Number of loops: 12 -->
    <!--    When transforming shape: smear -->
    <!--    Scale: true -->
    <!--      Scale (+/-): 176 -->
    <!--      Scale by: function -->
    <!--        undefined: i+cos(i/2) -->
    <!--    Spin: false -->
    <!--    Track: true -->
    <!--      Track size:  -->
    <!--      Track length:  -->
    <!--      Number of loops at each track position: 1 -->
    <!--      Scale track: true -->
    <!--        Scale (+/-): 80 -->
    <!--    Fine tuning: -->
    <!--      Connect to next layer: line -->
    <!--      Draw portion of path (%): 100 -->
    <!--      Backtrack at end (%): 0 -->
    <!--      Rotate starting point (%): 0 -->
    <!--  Reverse export path: false -->

    <!-- File name: 'sandify' -->
    <!-- File type: svg -->


    <desc>pwidth:500;pheight:500;</desc>
    <path
       stroke="white"
       stroke-width="0.2mm"
       fill="black"
       d="M256.26,259.28L256.26,259.28L256.33,259.37L256.48,259.53L256.75,259.75L257.15,259.99L257.69,260.23L258.35,260.42L259.15,260.53L260.06,260.54L261.06,260.41L262.12,260.13L263.21,259.68L264.29,259.04L265.34,258.22L266.30,257.23L267.15,256.08L267.85,254.79L268.38,253.4L268.73,251.93L268.87,250.42L268.81,248.92L268.56,247.45L268.11,246.06L267.50,244.77L266.75,243.63L265.89,242.63L264.96,241.82L263.99,241.17L263.03,240.71L262.11,240.40L261.26,240.25L260.51,240.21L259.88,240.27L259.39,240.38L259.04,240.51L258.82,240.62L258.74,240.68L258.76,240.65L258.86,240.52L259.02,240.25L259.19,239.84L259.33,239.28L259.42,238.57L259.41,237.73L259.27,236.78L258.98,235.75L258.50,234.67L257.83,233.57L256.96,232.51L255.90,231.52L254.66,230.64L253.25,229.90L251.72,229.35L250.09,229.00L248.40,228.87L246.69,228.97L245.01,229.29L243.41,229.84L241.92,230.59L240.57,231.50L239.39,232.56L238.41,233.72L237.63,234.94L237.06,236.18L236.69,237.38L236.50,238.53L236.47,239.57L236.57,240.49L236.76,241.26L237.00,241.86L237.25,242.31L237.47,242.60L237.61,242.75L237.66,242.79L237.57,242.75L237.34,242.66L236.94,242.56L236.39,242.50L235.69,242.52L234.85,242.66L233.90,242.95L232.88,243.42L231.83,244.09L230.80,244.97L229.81,246.06L228.93,247.35L228.19,248.83L227.63,250.46L227.29,252.21L227.18,254.04L227.32,255.9L227.72,257.75L228.36,259.53L229.23,261.21L230.31,262.74L231.56,264.08L232.95,265.21L234.42,266.11L235.93,266.78L237.43,267.21L238.88,267.43L240.24,267.44L241.46,267.29L242.53,267.01L243.41,266.64L244.12,266.23L244.64,265.82L244.99,265.47L245.19,265.20L245.27,265.05L245.27,265.06L245.24,265.22L245.21,265.57L245.23,266.08L245.35,266.75L245.62,267.54L246.05,268.44L246.68,269.40L247.53,270.37L248.60,271.30L249.88,272.15L251.38,272.87L253.05,273.40L254.86,273.73L256.78,273.81L258.75,273.63L260.73,273.18L262.65,272.45L264.47,271.46L266.15,270.23L267.63,268.8L268.90,267.20L269.91,265.49L270.66,263.71L271.14,261.92L271.37,260.17L271.36,258.50L271.14,256.96L270.76,255.59L270.24,254.41L269.65,253.43L269.03,252.66L268.43,252.10L267.91,251.72L267.49,251.50L267.21,251.39L267.11,251.37L267.19,251.37L267.45,251.35L267.89,251.26L268.49,251.06L269.21,250.70L270.02,250.14L270.87,249.37L271.72,248.37L272.50,247.14L273.17,245.69L273.67,244.04L273.97,242.22L274.02,240.28L273.81,238.25L273.30,236.20L272.50,234.19L271.41,232.26L270.06,230.47L268.48,228.88L266.69,227.51L264.76,226.41L262.73,225.59L260.67,225.07L258.63,224.83L256.65,224.88L254.81,225.17L253.13,225.67L251.65,226.34L250.39,227.13L249.37,227.98L248.58,228.84L248.01,229.66L247.64,230.38L247.44,230.97L247.35,231.40L247.33,231.63L247.33,231.67L247.29,231.51L247.17,231.16L246.91,230.66L246.47,230.05L245.82,229.35L244.94,228.63L243.83,227.95L242.48,227.35L240.91,226.90L239.16,226.64L237.25,226.62L235.23,226.86L233.17,227.41L231.11,228.26L229.13,229.41L227.27,230.86L225.60,232.57L224.16,234.51L223.00,236.63L222.13,238.87L221.58,241.18L221.35,243.49L221.44,245.75L221.81,247.89L222.43,249.86L223.27,251.63L224.26,253.16L225.36,254.44L226.5,255.45L227.63,256.20L228.68,256.72L229.62,257.03L230.39,257.18L230.98,257.21L231.35,257.18L231.51,257.15L231.47,257.17L231.24,257.30L230.85,257.58L230.35,258.06L229.80,258.76L229.24,259.70L228.73,260.89L228.35,262.31L228.13,263.94L228.13,265.75L228.40,267.69L228.97,269.70L229.84,271.74L231.04,273.72L232.55,275.60L234.35,277.30L236.40,278.78L238.66,279.98L241.08,280.88L243.59,281.44L246.13,281.65L248.64,281.52L251.04,281.07L253.29,280.32L255.33,279.32L257.13,278.12L258.64,276.77L259.87,275.35L260.81,273.90L261.47,272.5L261.88,271.20L262.08,270.05L262.12,269.09L262.04,268.34L261.92,267.82L261.76,267.43L261.85,267.55L262.12,267.81L262.59,268.18L263.30,268.59L264.26,268.98L265.47,269.29L266.91,269.46L268.55,269.43L270.34,269.16L272.25,268.60L274.19,267.72L276.12,266.52L277.97,265.00L279.66,263.16L281.14,261.04L282.35,258.69L283.24,256.15L283.80,253.48L283.99,250.76L283.81,248.05L283.27,245.43L282.41,242.94L281.25,240.66L279.85,238.64L278.26,236.90L276.56,235.47L274.79,234.36L273.05,233.57L271.37,233.07L269.83,232.82L268.48,232.79L267.34,232.92L266.44,233.15L265.80,233.41L265.39,233.63L265.21,233.77L265.22,233.76L265.37,233.55L265.61,233.12L265.88,232.44L266.10,231.50L266.23,230.32L266.18,228.91L265.91,227.32L265.38,225.59L264.54,223.79L263.37,221.97L261.87,220.20L260.04,218.57L257.91,217.13L255.52,215.94L252.91,215.06L250.14,214.52L247.29,214.37L244.43,214.59L241.62,215.20L238.94,216.18L236.46,217.49L234.23,219.07L232.29,220.89L230.69,222.87L229.43,224.94L228.51,227.04L227.93,229.08L227.65,231.00L227.64,232.76L227.84,234.3L228.18,235.59L228.61,236.61L229.05,237.37L229.44,237.87L229.71,238.13L229.82,238.21L229.71,238.16L229.36,238.03L228.75,237.89L227.88,237.82L226.77,237.87L225.45,238.11L223.95,238.60L222.35,239.37L220.70,240.47L219.06,241.90L217.53,243.66L216.16,245.75L215.02,248.12L214.18,250.73L213.68,253.53L213.56,256.45L213.84,259.41L214.51,262.34L215.59,265.16L217.02,267.80L218.78,270.20L220.81,272.29L223.03,274.05L225.40,275.45L227.81,276.46L230.21,277.11L232.51,277.41L234.66,277.39L236.60,277.12L238.29,276.64L239.70,276.03L240.81,275.35L241.63,274.69L242.19,274.10L242.51,273.65L242.65,273.39L242.66,273.37L242.62,273.60L242.58,274.10L242.63,274.87L242.82,275.86L243.24,277.06L243.91,278.41L244.89,279.85L246.20,281.30L247.84,282.69L249.82,283.95L252.11,285.01L254.66,285.79L257.43,286.25L260.34,286.33L263.33,286.01L266.32,285.27L269.23,284.12L271.98,282.58L274.49,280.68L276.71,278.48L278.59,276.03L280.09,273.41L281.19,270.70L281.88,267.98L282.19,265.31L282.14,262.79L281.77,260.46L281.16,258.39L280.35,256.61L279.43,255.14L278.47,253.98L277.55,253.14L276.73,252.57L276.08,252.23L275.64,252.08L275.45,252.04L275.54,252.04L275.91,252.01L276.53,251.88L277.38,251.57L278.43,251.03L279.59,250.21L280.82,249.07L282.03,247.60L283.15,245.79L284.10,243.66L284.81,241.24L285.21,238.57L285.25,235.73L284.90,232.78L284.12,229.80L282.92,226.87L281.30,224.07L279.29,221.49L276.95,219.19L274.32,217.23L271.49,215.66L268.52,214.50L265.50,213.78L262.52,213.47L259.65,213.57L256.96,214.03L254.52,214.79L252.38,215.80L250.56,216.97L249.09,218.23L247.95,219.50L247.14,220.71L246.61,221.77L246.31,222.65L246.19,223.28L246.17,223.64L246.17,223.72L246.12,223.51L245.95,223.05L245.58,222.36L244.96,221.50L244.04,220.54L242.79,219.54L241.21,218.59L239.3,217.77L237.08,217.15L234.59,216.81L231.90,216.81L229.06,217.19L226.15,217.99L223.26,219.22L220.48,220.88L217.89,222.95L215.56,225.39L213.56,228.15L211.94,231.15L210.76,234.33L210.02,237.59L209.73,240.85L209.88,244.02L210.43,247.03L211.34,249.81L212.54,252.29L213.97,254.43L215.53,256.21L217.16,257.62L218.75,258.66L220.25,259.38L221.58,259.81L222.68,260.00L223.52,260.04L224.06,259.99L224.31,259.94L224.26,259.96L223.96,260.13L223.45,260.51L222.78,261.16L222.03,262.13L221.28,263.42L220.61,265.05L220.09,267.00L219.82,269.24L219.85,271.72L220.24,274.37L221.04,277.13L222.27,279.90L223.94,282.61L226.03,285.16L228.51,287.48L231.34,289.47L234.46,291.09L237.78,292.29L241.23,293.02L244.71,293.28L248.14,293.07L251.43,292.43L254.49,291.38L257.27,289.98L259.71,288.31L261.77,286.45L263.43,284.49L264.70,282.50L265.58,280.57L266.13,278.78L266.39,277.2L266.43,275.88L266.32,274.85L266.14,274.13L265.91,273.59L266.02,273.73L266.37,274.07L267,274.55L267.95,275.08L269.23,275.59L270.85,275.99L272.77,276.20L274.96,276.15L277.36,275.76L279.89,274.99L282.49,273.80L285.06,272.17L287.51,270.11L289.75,267.64L291.70,264.79L293.29,261.63L294.47,258.22L295.18,254.66L295.4,251.02L295.13,247.40L294.39,243.90L293.21,240.59L291.64,237.56L289.75,234.87L287.61,232.56L285.32,230.68L282.95,229.22L280.61,228.18L278.37,227.52L276.31,227.21L274.5,227.19L272.98,227.37L271.78,227.69L270.91,228.04L270.36,228.36L270.11,228.55L270.11,228.54L270.30,228.28L270.60,227.72L270.94,226.84L271.22,225.62L271.37,224.08L271.30,222.24L270.94,220.16L270.22,217.91L269.1,215.56L267.56,213.19L265.57,210.89L263.17,208.77L260.37,206.90L257.23,205.37L253.81,204.25L250.19,203.57L246.46,203.39L242.72,203.72L239.05,204.54L235.56,205.84L232.33,207.57L229.43,209.66L226.92,212.06L224.84,214.65L223.21,217.37L222.03,220.11L221.29,222.78L220.95,225.31L220.95,227.60L221.22,229.61L221.68,231.30L222.25,232.63L222.84,233.62L223.36,234.27L223.72,234.63L223.87,234.74L223.75,234.68L223.31,234.52L222.53,234.35L221.43,234.26L220.01,234.33L218.31,234.65L216.41,235.29L214.35,236.30L212.24,237.71L210.16,239.56L208.20,241.84L206.46,244.53L205.02,247.58L203.96,250.94L203.34,254.53L203.21,258.28L203.59,262.07L204.48,265.82L205.88,269.44L207.74,272.81L210.01,275.87L212.62,278.54L215.49,280.78L218.53,282.55L221.63,283.83L224.71,284.64L227.67,285.00L230.42,284.97L232.91,284.60L235.07,283.98L236.87,283.18L238.29,282.31L239.34,281.44L240.06,280.68L240.47,280.10L240.65,279.75L240.67,279.71L240.62,279.99L240.58,280.62L240.64,281.57L240.90,282.82L241.42,284.33L242.28,286.02L243.52,287.82L245.18,289.65L247.27,291.39L249.78,292.97L252.67,294.29L255.89,295.26L259.39,295.82L263.07,295.90L266.84,295.48L270.61,294.53L274.26,293.06L277.72,291.09L280.88,288.68L283.66,285.89L286.01,282.79L287.88,279.48L289.25,276.06L290.11,272.62L290.48,269.26L290.40,266.08L289.93,263.15L289.13,260.54L288.10,258.30L286.93,256.45L285.72,255.00L284.54,253.93L283.50,253.22L282.67,252.80L282.11,252.60L281.87,252.55L281.97,252.55L282.41,252.51L283.17,252.34L284.23,251.96L285.52,251.29L286.96,250.26L288.48,248.84L289.98,247.00L291.36,244.75L292.53,242.09L293.40,239.07L293.88,235.76L293.92,232.22L293.45,228.56L292.47,224.85L290.95,221.21L288.93,217.75L286.42,214.55L283.49,211.70L280.22,209.28L276.69,207.35L272.99,205.93L269.24,205.04L265.53,204.68L261.96,204.82L258.63,205.40L255.60,206.37L252.95,207.63L250.69,209.09L248.87,210.67L247.47,212.26L246.46,213.76L245.81,215.10L245.44,216.19L245.29,216.98L245.27,217.44L245.27,217.55L245.21,217.30L245.00,216.74L244.54,215.90L243.78,214.85L242.65,213.67L241.12,212.46L239.17,211.30L236.82,210.30L234.09,209.56L231.04,209.15L227.72,209.16L224.24,209.64L220.68,210.64L217.14,212.17L213.73,214.22L210.55,216.78L207.70,219.79L205.26,223.18L203.30,226.87L201.85,230.77L200.96,234.78L200.63,238.78L200.82,242.68L201.52,246.37L202.65,249.76L204.13,252.80L205.89,255.42L207.82,257.60L209.82,259.32L211.78,260.60L213.63,261.47L215.26,261.99L216.62,262.22L217.65,262.26L218.32,262.20L218.63,262.13L218.59,262.15L218.23,262.35L217.61,262.82L216.81,263.61L215.91,264.78L215.00,266.35L214.19,268.33L213.58,270.70L213.25,273.42L213.30,276.43L213.79,279.66L214.77,283.00L216.27,286.37L218.31,289.65L220.86,292.74L223.89,295.54L227.34,297.96L231.13,299.91L235.17,301.35L239.35,302.22L243.58,302.52L247.74,302.26L251.73,301.46L255.45,300.17L258.82,298.47L261.77,296.44L264.26,294.17L266.27,291.77L267.80,289.35L268.87,287.01L269.52,284.84L269.83,282.91L269.87,281.30L269.74,280.05L269.52,279.17L269.23,278.51L269.36,278.68L269.78,279.08L270.53,279.65L271.68,280.29L273.22,280.90L275.16,281.37L277.48,281.62L280.11,281.55L282.99,281.07L286.05,280.13L289.17,278.69L292.25,276.72L295.19,274.23L297.88,271.25L300.22,267.81L302.13,264.00L303.53,259.9L304.37,255.60L304.63,251.23L304.29,246.87L303.39,242.66L301.96,238.69L300.06,235.05L297.77,231.81L295.19,229.05L292.43,226.79L289.58,225.04L286.75,223.79L284.06,223.02L281.58,222.65L279.40,222.63L277.57,222.85L276.12,223.24L275.07,223.67L274.41,224.05L274.10,224.29L274.10,224.29L274.32,223.98L274.68,223.32L275.07,222.26L275.41,220.81L275.58,218.96L275.49,216.78L275.05,214.30L274.19,211.61L272.85,208.80L270.99,205.98L268.62,203.24L265.74,200.72L262.39,198.49L258.63,196.67L254.55,195.34L250.22,194.55L245.77,194.34L241.30,194.74L236.93,195.73L232.77,197.29L228.92,199.37L225.46,201.88L222.47,204.74L219.99,207.85L218.06,211.10L216.66,214.37L215.78,217.56L215.38,220.57L215.38,223.31L215.71,225.71L216.27,227.73L216.96,229.32L217.66,230.5L218.28,231.28L218.73,231.71L218.91,231.84L218.77,231.77L218.25,231.59L217.34,231.39L216.03,231.28L214.34,231.38L212.34,231.76L210.07,232.52L207.64,233.72L205.14,235.40L202.68,237.60L200.36,240.31L198.30,243.50L196.6,247.12L195.35,251.12L194.63,255.38L194.47,259.82L194.93,264.32L196.00,268.77L197.67,273.05L199.88,277.05L202.59,280.67L205.69,283.84L209.1,286.48L212.70,288.57L216.39,290.09L220.04,291.04L223.55,291.47L226.81,291.42L229.76,290.98L232.32,290.23L234.45,289.28L236.14,288.24L237.39,287.21L238.24,286.30L238.73,285.61L238.94,285.20L238.97,285.14L238.91,285.47L238.86,286.20L238.94,287.32L239.24,288.80L239.86,290.57L240.88,292.57L242.35,294.69L244.31,296.84L246.78,298.90L249.74,300.75L253.15,302.30L256.96,303.44L261.08,304.09L265.42,304.18L269.87,303.68L274.32,302.55L278.63,300.81L282.70,298.48L286.43,295.63L289.71,292.33L292.47,288.67L294.67,284.76L296.28,280.72L297.28,276.66L297.71,272.70L297.61,268.95L297.05,265.50L296.11,262.42L294.89,259.77L293.51,257.60L292.07,255.89L290.68,254.63L289.45,253.79L288.47,253.29L287.81,253.06L287.51,253L287.63,253.00L288.14,252.96L289.04,252.76L290.28,252.31L291.78,251.51L293.48,250.31L295.26,248.63L297.02,246.47L298.64,243.82L300.01,240.70L301.02,237.15L301.58,233.26L301.62,229.11L301.07,224.80L299.91,220.44L298.12,216.18L295.74,212.11L292.79,208.35L289.34,205.01L285.49,202.18L281.34,199.91L277,198.25L272.59,197.21L268.23,196.79L264.05,196.96L260.13,197.65L256.58,198.78L253.46,200.27L250.81,201.99L248.67,203.85L247.03,205.72L245.85,207.48L245.08,209.05L244.66,210.34L244.48,211.27L244.45,211.81L244.46,211.94L244.39,211.66L244.14,211L243.60,210.02L242.71,208.80L241.38,207.42L239.59,206L237.31,204.65L234.56,203.48L231.36,202.61L227.78,202.14L223.90,202.16L219.82,202.73L215.65,203.90L211.51,205.69L207.52,208.10L203.80,211.10L200.47,214.62L197.61,218.59L195.32,222.92L193.63,227.49L192.60,232.18L192.21,236.87L192.44,241.43L193.26,245.75L194.58,249.72L196.33,253.28L198.39,256.35L200.65,258.89L202.99,260.90L205.29,262.40L207.45,263.41L209.37,264.02L210.96,264.30L212.17,264.34L212.96,264.27L213.32,264.18L213.27,264.21L212.85,264.44L212.14,264.99L211.20,265.91L210.15,267.28L209.09,269.12L208.14,271.43L207.43,274.20L207.05,277.37L207.11,280.89L207.68,284.66L208.83,288.57L210.59,292.50L212.97,296.33L215.95,299.94L219.49,303.21L223.52,306.02L227.95,308.30L232.67,309.98L237.57,311.00L242.51,311.35L247.37,311.03L252.02,310.10L256.36,308.59L260.30,306.60L263.74,304.22L266.65,301.57L269.00,298.77L270.78,295.94L272.03,293.21L272.79,290.67L273.15,288.42L273.20,286.54L273.04,285.07L272.78,284.05L272.45,283.28L272.60,283.47L273.08,283.94L273.96,284.60L275.29,285.34L277.09,286.05L279.36,286.61L282.06,286.89L285.13,286.80L288.49,286.25L292.05,285.15L295.69,283.47L299.29,281.17L302.72,278.27L305.85,274.78L308.58,270.78L310.80,266.33L312.43,261.55L313.41,256.54L313.71,251.43L313.32,246.35L312.26,241.44L310.59,236.81L308.38,232.56L305.71,228.80L302.70,225.57L299.47,222.93L296.15,220.90L292.85,219.44L289.71,218.54L286.82,218.12L284.27,218.09L282.14,218.35L280.45,218.80L279.23,219.30L278.46,219.75L278.10,220.02L278.09,220.02L278.35,219.67L278.76,218.90L279.23,217.67L279.62,215.97L279.82,213.83L279.71,211.28L279.20,208.39L278.19,205.25L276.63,201.98L274.47,198.69L271.70,195.51L268.35,192.56L264.44,189.98L260.06,187.86L255.30,186.30L250.26,185.38L245.07,185.14L239.87,185.60L234.77,186.76L229.92,188.58L225.43,191.00L221.40,193.93L217.92,197.26L215.03,200.88L212.78,204.67L211.15,208.48L210.13,212.20L209.66,215.71L209.67,218.90L210.05,221.70L210.70,224.05L211.5,225.91L212.32,227.28L213.05,228.19L213.57,228.69L213.78,228.85L213.61,228.76L213.01,228.55L211.94,228.32L210.42,228.19L208.46,228.30L206.12,228.75L203.48,229.63L200.65,231.03L197.74,233.00L194.86,235.56L192.16,238.71L189.76,242.43L187.78,246.65L186.33,251.30L185.48,256.27L185.31,261.44L185.84,266.69L187.09,271.87L189.03,276.86L191.61,281.52L194.76,285.74L198.37,289.43L202.35,292.51L206.54,294.94L210.84,296.71L215.09,297.82L219.18,298.31L222.98,298.26L226.41,297.75L229.40,296.88L231.88,295.77L233.85,294.56L235.31,293.36L236.29,292.30L236.87,291.49L237.12,291.01L237.15,290.95L237.07,291.33L237.02,292.18L237.11,293.49L237.46,295.21L238.18,297.28L239.37,299.61L241.08,302.08L243.37,304.59L246.24,306.99L249.69,309.15L253.67,310.96L258.11,312.29L262.92,313.04L267.98,313.15L273.16,312.56L278.34,311.25L283.37,309.22L288.12,306.51L292.46,303.19L296.28,299.34L299.51,295.08L302.08,290.52L303.95,285.81L305.12,281.08L305.62,276.47L305.51,272.09L304.85,268.06L303.76,264.48L302.34,261.40L300.73,258.86L299.05,256.86L297.43,255.40L296,254.42L294.86,253.84L294.08,253.57L293.75,253.50L293.88,253.5L294.48,253.45L295.52,253.22L296.97,252.69L298.73,251.76L300.71,250.36L302.79,248.41L304.84,245.89L306.73,242.79L308.33,239.15L309.51,235.02L310.17,230.47L310.22,225.63L309.58,220.60L308.22,215.52L306.14,210.54L303.36,205.79L299.92,201.41L295.90,197.51L291.41,194.2L286.57,191.55L281.50,189.61L276.36,188.40L271.28,187.91L266.39,188.10L261.82,188.90L257.68,190.23L254.04,191.96L250.95,193.97L248.45,196.13L246.53,198.31L245.15,200.37L244.26,202.20L243.76,203.70L243.56,204.79L243.52,205.42L243.53,205.57L243.45,205.24L243.15,204.46L242.53,203.32L241.48,201.89L239.94,200.28L237.84,198.62L235.18,197.04L231.96,195.67L228.23,194.65L224.05,194.10L219.52,194.12L214.75,194.78L209.88,196.15L205.04,198.24L200.37,201.05L196.03,204.55L192.13,208.66L188.80,213.31L186.11,218.36L184.14,223.7L182.92,229.18L182.46,234.65L182.74,239.98L183.69,245.03L185.23,249.68L187.27,253.83L189.67,257.42L192.31,260.39L195.05,262.74L197.74,264.49L200.26,265.68L202.50,266.39L204.35,266.71L205.77,266.77L206.69,266.68L207.11,266.59L207.05,266.62L206.56,266.89L205.72,267.53L204.62,268.61L203.39,270.21L202.15,272.36L201.04,275.06L200.20,278.31L199.75,282.02L199.82,286.14L200.49,290.55L201.83,295.12L203.89,299.73L206.67,304.22L210.16,308.44L214.30,312.27L219.01,315.57L224.19,318.24L229.72,320.20L235.45,321.4L241.23,321.81L246.92,321.45L252.37,320.36L257.45,318.60L262.05,316.27L266.09,313.49L269.50,310.39L272.25,307.12L274.33,303.81L275.80,300.60L276.70,297.63L277.12,295.00L277.17,292.80L276.98,291.09L276.69,289.89L276.30,288.99L276.48,289.21L277.04,289.77L278.08,290.54L279.64,291.42L281.75,292.25L284.41,292.90L287.57,293.24L291.18,293.14L295.12,292.49L299.30,291.21L303.57,289.24L307.79,286.55L311.81,283.14L315.49,279.06L318.70,274.37L321.30,269.15L323.22,263.54L324.37,257.67L324.73,251.68L324.27,245.72L323.04,239.96L321.08,234.52L318.49,229.54L315.36,225.12L311.84,221.34L308.05,218.24L304.15,215.85L300.29,214.14L296.61,213.08L293.22,212.58L290.23,212.54L287.73,212.85L285.75,213.37L284.31,213.96L283.41,214.48L282.99,214.80L282.99,214.80L283.29,214.38L283.78,213.47L284.33,212.03L284.79,210.03L285.03,207.51L284.90,204.51L284.30,201.12L283.12,197.43L281.28,193.58L278.75,189.71L275.50,185.97L271.56,182.5L266.97,179.45L261.83,176.96L256.23,175.12L250.31,174.04L244.21,173.75L238.09,174.29L232.10,175.65L226.39,177.78L221.11,180.62L216.37,184.06L212.27,187.98L208.87,192.23L206.22,196.68L204.30,201.16L203.10,205.54L202.54,209.66L202.55,213.41L202.99,216.70L203.76,219.46L204.69,221.65L205.66,223.26L206.51,224.33L207.12,224.91L207.36,225.10L207.16,225L206.45,224.74L205.19,224.47L203.39,224.32L201.08,224.45L198.32,224.97L195.22,226.01L191.88,227.66L188.44,229.97L185.05,232.98L181.87,236.70L179.03,241.08L176.70,246.05L174.98,251.53L173.97,257.39L173.76,263.49L174.39,269.67L175.85,275.78L178.13,281.66L181.17,287.15L184.88,292.13L189.13,296.48L193.81,300.12L198.76,302.99L203.82,305.08L208.83,306.39L213.65,306.98L218.13,306.92L222.18,306.32L225.69,305.30L228.62,304.00L230.94,302.57L232.66,301.16L233.82,299.92L234.5,298.96L234.79,298.40L234.83,298.33L234.74,298.79L234.67,299.80L234.78,301.34L235.19,303.38L236.05,305.82L237.44,308.58L239.47,311.50L242.17,314.46L245.56,317.30L249.63,319.87L254.34,322.00L259.58,323.58L265.26,324.48L271.24,324.61L277.37,323.92L283.49,322.37L289.44,319.98L295.05,316.79L300.18,312.87L304.71,308.32L308.53,303.29L311.56,297.91L313.78,292.34L315.17,286.75L315.77,281.30L315.64,276.12L314.87,271.36L313.58,267.12L311.91,263.48L310.00,260.47L308.02,258.12L306.12,256.39L304.43,255.23L303.07,254.54L302.17,254.22L301.77,254.14L301.93,254.14L302.64,254.08L303.89,253.81L305.60,253.19L307.69,252.09L310.04,250.42L312.51,248.12L314.94,245.13L317.18,241.46L319.08,237.15L320.49,232.25L321.27,226.87L321.33,221.13L320.58,215.17L318.98,209.15L316.52,203.25L313.23,197.62L309.15,192.42L304.40,187.79L299.08,183.86L293.35,180.72L287.35,178.41L281.25,176.98L275.23,176.39L269.44,176.61L264.02,177.56L259.11,179.12L254.79,181.16L251.13,183.55L248.16,186.11L245.88,188.68L244.25,191.13L243.19,193.29L242.60,195.07L242.35,196.36L242.31,197.10L242.32,197.27L242.22,196.87L241.87,195.95L241.13,194.59L239.89,192.88L238.05,190.97L235.57,188.99L232.41,187.11L228.58,185.49L224.15,184.27L219.18,183.61L213.80,183.63L208.13,184.41L202.34,186.03L196.58,188.51L191.04,191.84L185.87,195.99L181.24,200.88L177.26,206.39L174.07,212.40L171.72,218.74L170.27,225.25L169.72,231.76L170.03,238.09L171.16,244.09L172.99,249.62L175.41,254.56L178.26,258.82L181.39,262.36L184.64,265.16L187.84,267.24L190.83,268.65L193.49,269.50L195.69,269.88L197.37,269.95L198.46,269.85L198.96,269.74L198.88,269.77L198.30,270.11L197.29,270.86L195.98,272.15L194.51,274.06L193.03,276.62L191.71,279.84L190.70,283.70L190.17,288.13L190.24,293.04L191.03,298.29L192.63,303.75L195.07,309.23L198.38,314.58L202.53,319.62L207.47,324.19L213.08,328.13L219.25,331.31L225.83,333.66L232.66,335.09L239.54,335.59L246.32,335.17L252.82,333.87L258.88,331.77L264.37,329.00L269.18,325.70L273.25,322.01L276.53,318.11L279.02,314.17L280.77,310.35L281.84,306.81L282.35,303.68L282.42,301.06L282.19,299.02L281.84,297.59L281.38,296.52L281.59,296.79L282.27,297.45L283.51,298.39L285.38,299.43L287.90,300.43L291.07,301.21L294.86,301.62L299.16,301.50L303.88,300.73L308.87,299.21L313.97,296.86L319.01,293.64L323.82,289.58L328.23,284.71L332.06,279.10L335.18,272.88L337.47,266.18L338.86,259.16L339.28,252.00L338.75,244.89L337.28,238L334.95,231.50L331.85,225.55L328.12,220.26L323.91,215.74L319.39,212.03L314.74,209.17L310.13,207.13L305.73,205.85L301.68,205.25L298.11,205.20L295.12,205.57L292.75,206.19L291.04,206.89L289.97,207.51L289.47,207.89L289.46,207.89L289.82,207.39L290.42,206.29L291.07,204.56L291.63,202.17L291.92,199.15L291.77,195.56L291.06,191.49L289.64,187.07L287.45,182.46L284.42,177.82L280.53,173.33L275.81,169.18L270.32,165.53L264.16,162.53L257.46,160.33L250.37,159.02L243.06,158.67L235.73,159.31L228.55,160.94L221.72,163.48L215.39,166.88L209.71,170.99L204.79,175.68L200.72,180.78L197.53,186.10L195.23,191.47L193.78,196.71L193.12,201.65L193.12,206.14L193.65,210.08L194.56,213.39L195.68,216.01L196.83,217.94L197.85,219.22L198.57,219.92L198.87,220.14L198.62,220.02L197.76,219.71L196.25,219.38L194.09,219.2L191.31,219.35L188.00,219.98L184.27,221.22L180.26,223.19L176.13,225.96L172.06,229.58L168.23,234.04L164.83,239.29L162.02,245.26L159.95,251.84L158.74,258.87L158.48,266.19L159.22,273.62L160.97,280.95L163.70,288.01L167.35,294.61L171.79,300.59L176.90,305.82L182.52,310.19L188.45,313.65L194.53,316.16L200.54,317.74L206.33,318.45L211.72,318.39L216.57,317.67L220.80,316.44L224.31,314.88L227.1,313.17L229.16,311.48L230.56,309.99L231.37,308.85L231.72,308.18L231.76,308.09L231.66,308.65L231.57,309.86L231.70,311.73L232.20,314.18L233.22,317.12L234.90,320.44L237.34,323.96L240.58,327.53L244.66,330.94L249.56,334.03L255.21,336.61L261.52,338.51L268.36,339.60L275.55,339.76L282.93,338.93L290.30,337.08L297.45,334.20L304.21,330.37L310.39,325.65L315.84,320.19L320.44,314.13L324.10,307.66L326.77,300.97L328.45,294.24L329.18,287.67L329.02,281.45L328.10,275.72L326.55,270.62L324.54,266.23L322.25,262.61L319.87,259.78L317.58,257.69L315.55,256.29L313.92,255.47L312.83,255.09L312.36,254.99L312.55,254.99L313.42,254.92L314.92,254.59L316.99,253.84L319.51,252.52L322.34,250.51L325.32,247.73L328.26,244.13L330.96,239.71L333.26,234.51L334.95,228.61L335.91,222.12L335.98,215.20L335.08,208.01L333.16,200.76L330.20,193.63L326.23,186.84L321.32,180.57L315.59,175.00L309.18,170.25L302.27,166.46L295.04,163.67L287.69,161.93L280.43,161.22L273.44,161.48L266.91,162.62L260.98,164.5L255.77,166.96L251.36,169.83L247.78,172.92L245.03,176.02L243.06,178.97L241.78,181.58L241.07,183.72L240.78,185.27L240.72,186.16L240.73,186.36L240.62,185.88L240.19,184.77L239.30,183.12L237.80,181.06L235.58,178.75L232.58,176.36L228.76,174.08L224.14,172.12L218.79,170.65L212.79,169.85L206.29,169.86L199.44,170.80L192.44,172.75L185.49,175.74L178.80,179.77L172.55,184.78L166.95,190.68L162.15,197.33L158.28,204.58L155.45,212.24L153.69,220.11L153.02,227.96L153.40,235.61L154.75,242.86L156.96,249.54L159.88,255.50L163.32,260.66L167.10,264.93L171.02,268.32L174.88,270.83L178.50,272.54L181.71,273.56L184.37,274.03L186.39,274.11L187.71,273.99L188.31,273.86L188.22,273.9L187.50,274.30L186.28,275.22L184.70,276.78L182.91,279.09L181.12,282.18L179.52,286.08L178.30,290.75L177.65,296.11L177.74,302.04L178.69,308.40L180.62,314.99L183.58,321.63L187.58,328.11L192.60,334.20L198.56,339.72L205.34,344.49L212.81,348.35L220.77,351.19L229.02,352.93L237.35,353.54L245.55,353.03L253.41,351.46L260.75,348.93L267.39,345.58L273.21,341.58L278.13,337.13L282.10,332.41L285.11,327.64L287.23,323.03L288.53,318.75L289.14,314.96L289.23,311.79L288.96,309.32L288.54,307.6L287.98,306.30L288.24,306.63L289.06,307.44L290.56,308.57L292.82,309.84L295.88,311.05L299.72,312.00L304.30,312.49L309.51,312.35L315.22,311.42L321.27,309.57L327.45,306.73L333.56,302.84L339.38,297.93L344.72,292.02L349.36,285.24L353.14,277.70L355.92,269.59L357.60,261.09L358.12,252.43L357.48,243.81L355.70,235.47L352.88,227.60L349.13,220.39L344.62,213.98L339.52,208.50L334.05,204.01L328.42,200.54L322.83,198.07L317.50,196.52L312.60,195.79L308.28,195.74L304.65,196.18L301.79,196.93L299.72,197.78L298.42,198.53L297.82,198.99L297.81,198.98L298.25,198.37L298.97,197.05L299.77,194.94L300.44,192.05L300.79,188.38L300.62,184.03L299.75,179.10L298.04,173.75L295.38,168.15L291.71,162.53L287,157.09L281.28,152.05L274.63,147.62L267.17,143.99L259.04,141.32L250.45,139.73L241.59,139.31L232.70,140.08L224.00,142.05L215.72,145.13L208.05,149.24L201.16,154.23L195.20,159.91L190.26,166.09L186.40,172.54L183.61,179.05L181.85,185.39L181.04,191.38L181.04,196.83L181.68,201.61L182.79,205.61L184.14,208.79L185.54,211.13L186.77,212.68L187.65,213.53L188.00,213.79L187.71,213.64L186.66,213.27L184.83,212.87L182.21,212.65L178.84,212.83L174.82,213.59L170.30,215.10L165.43,217.49L160.42,220.86L155.48,225.24L150.84,230.64L146.71,237.01L143.30,244.25L140.79,252.23L139.32,260.76L139.01,269.63L139.91,278.64L142.03,287.54L145.34,296.10L149.76,304.10L155.15,311.36L161.35,317.70L168.16,323.01L175.36,327.20L182.72,330.24L190.01,332.16L197.03,333.03L203.57,332.95L209.46,332.07L214.58,330.59L218.84,328.70L222.22,326.63L224.73,324.58L226.42,322.77L227.40,321.38L227.83,320.57L227.88,320.47L227.75,321.14L227.65,322.62L227.8,324.88L228.40,327.85L229.65,331.43L231.69,335.44L234.64,339.72L238.57,344.05L243.53,348.19L249.47,351.94L256.32,355.06L263.98,357.37L272.27,358.69L281.00,358.89L289.95,357.89L298.88,355.64L307.57,352.15L315.76,347.50L323.26,341.78L329.87,335.15L335.45,327.81L339.89,319.95L343.14,311.83L345.18,303.67L346.06,295.70L345.87,288.15L344.75,281.20L342.87,275.01L340.43,269.69L337.66,265.30L334.77,261.86L331.99,259.34L329.52,257.64L327.55,256.64L326.23,256.17L325.65,256.05L325.89,256.05L326.94,255.97L328.76,255.57L331.27,254.66L334.33,253.05L337.76,250.62L341.38,247.25L344.94,242.88L348.22,237.52L351.00,231.21L353.07,224.05L354.22,216.18L354.31,207.78L353.22,199.06L350.88,190.26L347.29,181.62L342.47,173.38L336.52,165.78L329.57,159.01L321.80,153.26L313.41,148.65L304.63,145.27L295.72,143.17L286.91,142.30L278.44,142.62L270.51,144L263.32,146.28L257.00,149.27L251.65,152.75L247.31,156.50L243.97,160.26L241.58,163.83L240.03,167.00L239.17,169.60L238.81,171.48L238.75,172.56L238.76,172.81L238.62,172.22L238.10,170.88L237.02,168.88L235.20,166.38L232.51,163.57L228.87,160.68L224.24,157.92L218.64,155.54L212.14,153.76L204.87,152.78L196.98,152.80L188.68,153.94L180.19,156.31L171.76,159.94L163.64,164.82L156.07,170.90L149.28,178.05L143.46,186.13L138.77,194.92L135.33,204.21L133.2,213.75L132.39,223.28L132.85,232.55L134.50,241.34L137.18,249.44L140.71,256.67L144.89,262.92L149.48,268.11L154.23,272.21L158.91,275.26L163.30,277.34L167.19,278.57L170.42,279.14L172.87,279.24L174.47,279.09L175.20,278.92L175.09,278.98L174.23,279.47L172.75,280.58L170.83,282.47L168.67,285.26L166.50,289.01L164.56,293.74L163.08,299.4L162.30,305.90L162.40,313.09L163.56,320.79L165.90,328.78L169.48,336.83L174.33,344.68L180.42,352.06L187.65,358.75L195.87,364.53L204.92,369.21L214.57,372.65L224.57,374.75L234.67,375.49L244.61,374.86L254.14,372.96L263.02,369.89L271.07,365.83L278.13,360.99L284.09,355.58L288.89,349.86L292.55,344.09L295.11,338.49L296.69,333.30L297.43,328.71L297.53,324.87L297.20,321.88L296.69,319.79L296.01,318.21L296.32,318.61L297.32,319.59L299.14,320.95L301.88,322.49L305.58,323.95L310.23,325.1L315.77,325.70L322.09,325.53L329.00,324.39L336.32,322.16L343.81,318.71L351.20,314.00L358.26,308.05L364.71,300.90L370.33,292.68L374.91,283.55L378.27,273.72L380.30,263.43L380.93,252.94L380.15,242.51L378.00,232.40L374.58,222.87L370.03,214.14L364.56,206.39L358.39,199.76L351.76,194.32L344.94,190.12L338.18,187.13L331.72,185.26L325.78,184.38L320.55,184.31L316.16,184.85L312.69,185.76L310.18,186.79L308.60,187.70L307.87,188.26L307.86,188.25L308.40,187.51L309.26,185.91L310.23,183.37L311.04,179.87L311.46,175.44L311.25,170.17L310.20,164.21L308.13,157.73L304.91,150.97L300.46,144.17L294.76,137.60L287.85,131.50L279.80,126.15L270.77,121.76L260.94,118.53L250.54,116.62L239.83,116.11L229.08,117.05L218.56,119.43L208.54,123.17L199.26,128.14L190.93,134.18L183.73,141.05L177.76,148.52L173.09,156.33L169.72,164.21L167.60,171.88L166.62,179.12L166.62,185.72L167.40,191.49L168.74,196.33L170.38,200.18L172.08,203.01L173.57,204.89L174.63,205.91L175.06,206.24L174.71,206.06L173.45,205.61L171.24,205.12L168.07,204.87L164.00,205.08L159.16,206.00L153.69,207.83L147.81,210.72L141.76,214.78L135.80,220.08L130.20,226.61L125.22,234.31L121.10,243.06L118.07,252.69L116.30,262.99L115.93,273.72L117.02,284.59L119.59,295.34L123.60,305.68L128.94,315.34L135.45,324.10L142.94,331.76L151.17,338.16L159.87,343.22L168.76,346.89L177.57,349.20L186.05,350.24L193.94,350.14L201.06,349.08L207.24,347.29L212.39,345.00L216.47,342.49L219.49,340.02L221.54,337.83L222.73,336.15L223.25,335.17L223.30,335.04L223.15,335.85L223.03,337.63L223.21,340.35L223.94,343.93L225.44,348.24L227.90,353.08L231.47,358.24L236.22,363.45L242.19,368.45L249.36,372.96L257.63,376.73L266.86,379.50L276.86,381.09L287.38,381.32L298.17,380.11L308.95,377.38L319.41,373.18L329.29,367.56L338.33,360.66L346.30,352.66L353.02,343.80L358.37,334.33L362.27,324.53L364.72,314.69L365.78,305.09L365.54,295.98L364.19,287.61L361.92,280.14L358.98,273.73L355.63,268.44L352.14,264.29L348.78,261.25L345.81,259.20L343.43,258.00L341.83,257.44L341.13,257.29L341.41,257.29L342.67,257.19L344.86,256.71L347.88,255.61L351.56,253.68L355.69,250.74L360.03,246.68L364.31,241.43L368.26,234.98L371.61,227.38L374.08,218.76L375.46,209.28L375.56,199.18L374.24,188.69L371.43,178.10L367.10,167.70L361.29,157.79L354.13,148.64L345.75,140.51L336.39,133.59L326.30,128.06L315.73,124L305.00,121.47L294.40,120.44L284.21,120.83L274.68,122.50L266.02,125.25L258.42,128.85L251.99,133.04L246.77,137.55L242.75,142.09L239.88,146.39L238.01,150.21L236.98,153.33L236.55,155.60L236.47,156.91L236.49,157.21L236.32,156.51L235.7,154.90L234.40,152.50L232.21,149.50L228.98,146.14L224.60,142.66L219.04,139.36L212.32,136.50L204.52,134.37L195.78,133.21L186.31,133.23L176.34,134.62L166.15,137.46L156.03,141.83L146.29,147.70L137.20,155.01L129.05,163.61L122.07,173.30L116.45,183.87L112.33,195.02L109.78,206.48L108.81,217.92L109.38,229.06L111.36,239.61L114.58,249.32L118.84,258.01L123.86,265.51L129.37,271.73L135.09,276.65L140.71,280.31L145.98,282.80L150.66,284.28L154.54,284.96L157.48,285.07L159.41,284.89L160.29,284.69L160.16,284.75L159.13,285.33L157.37,286.66L155.07,288.94L152.49,292.28L149.89,296.77L147.57,302.44L145.81,309.22L144.88,317L145.01,325.62L146.41,334.84L149.21,344.42L153.51,354.05L159.33,363.44L166.63,372.29L175.29,380.30L185.16,387.21L196.00,392.80L207.56,396.91L219.54,399.42L231.64,400.29L243.55,399.53L254.95,397.24L265.59,393.56L275.23,388.69L283.68,382.88L290.81,376.40L296.56,369.55L300.93,362.62L304.00,355.92L305.88,349.70L306.76,344.20L306.88,339.59L306.48,336.00L305.86,333.5L305.05,331.61L305.42,332.08L306.61,333.24L308.78,334.87L312.05,336.70L316.47,338.44L322.03,339.81L328.65,340.52L336.20,340.31L344.46,338.95L353.20,336.27L362.14,332.14L370.98,326.51L379.40,319.38L387.10,310.83L393.81,301.00L399.26,290.10L403.27,278.35L405.69,266.05L406.43,253.51L405.48,241.05L402.90,228.98L398.80,217.60L393.37,207.17L386.82,197.92L379.44,190.00L371.52,183.52L363.36,178.51L355.28,174.94L347.56,172.71L340.47,171.66L334.21,171.59L328.97,172.24L324.82,173.33L321.82,174.57L319.93,175.66L319.06,176.33L319.04,176.33L319.67,175.45L320.70,173.55L321.84,170.52L322.81,166.35L323.31,161.07L323.05,154.80L321.79,147.69L319.31,139.98L315.47,131.93L310.16,123.83L303.36,116.00L295.11,108.75L285.52,102.38L274.75,97.16L263.03,93.33L250.64,91.06L237.88,90.46L225.07,91.60L212.54,94.44L200.61,98.91L189.56,104.85L179.65,112.04L171.07,120.25L163.97,129.16L158.41,138.46L154.41,147.85L151.89,157.00L150.74,165.62L150.75,173.48L151.69,180.36L153.29,186.13L155.25,190.70L157.27,194.08L159.05,196.32L160.33,197.54L160.85,197.93L160.43,197.73L158.94,197.19L156.32,196.62L152.56,196.32L147.73,196.58L141.97,197.68L135.48,199.86L128.50,203.30L121.32,208.13L114.25,214.44L107.60,222.20L101.69,231.35L96.81,241.75L93.22,253.20L91.13,265.44L90.70,278.18L92.01,291.10L95.08,303.86L99.85,316.14L106.21,327.61L113.96,338.01L122.86,347.09L132.64,354.69L142.98,360.68L153.55,365.03L164.02,367.77L174.08,368.99L183.46,368.86L191.91,367.60L199.25,365.45L205.37,362.74L210.22,359.75L213.81,356.80L216.23,354.19L217.65,352.19L218.26,351.03L218.34,350.86L218.15,351.81L218.02,353.91L218.24,357.13L219.11,361.37L220.89,366.47L223.81,372.20L228.03,378.30L233.66,384.46L240.75,390.38L249.24,395.71L259.04,400.16L269.98,403.43L281.82,405.30L294.28,405.56L307.06,404.11L319.82,400.87L332.20,395.88L343.90,389.21L354.59,381.02L364.01,371.55L371.96,361.05L378.28,349.83L382.89,338.22L385.78,326.56L387.01,315.19L386.73,304.41L385.11,294.50L382.41,285.66L378.92,278.07L374.95,271.81L370.81,266.91L366.83,263.30L363.30,260.88L360.48,259.46L358.58,258.79L357.74,258.62L358.06,258.62L359.54,258.49L362.12,257.93L365.68,256.63L370.01,254.35L374.89,250.88L380.00,246.08L385.05,239.87L389.71,232.25L393.64,223.28L396.55,213.10L398.17,201.92L398.27,189.98L396.70,177.60L393.36,165.11L388.24,152.84L381.37,141.15L372.90,130.37L363.01,120.77L351.95,112.63L340.03,106.10L327.56,101.33L314.89,98.36L302.38,97.16L290.35,97.63L279.10,99.61L268.90,102.87L259.93,107.13L252.34,112.09L246.19,117.42L241.46,122.78L238.07,127.87L235.87,132.38L234.65,136.07L234.15,138.76L234.06,140.31L234.08,140.67L233.88,139.86L233.15,137.97L231.62,135.15L229.05,131.63L225.24,127.68L220.09,123.60L213.55,119.72L205.64,116.37L196.46,113.87L186.18,112.52L175.04,112.56L163.31,114.20L151.33,117.57L139.43,122.72L127.97,129.64L117.30,138.24L107.72,148.37L99.52,159.79L92.93,172.22L88.10,185.35L85.11,198.82L83.99,212.28L84.67,225.38L87.02,237.78L90.83,249.21L95.84,259.41L101.76,268.22L108.25,275.53L114.98,281.31L121.60,285.61L127.80,288.53L133.31,290.27L137.88,291.06L141.35,291.19L143.62,290.97L144.66,290.73L144.52,290.80L143.33,291.48L141.26,293.04L138.57,295.70L135.55,299.62L132.52,304.89L129.81,311.53L127.75,319.48L126.67,328.60L126.84,338.7L128.49,349.51L131.79,360.73L136.85,372.02L143.69,383.02L152.25,393.38L162.42,402.75L173.99,410.84L186.70,417.38L200.26,422.18L214.31,425.11L228.49,426.11L242.44,425.21L255.80,422.50L268.27,418.18L279.55,412.45L289.44,405.63L297.79,398.02L304.52,389.98L309.63,381.86L313.22,374.00L315.41,366.71L316.44,360.26L316.57,354.85L316.10,350.65L315.37,347.71L314.41,345.49L314.84,346.02L316.22,347.38L318.75,349.27L322.57,351.40L327.73,353.43L334.23,355.02L341.96,355.84L350.77,355.58L360.42,353.98L370.63,350.83L381.06,346.00L391.38,339.41L401.20,331.07L410.19,321.08L418.00,309.59L424.36,296.84L429.03,283.11L431.83,268.75L432.68,254.1L431.55,239.55L428.52,225.46L423.72,212.17L417.36,200.01L409.70,189.21L401.07,179.97L391.81,172.42L382.27,166.58L372.83,162.42L363.81,159.83L355.53,158.62L348.22,158.54L342.09,159.31L337.25,160.59L333.75,162.04L331.53,163.33L330.50,164.12L330.48,164.13L331.20,163.11L332.39,160.90L333.72,157.39L334.84,152.53L335.40,146.40L335.10,139.10L333.62,130.83L330.73,121.86L326.24,112.5L320.06,103.09L312.13,93.98L302.52,85.56L291.35,78.16L278.81,72.10L265.17,67.66L250.75,65.03L235.90,64.36L221.00,65.70L206.42,69.03L192.55,74.25L179.70,81.17L168.18,89.56L158.22,99.11L149.97,109.49L143.52,120.32L138.88,131.25L135.96,141.89L134.63,151.93L134.65,161.07L135.76,169.08L137.63,175.79L139.92,181.11L142.28,185.04L144.36,187.65L145.85,189.07L146.47,189.53L145.99,189.30L144.28,188.69L141.24,188.03L136.89,187.69L131.30,188.00L124.63,189.28L117.11,191.81L109.03,195.81L100.71,201.43L92.52,208.74L84.82,217.75L77.98,228.37L72.34,240.43L68.20,253.71L65.80,267.90L65.32,282.67L66.85,297.64L70.43,312.43L75.98,326.65L83.36,339.94L92.36,351.98L102.70,362.49L114.04,371.28L126.03,378.21L138.28,383.24L150.42,386.39L162.09,387.79L172.95,387.63L182.75,386.15L191.25,383.65L198.34,380.49L203.95,377.02L208.11,373.60L210.93,370.57L212.57,368.24L213.29,366.88L213.37,366.67L213.16,367.76L213.01,370.17L213.27,373.88L214.28,378.77L216.34,384.65L219.72,391.26L224.61,398.30L231.12,405.41L239.31,412.23L249.12,418.37L260.44,423.49L273.08,427.26L286.75,429.39L301.15,429.68L315.90,427.98L330.62,424.22L344.92,418.44L358.41,410.72L370.74,401.26L381.60,390.30L390.76,378.16L398.04,365.20L403.34,351.80L406.66,338.34L408.07,325.21L407.72,312.77L405.84,301.32L402.71,291.13L398.67,282.37L394.07,275.15L389.28,269.49L384.68,265.34L380.60,262.54L377.33,260.90L375.13,260.13L374.15,259.93L374.50,259.93L376.19,259.78L379.16,259.13L383.24,257.63L388.22,255.01L393.81,251.01L399.69,245.49L405.49,238.34L410.83,229.57L415.34,219.25L418.67,207.53L420.51,194.67L420.61,180.94L418.79,166.70L414.93,152.34L409.01,138.24L401.10,124.81L391.34,112.42L379.96,101.40L367.23,92.05L353.50,84.57L339.16,79.10L324.59,75.71L310.2,74.35L296.37,74.91L283.44,77.20L271.71,80.96L261.41,85.88L252.69,91.59L245.62,97.73L240.19,103.90L236.30,109.75L233.78,114.95L232.38,119.21L231.8,122.30L231.70,124.10L231.73,124.53L231.50,123.61L230.67,121.45L228.92,118.24L225.96,114.22L221.60,109.70L215.70,105.03L208.20,100.60L199.13,96.77L188.61,93.93L176.84,92.39L164.07,92.46L150.64,94.36L136.92,98.23L123.3,104.15L110.19,112.10L97.97,121.97L87.02,133.58L77.65,146.67L70.11,160.92L64.60,175.96L61.20,191.40L59.94,206.81L60.74,221.81L63.45,236.01L67.82,249.09L73.58,260.77L80.37,270.85L87.82,279.22L95.53,285.82L103.13,290.73L110.24,294.07L116.54,296.05L121.79,296.95L125.77,297.09L128.38,296.84L129.58,296.56L129.44,296.64L128.09,297.41L125.74,299.18L122.69,302.22L119.25,306.69L115.79,312.70L112.71,320.28L110.38,329.35L109.16,339.76L109.37,351.28L111.27,363.62L115.05,376.41L120.84,389.28L128.66,401.82L138.45,413.63L150.06,424.31L163.27,433.52L177.79,440.96L193.26,446.41L209.29,449.73L225.47,450.84L241.38,449.79L256.62,446.69L270.82,441.73L283.69,435.19L294.96,427.39L304.47,418.70L312.13,409.52L317.95,400.25L322.02,391.28L324.52,382.96L325.68,375.59L325.82,369.42L325.28,364.62L324.44,361.26L323.33,358.72L323.81,359.32L325.38,360.84L328.25,362.99L332.59,365.40L338.45,367.70L345.84,369.49L354.63,370.41L364.63,370.10L375.60,368.27L387.19,364.68L399.04,359.17L410.75,351.66L421.91,342.17L432.10,330.80L440.97,317.73L448.17,303.23L453.45,287.63L456.61,271.30L457.55,254.66L456.25,238.13L452.78,222.12L447.31,207.04L440.06,193.22L431.35,180.97L421.52,170.49L410.99,161.92L400.15,155.30L389.41,150.60L379.17,147.67L369.75,146.30L361.45,146.23L354.48,147.11L348.98,148.57L344.99,150.23L342.47,151.70L341.29,152.61L341.25,152.63L342.06,151.49L343.40,149.00L344.89,145.02L346.15,139.53L346.78,132.59L346.42,124.33L344.74,114.98L341.45,104.84L336.37,94.25L329.35,83.60L320.37,73.31L309.47,63.79L296.81,55.43L282.61,48.60L267.17,43.59L250.85,40.64L234.04,39.90L217.18,41.44L200.69,45.23L185.00,51.16L170.48,59.01L157.45,68.52L146.19,79.35L136.88,91.10L129.60,103.37L124.36,115.73L121.08,127.78L119.59,139.14L119.63,149.49L120.89,158.55L123.02,166.14L125.63,172.17L128.31,176.62L130.67,179.57L132.37,181.19L133.08,181.71L132.55,181.46L130.63,180.77L127.21,180.04L122.31,179.66L116.01,180.02L108.50,181.47L100.04,184.34L90.93,188.85L81.57,195.20L72.34,203.46L63.68,213.63L55.99,225.60L49.65,239.21L45.00,254.18L42.32,270.18L41.80,286.83L43.56,303.70L47.61,320.36L53.89,336.38L62.23,351.35L72.39,364.90L84.05,376.73L96.85,386.61L110.37,394.40L124.19,400.05L137.87,403.59L151.02,405.15L163.26,404.94L174.29,403.26L183.88,400.44L191.86,396.86L198.18,392.94L202.87,389.07L206.04,385.65L207.89,383.01L208.70,381.47L208.81,381.22L208.58,382.43L208.41,385.13L208.70,389.28L209.84,394.76L212.17,401.36L215.97,408.77L221.46,416.66L228.78,424.63L237.98,432.27L249.01,439.16L261.73,444.89L275.92,449.10L291.28,451.47L307.44,451.77L324.00,449.84L340.51,445.60L356.55,439.08L371.68,430.40L385.51,419.76L397.69,407.45L407.94,393.81L416.09,379.25L422.02,364.20L425.73,349.09L427.29,334.35L426.88,320.39L424.75,307.55L421.22,296.11L416.67,286.29L411.49,278.19L406.12,271.85L400.94,267.19L396.35,264.05L392.67,262.21L390.18,261.35L389.08,261.12L389.45,261.13L391.33,260.96L394.63,260.22L399.19,258.55L404.75,255.60L410.99,251.13L417.55,244.95L424.02,236.95L429.98,227.13L435.01,215.59L438.71,202.49L440.75,188.10L440.85,172.75L438.78,156.83L434.45,140.78L427.81,125.03L418.95,110.02L408.02,96.18L395.27,83.89L381.03,73.45L365.68,65.11L349.63,59.02L333.34,55.25L317.26,53.75L301.80,54.40L287.35,56.99L274.25,61.21L262.74,66.72L253.00,73.12L245.11,79.99L239.05,86.90L234.71,93.45L231.90,99.27L230.33,104.03L229.69,107.50L229.59,109.52L229.61,110.02L229.36,109.01L228.44,106.62L226.49,103.05L223.20,98.58L218.34,93.56L211.76,88.38L203.40,83.45L193.30,79.21L181.58,76.05L168.47,74.36L154.25,74.46L139.30,76.59L124.03,80.92L108.87,87.53L94.28,96.40L80.69,107.41L68.51,120.36L58.10,134.95L49.73,150.83L43.61,167.58L39.86,184.77L38.48,201.94L39.39,218.63L42.42,234.44L47.32,248.99L53.74,261.98L61.32,273.19L69.62,282.49L78.22,289.84L86.68,295.29L94.61,299.00L101.64,301.19L107.48,302.19L111.92,302.34L114.84,302.06L116.19,301.74L116.04,301.82L114.56,302.67L111.97,304.64L108.59,308.00L104.78,312.96L100.97,319.63L97.56,328.04L94.99,338.10L93.65,349.65L93.90,362.43L96.02,376.10L100.24,390.29L106.68,404.56L115.37,418.46L126.24,431.53L139.14,443.36L153.80,453.55L169.91,461.78L187.08,467.81L204.86,471.46L222.80,472.67L240.44,471.48L257.33,468.02L273.08,462.50L287.33,455.23L299.82,446.56L310.35,436.92L318.83,426.73L325.27,416.44L329.77,406.48L332.53,397.25L333.81,389.07L333.95,382.23L333.34,376.90L332.4,373.17"/>

  </g>
    <style>
        path {

            stroke-dasharray: 16446;
            stroke-dashoffset: 16446;
            animation: draw 60s linear forwards;
          }
          
          @keyframes draw {
            from {
              stroke-dashoffset: 16446;
            }
          
            to {
              stroke-dashoffset: 0;
            }
          }

          @-webkit-keyframes draw {
              to {
                  stroke-dashoffset: 0;
              }
          }          
          
    </style>  

</svg>
