<?xml version="1.0" standalone="no"?>
<!DOCTYPE svg PUBLIC "-//W3C//DTD SVG 1.1//EN" "http://www.w3.org/Graphics/SVG/1.1/DTD/svg11.dtd">
<svg width="500" height="500" title="polygons" version="1.1" viewBox="0 0 500 500" xmlns="http://www.w3.org/2000/svg" class="svg-paper">
  <g>
    <!--  Created by Sandify -->
    <!--  https://sandify.org -->
    <!--  Version: 0.2.8 -->

    <!--  Machine type: Rectangular -->
    <!--    Min X (mm): 0 -->
    <!--    Max X (mm): 500 -->
    <!--    Min Y (mm): 0 -->
    <!--    Max Y (mm): 500 -->
    <!--  Content type: shape -->
    <!--  Layer: -->
    <!--    Shape: Fractal Line Writer -->
    <!--    Name: fractal line writer -->
    <!--    Type: Fractal Tree 4 -->
    <!--    Iterations: 4 -->
    <!--    Visible: true -->
    <!--    Initial width: 20 -->
    <!--    Initial height: 20 -->
    <!--    X offset: 0 -->
    <!--    Y offset: 0 -->
    <!--    Rotate (degrees): 0 -->
    <!--    Reverse path: false -->
    <!--    Fine tuning: -->
    <!--      Connect to next layer: line -->
    <!--      Draw portion of path (%): 100 -->
    <!--      Backtrack at end (%): 0 -->
    <!--      Rotate starting point (%): 0 -->
    <!--  Reverse export path: false -->

    <!-- File name: 'factoral line writer' -->
    <!-- File type: svg -->


    <desc>pwidth:500;pheight:500;</desc>
    <path
       stroke="white"
       stroke-width="0.2mm"
       fill="black"
       d="M350.97,430L350.97,430L350.97,420.64L350.97,411.29L347.4,402.64L350.97,411.29L350.97,420.64L350.97,411.29L350.97,401.93L344.35,395.31L350.97,401.93L347.4,393.29L350.97,401.93L350.97,392.58L350.97,383.22L347.4,374.58L350.97,383.22L350.97,392.58L350.97,383.22L350.97,373.87L344.35,367.24L350.97,373.87L347.4,365.22L350.97,373.87L347.4,365.22L343.83,356.58L335.18,353.00L343.83,356.58L337.20,349.95L343.83,356.58L340.25,347.93L336.68,339.29L330.06,332.67L336.68,339.29L340.25,347.93L343.83,356.58L347.4,365.22L350.97,373.87L350.97,383.22L350.97,392.58L350.97,401.93L350.97,392.58L350.97,383.22L347.4,374.58L350.97,383.22L350.97,392.58L350.97,383.22L350.97,373.87L347.4,365.22L350.97,373.87L350.97,383.22L347.4,374.58L343.83,365.93L335.18,362.36L343.83,365.93L337.20,359.31L343.83,365.93L337.20,359.31L337.20,349.95L337.20,359.31L343.83,365.93L335.18,362.36L326.54,358.79L317.89,362.36L326.54,358.79L317.18,358.79L326.54,358.79L319.91,352.16L313.29,345.54L304.65,341.97L313.29,345.54L319.91,352.16L310.56,352.16L303.94,345.54L310.56,352.16L319.91,352.16L311.27,348.59L302.63,345.01L293.98,348.59L302.63,345.01L293.27,345.01L302.63,345.01L311.27,348.59L319.91,352.16L326.54,358.79L335.18,362.36L343.83,365.93L347.4,374.58L350.97,383.22L354.55,374.58L358.12,365.93L354.55,357.29L358.12,365.93L358.12,356.58L358.12,365.93L354.55,357.29L350.97,348.64L344.35,342.02L350.97,348.64L354.55,357.29L354.55,347.93L354.55,338.58L347.92,331.95L354.55,338.58L350.97,329.93L354.55,338.58L354.55,347.93L354.55,357.29L358.12,365.93L354.55,374.58L350.97,383.22L350.97,373.87L350.97,364.51L347.4,355.87L350.97,364.51L350.97,373.87L350.97,364.51L350.97,355.16L344.35,348.53L350.97,355.16L347.4,346.51L350.97,355.16L350.97,345.8L350.97,336.44L347.4,327.8L350.97,336.44L350.97,345.8L350.97,336.44L350.97,327.09L344.35,320.47L350.97,327.09L347.4,318.44L350.97,327.09L347.4,318.44L343.83,309.8L335.18,306.23L343.83,309.8L337.20,303.18L343.83,309.8L340.25,301.16L336.68,292.51L330.06,285.89L336.68,292.51L340.25,301.16L343.83,309.8L347.4,318.44L350.97,327.09L350.97,336.44L350.97,345.8L350.97,355.16L350.97,345.8L350.97,336.44L347.4,327.8L350.97,336.44L350.97,345.8L350.97,336.44L350.97,327.09L347.4,318.44L350.97,327.09L350.97,336.44L347.4,327.8L343.83,319.16L335.18,315.58L343.83,319.16L337.20,312.53L343.83,319.16L337.20,312.53L337.20,303.18L337.20,312.53L343.83,319.16L335.18,315.58L326.54,312.01L317.89,315.58L326.54,312.01L317.18,312.01L326.54,312.01L319.91,305.38L313.29,298.76L304.65,295.19L313.29,298.76L319.91,305.38L310.56,305.38L303.94,298.76L310.56,305.38L319.91,305.38L311.27,301.81L302.63,298.24L293.98,301.81L302.63,298.24L293.27,298.24L302.63,298.24L311.27,301.81L319.91,305.38L326.54,312.01L335.18,315.58L343.83,319.16L347.4,327.8L350.97,336.44L354.55,327.8L358.12,319.16L354.55,310.51L358.12,319.16L358.12,309.8L358.12,319.16L354.55,310.51L350.97,301.87L344.35,295.24L350.97,301.87L354.55,310.51L354.55,301.16L354.55,291.8L347.92,285.18L354.55,291.8L350.97,283.16L354.55,291.8L354.55,301.16L354.55,310.51L358.12,319.16L354.55,327.8L350.97,336.44L347.4,327.8L343.83,319.16L337.20,312.53L343.83,319.16L347.4,327.8L343.83,319.16L340.25,310.51L333.63,303.89L340.25,310.51L343.83,319.16L337.20,312.53L330.58,305.91L321.22,305.91L330.58,305.91L321.94,302.34L330.58,305.91L321.94,302.34L318.36,293.69L321.94,302.34L330.58,305.91L321.22,305.91L311.87,305.91L305.24,312.53L311.87,305.91L303.22,309.48L311.87,305.91L303.22,302.34L294.58,298.76L285.22,298.76L294.58,298.76L303.22,302.34L294.58,305.91L285.94,302.34L294.58,305.91L303.22,302.34L293.87,302.34L284.51,302.34L277.89,308.96L284.51,302.34L275.87,305.91L284.51,302.34L293.87,302.34L303.22,302.34L311.87,305.91L321.22,305.91L330.58,305.91L337.20,312.53L343.83,319.16L343.83,309.8L343.83,300.44L337.20,293.82L343.83,300.44L340.25,291.8L343.83,300.44L337.20,293.82L330.58,287.20L321.94,283.62L330.58,287.20L337.20,293.82L333.63,285.18L330.06,276.53L321.41,272.96L330.06,276.53L323.43,269.91L330.06,276.53L333.63,285.18L337.20,293.82L343.83,300.44L343.83,309.8L343.83,319.16L340.25,310.51L336.68,301.87L330.06,295.24L336.68,301.87L340.25,310.51L336.68,301.87L333.11,293.22L324.46,289.65L333.11,293.22L326.48,286.60L333.11,293.22L329.53,284.58L325.96,275.93L319.33,269.31L325.96,275.93L329.53,284.58L325.96,275.93L322.38,267.29L313.74,263.72L322.38,267.29L315.76,260.66L322.38,267.29L315.76,260.66L309.14,254.04L299.78,254.04L309.14,254.04L300.49,250.47L309.14,254.04L302.51,247.42L295.89,240.79L287.24,237.22L295.89,240.79L302.51,247.42L309.14,254.04L315.76,260.66L322.38,267.29L325.96,275.93L329.53,284.58L333.11,293.22L336.68,301.87L340.25,310.51L343.83,319.16L347.4,327.8L350.97,336.44L350.97,345.8L350.97,355.16L350.97,364.51L350.97,373.87L350.97,383.22L350.97,373.87L350.97,364.51L347.4,355.87L350.97,364.51L350.97,373.87L350.97,364.51L350.97,355.16L344.35,348.53L350.97,355.16L347.4,346.51L350.97,355.16L350.97,345.8L350.97,336.44L347.4,327.8L350.97,336.44L350.97,345.8L350.97,336.44L350.97,327.09L344.35,320.47L350.97,327.09L347.4,318.44L350.97,327.09L347.4,318.44L343.83,309.8L335.18,306.23L343.83,309.8L337.20,303.18L343.83,309.8L340.25,301.16L336.68,292.51L330.06,285.89L336.68,292.51L340.25,301.16L343.83,309.8L347.4,318.44L350.97,327.09L350.97,336.44L350.97,345.8L350.97,355.16L350.97,345.8L350.97,336.44L347.4,327.8L350.97,336.44L350.97,345.8L350.97,336.44L350.97,327.09L347.4,318.44L350.97,327.09L350.97,336.44L347.4,327.8L343.83,319.16L335.18,315.58L343.83,319.16L337.20,312.53L343.83,319.16L337.20,312.53L337.20,303.18L337.20,312.53L343.83,319.16L335.18,315.58L326.54,312.01L317.89,315.58L326.54,312.01L317.18,312.01L326.54,312.01L319.91,305.38L313.29,298.76L304.65,295.19L313.29,298.76L319.91,305.38L310.56,305.38L303.94,298.76L310.56,305.38L319.91,305.38L311.27,301.81L302.63,298.24L293.98,301.81L302.63,298.24L293.27,298.24L302.63,298.24L311.27,301.81L319.91,305.38L326.54,312.01L335.18,315.58L343.83,319.16L347.4,327.8L350.97,336.44L354.55,327.8L358.12,319.16L354.55,310.51L358.12,319.16L358.12,309.8L358.12,319.16L354.55,310.51L350.97,301.87L344.35,295.24L350.97,301.87L354.55,310.51L354.55,301.16L354.55,291.8L347.92,285.18L354.55,291.8L350.97,283.16L354.55,291.8L354.55,301.16L354.55,310.51L358.12,319.16L354.55,327.8L350.97,336.44L350.97,327.09L350.97,317.73L347.4,309.09L350.97,317.73L350.97,327.09L350.97,317.73L350.97,308.38L344.35,301.75L350.97,308.38L347.4,299.73L350.97,308.38L350.97,299.02L350.97,289.67L347.4,281.02L350.97,289.67L350.97,299.02L350.97,289.67L350.97,280.31L344.35,273.69L350.97,280.31L347.4,271.67L350.97,280.31L347.4,271.67L343.83,263.02L335.18,259.45L343.83,263.02L337.20,256.40L343.83,263.02L340.25,254.38L336.68,245.73L330.06,239.11L336.68,245.73L340.25,254.38L343.83,263.02L347.4,271.67L350.97,280.31L350.97,289.67L350.97,299.02L350.97,308.38L350.97,299.02L350.97,289.67L347.4,281.02L350.97,289.67L350.97,299.02L350.97,289.67L350.97,280.31L347.4,271.67L350.97,280.31L350.97,289.67L347.4,281.02L343.83,272.38L335.18,268.81L343.83,272.38L337.20,265.75L343.83,272.38L337.20,265.75L337.20,256.40L337.20,265.75L343.83,272.38L335.18,268.81L326.54,265.23L317.89,268.81L326.54,265.23L317.18,265.23L326.54,265.23L319.91,258.61L313.29,251.98L304.65,248.41L313.29,251.98L319.91,258.61L310.56,258.61L303.94,251.98L310.56,258.61L319.91,258.61L311.27,255.03L302.63,251.46L293.98,255.03L302.63,251.46L293.27,251.46L302.63,251.46L311.27,255.03L319.91,258.61L326.54,265.23L335.18,268.81L343.83,272.38L347.4,281.02L350.97,289.67L354.55,281.02L358.12,272.38L354.55,263.73L358.12,272.38L358.12,263.02L358.12,272.38L354.55,263.73L350.97,255.09L344.35,248.47L350.97,255.09L354.55,263.73L354.55,254.38L354.55,245.02L347.92,238.40L354.55,245.02L350.97,236.38L354.55,245.02L354.55,254.38L354.55,263.73L358.12,272.38L354.55,281.02L350.97,289.67L347.4,281.02L343.83,272.38L337.20,265.75L343.83,272.38L347.4,281.02L343.83,272.38L340.25,263.73L333.63,257.11L340.25,263.73L343.83,272.38L337.20,265.75L330.58,259.13L321.22,259.13L330.58,259.13L321.94,255.56L330.58,259.13L321.94,255.56L318.36,246.91L321.94,255.56L330.58,259.13L321.22,259.13L311.87,259.13L305.24,265.75L311.87,259.13L303.22,262.71L311.87,259.13L303.22,255.56L294.58,251.98L285.22,251.98L294.58,251.98L303.22,255.56L294.58,259.13L285.94,255.56L294.58,259.13L303.22,255.56L293.87,255.56L284.51,255.56L277.89,262.18L284.51,255.56L275.87,259.13L284.51,255.56L293.87,255.56L303.22,255.56L311.87,259.13L321.22,259.13L330.58,259.13L337.20,265.75L343.83,272.38L343.83,263.02L343.83,253.67L337.20,247.04L343.83,253.67L340.25,245.02L343.83,253.67L337.20,247.04L330.58,240.42L321.94,236.85L330.58,240.42L337.20,247.04L333.63,238.40L330.06,229.75L321.41,226.18L330.06,229.75L323.43,223.13L330.06,229.75L333.63,238.40L337.20,247.04L343.83,253.67L343.83,263.02L343.83,272.38L340.25,263.73L336.68,255.09L330.06,248.47L336.68,255.09L340.25,263.73L336.68,255.09L333.11,246.44L324.46,242.87L333.11,246.44L326.48,239.82L333.11,246.44L329.53,237.8L325.96,229.16L319.33,222.53L325.96,229.16L329.53,237.8L325.96,229.16L322.38,220.51L313.74,216.94L322.38,220.51L315.76,213.89L322.38,220.51L315.76,213.89L309.14,207.26L299.78,207.26L309.14,207.26L300.49,203.69L309.14,207.26L302.51,200.64L295.89,194.02L287.24,190.44L295.89,194.02L302.51,200.64L309.14,207.26L315.76,213.89L322.38,220.51L325.96,229.16L329.53,237.8L333.11,246.44L336.68,255.09L340.25,263.73L343.83,272.38L347.4,281.02L350.97,289.67L350.97,299.02L350.97,308.38L350.97,317.73L350.97,327.09L350.97,336.44L347.4,327.8L343.83,319.16L337.20,312.53L343.83,319.16L347.4,327.8L343.83,319.16L340.25,310.51L331.61,306.94L340.25,310.51L333.63,303.89L340.25,310.51L336.68,301.87L333.11,293.22L326.48,286.60L333.11,293.22L336.68,301.87L333.11,293.22L329.53,284.58L320.89,281.00L329.53,284.58L322.91,277.95L329.53,284.58L322.91,277.95L316.28,271.33L306.93,271.33L316.28,271.33L307.64,267.76L316.28,271.33L309.66,264.71L303.04,258.08L294.39,254.51L303.04,258.08L309.66,264.71L316.28,271.33L322.91,277.95L329.53,284.58L333.11,293.22L336.68,301.87L340.25,310.51L336.68,301.87L333.11,293.22L326.48,286.60L333.11,293.22L336.68,301.87L333.11,293.22L329.53,284.58L320.89,281.00L329.53,284.58L322.91,277.95L329.53,284.58L325.96,275.93L322.38,267.29L315.76,260.66L322.38,267.29L325.96,275.93L322.38,267.29L318.81,258.64L310.17,255.07L318.81,258.64L312.19,252.02L318.81,258.64L312.19,252.02L305.56,245.40L296.21,245.40L305.56,245.40L296.92,241.82L305.56,245.40L298.94,238.77L292.31,232.15L283.67,228.58L292.31,232.15L298.94,238.77L305.56,245.40L312.19,252.02L318.81,258.64L322.38,267.29L325.96,275.93L329.53,284.58L322.91,277.95L316.28,271.33L307.64,267.76L316.28,271.33L322.91,277.95L316.28,271.33L309.66,264.71L301.02,261.13L309.66,264.71L316.28,271.33L307.64,267.76L299.00,264.18L290.35,267.76L299.00,264.18L289.64,264.18L299.00,264.18L289.64,264.18L283.02,257.56L289.64,264.18L299.00,264.18L290.35,267.76L281.71,271.33L278.13,279.98L281.71,271.33L275.08,277.95L281.71,271.33L272.35,271.33L263.00,271.33L254.35,274.90L263.00,271.33L272.35,271.33L265.73,277.95L256.37,277.95L265.73,277.95L272.35,271.33L263.71,274.90L255.06,278.48L251.49,287.12L255.06,278.48L248.44,285.10L255.06,278.48L263.71,274.90L272.35,271.33L281.71,271.33L290.35,267.76L299.00,264.18L307.64,267.76L316.28,271.33L312.71,262.69L309.14,254.04L300.49,250.47L309.14,254.04L302.51,247.42L309.14,254.04L300.49,250.47L291.85,246.89L282.49,246.89L291.85,246.89L300.49,250.47L293.87,243.84L287.24,237.22L277.89,237.22L287.24,237.22L278.6,233.65L287.24,237.22L293.87,243.84L300.49,250.47L309.14,254.04L312.71,262.69L316.28,271.33L307.64,267.76L299.00,264.18L289.64,264.18L299.00,264.18L307.64,267.76L301.02,261.13L294.39,254.51L285.04,254.51L294.39,254.51L285.75,250.94L294.39,254.51L290.82,245.87L287.24,237.22L280.62,230.60L287.24,237.22L290.82,245.87L294.39,254.51L301.02,261.13L307.64,267.76L316.28,271.33L307.64,274.90L299.00,271.33L307.64,274.90L316.28,271.33L306.93,271.33L297.57,271.33L290.95,277.95L297.57,271.33L288.93,274.90L297.57,271.33L306.93,271.33L316.28,271.33L306.93,271.33L297.57,271.33L288.93,274.90L297.57,271.33L306.93,271.33L297.57,271.33L288.22,271.33L279.57,274.90L288.22,271.33L297.57,271.33L288.93,274.90L280.28,278.48L276.71,287.12L280.28,278.48L273.66,285.10L280.28,278.48L273.66,285.10L264.31,285.10L273.66,285.10L280.28,278.48L276.71,287.12L273.14,295.77L276.71,304.41L273.14,295.77L273.14,305.12L273.14,295.77L266.51,302.39L259.89,309.01L256.31,317.66L259.89,309.01L266.51,302.39L266.51,311.75L259.89,318.37L266.51,311.75L266.51,302.39L262.94,311.03L259.37,319.68L262.94,328.32L259.37,319.68L259.37,329.03L259.37,319.68L262.94,311.03L266.51,302.39L273.14,295.77L276.71,287.12L280.28,278.48L288.93,274.90L297.57,271.33L288.93,267.76L280.28,264.18L271.64,267.76L280.28,264.18L270.93,264.18L280.28,264.18L271.64,267.76L263.00,271.33L256.37,277.95L263.00,271.33L271.64,267.76L262.28,267.76L252.93,267.76L246.31,274.38L252.93,267.76L244.28,271.33L252.93,267.76L262.28,267.76L271.64,267.76L280.28,264.18L288.93,267.76L297.57,271.33L288.93,267.76L280.28,264.18L270.93,264.18L280.28,264.18L288.93,267.76L280.28,264.18L271.64,260.61L263.00,264.18L271.64,260.61L262.28,260.61L271.64,260.61L263.00,257.03L254.35,253.46L245.00,253.46L254.35,253.46L263.00,257.03L254.35,253.46L245.71,249.89L237.06,253.46L245.71,249.89L236.35,249.89L245.71,249.89L236.35,249.89L227.00,249.89L220.37,256.51L227.00,249.89L218.35,253.46L227.00,249.89L217.64,249.89L208.28,249.89L199.64,253.46L208.28,249.89L217.64,249.89L227.00,249.89L236.35,249.89L245.71,249.89L254.35,253.46L263.00,257.03L271.64,260.61L263.00,264.18L254.35,267.76L247.73,274.38L254.35,267.76L263.00,264.18L253.64,264.18L244.28,264.18L237.66,270.81L244.28,264.18L235.64,267.76L244.28,264.18L235.64,260.61L227.00,257.03L217.64,257.03L227.00,257.03L235.64,260.61L244.28,264.18L253.64,264.18L263.00,264.18L271.64,260.61L268.06,269.25L259.42,272.83L268.06,269.25L271.64,260.61L265.02,267.23L258.39,273.86L258.39,283.21L258.39,273.86L254.82,282.50L258.39,273.86L265.02,267.23L271.64,260.61L262.28,260.61L252.93,260.61L244.28,264.18L252.93,260.61L262.28,260.61L252.93,260.61L243.57,260.61L234.93,264.18L243.57,260.61L252.93,260.61L244.28,264.18L235.64,267.76L232.06,276.40L235.64,267.76L229.02,274.38L235.64,267.76L229.02,274.38L219.66,274.38L229.02,274.38L235.64,267.76L232.06,276.40L228.49,285.05L232.06,293.69L228.49,285.05L228.49,294.40L228.49,285.05L221.87,291.67L215.24,298.29L211.67,306.94L215.24,298.29L221.87,291.67L221.87,301.02L215.24,307.65L221.87,301.02L221.87,291.67L218.29,300.31L214.72,308.96L218.29,317.60L214.72,308.96L214.72,318.31L214.72,308.96L218.29,300.31L221.87,291.67L228.49,285.05L232.06,276.40L235.64,267.76L244.28,264.18L252.93,260.61L244.28,257.03L235.64,253.46L227.00,257.03L235.64,253.46L226.28,253.46L235.64,253.46L227.00,257.03L218.35,260.61L211.73,267.23L218.35,260.61L227.00,257.03L217.64,257.03L208.28,257.03L201.66,263.66L208.28,257.03L199.64,260.61L208.28,257.03L217.64,257.03L227.00,257.03L235.64,253.46L244.28,257.03L252.93,260.61L262.28,260.61L271.64,260.61L280.28,264.18L288.93,267.76L297.57,271.33L306.93,271.33L316.28,271.33L322.91,277.95L329.53,284.58L329.53,275.22L329.53,265.87L325.96,257.22L329.53,265.87L329.53,275.22L329.53,265.87L329.53,256.51L325.96,247.87L329.53,256.51L329.53,265.87L325.96,257.22L322.38,248.58L313.74,245.00L322.38,248.58L315.76,241.95L322.38,248.58L315.76,241.95L315.76,232.60L315.76,241.95L322.38,248.58L313.74,245.00L305.10,241.43L296.45,245.00L305.10,241.43L295.74,241.43L305.10,241.43L298.47,234.81L291.85,228.18L283.20,224.61L291.85,228.18L298.47,234.81L289.12,234.81L282.49,228.18L289.12,234.81L298.47,234.81L289.83,231.23L281.18,227.66L272.54,231.23L281.18,227.66L271.83,227.66L281.18,227.66L289.83,231.23L298.47,234.81L305.10,241.43L313.74,245.00L322.38,248.58L325.96,257.22L329.53,265.87L333.11,257.22L336.68,248.58L333.11,239.93L336.68,248.58L336.68,239.22L336.68,248.58L333.11,239.93L329.53,231.29L322.91,224.67L329.53,231.29L333.11,239.93L333.11,230.58L333.11,221.22L326.48,214.60L333.11,221.22L329.53,212.58L333.11,221.22L333.11,230.58L333.11,239.93L336.68,248.58L333.11,257.22L329.53,265.87L322.91,259.24L316.28,252.62L307.64,249.05L316.28,252.62L322.91,259.24L316.28,252.62L309.66,246.00L300.31,246.00L309.66,246.00L301.02,242.42L309.66,246.00L303.04,239.37L296.41,232.75L287.77,229.18L296.41,232.75L303.04,239.37L296.41,232.75L289.79,226.13L280.43,226.13L289.79,226.13L281.14,222.55L289.79,226.13L281.14,222.55L272.5,218.98L263.86,222.55L272.5,218.98L263.14,218.98L272.5,218.98L263.86,215.40L255.21,211.83L245.86,211.83L255.21,211.83L263.86,215.40L272.5,218.98L281.14,222.55L289.79,226.13L296.41,232.75L303.04,239.37L309.66,246.00L306.09,237.35L302.51,228.71L295.89,222.08L302.51,228.71L306.09,237.35L302.51,228.71L298.94,220.06L292.31,213.44L298.94,220.06L302.51,228.71L295.89,222.08L289.26,215.46L279.91,215.46L289.26,215.46L280.62,211.89L289.26,215.46L280.62,211.89L277.05,203.24L280.62,211.89L289.26,215.46L279.91,215.46L270.55,215.46L263.93,222.08L270.55,215.46L261.91,219.03L270.55,215.46L261.91,211.89L253.26,208.31L243.91,208.31L253.26,208.31L261.91,211.89L253.26,215.46L244.62,211.89L253.26,215.46L261.91,211.89L252.55,211.89L243.20,211.89L236.57,218.51L243.20,211.89L234.55,215.46L243.20,211.89L252.55,211.89L261.91,211.89L270.55,215.46L279.91,215.46L289.26,215.46L295.89,222.08L302.51,228.71L302.51,219.35L302.51,210.00L295.89,203.37L302.51,210.00L298.94,201.35L302.51,210.00L295.89,203.37L289.26,196.75L280.62,193.18L289.26,196.75L295.89,203.37L292.31,194.73L288.74,186.08L280.10,182.51L288.74,186.08L282.12,179.46L288.74,186.08L292.31,194.73L295.89,203.37L302.51,210.00L302.51,219.35L302.51,228.71L306.09,237.35L309.66,246.00L316.28,252.62L322.91,259.24L329.53,265.87L329.53,275.22L329.53,284.58L322.91,277.95L316.28,271.33L307.64,267.76L316.28,271.33L322.91,277.95L316.28,271.33L309.66,264.71L300.31,264.71L309.66,264.71L301.02,261.13L309.66,264.71L303.04,258.08L296.41,251.46L287.77,247.89L296.41,251.46L303.04,258.08L296.41,251.46L289.79,244.84L280.43,244.84L289.79,244.84L281.14,241.26L289.79,244.84L281.14,241.26L272.5,237.69L263.86,241.26L272.5,237.69L263.14,237.69L272.5,237.69L263.86,234.11L255.21,230.54L245.86,230.54L255.21,230.54L263.86,234.11L272.5,237.69L281.14,241.26L289.79,244.84L296.41,251.46L303.04,258.08L309.66,264.71L306.09,256.06L302.51,247.42L295.89,240.79L302.51,247.42L306.09,256.06L302.51,247.42L298.94,238.77L292.31,232.15L298.94,238.77L302.51,247.42L295.89,240.79L289.26,234.17L279.91,234.17L289.26,234.17L280.62,230.60L289.26,234.17L280.62,230.60L277.05,221.95L280.62,230.60L289.26,234.17L279.91,234.17L270.55,234.17L263.93,240.79L270.55,234.17L261.91,237.74L270.55,234.17L261.91,230.60L253.26,227.02L243.91,227.02L253.26,227.02L261.91,230.60L253.26,234.17L244.62,230.60L253.26,234.17L261.91,230.60L252.55,230.60L243.20,230.60L236.57,237.22L243.20,230.60L234.55,234.17L243.20,230.60L252.55,230.60L261.91,230.60L270.55,234.17L279.91,234.17L289.26,234.17L295.89,240.79L302.51,247.42L302.51,238.06L302.51,228.71L295.89,222.08L302.51,228.71L298.94,220.06L302.51,228.71L295.89,222.08L289.26,215.46L280.62,211.89L289.26,215.46L295.89,222.08L292.31,213.44L288.74,204.79L280.10,201.22L288.74,204.79L282.12,198.17L288.74,204.79L292.31,213.44L295.89,222.08L302.51,228.71L302.51,238.06L302.51,247.42L302.51,238.06L302.51,228.71L298.94,220.06L302.51,228.71L302.51,238.06L302.51,228.71L302.51,219.35L295.89,212.73L302.51,219.35L298.94,210.71L302.51,219.35L302.51,210.00L302.51,200.64L298.94,192.00L302.51,200.64L302.51,210.00L302.51,200.64L302.51,191.28L295.89,184.66L302.51,191.28L298.94,182.64L302.51,191.28L298.94,182.64L295.37,174.00L286.72,170.42L295.37,174.00L288.74,167.37L295.37,174.00L291.79,165.35L288.22,156.71L281.59,150.08L288.22,156.71L291.79,165.35L295.37,174.00L298.94,182.64L302.51,191.28L302.51,200.64L302.51,210.00L302.51,219.35L302.51,228.71L302.51,238.06L302.51,247.42L306.09,256.06L309.66,264.71L316.28,271.33L322.91,277.95L329.53,284.58L320.18,284.58L310.82,284.58L302.18,288.15L310.82,284.58L320.18,284.58L311.53,281.00L302.89,277.43L294.24,281.00L302.89,277.43L293.53,277.43L302.89,277.43L296.26,270.81L289.64,264.18L281.00,260.61L289.64,264.18L296.26,270.81L302.89,277.43L311.53,281.00L320.18,284.58L329.53,284.58L322.91,291.20L313.55,291.20L322.91,291.20L329.53,284.58L320.89,288.15L312.24,291.73L308.67,300.37L312.24,291.73L305.62,298.35L312.24,291.73L320.89,288.15L329.53,284.58L320.89,281.00L312.24,277.43L302.89,277.43L312.24,277.43L320.89,281.00L312.24,277.43L303.60,273.86L294.24,273.86L303.60,273.86L312.24,277.43L302.89,277.43L293.53,277.43L286.91,284.05L293.53,277.43L284.89,281.00L293.53,277.43L284.89,281.00L276.24,277.43L284.89,281.00L293.53,277.43L286.91,284.05L280.28,290.68L280.28,300.03L280.28,290.68L276.71,299.32L280.28,290.68L271.64,294.25L263.00,297.82L256.37,304.45L263.00,297.82L271.64,294.25L268.06,302.90L259.42,306.47L268.06,302.90L271.64,294.25L265.02,300.88L258.39,307.50L258.39,316.85L258.39,307.50L254.82,316.14L258.39,307.50L265.02,300.88L271.64,294.25L280.28,290.68L286.91,284.05L293.53,277.43L302.89,277.43L312.24,277.43L305.62,270.81L299.00,264.18L289.64,264.18L299.00,264.18L290.35,260.61L299.00,264.18L289.64,264.18L280.28,264.18L271.64,267.76L280.28,264.18L289.64,264.18L281.00,260.61L272.35,257.03L263.71,260.61L272.35,257.03L263.00,257.03L272.35,257.03L281.00,260.61L289.64,264.18L299.00,264.18L305.62,270.81L312.24,277.43L320.89,281.00L329.53,284.58L320.89,281.00L312.24,277.43L302.89,277.43L312.24,277.43L320.89,281.00L312.24,277.43L303.60,273.86L294.95,277.43L303.60,273.86L294.24,273.86L303.60,273.86L294.95,270.28L286.31,266.71L276.95,266.71L286.31,266.71L294.95,270.28L286.31,266.71L277.66,263.13L269.02,266.71L277.66,263.13L268.31,263.13L277.66,263.13L268.31,263.13L258.95,263.13L252.33,269.76L258.95,263.13L250.31,266.71L258.95,263.13L249.60,263.13L240.24,263.13L231.60,266.71L240.24,263.13L249.60,263.13L258.95,263.13L268.31,263.13L277.66,263.13L286.31,266.71L294.95,270.28L303.60,273.86L294.95,270.28L286.31,266.71L276.95,266.71L286.31,266.71L294.95,270.28L286.31,266.71L277.66,263.13L269.02,266.71L277.66,263.13L268.31,263.13L277.66,263.13L269.02,259.56L260.38,255.99L251.02,255.99L260.38,255.99L269.02,259.56L260.38,255.99L251.73,252.41L243.09,255.99L251.73,252.41L242.38,252.41L251.73,252.41L242.38,252.41L233.02,252.41L226.40,259.04L233.02,252.41L224.38,255.99L233.02,252.41L223.66,252.41L214.31,252.41L205.66,255.99L214.31,252.41L223.66,252.41L233.02,252.41L242.38,252.41L251.73,252.41L260.38,255.99L269.02,259.56L277.66,263.13L268.31,263.13L258.95,263.13L250.31,266.71L258.95,263.13L268.31,263.13L258.95,263.13L249.60,263.13L240.95,266.71L249.60,263.13L258.95,263.13L250.31,266.71L241.66,270.28L238.09,278.93L241.66,270.28L235.04,276.91L241.66,270.28L235.04,276.91L225.69,276.91L235.04,276.91L241.66,270.28L238.09,278.93L234.52,287.57L238.09,296.22L234.52,287.57L234.52,296.93L234.52,287.57L227.89,294.19L221.27,300.82L217.69,309.46L221.27,300.82L227.89,294.19L227.89,303.55L221.27,310.18L227.89,303.55L227.89,294.19L224.32,302.84L220.75,311.48L224.32,320.13L220.75,311.48L220.75,320.84L220.75,311.48L224.32,302.84L227.89,294.19L234.52,287.57L238.09,278.93L241.66,270.28L250.31,266.71L258.95,263.13L250.31,259.56L241.66,255.99L233.02,259.56L241.66,255.99L232.31,255.99L241.66,255.99L233.02,259.56L224.38,263.13L217.75,269.76L224.38,263.13L233.02,259.56L223.66,259.56L214.31,259.56L207.69,266.19L214.31,259.56L205.66,263.13L214.31,259.56L223.66,259.56L233.02,259.56L241.66,255.99L250.31,259.56L258.95,263.13L250.31,266.71L241.66,270.28L235.04,276.91L241.66,270.28L250.31,266.71L240.95,266.71L231.60,266.71L224.97,273.33L231.60,266.71L222.95,270.28L231.60,266.71L222.95,263.13L214.31,259.56L204.95,259.56L214.31,259.56L222.95,263.13L231.60,266.71L240.95,266.71L250.31,266.71L258.95,263.13L255.38,271.78L246.74,275.35L255.38,271.78L258.95,263.13L252.33,269.76L245.71,276.38L245.71,285.74L245.71,276.38L242.13,285.03L245.71,276.38L252.33,269.76L258.95,263.13L252.33,269.76L245.71,276.38L242.13,285.03L245.71,276.38L252.33,269.76L245.71,276.38L239.08,283.01L235.51,291.65L239.08,283.01L245.71,276.38L242.13,285.03L238.56,293.67L242.13,302.32L238.56,293.67L238.56,303.03L238.56,293.67L238.56,303.03L231.94,309.65L238.56,303.03L238.56,293.67L242.13,302.32L245.71,310.96L254.35,314.53L245.71,310.96L252.33,317.58L245.71,310.96L245.71,320.32L245.71,329.67L249.28,338.32L245.71,329.67L245.71,320.32L252.33,326.94L252.33,336.30L252.33,326.94L245.71,320.32L249.28,328.96L252.85,337.61L261.50,341.18L252.85,337.61L259.48,344.23L252.85,337.61L249.28,328.96L245.71,320.32L245.71,310.96L242.13,302.32L238.56,293.67L242.13,285.03L245.71,276.38L237.06,279.96L228.42,283.53L224.84,292.18L228.42,283.53L221.79,290.15L228.42,283.53L224.84,292.18L221.27,300.82L221.27,310.18L221.27,300.82L224.84,292.18L218.22,298.80L211.60,305.42L211.60,314.78L211.60,305.42L208.02,314.07L211.60,305.42L218.22,298.80L224.84,292.18L228.42,283.53L237.06,279.96L245.71,276.38L237.06,279.96L228.42,283.53L221.79,290.15L228.42,283.53L237.06,279.96L228.42,283.53L219.77,287.10L216.20,295.75L219.77,287.10L213.15,293.73L219.77,287.10L211.13,290.68L202.48,294.25L195.86,300.88L202.48,294.25L211.13,290.68L202.48,294.25L193.84,297.82L190.26,306.47L193.84,297.82L187.22,304.45L193.84,297.82L187.22,304.45L180.59,311.07L180.59,320.43L180.59,311.07L177.02,319.72L180.59,311.07L173.97,317.70L167.34,324.32L163.77,332.97L167.34,324.32L173.97,317.70L180.59,311.07L187.22,304.45L193.84,297.82L202.48,294.25L211.13,290.68L219.77,287.10L216.20,295.75L212.63,304.39L212.63,313.75L212.63,304.39L216.20,295.75L209.57,302.37L202.95,309.00L202.95,318.35L202.95,309.00L199.38,317.64L202.95,309.00L194.31,312.57L185.66,316.14L179.04,322.77L185.66,316.14L194.31,312.57L202.95,309.00L209.57,302.37L216.20,295.75L219.77,287.10L223.35,295.75L219.77,304.39L223.35,295.75L219.77,287.10L219.77,296.46L219.77,305.81L226.40,312.44L219.77,305.81L223.35,314.46L219.77,305.81L219.77,296.46L219.77,287.10L213.15,293.73L206.53,300.35L202.95,309.00L206.53,300.35L213.15,293.73L206.53,300.35L199.90,306.98L196.33,315.62L199.90,306.98L206.53,300.35L202.95,309.00L199.38,317.64L202.95,326.28L199.38,317.64L199.38,327.00L199.38,317.64L199.38,327.00L192.75,333.62L199.38,327.00L199.38,317.64L202.95,326.28L206.53,334.93L215.17,338.50L206.53,334.93L213.15,341.55L206.53,334.93L206.53,344.28L206.53,353.64L210.10,362.28L206.53,353.64L206.53,344.28L213.15,350.91L213.15,360.26L213.15,350.91L206.53,344.28L210.10,352.93L213.67,361.57L222.32,365.15L213.67,361.57L220.30,368.20L213.67,361.57L210.10,352.93L206.53,344.28L206.53,334.93L202.95,326.28L199.38,317.64L202.95,309.00L206.53,300.35L197.88,303.93L189.24,307.50L185.66,316.14L189.24,307.50L182.61,314.12L189.24,307.50L185.66,316.14L182.09,324.79L182.09,334.14L182.09,324.79L185.66,316.14L179.04,322.77L172.42,329.39L172.42,338.75L172.42,329.39L168.84,338.03L172.42,329.39L179.04,322.77L185.66,316.14L189.24,307.50L197.88,303.93L206.53,300.35L213.15,293.73L219.77,287.10L228.42,283.53L237.06,279.96L245.71,276.38L252.33,269.76L258.95,263.13L268.31,263.13L277.66,263.13L271.04,256.51L264.42,249.89L255.77,246.31L264.42,249.89L271.04,256.51L264.42,249.89L257.79,243.26L249.15,239.69L257.79,243.26L264.42,249.89L255.77,246.31L247.13,242.74L238.48,246.31L247.13,242.74L237.77,242.74L247.13,242.74L237.77,242.74L231.15,236.12L237.77,242.74L247.13,242.74L238.48,246.31L229.84,249.89L226.26,258.53L229.84,249.89L223.22,256.51L229.84,249.89L220.48,249.89L211.13,249.89L202.48,253.46L211.13,249.89L220.48,249.89L213.86,256.51L204.50,256.51L213.86,256.51L220.48,249.89L211.84,253.46L203.19,257.03L199.62,265.68L203.19,257.03L196.57,263.66L203.19,257.03L211.84,253.46L220.48,249.89L229.84,249.89L238.48,246.31L247.13,242.74L255.77,246.31L264.42,249.89L260.84,241.24L257.27,232.60L248.63,229.02L257.27,232.60L250.65,225.98L257.27,232.60L248.63,229.02L239.98,225.45L230.63,225.45L239.98,225.45L248.63,229.02L242.00,222.40L235.38,215.78L226.02,215.78L235.38,215.78L226.73,212.20L235.38,215.78L242.00,222.40L248.63,229.02L257.27,232.60L260.84,241.24L264.42,249.89L255.06,249.89L245.71,249.89L237.06,253.46L245.71,249.89L255.06,249.89L245.71,249.89L236.35,249.89L229.73,256.51L236.35,249.89L227.71,253.46L236.35,249.89L227.00,249.89L217.64,249.89L209.00,253.46L217.64,249.89L227.00,249.89L217.64,249.89L208.28,249.89L201.66,256.51L208.28,249.89L199.64,253.46L208.28,249.89L199.64,253.46L191.00,257.03L187.42,265.68L191.00,257.03L184.37,263.66L191.00,257.03L182.35,260.61L173.71,264.18L167.08,270.81L173.71,264.18L182.35,260.61L191.00,257.03L199.64,253.46L208.28,249.89L217.64,249.89L227.00,249.89L236.35,249.89L227.71,246.31L219.06,242.74L209.71,242.74L219.06,242.74L227.71,246.31L219.06,242.74L210.42,239.17L201.06,239.17L210.42,239.17L219.06,242.74L209.71,242.74L200.35,242.74L193.73,249.36L200.35,242.74L191.71,246.31L200.35,242.74L191.71,246.31L183.06,242.74L191.71,246.31L200.35,242.74L193.73,249.36L187.10,255.99L187.10,265.34L187.10,255.99L183.53,264.63L187.10,255.99L178.46,259.56L169.81,263.13L163.19,269.76L169.81,263.13L178.46,259.56L174.88,268.21L166.24,271.78L174.88,268.21L178.46,259.56L171.83,266.19L165.21,272.81L165.21,282.16L165.21,272.81L161.64,281.45L165.21,272.81L171.83,266.19L178.46,259.56L187.10,255.99L193.73,249.36L200.35,242.74L209.71,242.74L219.06,242.74L212.44,236.12L205.81,229.49L196.46,229.49L205.81,229.49L197.17,225.92L205.81,229.49L196.46,229.49L187.10,229.49L178.46,233.07L187.10,229.49L196.46,229.49L187.81,225.92L179.17,222.35L170.53,225.92L179.17,222.35L169.81,222.35L179.17,222.35L187.81,225.92L196.46,229.49L205.81,229.49L212.44,236.12L219.06,242.74L227.71,246.31L236.35,249.89L245.71,249.89L255.06,249.89L264.42,249.89L271.04,256.51L277.66,263.13L271.04,256.51L264.42,249.89L255.77,246.31L264.42,249.89L271.04,256.51L264.42,249.89L257.79,243.26L248.44,243.26L257.79,243.26L249.15,239.69L257.79,243.26L251.17,236.64L244.55,230.02L235.90,226.44L244.55,230.02L251.17,236.64L244.55,230.02L237.92,223.39L228.57,223.39L237.92,223.39L229.28,219.82L237.92,223.39L229.28,219.82L220.63,216.25L211.99,219.82L220.63,216.25L211.28,216.25L220.63,216.25L211.99,212.67L203.34,209.10L193.99,209.10L203.34,209.10L211.99,212.67L220.63,216.25L229.28,219.82L237.92,223.39L244.55,230.02L251.17,236.64L257.79,243.26L251.17,236.64L244.55,230.02L235.90,226.44L244.55,230.02L251.17,236.64L244.55,230.02L237.92,223.39L229.28,219.82L237.92,223.39L244.55,230.02L235.90,226.44L227.26,222.87L218.61,226.44L227.26,222.87L217.90,222.87L227.26,222.87L217.90,222.87L211.28,216.25L217.90,222.87L227.26,222.87L218.61,226.44L209.97,230.02L206.39,238.66L209.97,230.02L203.34,236.64L209.97,230.02L200.61,230.02L191.26,230.02L182.61,233.59L191.26,230.02L200.61,230.02L193.99,236.64L184.63,236.64L193.99,236.64L200.61,230.02L191.97,233.59L183.32,237.16L179.75,245.81L183.32,237.16L176.7,243.79L183.32,237.16L191.97,233.59L200.61,230.02L209.97,230.02L218.61,226.44L227.26,222.87L235.90,226.44L244.55,230.02L240.97,221.37L237.40,212.73L228.75,209.15L237.40,212.73L230.77,206.10L237.40,212.73L228.75,209.15L220.11,205.58L210.75,205.58L220.11,205.58L228.75,209.15L222.13,202.53L215.51,195.91L206.15,195.91L215.51,195.91L206.86,192.33L215.51,195.91L222.13,202.53L228.75,209.15L237.40,212.73L240.97,221.37L244.55,230.02L237.92,223.39L231.30,216.77L222.65,213.19L231.30,216.77L237.92,223.39L231.30,216.77L224.68,210.15L215.32,210.15L224.68,210.15L216.03,206.57L224.68,210.15L218.05,203.52L211.43,196.90L202.78,193.32L211.43,196.90L218.05,203.52L211.43,196.90L204.80,190.27L195.45,190.27L204.80,190.27L196.16,186.70L204.80,190.27L196.16,186.70L187.51,183.13L178.87,186.70L187.51,183.13L178.16,183.13L187.51,183.13L178.87,179.55L170.23,175.98L160.87,175.98L170.23,175.98L178.87,179.55L187.51,183.13L196.16,186.70L204.80,190.27L211.43,196.90L218.05,203.52L224.68,210.15L218.05,203.52L211.43,196.90L202.78,193.32L211.43,196.90L218.05,203.52L211.43,196.90L204.80,190.27L196.16,186.70L204.80,190.27L211.43,196.90L202.78,193.32L194.14,189.75L185.49,193.32L194.14,189.75L184.78,189.75L194.14,189.75L184.78,189.75L178.16,183.13L184.78,189.75L194.14,189.75L185.49,193.32L176.85,196.90L173.28,205.54L176.85,196.90L170.23,203.52L176.85,196.90L167.49,196.90L158.14,196.90L149.49,200.47L158.14,196.90L167.49,196.90L160.87,203.52L151.51,203.52L160.87,203.52L167.49,196.90L158.85,200.47L150.20,204.05L146.63,212.69L150.20,204.05L143.58,210.67L150.20,204.05L158.85,200.47L167.49,196.90L176.85,196.90L185.49,193.32L194.14,189.75L202.78,193.32L211.43,196.90L207.85,188.25L204.28,179.61L195.63,176.03L204.28,179.61L197.66,172.99L204.28,179.61L195.63,176.03L186.99,172.46L177.63,172.46L186.99,172.46L195.63,176.03L189.01,169.41L182.39,162.79L173.03,162.79L182.39,162.79L173.74,159.21L182.39,162.79L189.01,169.41L195.63,176.03L204.28,179.61L207.85,188.25L211.43,196.90L202.78,193.32L194.14,189.75L184.78,189.75L194.14,189.75L202.78,193.32L194.14,189.75L185.49,186.18L176.14,186.18L185.49,186.18L194.14,189.75L184.78,189.75L175.43,189.75L168.80,196.37L175.43,189.75L166.78,193.32L175.43,189.75L166.78,193.32L158.14,189.75L166.78,193.32L175.43,189.75L168.80,196.37L162.18,203.00L162.18,212.35L162.18,203.00L158.61,211.64L162.18,203.00L153.53,206.57L144.89,210.15L138.27,216.77L144.89,210.15L153.53,206.57L149.96,215.22L141.32,218.79L149.96,215.22L153.53,206.57L146.91,213.19L140.29,219.82L140.29,229.18L140.29,219.82L136.71,228.46L140.29,219.82L146.91,213.19L153.53,206.57L162.18,203.00L168.80,196.37L175.43,189.75L184.78,189.75L194.14,189.75L187.51,183.13L180.89,176.50L171.53,176.50L180.89,176.50L172.25,172.93L180.89,176.50L171.53,176.50L162.18,176.50L153.53,180.08L162.18,176.50L171.53,176.50L162.89,172.93L154.25,169.36L145.60,172.93L154.25,169.36L144.89,169.36L154.25,169.36L162.89,172.93L171.53,176.50L180.89,176.50L187.51,183.13L194.14,189.75L185.49,186.18L176.85,182.60L167.49,182.60L176.85,182.60L185.49,186.18L176.85,182.60L168.20,179.03L159.56,182.60L168.20,179.03L158.85,179.03L168.20,179.03L159.56,175.45L150.92,171.88L141.56,171.88L150.92,171.88L159.56,175.45L150.92,171.88L142.27,168.31L133.63,171.88L142.27,168.31L132.92,168.31L142.27,168.31L132.92,168.31L123.56,168.31L116.94,174.93L123.56,168.31L114.92,171.88L123.56,168.31L114.21,168.31L104.85,168.31L96.21,171.88L104.85,168.31L114.21,168.31L123.56,168.31L132.92,168.31L142.27,168.31L150.92,171.88L159.56,175.45L168.20,179.03L176.85,182.60L185.49,186.18L194.14,189.75L202.78,193.32L211.43,196.90L218.05,203.52L224.68,210.15L231.30,216.77L237.92,223.39L244.55,230.02L235.19,230.02L225.84,230.02L217.19,233.59L225.84,230.02L235.19,230.02L225.84,230.02L216.48,230.02L209.86,236.64L216.48,230.02L207.84,233.59L216.48,230.02L207.12,230.02L197.77,230.02L189.12,233.59L197.77,230.02L207.12,230.02L197.77,230.02L188.41,230.02L181.79,236.64L188.41,230.02L179.77,233.59L188.41,230.02L179.77,233.59L171.12,237.16L167.55,245.81L171.12,237.16L164.5,243.79L171.12,237.16L162.48,240.74L153.83,244.31L147.21,250.94L153.83,244.31L162.48,240.74L171.12,237.16L179.77,233.59L188.41,230.02L197.77,230.02L207.12,230.02L216.48,230.02L207.84,226.44L199.19,222.87L189.84,222.87L199.19,222.87L207.84,226.44L199.19,222.87L190.55,219.30L181.19,219.30L190.55,219.30L199.19,222.87L189.84,222.87L180.48,222.87L173.86,229.49L180.48,222.87L171.83,226.44L180.48,222.87L171.83,226.44L163.19,222.87L171.83,226.44L180.48,222.87L173.86,229.49L167.23,236.12L167.23,245.47L167.23,236.12L163.66,244.76L167.23,236.12L158.59,239.69L149.94,243.26L143.32,249.89L149.94,243.26L158.59,239.69L155.01,248.34L146.37,251.91L155.01,248.34L158.59,239.69L151.96,246.31L145.34,252.94L145.34,262.29L145.34,252.94L141.77,261.58L145.34,252.94L151.96,246.31L158.59,239.69L167.23,236.12L173.86,229.49L180.48,222.87L189.84,222.87L199.19,222.87L192.57,216.25L185.94,209.62L176.59,209.62L185.94,209.62L177.30,206.05L185.94,209.62L176.59,209.62L167.23,209.62L158.59,213.19L167.23,209.62L176.59,209.62L167.94,206.05L159.30,202.47L150.65,206.05L159.30,202.47L149.94,202.47L159.30,202.47L167.94,206.05L176.59,209.62L185.94,209.62L192.57,216.25L199.19,222.87L192.57,216.25L185.94,209.62L177.30,206.05L185.94,209.62L192.57,216.25L185.94,209.62L179.32,203.00L169.96,203.00L179.32,203.00L170.68,199.42L179.32,203.00L172.69,196.37L166.07,189.75L157.43,186.18L166.07,189.75L172.69,196.37L166.07,189.75L159.45,183.13L150.09,183.13L159.45,183.13L150.80,179.55L159.45,183.13L150.80,179.55L142.16,175.98L133.51,179.55L142.16,175.98L132.80,175.98L142.16,175.98L133.51,172.40L124.87,168.83L115.51,168.83L124.87,168.83L133.51,172.40L142.16,175.98L150.80,179.55L159.45,183.13L166.07,189.75L172.69,196.37L179.32,203.00L185.94,209.62L192.57,216.25L199.19,222.87L207.84,226.44L216.48,230.02L225.84,230.02L235.19,230.02L244.55,230.02L237.92,236.64L231.30,243.26L227.72,251.91L231.30,243.26L237.92,236.64L229.28,240.21L220.63,243.79L217.06,252.43L220.63,243.79L214.01,250.41L220.63,243.79L211.28,243.79L201.92,243.79L193.28,247.36L201.92,243.79L211.28,243.79L220.63,243.79L229.28,240.21L237.92,236.64L244.55,230.02L244.55,239.37L237.92,246.00L244.55,239.37L244.55,230.02L240.97,238.66L237.40,247.31L240.97,255.95L237.40,247.31L237.40,256.66L237.40,247.31L240.97,238.66L244.55,230.02L235.90,233.59L227.26,237.16L220.63,243.79L227.26,237.16L235.90,233.59L227.26,237.16L218.61,240.74L211.99,247.36L218.61,240.74L227.26,237.16L220.63,243.79L214.01,250.41L214.01,259.77L214.01,250.41L210.44,259.06L214.01,250.41L210.44,259.06L201.79,262.63L210.44,259.06L214.01,250.41L214.01,259.77L214.01,269.12L220.63,275.75L214.01,269.12L217.58,277.77L214.01,269.12L210.44,277.77L206.86,286.41L206.86,295.77L206.86,286.41L210.44,277.77L214.01,286.41L210.44,295.06L214.01,286.41L210.44,277.77L210.44,287.12L210.44,296.48L217.06,303.10L210.44,296.48L214.01,305.12L210.44,296.48L210.44,287.12L210.44,277.77L214.01,269.12L214.01,259.77L214.01,250.41L220.63,243.79L227.26,237.16L217.90,237.16L208.55,237.16L201.92,243.79L208.55,237.16L199.90,240.74L208.55,237.16L201.92,243.79L195.30,250.41L191.72,259.06L195.30,250.41L201.92,243.79L193.28,247.36L184.63,250.94L181.06,259.58L184.63,250.94L178.01,257.56L184.63,250.94L193.28,247.36L201.92,243.79L208.55,237.16L217.90,237.16L227.26,237.16L235.90,233.59L244.55,230.02L235.90,226.44L227.26,222.87L217.90,222.87L227.26,222.87L235.90,226.44L227.26,222.87L218.61,219.30L209.97,222.87L218.61,219.30L209.26,219.30L218.61,219.30L209.97,215.72L201.32,212.15L191.97,212.15L201.32,212.15L209.97,215.72L201.32,212.15L192.68,208.57L184.03,212.15L192.68,208.57L183.32,208.57L192.68,208.57L183.32,208.57L173.97,208.57L167.34,215.20L173.97,208.57L165.32,212.15L173.97,208.57L164.61,208.57L155.26,208.57L146.61,212.15L155.26,208.57L164.61,208.57L173.97,208.57L183.32,208.57L192.68,208.57L201.32,212.15L209.97,215.72L218.61,219.30L209.97,215.72L201.32,212.15L191.97,212.15L201.32,212.15L209.97,215.72L201.32,212.15L192.68,208.57L184.03,212.15L192.68,208.57L183.32,208.57L192.68,208.57L184.03,205L175.39,201.43L166.03,201.43L175.39,201.43L184.03,205L175.39,201.43L166.75,197.85L158.10,201.43L166.75,197.85L157.39,197.85L166.75,197.85L157.39,197.85L148.03,197.85L141.41,204.48L148.03,197.85L139.39,201.43L148.03,197.85L138.68,197.85L129.32,197.85L120.68,201.43L129.32,197.85L138.68,197.85L148.03,197.85L157.39,197.85L166.75,197.85L175.39,201.43L184.03,205L192.68,208.57L183.32,208.57L173.97,208.57L165.32,212.15L173.97,208.57L183.32,208.57L173.97,208.57L164.61,208.57L155.97,212.15L164.61,208.57L173.97,208.57L165.32,212.15L156.68,215.72L153.11,224.37L156.68,215.72L150.06,222.35L156.68,215.72L150.06,222.35L140.7,222.35L150.06,222.35L156.68,215.72L153.11,224.37L149.53,233.01L153.11,241.65L149.53,233.01L149.53,242.37L149.53,233.01L142.91,239.63L136.28,246.26L132.71,254.90L136.28,246.26L142.91,239.63L142.91,248.99L136.28,255.61L142.91,248.99L142.91,239.63L139.33,248.28L135.76,256.92L139.33,265.57L135.76,256.92L135.76,266.28L135.76,256.92L139.33,248.28L142.91,239.63L149.53,233.01L153.11,224.37L156.68,215.72L165.32,212.15L173.97,208.57L165.32,205L156.68,201.43L148.03,205L156.68,201.43L147.32,201.43L156.68,201.43L148.03,205L139.39,208.57L132.77,215.20L139.39,208.57L148.03,205L138.68,205L129.32,205L122.7,211.62L129.32,205L120.68,208.57L129.32,205L138.68,205L148.03,205L156.68,201.43L165.32,205L173.97,208.57L165.32,212.15L156.68,215.72L150.06,222.35L156.68,215.72L165.32,212.15L155.97,212.15L146.61,212.15L139.99,218.77L146.61,212.15L137.97,215.72L146.61,212.15L137.97,208.57L129.32,205L119.97,205L129.32,205L137.97,208.57L146.61,212.15L155.97,212.15L165.32,212.15L173.97,208.57L170.39,217.22L161.75,220.79L170.39,217.22L173.97,208.57L167.34,215.20L160.72,221.82L160.72,231.18L160.72,221.82L157.15,230.47L160.72,221.82L167.34,215.20L173.97,208.57L167.34,215.20L160.72,221.82L157.15,230.47L160.72,221.82L167.34,215.20L160.72,221.82L154.10,228.44L150.52,237.09L154.10,228.44L160.72,221.82L157.15,230.47L153.57,239.11L157.15,247.75L153.57,239.11L153.57,248.47L153.57,239.11L153.57,248.47L146.95,255.09L153.57,248.47L153.57,239.11L157.15,247.75L160.72,256.40L169.37,259.97L160.72,256.40L167.34,263.02L160.72,256.40L160.72,265.75L160.72,275.11L164.29,283.75L160.72,275.11L160.72,265.75L167.34,272.38L167.34,281.73L167.34,272.38L160.72,265.75L164.29,274.40L167.87,283.04L176.51,286.62L167.87,283.04L174.49,289.67L167.87,283.04L164.29,274.40L160.72,265.75L160.72,256.40L157.15,247.75L153.57,239.11L157.15,230.47L160.72,221.82L152.08,225.39L143.43,228.97L139.86,237.61L143.43,228.97L136.81,235.59L143.43,228.97L139.86,237.61L136.28,246.26L136.28,255.61L136.28,246.26L139.86,237.61L133.23,244.24L126.61,250.86L126.61,260.22L126.61,250.86L123.04,259.50L126.61,250.86L133.23,244.24L139.86,237.61L143.43,228.97L152.08,225.39L160.72,221.82L152.08,225.39L143.43,228.97L136.81,235.59L143.43,228.97L152.08,225.39L143.43,228.97L134.79,232.54L131.21,241.19L134.79,232.54L128.16,239.17L134.79,232.54L126.14,236.12L117.50,239.69L110.87,246.31L117.50,239.69L126.14,236.12L117.50,239.69L108.85,243.26L105.28,251.91L108.85,243.26L102.23,249.89L108.85,243.26L102.23,249.89L95.61,256.51L95.61,265.87L95.61,256.51L92.03,265.16L95.61,256.51L88.98,263.13L82.36,269.76L78.78,278.40L82.36,269.76L88.98,263.13L95.61,256.51L102.23,249.89L108.85,243.26L117.50,239.69L126.14,236.12L134.79,232.54L131.21,241.19L127.64,249.83L127.64,259.19L127.64,249.83L131.21,241.19L124.59,247.81L117.97,254.44L117.97,263.79L117.97,254.44L114.39,263.08L117.97,254.44L109.32,258.01L100.68,261.58L94.05,268.21L100.68,261.58L109.32,258.01L117.97,254.44L124.59,247.81L131.21,241.19L134.79,232.54L138.36,241.19L134.79,249.83L138.36,241.19L134.79,232.54L134.79,241.90L134.79,251.25L141.41,257.88L134.79,251.25L138.36,259.90L134.79,251.25L134.79,241.90L134.79,232.54L128.16,239.17L121.54,245.79L117.97,254.44L121.54,245.79L128.16,239.17L121.54,245.79L114.92,252.41L111.34,261.06L114.92,252.41L121.54,245.79L117.97,254.44L114.39,263.08L117.97,271.72L114.39,263.08L114.39,272.44L114.39,263.08L114.39,272.44L107.77,279.06L114.39,272.44L114.39,263.08L117.97,271.72L121.54,280.37L130.18,283.94L121.54,280.37L128.16,286.99L121.54,280.37L121.54,289.72L121.54,299.08L125.11,307.72L121.54,299.08L121.54,289.72L128.16,296.35L128.16,305.70L128.16,296.35L121.54,289.72L125.11,298.37L128.69,307.01L137.33,310.59L128.69,307.01L135.31,313.64L128.69,307.01L125.11,298.37L121.54,289.72L121.54,280.37L117.97,271.72L114.39,263.08L117.97,254.44L121.54,245.79L112.90,249.36L104.25,252.94L100.68,261.58L104.25,252.94L97.63,259.56L104.25,252.94L100.68,261.58L97.10,270.23L97.10,279.58L97.10,270.23L100.68,261.58L94.05,268.21L87.43,274.83L87.43,284.19L87.43,274.83L83.86,283.47L87.43,274.83L94.05,268.21L100.68,261.58L104.25,252.94L112.90,249.36L121.54,245.79L128.16,239.17L134.79,232.54L143.43,228.97L152.08,225.39L160.72,221.82L167.34,215.20L173.97,208.57L183.32,208.57L192.68,208.57L186.06,201.95L179.43,195.33L170.79,191.75L179.43,195.33L186.06,201.95L179.43,195.33L172.81,188.70L164.16,185.13L172.81,188.70L179.43,195.33L170.79,191.75L162.14,188.18L153.50,191.75L162.14,188.18L152.79,188.18L162.14,188.18L152.79,188.18L146.16,181.56L152.79,188.18L162.14,188.18L153.50,191.75L144.85,195.33L141.28,203.97L144.85,195.33L138.23,201.95L144.85,195.33L135.50,195.33L126.14,195.33L117.50,198.90L126.14,195.33L135.50,195.33L128.87,201.95L119.52,201.95L128.87,201.95L135.50,195.33L126.85,198.90L118.21,202.47L114.63,211.12L118.21,202.47L111.59,209.10L118.21,202.47L126.85,198.90L135.50,195.33L144.85,195.33L153.50,191.75L162.14,188.18L170.79,191.75L179.43,195.33L175.86,186.68L172.28,178.04L163.64,174.46L172.28,178.04L165.66,171.41L172.28,178.04L163.64,174.46L155.00,170.89L145.64,170.89L155.00,170.89L163.64,174.46L157.02,167.84L150.39,161.22L141.04,161.22L150.39,161.22L141.75,157.64L150.39,161.22L157.02,167.84L163.64,174.46L172.28,178.04L175.86,186.68L179.43,195.33L170.08,195.33L160.72,195.33L152.08,198.90L160.72,195.33L170.08,195.33L160.72,195.33L151.37,195.33L144.74,201.95L151.37,195.33L142.72,198.90L151.37,195.33L142.01,195.33L132.65,195.33L124.01,198.90L132.65,195.33L142.01,195.33L132.65,195.33L123.30,195.33L116.68,201.95L123.30,195.33L114.65,198.90L123.30,195.33L114.65,198.90L106.01,202.47L102.44,211.12L106.01,202.47L99.39,209.10L106.01,202.47L97.37,206.05L88.72,209.62L82.10,216.25L88.72,209.62L97.37,206.05L106.01,202.47L114.65,198.90L123.30,195.33L132.65,195.33L142.01,195.33L151.37,195.33L142.72,191.75L134.08,188.18L124.72,188.18L134.08,188.18L142.72,191.75L134.08,188.18L125.43,184.61L116.08,184.61L125.43,184.61L134.08,188.18L124.72,188.18L115.37,188.18L108.74,194.80L115.37,188.18L106.72,191.75L115.37,188.18L106.72,191.75L98.08,188.18L106.72,191.75L115.37,188.18L108.74,194.80L102.12,201.43L102.12,210.78L102.12,201.43L98.54,210.07L102.12,201.43L93.47,205L84.83,208.57L78.21,215.20L84.83,208.57L93.47,205L89.90,213.64L81.25,217.22L89.90,213.64L93.47,205L86.85,211.62L80.23,218.25L80.23,227.60L80.23,218.25L76.65,226.89L80.23,218.25L86.85,211.62L93.47,205L102.12,201.43L108.74,194.80L115.37,188.18L124.72,188.18L134.08,188.18L127.45,181.56L120.83,174.93L111.47,174.93L120.83,174.93L112.18,171.36L120.83,174.93L111.47,174.93L102.12,174.93L93.47,178.50L102.12,174.93L111.47,174.93L102.83,171.36L94.18,167.78L85.54,171.36L94.18,167.78L84.83,167.78L94.18,167.78L102.83,171.36L111.47,174.93L120.83,174.93L127.45,181.56L134.08,188.18L142.72,191.75L151.37,195.33L160.72,195.33L170.08,195.33L179.43,195.33L186.06,201.95L192.68,208.57L201.32,212.15L209.97,215.72L218.61,219.30L227.26,222.87L235.90,226.44L244.55,230.02L251.17,236.64L257.79,243.26L264.42,249.89L271.04,256.51L277.66,263.13L286.31,266.71L294.95,270.28L303.60,273.86L312.24,277.43L320.89,281.00L329.53,284.58L333.11,293.22L336.68,301.87L340.25,310.51L343.83,319.16L347.4,327.8L350.97,336.44L354.55,327.8L358.12,319.16L358.12,309.8L358.12,319.16L354.55,327.8L358.12,319.16L361.69,310.51L358.12,301.87L361.69,310.51L361.69,301.16L361.69,310.51L365.27,301.87L368.84,293.22L368.84,283.87L368.84,293.22L365.27,301.87L368.84,293.22L372.42,284.58L368.84,275.93L372.42,284.58L372.42,275.22L372.42,284.58L372.42,275.22L372.42,265.87L365.79,259.24L372.42,265.87L368.84,257.22L372.42,265.87L372.42,256.51L372.42,247.16L368.84,238.51L372.42,247.16L372.42,256.51L372.42,265.87L372.42,275.22L372.42,284.58L368.84,293.22L365.27,301.87L361.69,310.51L365.27,301.87L368.84,293.22L368.84,283.87L368.84,293.22L365.27,301.87L368.84,293.22L372.42,284.58L368.84,275.93L372.42,284.58L372.42,275.22L372.42,284.58L375.99,275.93L379.56,267.29L379.56,257.93L379.56,267.29L375.99,275.93L379.56,267.29L383.14,258.64L379.56,250L383.14,258.64L383.14,249.29L383.14,258.64L383.14,249.29L383.14,239.93L376.51,233.31L383.14,239.93L379.56,231.29L383.14,239.93L383.14,230.58L383.14,221.22L379.56,212.58L383.14,221.22L383.14,230.58L383.14,239.93L383.14,249.29L383.14,258.64L379.56,267.29L375.99,275.93L372.42,284.58L372.42,275.22L372.42,265.87L368.84,257.22L372.42,265.87L372.42,275.22L372.42,265.87L372.42,256.51L368.84,247.87L372.42,256.51L372.42,265.87L368.84,257.22L365.27,248.58L356.63,245.00L365.27,248.58L358.65,241.95L365.27,248.58L358.65,241.95L358.65,232.60L358.65,241.95L365.27,248.58L356.63,245.00L347.98,241.43L339.34,245.00L347.98,241.43L338.63,241.43L347.98,241.43L341.36,234.81L334.73,228.18L326.09,224.61L334.73,228.18L341.36,234.81L332.00,234.81L325.38,228.18L332.00,234.81L341.36,234.81L332.71,231.23L324.07,227.66L315.42,231.23L324.07,227.66L314.71,227.66L324.07,227.66L332.71,231.23L341.36,234.81L347.98,241.43L356.63,245.00L365.27,248.58L368.84,257.22L372.42,265.87L375.99,257.22L379.56,248.58L375.99,239.93L379.56,248.58L379.56,239.22L379.56,248.58L375.99,239.93L372.42,231.29L365.79,224.67L372.42,231.29L375.99,239.93L375.99,230.58L375.99,221.22L369.37,214.60L375.99,221.22L372.42,212.58L375.99,221.22L375.99,230.58L375.99,239.93L379.56,248.58L375.99,257.22L372.42,265.87L368.84,257.22L365.27,248.58L358.65,241.95L365.27,248.58L368.84,257.22L368.84,247.87L368.84,238.51L362.22,231.89L368.84,238.51L365.27,229.87L368.84,238.51L372.42,229.87L375.99,221.22L375.99,211.87L375.99,221.22L372.42,229.87L368.84,238.51L368.84,247.87L368.84,257.22L372.42,265.87L363.77,262.29L360.20,253.65L363.77,262.29L372.42,265.87L365.79,259.24L359.17,252.62L349.81,252.62L359.17,252.62L350.52,249.05L359.17,252.62L365.79,259.24L372.42,265.87L365.79,259.24L359.17,252.62L350.52,249.05L359.17,252.62L365.79,259.24L359.17,252.62L352.55,246.00L343.90,242.42L352.55,246.00L359.17,252.62L350.52,249.05L341.88,245.47L333.24,249.05L341.88,245.47L332.52,245.47L341.88,245.47L332.52,245.47L325.90,238.85L332.52,245.47L341.88,245.47L333.24,249.05L324.59,252.62L321.02,261.26L324.59,252.62L317.97,259.24L324.59,252.62L315.24,252.62L305.88,252.62L297.24,256.19L305.88,252.62L315.24,252.62L308.61,259.24L299.26,259.24L308.61,259.24L315.24,252.62L306.59,256.19L297.95,259.77L294.37,268.41L297.95,259.77L291.32,266.39L297.95,259.77L306.59,256.19L315.24,252.62L324.59,252.62L333.24,249.05L341.88,245.47L350.52,249.05L359.17,252.62L355.60,243.98L352.02,235.33L343.38,231.76L352.02,235.33L345.40,228.71L352.02,235.33L343.38,231.76L334.73,228.18L325.38,228.18L334.73,228.18L343.38,231.76L336.75,225.13L330.13,218.51L320.77,218.51L330.13,218.51L321.49,214.94L330.13,218.51L336.75,225.13L343.38,231.76L352.02,235.33L355.60,243.98L359.17,252.62L355.60,243.98L352.02,235.33L345.40,228.71L352.02,235.33L355.60,243.98L352.02,235.33L348.45,226.69L339.80,223.11L348.45,226.69L341.82,220.06L348.45,226.69L344.87,218.04L341.3,209.40L334.68,202.77L341.3,209.40L344.87,218.04L341.3,209.40L337.73,200.75L329.08,197.18L337.73,200.75L331.10,194.13L337.73,200.75L331.10,194.13L324.48,187.50L315.12,187.50L324.48,187.50L315.83,183.93L324.48,187.50L317.86,180.88L311.23,174.26L302.59,170.68L311.23,174.26L317.86,180.88L324.48,187.50L331.10,194.13L337.73,200.75L341.3,209.40L344.87,218.04L348.45,226.69L339.80,223.11L331.16,219.54L321.80,219.54L331.16,219.54L339.80,223.11L333.18,216.49L326.56,209.87L317.20,209.87L326.56,209.87L317.91,206.29L326.56,209.87L322.98,201.22L319.41,192.58L312.78,185.95L319.41,192.58L322.98,201.22L326.56,209.87L333.18,216.49L339.80,223.11L348.45,226.69L339.80,230.26L331.16,226.69L339.80,230.26L348.45,226.69L339.09,226.69L329.74,226.69L323.11,233.31L329.74,226.69L321.09,230.26L329.74,226.69L339.09,226.69L348.45,226.69L341.82,220.06L335.20,213.44L326.56,209.87L335.20,213.44L341.82,220.06L335.20,213.44L328.58,206.81L319.93,203.24L328.58,206.81L335.20,213.44L326.56,209.87L317.91,206.29L309.27,209.87L317.91,206.29L308.56,206.29L317.91,206.29L308.56,206.29L301.93,199.67L308.56,206.29L317.91,206.29L309.27,209.87L300.62,213.44L297.05,222.08L300.62,213.44L294.00,220.06L300.62,213.44L291.27,213.44L281.91,213.44L273.27,217.01L281.91,213.44L291.27,213.44L284.64,220.06L275.29,220.06L284.64,220.06L291.27,213.44L282.62,217.01L273.98,220.59L270.40,229.23L273.98,220.59L267.35,227.21L273.98,220.59L282.62,217.01L291.27,213.44L300.62,213.44L309.27,209.87L317.91,206.29L326.56,209.87L335.20,213.44L331.63,204.79L328.05,196.15L319.41,192.58L328.05,196.15L321.43,189.53L328.05,196.15L319.41,192.58L310.76,189.00L301.41,189.00L310.76,189.00L319.41,192.58L312.78,185.95L306.16,179.33L296.81,179.33L306.16,179.33L297.52,175.75L306.16,179.33L312.78,185.95L319.41,192.58L328.05,196.15L331.63,204.79L335.20,213.44L341.82,220.06L348.45,226.69L352.02,235.33L355.60,243.98L359.17,252.62L365.79,259.24L372.42,265.87L372.42,275.22L372.42,284.58L379.04,277.95L385.66,271.33L389.24,262.69L385.66,271.33L379.04,277.95L385.66,271.33L392.29,264.71L395.86,256.06L392.29,264.71L385.66,271.33L389.24,262.69L392.81,254.04L389.24,245.40L392.81,254.04L392.81,244.69L392.81,254.04L392.81,244.69L399.44,238.06L392.81,244.69L392.81,254.04L389.24,245.40L385.66,236.75L377.02,233.18L385.66,236.75L379.04,230.13L385.66,236.75L385.66,227.40L385.66,218.04L382.09,209.40L385.66,218.04L385.66,227.40L379.04,220.77L379.04,211.42L379.04,220.77L385.66,227.40L382.09,218.75L378.52,210.11L369.87,206.53L378.52,210.11L371.89,203.48L378.52,210.11L382.09,218.75L385.66,227.40L385.66,236.75L389.24,245.40L392.81,254.04L389.24,262.69L385.66,271.33L394.31,267.76L402.95,264.18L406.53,255.54L402.95,264.18L409.58,257.56L402.95,264.18L406.53,255.54L410.10,246.89L410.10,237.54L410.10,246.89L406.53,255.54L413.15,248.91L419.77,242.29L419.77,232.94L419.77,242.29L423.35,233.65L419.77,242.29L413.15,248.91L406.53,255.54L402.95,264.18L394.31,267.76L385.66,271.33L385.66,261.98L385.66,252.62L382.09,243.98L385.66,252.62L385.66,261.98L385.66,252.62L385.66,243.26L379.04,236.64L385.66,243.26L382.09,234.62L385.66,243.26L385.66,233.91L385.66,224.55L382.09,215.91L385.66,224.55L385.66,233.91L385.66,224.55L385.66,215.20L379.04,208.57L385.66,215.20L382.09,206.55L385.66,215.20L382.09,206.55L378.52,197.91L369.87,194.33L378.52,197.91L371.89,191.28L378.52,197.91L374.94,189.26L371.37,180.62L364.75,174.00L371.37,180.62L374.94,189.26L378.52,197.91L382.09,206.55L385.66,215.20L385.66,224.55L385.66,233.91L385.66,243.26L389.24,234.62L392.81,225.98L392.81,216.62L392.81,225.98L389.24,234.62L392.81,225.98L396.39,217.33L396.39,207.98L396.39,217.33L392.81,225.98L392.81,216.62L392.81,207.26L386.19,200.64L392.81,207.26L389.24,198.62L392.81,207.26L389.24,198.62L392.81,189.98L389.24,198.62L392.81,207.26L386.19,200.64L379.56,194.02L370.21,194.02L379.56,194.02L370.92,190.44L379.56,194.02L375.99,185.37L372.42,176.73L365.79,170.10L372.42,176.73L375.99,185.37L367.35,181.80L363.77,173.15L367.35,181.80L375.99,185.37L369.37,178.75L362.74,172.13L353.39,172.13L362.74,172.13L354.10,168.55L362.74,172.13L369.37,178.75L375.99,185.37L379.56,194.02L386.19,200.64L392.81,207.26L392.81,216.62L392.81,225.98L399.44,219.35L406.06,212.73L406.06,203.37L406.06,212.73L409.63,204.08L406.06,212.73L406.06,203.37L406.06,194.02L402.49,185.37L406.06,194.02L406.06,203.37L409.63,194.73L413.21,186.08L409.63,177.44L413.21,186.08L413.21,176.73L413.21,186.08L409.63,194.73L406.06,203.37L406.06,212.73L399.44,219.35L392.81,225.98L389.24,234.62L385.66,243.26L385.66,252.62L385.66,261.98L385.66,271.33L379.04,277.95L372.42,284.58L368.84,275.93L365.27,267.29L358.65,260.66L365.27,267.29L368.84,275.93L365.27,267.29L361.69,258.64L353.05,255.07L361.69,258.64L355.07,252.02L361.69,258.64L358.12,250L354.55,241.36L347.92,234.73L354.55,241.36L358.12,250L354.55,241.36L350.97,232.71L342.33,229.14L350.97,232.71L344.35,226.09L350.97,232.71L344.35,226.09L337.73,219.46L328.37,219.46L337.73,219.46L329.08,215.89L337.73,219.46L331.10,212.84L324.48,206.22L315.83,202.64L324.48,206.22L331.10,212.84L337.73,219.46L344.35,226.09L350.97,232.71L354.55,241.36L358.12,250L361.69,258.64L358.12,250L354.55,241.36L347.92,234.73L354.55,241.36L358.12,250L354.55,241.36L350.97,232.71L344.35,226.09L350.97,232.71L354.55,241.36L347.92,234.73L341.3,228.11L331.94,228.11L341.3,228.11L332.66,224.53L341.3,228.11L332.66,224.53L329.08,215.89L332.66,224.53L341.3,228.11L331.94,228.11L322.59,228.11L315.97,234.73L322.59,228.11L313.94,231.68L322.59,228.11L313.94,224.53L305.3,220.96L295.94,220.96L305.3,220.96L313.94,224.53L305.3,228.11L296.66,224.53L305.3,228.11L313.94,224.53L304.59,224.53L295.23,224.53L288.61,231.16L295.23,224.53L286.59,228.11L295.23,224.53L304.59,224.53L313.94,224.53L322.59,228.11L331.94,228.11L341.3,228.11L347.92,234.73L354.55,241.36L354.55,232L354.55,222.64L347.92,216.02L354.55,222.64L350.97,214L354.55,222.64L347.92,216.02L341.3,209.40L332.66,205.82L341.3,209.40L347.92,216.02L344.35,207.38L340.78,198.73L332.13,195.16L340.78,198.73L334.15,192.11L340.78,198.73L344.35,207.38L347.92,216.02L354.55,222.64L354.55,232L354.55,241.36L350.97,232.71L347.4,224.07L340.78,217.44L347.4,224.07L350.97,232.71L347.4,224.07L343.83,215.42L335.18,211.85L343.83,215.42L337.20,208.80L343.83,215.42L340.25,206.78L336.68,198.13L330.06,191.51L336.68,198.13L340.25,206.78L336.68,198.13L333.11,189.49L324.46,185.92L333.11,189.49L326.48,182.87L333.11,189.49L326.48,182.87L319.86,176.24L310.50,176.24L319.86,176.24L311.21,172.67L319.86,176.24L313.23,169.62L306.61,162.99L297.97,159.42L306.61,162.99L313.23,169.62L319.86,176.24L326.48,182.87L333.11,189.49L336.68,198.13L340.25,206.78L343.83,215.42L340.25,206.78L336.68,198.13L330.06,191.51L336.68,198.13L340.25,206.78L336.68,198.13L333.11,189.49L326.48,182.87L333.11,189.49L336.68,198.13L330.06,191.51L323.43,184.89L314.08,184.89L323.43,184.89L314.79,181.31L323.43,184.89L314.79,181.31L311.21,172.67L314.79,181.31L323.43,184.89L314.08,184.89L304.72,184.89L298.10,191.51L304.72,184.89L296.08,188.46L304.72,184.89L296.08,181.31L287.43,177.74L278.08,177.74L287.43,177.74L296.08,181.31L287.43,184.89L278.79,181.31L287.43,184.89L296.08,181.31L286.72,181.31L277.37,181.31L270.74,187.94L277.37,181.31L268.72,184.89L277.37,181.31L286.72,181.31L296.08,181.31L304.72,184.89L314.08,184.89L323.43,184.89L330.06,191.51L336.68,198.13L336.68,188.78L336.68,179.42L330.06,172.80L336.68,179.42L333.11,170.78L336.68,179.42L330.06,172.80L323.43,166.18L314.79,162.60L323.43,166.18L330.06,172.80L326.48,164.15L322.91,155.51L314.26,151.94L322.91,155.51L316.28,148.89L322.91,155.51L326.48,164.15L330.06,172.80L336.68,179.42L336.68,188.78L336.68,198.13L330.06,191.51L323.43,184.89L314.79,181.31L323.43,184.89L330.06,191.51L323.43,184.89L316.81,178.26L308.16,174.69L316.81,178.26L323.43,184.89L314.79,181.31L306.14,177.74L297.50,181.31L306.14,177.74L296.79,177.74L306.14,177.74L296.79,177.74L290.16,171.11L296.79,177.74L306.14,177.74L297.50,181.31L288.85,184.89L285.28,193.53L288.85,184.89L282.23,191.51L288.85,184.89L279.50,184.89L270.14,184.89L261.50,188.46L270.14,184.89L279.50,184.89L272.87,191.51L263.52,191.51L272.87,191.51L279.50,184.89L270.85,188.46L262.21,192.03L258.63,200.68L262.21,192.03L255.59,198.66L262.21,192.03L270.85,188.46L279.50,184.89L288.85,184.89L297.50,181.31L306.14,177.74L314.79,181.31L323.43,184.89L319.86,176.24L316.28,167.60L307.64,164.02L316.28,167.60L309.66,160.97L316.28,167.60L307.64,164.02L299.00,160.45L289.64,160.45L299.00,160.45L307.64,164.02L301.02,157.40L294.39,150.77L285.04,150.77L294.39,150.77L285.75,147.20L294.39,150.77L301.02,157.40L307.64,164.02L316.28,167.60L319.86,176.24L323.43,184.89L316.81,178.26L310.18,171.64L301.54,168.06L310.18,171.64L316.81,178.26L310.18,171.64L303.56,165.01L294.20,165.01L303.56,165.01L294.92,161.44L303.56,165.01L296.94,158.39L290.31,151.77L281.67,148.19L290.31,151.77L296.94,158.39L290.31,151.77L283.69,145.14L274.33,145.14L283.69,145.14L275.05,141.57L283.69,145.14L275.05,141.57L266.4,138.00L257.76,141.57L266.4,138.00L257.05,138.00L266.4,138.00L257.76,134.42L249.11,130.85L239.76,130.85L249.11,130.85L257.76,134.42L266.4,138.00L275.05,141.57L283.69,145.14L290.31,151.77L296.94,158.39L303.56,165.01L310.18,171.64L316.81,178.26L323.43,184.89L330.06,191.51L336.68,198.13L340.25,206.78L343.83,215.42L347.4,224.07L350.97,232.71L354.55,241.36L354.55,232L354.55,222.64L350.97,214L354.55,222.64L354.55,232L354.55,222.64L354.55,213.29L347.92,206.67L354.55,213.29L350.97,204.64L354.55,213.29L354.55,203.93L354.55,194.58L350.97,185.93L354.55,194.58L354.55,203.93L354.55,194.58L354.55,185.22L347.92,178.60L354.55,185.22L350.97,176.58L354.55,185.22L350.97,176.58L347.4,167.93L338.76,164.36L347.4,167.93L340.78,161.31L347.4,167.93L343.83,159.29L340.25,150.64L333.63,144.02L340.25,150.64L343.83,159.29L347.4,167.93L350.97,176.58L354.55,185.22L354.55,194.58L354.55,203.93L354.55,213.29L354.55,203.93L354.55,194.58L350.97,185.93L354.55,194.58L354.55,203.93L354.55,194.58L354.55,185.22L347.92,178.60L354.55,185.22L350.97,176.58L354.55,185.22L354.55,175.87L354.55,166.51L350.97,157.87L354.55,166.51L354.55,175.87L354.55,166.51L354.55,157.16L347.92,150.53L354.55,157.16L350.97,148.51L354.55,157.16L350.97,148.51L347.4,139.87L338.76,136.29L347.4,139.87L340.78,133.24L347.4,139.87L343.83,131.22L340.25,122.58L333.63,115.95L340.25,122.58L343.83,131.22L347.4,139.87L350.97,148.51L354.55,157.16L354.55,166.51L354.55,175.87L354.55,185.22L350.97,176.58L347.4,167.93L340.78,161.31L347.4,167.93L350.97,176.58L347.4,167.93L343.83,159.29L337.20,152.67L343.83,159.29L347.4,167.93L340.78,161.31L334.15,154.69L324.80,154.69L334.15,154.69L325.51,151.11L334.15,154.69L325.51,151.11L321.94,142.47L325.51,151.11L334.15,154.69L324.80,154.69L315.44,154.69L308.82,161.31L315.44,154.69L306.80,158.26L315.44,154.69L306.80,151.11L298.15,147.54L288.80,147.54L298.15,147.54L306.80,151.11L298.15,154.69L289.51,151.11L298.15,154.69L306.80,151.11L297.44,151.11L288.09,151.11L281.46,157.74L288.09,151.11L279.44,154.69L288.09,151.11L297.44,151.11L306.80,151.11L315.44,154.69L324.80,154.69L334.15,154.69L340.78,161.31L347.4,167.93L347.4,158.58L347.4,149.22L340.78,142.60L347.4,149.22L343.83,140.58L347.4,149.22L340.78,142.60L334.15,135.98L325.51,132.40L334.15,135.98L340.78,142.60L337.20,133.95L333.63,125.31L324.98,121.74L333.63,125.31L327.00,118.69L333.63,125.31L337.20,133.95L340.78,142.60L347.4,149.22L347.4,158.58L347.4,167.93L340.78,161.31L334.15,154.69L325.51,151.11L334.15,154.69L340.78,161.31L337.20,152.67L333.63,144.02L324.98,140.45L333.63,144.02L327.00,137.40L333.63,144.02L333.63,134.67L333.63,125.31L330.06,116.66L333.63,125.31L333.63,134.67L333.63,144.02L337.20,152.67L340.78,161.31L347.4,167.93L338.05,167.93L331.42,161.31L338.05,167.93L347.4,167.93L338.76,164.36L330.11,160.79L321.47,164.36L330.11,160.79L320.76,160.79L330.11,160.79L338.76,164.36L347.4,167.93L338.76,164.36L330.11,160.79L320.76,160.79L330.11,160.79L338.76,164.36L330.11,160.79L321.47,157.21L312.11,157.21L321.47,157.21L330.11,160.79L320.76,160.79L311.4,160.79L304.78,167.41L311.4,160.79L302.76,164.36L311.4,160.79L302.76,164.36L294.11,160.79L302.76,164.36L311.4,160.79L304.78,167.41L298.15,174.03L298.15,183.39L298.15,174.03L294.58,182.68L298.15,174.03L289.51,177.61L280.86,181.18L274.24,187.81L280.86,181.18L289.51,177.61L285.94,186.25L277.29,189.82L285.94,186.25L289.51,177.61L282.88,184.23L276.26,190.85L276.26,200.21L276.26,190.85L272.69,199.50L276.26,190.85L282.88,184.23L289.51,177.61L298.15,174.03L304.78,167.41L311.4,160.79L320.76,160.79L330.11,160.79L323.49,154.16L316.86,147.54L307.51,147.54L316.86,147.54L308.22,143.97L316.86,147.54L307.51,147.54L298.15,147.54L289.51,151.11L298.15,147.54L307.51,147.54L298.86,143.97L290.22,140.39L281.57,143.97L290.22,140.39L280.86,140.39L290.22,140.39L298.86,143.97L307.51,147.54L316.86,147.54L323.49,154.16L330.11,160.79L323.49,154.16L316.86,147.54L308.22,143.97L316.86,147.54L323.49,154.16L316.86,147.54L310.24,140.92L300.88,140.92L310.24,140.92L301.60,137.34L310.24,140.92L303.62,134.29L296.99,127.67L288.35,124.09L296.99,127.67L303.62,134.29L296.99,127.67L290.37,121.04L281.01,121.04L290.37,121.04L281.73,117.47L290.37,121.04L281.73,117.47L273.08,113.90L264.44,117.47L273.08,113.90L263.73,113.90L273.08,113.90L264.44,110.32L255.79,106.75L246.44,106.75L255.79,106.75L264.44,110.32L273.08,113.90L281.73,117.47L290.37,121.04L296.99,127.67L303.62,134.29L310.24,140.92L300.88,140.92L291.53,140.92L282.88,144.49L291.53,140.92L300.88,140.92L292.24,137.34L283.60,133.77L274.95,137.34L283.60,133.77L274.24,133.77L283.60,133.77L276.97,127.14L270.35,120.52L261.70,116.95L270.35,120.52L276.97,127.14L283.60,133.77L292.24,137.34L300.88,140.92L310.24,140.92L303.62,147.54L294.26,147.54L303.62,147.54L310.24,140.92L301.60,144.49L292.95,148.06L289.38,156.71L292.95,148.06L286.33,154.69L292.95,148.06L301.60,144.49L310.24,140.92L301.60,137.34L292.95,133.77L283.60,133.77L292.95,133.77L301.60,137.34L292.95,133.77L284.31,130.19L274.95,130.19L284.31,130.19L292.95,133.77L283.60,133.77L274.24,133.77L267.62,140.39L274.24,133.77L265.60,137.34L274.24,133.77L265.60,137.34L256.95,133.77L265.60,137.34L274.24,133.77L267.62,140.39L260.99,147.01L260.99,156.37L260.99,147.01L257.42,155.66L260.99,147.01L252.35,150.59L243.70,154.16L237.08,160.79L243.70,154.16L252.35,150.59L248.77,159.23L240.13,162.81L248.77,159.23L252.35,150.59L245.72,157.21L239.10,163.84L239.10,173.19L239.10,163.84L235.53,172.48L239.10,163.84L245.72,157.21L252.35,150.59L260.99,147.01L267.62,140.39L274.24,133.77L283.60,133.77L292.95,133.77L286.33,127.14L279.70,120.52L270.35,120.52L279.70,120.52L271.06,116.95L279.70,120.52L270.35,120.52L260.99,120.52L252.35,124.09L260.99,120.52L270.35,120.52L261.70,116.95L253.06,113.37L244.41,116.95L253.06,113.37L243.70,113.37L253.06,113.37L261.70,116.95L270.35,120.52L279.70,120.52L286.33,127.14L292.95,133.77L301.60,137.34L310.24,140.92L316.86,147.54L323.49,154.16L330.11,160.79L338.76,164.36L347.4,167.93L350.97,176.58L354.55,185.22L358.12,176.58L361.69,167.93L361.69,158.58L361.69,167.93L358.12,176.58L361.69,167.93L365.27,159.29L365.27,149.93L365.27,159.29L361.69,167.93L361.69,158.58L361.69,149.22L355.07,142.60L361.69,149.22L358.12,140.58L361.69,149.22L358.12,140.58L361.69,131.93L358.12,140.58L361.69,149.22L355.07,142.60L348.45,135.98L339.09,135.98L348.45,135.98L339.80,132.40L348.45,135.98L344.87,127.33L341.3,118.69L334.68,112.06L341.3,118.69L344.87,127.33L336.23,123.76L332.66,115.11L336.23,123.76L344.87,127.33L338.25,120.71L331.63,114.08L322.27,114.08L331.63,114.08L322.98,110.51L331.63,114.08L338.25,120.71L344.87,127.33L348.45,135.98L355.07,142.60L361.69,149.22L361.69,158.58L361.69,167.93L368.32,161.31L374.94,154.69L374.94,145.33L374.94,154.69L378.52,146.04L374.94,154.69L374.94,145.33L374.94,135.98L371.37,127.33L374.94,135.98L374.94,145.33L378.52,136.69L382.09,128.04L378.52,119.40L382.09,128.04L382.09,118.69L382.09,128.04L378.52,136.69L374.94,145.33L374.94,154.69L368.32,161.31L361.69,167.93L358.12,159.29L354.55,150.64L347.92,144.02L354.55,150.64L358.12,159.29L354.55,150.64L350.97,142L342.33,138.43L350.97,142L344.35,135.38L350.97,142L347.4,133.36L343.83,124.71L337.20,118.09L343.83,124.71L347.4,133.36L343.83,124.71L340.25,116.07L331.61,112.49L340.25,116.07L333.63,109.44L340.25,116.07L333.63,109.44L327.00,102.82L317.65,102.82L327.00,102.82L318.36,99.25L327.00,102.82L320.38,96.19L313.76,89.57L305.11,86.00L313.76,89.57L320.38,96.19L327.00,102.82L333.63,109.44L340.25,116.07L343.83,124.71L347.4,133.36L350.97,142L350.97,132.64L350.97,123.29L347.4,114.64L350.97,123.29L350.97,132.64L350.97,123.29L350.97,113.93L347.4,105.29L350.97,113.93L350.97,123.29L347.4,114.64L343.83,106L335.18,102.43L343.83,106L337.20,99.38L343.83,106L337.20,99.38L337.20,90.02L337.20,99.38L343.83,106L335.18,102.43L326.54,98.85L317.89,102.43L326.54,98.85L317.18,98.85L326.54,98.85L319.91,92.23L313.29,85.61L304.65,82.03L313.29,85.61L319.91,92.23L310.56,92.23L303.94,85.61L310.56,92.23L319.91,92.23L311.27,88.65L302.63,85.08L293.98,88.65L302.63,85.08L293.27,85.08L302.63,85.08L311.27,88.65L319.91,92.23L326.54,98.85L335.18,102.43L343.83,106L347.4,114.64L350.97,123.29L354.55,114.64L358.12,106L354.55,97.36L358.12,106L358.12,96.64L358.12,106L354.55,97.36L350.97,88.71L344.35,82.09L350.97,88.71L354.55,97.36L354.55,88L354.55,78.64L347.92,72.02L354.55,78.64L350.97,70L354.55,78.64L354.55,88L354.55,97.36L358.12,106L354.55,114.64L350.97,123.29L350.97,132.64L350.97,142L354.55,150.64L358.12,159.29L361.69,167.93L358.12,176.58L354.55,185.22L354.55,194.58L354.55,203.93L354.55,213.29L354.55,222.64L354.55,232L354.55,241.36L358.12,250L361.69,258.64L365.27,267.29L368.84,275.93L372.42,284.58L368.84,293.22L365.27,301.87L361.69,310.51L358.12,319.16L354.55,327.8L350.97,336.44"/>

  </g>
<style >
          path {

            stroke-dasharray: 45272;
            stroke-dashoffset: 45272;
            animation: draw 60s linear forwards;
          }
          
          @keyframes draw {
            from {
              stroke-dashoffset: 45272;
            }
          
            to {
              stroke-dashoffset: 0;
            }
          }

          @-webkit-keyframes draw {
              to {
                  stroke-dashoffset: 0;
              }
          }          
          </style>


</svg>
