<?xml version="1.0" standalone="no"?>
<!DOCTYPE svg PUBLIC "-//W3C//DTD SVG 1.1//EN" "http://www.w3.org/Graphics/SVG/1.1/DTD/svg11.dtd">
<svg width="500" height="500" title="polygons" version="1.1" viewBox="0 0 500 500" xmlns="http://www.w3.org/2000/svg" class="svg-paper"  style="background-color:black">
  <g>
    <!--  Created by Sandify -->
    <!--  https://sandify.org -->
    <!--  Version: 0.2.8 -->

    <!--  Machine type: Rectangular -->
    <!--    Min X (mm): 0 -->
    <!--    Max X (mm): 500 -->
    <!--    Min Y (mm): 0 -->
    <!--    Max Y (mm): 500 -->
    <!--  Content type: shape -->
    <!--  Layer: -->
    <!--    Shape: Fractal Line Writer -->
    <!--    Name: fractal line writer -->
    <!--    Type: Fractal Tree 3 -->
    <!--    Iterations: 4 -->
    <!--    Visible: true -->
    <!--    Initial width: 20 -->
    <!--    Initial height: 20 -->
    <!--    X offset: 0 -->
    <!--    Y offset: 0 -->
    <!--    Rotate (degrees): 0 -->
    <!--    Reverse path: false -->
    <!--    Fine tuning: -->
    <!--      Connect to next layer: line -->
    <!--      Draw portion of path (%): 100 -->
    <!--      Backtrack at end (%): 0 -->
    <!--      Rotate starting point (%): 0 -->
    <!--  Reverse export path: false -->

    <!-- File name: 'factoral line writer tree 3' -->
    <!-- File type: svg -->


    <desc>pwidth:500;pheight:500;</desc>
    <path
        class="path"
       stroke="white"
       stroke-width="0.2mm"
       fill="none"
       d="M280.86,430L280.86,430L280.86,422.35L280.86,414.7L280.86,407.05L280.86,399.40L280.86,391.75L280.86,384.10L280.86,376.45L280.86,368.80L280.86,361.15L280.86,353.50L280.86,345.85L280.86,338.20L280.86,330.55L280.86,322.90L280.86,315.25L280.86,307.60L283.78,300.53L286.70,293.47L289.63,286.40L292.55,279.33L295.47,272.26L298.39,265.19L301.31,258.12L304.24,251.06L309.65,245.64L315.07,240.22L320.49,234.81L325.90,229.39L332.97,226.47L340.04,223.55L347.69,223.55L340.04,223.55L332.97,226.47L335.89,219.40L338.81,212.33L335.89,219.40L332.97,226.47L340.62,226.47L332.97,226.47L332.97,218.82L332.97,226.47L338.39,221.05L343.80,215.64L350.87,212.72L357.94,209.79L365.59,209.79L357.94,209.79L350.87,212.72L353.79,205.65L356.72,198.58L353.79,205.65L350.87,212.72L358.52,212.72L350.87,212.72L350.87,205.06L350.87,212.72L343.80,215.64L338.39,221.05L332.97,226.47L325.90,229.39L320.49,234.81L315.07,240.22L315.07,232.57L315.07,224.92L315.07,217.27L315.07,209.62L315.07,217.27L315.07,224.92L315.07,232.57L315.07,240.22L322.14,237.30L329.21,234.38L336.86,234.38L329.21,234.38L322.14,237.30L325.06,230.23L327.98,223.16L325.06,230.23L322.14,237.30L329.79,237.30L322.14,237.30L322.14,229.65L322.14,237.30L327.55,231.88L332.97,226.47L335.89,219.40L338.81,212.33L344.23,206.92L338.81,212.33L335.89,219.40L332.97,212.33L330.05,205.26L332.97,212.33L335.89,219.40L341.31,213.99L335.89,219.40L330.48,213.99L335.89,219.40L332.97,226.47L327.55,231.88L322.14,237.30L315.07,240.22L312.15,233.15L309.23,226.09L309.23,218.44L309.23,210.79L312.15,203.72L309.23,210.79L309.23,218.44L303.81,213.02L298.39,207.61L303.81,213.02L309.23,218.44L312.15,211.37L309.23,218.44L302.16,215.51L309.23,218.44L309.23,226.09L312.15,233.15L315.07,240.22L317.99,233.15L320.91,226.09L323.84,219.02L326.76,211.95L332.17,206.53L337.59,201.12L343.01,195.70L348.42,190.29L355.49,187.36L362.56,184.44L370.21,184.44L362.56,184.44L355.49,187.36L358.41,180.30L361.33,173.23L358.41,180.30L355.49,187.36L363.14,187.36L355.49,187.36L355.49,179.71L355.49,187.36L360.91,181.95L366.32,176.53L373.39,173.61L380.46,170.69L388.11,170.69L380.46,170.69L373.39,173.61L376.31,166.54L379.24,159.47L376.31,166.54L373.39,173.61L381.04,173.61L373.39,173.61L373.39,165.96L373.39,173.61L366.32,176.53L360.91,181.95L355.49,187.36L348.42,190.29L343.01,195.70L337.59,201.12L337.59,193.47L337.59,185.82L337.59,178.17L337.59,170.52L337.59,178.17L337.59,185.82L337.59,193.47L337.59,201.12L344.66,198.19L351.73,195.27L359.38,195.27L351.73,195.27L344.66,198.19L347.58,191.13L350.50,184.06L347.58,191.13L344.66,198.19L352.31,198.19L344.66,198.19L344.66,190.55L344.66,198.19L350.07,192.78L355.49,187.36L358.41,180.30L361.33,173.23L366.75,167.81L361.33,173.23L358.41,180.30L355.49,173.23L352.57,166.16L355.49,173.23L358.41,180.30L363.83,174.88L358.41,180.30L353.00,174.88L358.41,180.30L355.49,187.36L350.07,192.78L344.66,198.19L337.59,201.12L334.67,194.05L331.75,186.98L331.75,179.33L331.75,171.68L334.67,164.61L331.75,171.68L331.75,179.33L326.33,173.92L320.91,168.50L326.33,173.92L331.75,179.33L334.67,172.26L331.75,179.33L324.68,176.41L331.75,179.33L331.75,186.98L334.67,194.05L337.59,201.12L332.17,206.53L326.76,211.95L323.84,219.02L320.91,226.09L317.99,233.15L315.07,240.22L309.65,245.64L304.24,251.06L301.31,258.12L298.39,265.19L295.47,272.26L292.55,279.33L289.63,272.26L286.70,265.19L283.78,258.12L280.86,251.06L277.94,243.99L275.01,236.92L272.09,229.85L269.17,222.78L272.09,229.85L275.01,236.92L277.94,243.99L280.86,251.06L283.78,258.12L286.70,265.19L289.63,272.26L292.55,279.33L297.96,273.91L303.38,268.50L308.80,263.08L314.21,257.66L321.28,254.74L328.35,251.82L336.00,251.82L328.35,251.82L321.28,254.74L324.20,247.67L327.13,240.61L324.20,247.67L321.28,254.74L328.93,254.74L321.28,254.74L321.28,247.09L321.28,254.74L326.70,249.33L332.11,243.91L339.18,240.99L346.25,238.07L353.9,238.07L346.25,238.07L339.18,240.99L342.10,233.92L345.03,226.85L342.10,233.92L339.18,240.99L346.83,240.99L339.18,240.99L339.18,233.34L339.18,240.99L332.11,243.91L326.70,249.33L321.28,254.74L314.21,257.66L308.80,263.08L303.38,268.50L303.38,260.85L303.38,253.20L303.38,245.55L303.38,237.90L303.38,245.55L303.38,253.20L303.38,260.85L303.38,268.50L310.45,265.57L317.52,262.65L325.17,262.65L317.52,262.65L310.45,265.57L313.37,258.51L316.29,251.44L313.37,258.51L310.45,265.57L318.10,265.57L310.45,265.57L310.45,257.93L310.45,265.57L315.87,260.16L321.28,254.74L324.20,247.67L327.13,240.61L332.54,235.19L327.13,240.61L324.20,247.67L321.28,240.61L318.36,233.54L321.28,240.61L324.20,247.67L329.62,242.26L324.20,247.67L318.79,242.26L324.20,247.67L321.28,254.74L315.87,260.16L310.45,265.57L303.38,268.50L300.46,261.43L297.54,254.36L297.54,246.71L297.54,239.06L300.46,231.99L297.54,239.06L297.54,246.71L292.12,241.30L286.70,235.88L292.12,241.30L297.54,246.71L300.46,239.64L297.54,246.71L290.47,243.79L297.54,246.71L297.54,254.36L300.46,261.43L303.38,268.50L306.30,261.43L309.23,254.36L312.15,247.29L315.07,240.22L315.07,232.57L315.07,224.92L315.07,217.27L315.07,209.62L317.99,202.56L320.91,195.49L326.33,190.07L320.91,195.49L317.99,202.56L315.07,195.49L312.15,188.42L315.07,195.49L317.99,202.56L323.41,197.14L317.99,202.56L312.57,197.14L317.99,202.56L317.99,194.91L317.99,187.26L320.91,180.19L323.84,173.12L329.25,167.70L323.84,173.12L320.91,180.19L317.99,173.12L315.07,166.05L317.99,173.12L320.91,180.19L326.33,174.77L320.91,180.19L315.50,174.77L320.91,180.19L317.99,187.26L317.99,194.91L317.99,202.56L315.07,209.62L315.07,217.27L315.07,224.92L309.65,219.51L304.24,214.09L298.82,208.68L293.40,203.26L298.82,208.68L304.24,214.09L309.65,219.51L315.07,224.92L317.99,217.86L320.91,210.79L326.33,205.37L320.91,210.79L317.99,217.86L315.07,210.79L312.15,203.72L315.07,210.79L317.99,217.86L323.41,212.44L317.99,217.86L312.57,212.44L317.99,217.86L317.99,210.21L317.99,202.56L315.07,195.49L312.15,188.42L312.15,180.77L312.15,188.42L315.07,195.49L308.00,192.56L300.93,189.64L308.00,192.56L315.07,195.49L315.07,187.84L315.07,195.49L307.42,195.49L315.07,195.49L317.99,202.56L317.99,210.21L317.99,217.86L315.07,224.92L308.00,222.00L300.93,219.08L295.52,213.66L290.1,208.25L287.18,201.18L290.1,208.25L295.52,213.66L287.87,213.66L280.22,213.66L287.87,213.66L295.52,213.66L292.59,206.60L295.52,213.66L288.45,216.59L295.52,213.66L300.93,219.08L308.00,222.00L315.07,224.92L315.07,232.57L315.07,240.22L312.15,247.29L309.23,254.36L306.30,261.43L303.38,268.50L297.96,273.91L292.55,279.33L287.13,273.91L281.72,268.50L276.3,263.08L270.88,257.66L267.96,250.60L265.04,243.53L262.12,236.46L259.19,229.39L259.19,221.74L259.19,214.09L262.12,207.02L259.19,214.09L259.19,221.74L253.78,216.33L248.36,210.91L253.78,216.33L259.19,221.74L262.12,214.67L259.19,221.74L252.13,218.82L259.19,221.74L256.27,214.67L253.35,207.61L253.35,199.95L253.35,192.31L256.27,185.24L253.35,192.31L253.35,199.95L247.94,194.54L242.52,189.12L247.94,194.54L253.35,199.95L256.27,192.89L253.35,199.95L246.28,197.03L253.35,199.95L253.35,207.61L256.27,214.67L259.19,221.74L259.19,229.39L262.12,236.46L265.04,243.53L257.97,240.61L250.90,237.68L243.83,234.76L236.77,231.84L243.83,234.76L250.90,237.68L257.97,240.61L265.04,243.53L265.04,235.88L265.04,228.23L267.96,221.16L265.04,228.23L265.04,235.88L259.62,230.46L254.21,225.05L259.62,230.46L265.04,235.88L267.96,228.81L265.04,235.88L257.97,232.96L265.04,235.88L262.12,228.81L259.19,221.74L253.78,216.33L248.36,210.91L245.44,203.84L248.36,210.91L253.78,216.33L246.13,216.33L238.48,216.33L246.13,216.33L253.78,216.33L250.86,209.26L253.78,216.33L246.71,219.25L253.78,216.33L259.19,221.74L262.12,228.81L265.04,235.88L265.04,243.53L257.39,243.53L249.74,243.53L242.67,240.61L235.60,237.68L230.19,232.27L235.60,237.68L242.67,240.61L235.60,243.53L228.53,246.45L235.60,243.53L242.67,240.61L237.25,235.19L242.67,240.61L237.25,246.02L242.67,240.61L249.74,243.53L257.39,243.53L265.04,243.53L267.96,250.60L270.88,257.66L276.3,263.08L281.72,268.50L287.13,273.91L292.55,279.33L292.55,271.68L292.55,264.03L292.55,256.38L292.55,248.73L292.55,241.08L292.55,233.43L292.55,225.78L292.55,218.13L295.47,211.06L298.39,203.99L301.31,196.93L304.24,189.86L307.16,182.79L310.08,175.72L313.00,168.65L315.93,161.58L321.34,156.17L326.76,150.75L332.17,145.33L337.59,139.92L344.66,137.00L351.73,134.07L359.38,134.07L351.73,134.07L344.66,137.00L347.58,129.93L350.50,122.86L347.58,129.93L344.66,137.00L352.31,137.00L344.66,137.00L344.66,129.35L344.66,137.00L350.07,131.58L355.49,126.17L362.56,123.24L369.63,120.32L377.28,120.32L369.63,120.32L362.56,123.24L365.48,116.17L368.40,109.11L365.48,116.17L362.56,123.24L370.21,123.24L362.56,123.24L362.56,115.59L362.56,123.24L355.49,126.17L350.07,131.58L344.66,137.00L337.59,139.92L332.17,145.33L326.76,150.75L326.76,143.10L326.76,135.45L326.76,127.80L326.76,120.15L326.76,127.80L326.76,135.45L326.76,143.10L326.76,150.75L333.83,147.83L340.89,144.91L348.55,144.91L340.89,144.91L333.83,147.83L336.75,140.76L339.67,133.69L336.75,140.76L333.83,147.83L341.48,147.83L333.83,147.83L333.83,140.18L333.83,147.83L339.24,142.41L344.66,137.00L347.58,129.93L350.50,122.86L355.92,117.44L350.50,122.86L347.58,129.93L344.66,122.86L341.74,115.79L344.66,122.86L347.58,129.93L353.00,124.51L347.58,129.93L342.17,124.51L347.58,129.93L344.66,137.00L339.24,142.41L333.83,147.83L326.76,150.75L323.84,143.68L320.91,136.62L320.91,128.97L320.91,121.31L323.84,114.25L320.91,121.31L320.91,128.97L315.50,123.55L310.08,118.13L315.50,123.55L320.91,128.97L323.84,121.90L320.91,128.97L313.85,126.04L320.91,128.97L320.91,136.62L323.84,143.68L326.76,150.75L329.68,143.68L332.60,136.62L335.52,129.55L338.45,122.48L343.86,117.06L349.28,111.65L354.69,106.23L360.11,100.81L367.18,97.89L374.25,94.97L381.90,94.97L374.25,94.97L367.18,97.89L370.10,90.82L373.02,83.75L370.10,90.82L367.18,97.89L374.83,97.89L367.18,97.89L367.18,90.24L367.18,97.89L372.60,92.48L378.01,87.06L385.08,84.14L392.15,81.22L399.80,81.22L392.15,81.22L385.08,84.14L388.00,77.07L390.93,70L388.00,77.07L385.08,84.14L392.73,84.14L385.08,84.14L385.08,76.49L385.08,84.14L378.01,87.06L372.60,92.48L367.18,97.89L360.11,100.81L354.69,106.23L349.28,111.65L349.28,104.00L349.28,96.35L349.28,88.70L349.28,81.05L349.28,88.70L349.28,96.35L349.28,104.00L349.28,111.65L356.35,108.72L363.42,105.80L371.07,105.80L363.42,105.80L356.35,108.72L359.27,101.65L362.19,94.59L359.27,101.65L356.35,108.72L364.00,108.72L356.35,108.72L356.35,101.07L356.35,108.72L361.76,103.31L367.18,97.89L370.10,90.82L373.02,83.75L378.44,78.34L373.02,83.75L370.10,90.82L367.18,83.75L364.26,76.69L367.18,83.75L370.10,90.82L375.52,85.41L370.10,90.82L364.69,85.41L370.10,90.82L367.18,97.89L361.76,103.31L356.35,108.72L349.28,111.65L346.36,104.58L343.44,97.51L343.44,89.86L343.44,82.21L346.36,75.14L343.44,82.21L343.44,89.86L338.02,84.44L332.60,79.03L338.02,84.44L343.44,89.86L346.36,82.79L343.44,89.86L336.37,86.94L343.44,89.86L343.44,97.51L346.36,104.58L349.28,111.65L343.86,117.06L338.45,122.48L335.52,129.55L332.60,136.62L329.68,143.68L326.76,150.75L321.34,156.17L315.93,161.58L313.00,168.65L310.08,175.72L307.16,182.79L304.24,189.86L301.31,182.79L298.39,175.72L295.47,168.65L292.55,161.58L289.63,154.51L286.70,147.45L283.78,140.38L280.86,133.31L283.78,140.38L286.70,147.45L289.63,154.51L292.55,161.58L295.47,168.65L298.39,175.72L301.31,182.79L304.24,189.86L309.65,184.44L315.07,179.02L320.49,173.61L325.90,168.19L332.97,165.27L340.04,162.35L347.69,162.35L340.04,162.35L332.97,165.27L335.89,158.20L338.81,151.13L335.89,158.20L332.97,165.27L340.62,165.27L332.97,165.27L332.97,157.62L332.97,165.27L338.39,159.86L343.80,154.44L350.87,151.52L357.94,148.59L365.59,148.59L357.94,148.59L350.87,151.52L353.79,144.45L356.72,137.38L353.79,144.45L350.87,151.52L358.52,151.52L350.87,151.52L350.87,143.87L350.87,151.52L343.80,154.44L338.39,159.86L332.97,165.27L325.90,168.19L320.49,173.61L315.07,179.02L315.07,171.38L315.07,163.73L315.07,156.08L315.07,148.43L315.07,156.08L315.07,163.73L315.07,171.38L315.07,179.02L322.14,176.10L329.21,173.18L336.86,173.18L329.21,173.18L322.14,176.10L325.06,169.03L327.98,161.97L325.06,169.03L322.14,176.10L329.79,176.10L322.14,176.10L322.14,168.45L322.14,176.10L327.55,170.69L332.97,165.27L335.89,158.20L338.81,151.13L344.23,145.72L338.81,151.13L335.89,158.20L332.97,151.13L330.05,144.06L332.97,151.13L335.89,158.20L341.31,152.79L335.89,158.20L330.48,152.79L335.89,158.20L332.97,165.27L327.55,170.69L322.14,176.10L315.07,179.02L312.15,171.96L309.23,164.89L309.23,157.24L309.23,149.59L312.15,142.52L309.23,149.59L309.23,157.24L303.81,151.82L298.39,146.41L303.81,151.82L309.23,157.24L312.15,150.17L309.23,157.24L302.16,154.32L309.23,157.24L309.23,164.89L312.15,171.96L315.07,179.02L317.99,171.96L320.91,164.89L323.84,157.82L326.76,150.75L326.76,143.10L326.76,135.45L326.76,127.80L326.76,120.15L329.68,113.08L332.60,106.01L338.02,100.60L332.60,106.01L329.68,113.08L326.76,106.01L323.84,98.95L326.76,106.01L329.68,113.08L335.10,107.67L329.68,113.08L324.26,107.67L329.68,113.08L329.68,105.43L329.68,97.78L332.60,90.72L335.52,83.65L340.94,78.23L335.52,83.65L332.60,90.72L329.68,83.65L326.76,76.58L329.68,83.65L332.60,90.72L338.02,85.30L332.60,90.72L327.19,85.30L332.60,90.72L329.68,97.78L329.68,105.43L329.68,113.08L326.76,120.15L326.76,127.80L326.76,135.45L321.34,130.04L315.93,124.62L310.51,119.20L305.09,113.79L310.51,119.20L315.93,124.62L321.34,130.04L326.76,135.45L329.68,128.38L332.60,121.31L338.02,115.90L332.60,121.31L329.68,128.38L326.76,121.31L323.84,114.25L326.76,121.31L329.68,128.38L335.10,122.97L329.68,128.38L324.26,122.97L329.68,128.38L329.68,120.73L329.68,113.08L326.76,106.01L323.84,98.95L323.84,91.30L323.84,98.95L326.76,106.01L319.69,103.09L312.62,100.17L319.69,103.09L326.76,106.01L326.76,98.37L326.76,106.01L319.11,106.01L326.76,106.01L329.68,113.08L329.68,120.73L329.68,128.38L326.76,135.45L319.69,132.53L312.62,129.61L307.20,124.19L301.79,118.77L298.87,111.71L301.79,118.77L307.20,124.19L299.56,124.19L291.91,124.19L299.56,124.19L307.20,124.19L304.28,117.12L307.20,124.19L300.14,127.11L307.20,124.19L312.62,129.61L319.69,132.53L326.76,135.45L326.76,143.10L326.76,150.75L323.84,157.82L320.91,164.89L317.99,171.96L315.07,179.02L309.65,184.44L304.24,189.86L298.82,184.44L293.40,179.02L287.99,173.61L282.57,168.19L279.65,161.13L276.73,154.06L273.81,146.99L270.88,139.92L270.88,132.27L270.88,124.62L273.81,117.55L270.88,124.62L270.88,132.27L265.47,126.85L260.05,121.44L265.47,126.85L270.88,132.27L273.81,125.20L270.88,132.27L263.82,129.35L270.88,132.27L267.96,125.20L265.04,118.13L265.04,110.48L265.04,102.83L267.96,95.76L265.04,102.83L265.04,110.48L259.62,105.07L254.21,99.65L259.62,105.07L265.04,110.48L267.96,103.41L265.04,110.48L257.97,107.56L265.04,110.48L265.04,118.13L267.96,125.20L270.88,132.27L270.88,139.92L273.81,146.99L276.73,154.06L269.66,151.13L262.59,148.21L255.52,145.29L248.46,142.37L255.52,145.29L262.59,148.21L269.66,151.13L276.73,154.06L276.73,146.41L276.73,138.76L279.65,131.69L276.73,138.76L276.73,146.41L271.31,140.99L265.90,135.57L271.31,140.99L276.73,146.41L279.65,139.34L276.73,146.41L269.66,143.48L276.73,146.41L273.81,139.34L270.88,132.27L265.47,126.85L260.05,121.44L257.13,114.37L260.05,121.44L265.47,126.85L257.82,126.85L250.17,126.85L257.82,126.85L265.47,126.85L262.55,119.78L265.47,126.85L258.40,129.78L265.47,126.85L270.88,132.27L273.81,139.34L276.73,146.41L276.73,154.06L269.08,154.06L261.43,154.06L254.36,151.13L247.29,148.21L241.88,142.80L247.29,148.21L254.36,151.13L247.29,154.06L240.22,156.98L247.29,154.06L254.36,151.13L248.94,145.72L254.36,151.13L248.94,156.55L254.36,151.13L261.43,154.06L269.08,154.06L276.73,154.06L279.65,161.13L282.57,168.19L287.99,173.61L293.40,179.02L298.82,184.44L304.24,189.86L301.31,196.93L298.39,203.99L295.47,211.06L292.55,218.13L292.55,225.78L292.55,233.43L292.55,241.08L292.55,248.73L292.55,256.38L292.55,264.03L292.55,271.68L292.55,279.33L289.63,286.40L286.70,293.47L283.78,300.53L280.86,307.60L280.86,315.25L280.86,322.90L280.86,330.55L280.86,338.20L280.86,345.85L280.86,353.50L280.86,361.15L280.86,368.80L275.44,363.38L270.03,357.97L264.61,352.55L259.19,347.14L253.78,341.72L248.36,336.31L242.95,330.89L237.53,325.47L232.12,320.06L226.70,314.64L221.28,309.23L215.87,303.81L210.45,298.39L205.03,292.98L199.62,287.56L194.20,282.14L199.62,287.56L205.03,292.98L210.45,298.39L215.87,303.81L221.28,309.23L226.70,314.64L232.12,320.06L237.53,325.47L242.95,330.89L248.36,336.31L253.78,341.72L259.19,347.14L264.61,352.55L270.03,357.97L275.44,363.38L280.86,368.80L283.78,361.73L286.70,354.67L289.63,347.60L292.55,340.53L295.47,333.46L298.39,326.39L301.31,319.32L304.24,312.25L309.65,306.84L315.07,301.42L320.49,296.01L325.90,290.59L332.97,287.67L340.04,284.75L347.69,284.75L340.04,284.75L332.97,287.67L335.89,280.60L338.81,273.53L335.89,280.60L332.97,287.67L340.62,287.67L332.97,287.67L332.97,280.02L332.97,287.67L338.39,282.25L343.80,276.84L350.87,273.91L357.94,270.99L365.59,270.99L357.94,270.99L350.87,273.91L353.79,266.85L356.72,259.78L353.79,266.85L350.87,273.91L358.52,273.91L350.87,273.91L350.87,266.26L350.87,273.91L343.80,276.84L338.39,282.25L332.97,287.67L325.90,290.59L320.49,296.01L315.07,301.42L315.07,293.77L315.07,286.12L315.07,278.47L315.07,270.82L315.07,278.47L315.07,286.12L315.07,293.77L315.07,301.42L322.14,298.5L329.21,295.58L336.86,295.58L329.21,295.58L322.14,298.5L325.06,291.43L327.98,284.36L325.06,291.43L322.14,298.5L329.79,298.5L322.14,298.5L322.14,290.85L322.14,298.5L327.55,293.08L332.97,287.67L335.89,280.60L338.81,273.53L344.23,268.12L338.81,273.53L335.89,280.60L332.97,273.53L330.05,266.46L332.97,273.53L335.89,280.60L341.31,275.18L335.89,280.60L330.48,275.18L335.89,280.60L332.97,287.67L327.55,293.08L322.14,298.5L315.07,301.42L312.15,294.35L309.23,287.28L309.23,279.63L309.23,271.99L312.15,264.92L309.23,271.99L309.23,279.63L303.81,274.22L298.39,268.80L303.81,274.22L309.23,279.63L312.15,272.57L309.23,279.63L302.16,276.71L309.23,279.63L309.23,287.28L312.15,294.35L315.07,301.42L317.99,294.35L320.91,287.28L323.84,280.22L326.76,273.15L332.17,267.73L337.59,262.32L343.01,256.9L348.42,251.48L355.49,248.56L362.56,245.64L370.21,245.64L362.56,245.64L355.49,248.56L358.41,241.49L361.33,234.43L358.41,241.49L355.49,248.56L363.14,248.56L355.49,248.56L355.49,240.91L355.49,248.56L360.91,243.15L366.32,237.73L373.39,234.81L380.46,231.88L388.11,231.88L380.46,231.88L373.39,234.81L376.31,227.74L379.24,220.67L376.31,227.74L373.39,234.81L381.04,234.81L373.39,234.81L373.39,227.16L373.39,234.81L366.32,237.73L360.91,243.15L355.49,248.56L348.42,251.48L343.01,256.9L337.59,262.32L337.59,254.67L337.59,247.02L337.59,239.37L337.59,231.72L337.59,239.37L337.59,247.02L337.59,254.67L337.59,262.32L344.66,259.39L351.73,256.47L359.38,256.47L351.73,256.47L344.66,259.39L347.58,252.33L350.50,245.26L347.58,252.33L344.66,259.39L352.31,259.39L344.66,259.39L344.66,251.74L344.66,259.39L350.07,253.98L355.49,248.56L358.41,241.49L361.33,234.43L366.75,229.01L361.33,234.43L358.41,241.49L355.49,234.43L352.57,227.36L355.49,234.43L358.41,241.49L363.83,236.08L358.41,241.49L353.00,236.08L358.41,241.49L355.49,248.56L350.07,253.98L344.66,259.39L337.59,262.32L334.67,255.25L331.75,248.18L331.75,240.53L331.75,232.88L334.67,225.81L331.75,232.88L331.75,240.53L326.33,235.11L320.91,229.70L326.33,235.11L331.75,240.53L334.67,233.46L331.75,240.53L324.68,237.61L331.75,240.53L331.75,248.18L334.67,255.25L337.59,262.32L332.17,267.73L326.76,273.15L323.84,280.22L320.91,287.28L317.99,294.35L315.07,301.42L309.65,306.84L304.24,312.25L301.31,319.32L298.39,326.39L295.47,333.46L292.55,340.53L289.63,333.46L286.70,326.39L283.78,319.32L280.86,312.25L277.94,305.19L275.01,298.12L272.09,291.05L269.17,283.98L272.09,291.05L275.01,298.12L277.94,305.19L280.86,312.25L283.78,319.32L286.70,326.39L289.63,333.46L292.55,340.53L297.96,335.11L303.38,329.70L308.80,324.28L314.21,318.86L321.28,315.94L328.35,313.02L336.00,313.02L328.35,313.02L321.28,315.94L324.20,308.87L327.13,301.81L324.20,308.87L321.28,315.94L328.93,315.94L321.28,315.94L321.28,308.29L321.28,315.94L326.70,310.52L332.11,305.11L339.18,302.19L346.25,299.26L353.9,299.26L346.25,299.26L339.18,302.19L342.10,295.12L345.03,288.05L342.10,295.12L339.18,302.19L346.83,302.19L339.18,302.19L339.18,294.54L339.18,302.19L332.11,305.11L326.70,310.52L321.28,315.94L314.21,318.86L308.80,324.28L303.38,329.70L303.38,322.05L303.38,314.40L303.38,306.75L303.38,299.10L303.38,306.75L303.38,314.40L303.38,322.05L303.38,329.70L310.45,326.77L317.52,323.85L325.17,323.85L317.52,323.85L310.45,326.77L313.37,319.70L316.29,312.64L313.37,319.70L310.45,326.77L318.10,326.77L310.45,326.77L310.45,319.12L310.45,326.77L315.87,321.36L321.28,315.94L324.20,308.87L327.13,301.81L332.54,296.39L327.13,301.81L324.20,308.87L321.28,301.81L318.36,294.74L321.28,301.81L324.20,308.87L329.62,303.46L324.20,308.87L318.79,303.46L324.20,308.87L321.28,315.94L315.87,321.36L310.45,326.77L303.38,329.70L300.46,322.63L297.54,315.56L297.54,307.91L297.54,300.26L300.46,293.19L297.54,300.26L297.54,307.91L292.12,302.49L286.70,297.08L292.12,302.49L297.54,307.91L300.46,300.84L297.54,307.91L290.47,304.99L297.54,307.91L297.54,315.56L300.46,322.63L303.38,329.70L306.30,322.63L309.23,315.56L312.15,308.49L315.07,301.42L315.07,293.77L315.07,286.12L315.07,278.47L315.07,270.82L317.99,263.75L320.91,256.69L326.33,251.27L320.91,256.69L317.99,263.75L315.07,256.69L312.15,249.62L315.07,256.69L317.99,263.75L323.41,258.34L317.99,263.75L312.57,258.34L317.99,263.75L317.99,256.11L317.99,248.46L320.91,241.39L323.84,234.32L329.25,228.90L323.84,234.32L320.91,241.39L317.99,234.32L315.07,227.25L317.99,234.32L320.91,241.39L326.33,235.97L320.91,241.39L315.50,235.97L320.91,241.39L317.99,248.46L317.99,256.11L317.99,263.75L315.07,270.82L315.07,278.47L315.07,286.12L309.65,280.71L304.24,275.29L298.82,269.87L293.40,264.46L298.82,269.87L304.24,275.29L309.65,280.71L315.07,286.12L317.99,279.05L320.91,271.99L326.33,266.57L320.91,271.99L317.99,279.05L315.07,271.99L312.15,264.92L315.07,271.99L317.99,279.05L323.41,273.64L317.99,279.05L312.57,273.64L317.99,279.05L317.99,271.40L317.99,263.75L315.07,256.69L312.15,249.62L312.15,241.97L312.15,249.62L315.07,256.69L308.00,253.76L300.93,250.84L308.00,253.76L315.07,256.69L315.07,249.04L315.07,256.69L307.42,256.69L315.07,256.69L317.99,263.75L317.99,271.40L317.99,279.05L315.07,286.12L308.00,283.2L300.93,280.28L295.52,274.86L290.1,269.45L287.18,262.38L290.1,269.45L295.52,274.86L287.87,274.86L280.22,274.86L287.87,274.86L295.52,274.86L292.59,267.79L295.52,274.86L288.45,277.78L295.52,274.86L300.93,280.28L308.00,283.2L315.07,286.12L315.07,293.77L315.07,301.42L312.15,308.49L309.23,315.56L306.30,322.63L303.38,329.70L297.96,335.11L292.55,340.53L287.13,335.11L281.72,329.70L276.3,324.28L270.88,318.86L267.96,311.80L265.04,304.73L262.12,297.66L259.19,290.59L259.19,282.94L259.19,275.29L262.12,268.22L259.19,275.29L259.19,282.94L253.78,277.52L248.36,272.11L253.78,277.52L259.19,282.94L262.12,275.87L259.19,282.94L252.13,280.02L259.19,282.94L256.27,275.87L253.35,268.80L253.35,261.15L253.35,253.50L256.27,246.44L253.35,253.50L253.35,261.15L247.94,255.74L242.52,250.32L247.94,255.74L253.35,261.15L256.27,254.09L253.35,261.15L246.28,258.23L253.35,261.15L253.35,268.80L256.27,275.87L259.19,282.94L259.19,290.59L262.12,297.66L265.04,304.73L257.97,301.81L250.90,298.88L243.83,295.96L236.77,293.04L243.83,295.96L250.90,298.88L257.97,301.81L265.04,304.73L265.04,297.08L265.04,289.43L267.96,282.36L265.04,289.43L265.04,297.08L259.62,291.66L254.21,286.25L259.62,291.66L265.04,297.08L267.96,290.01L265.04,297.08L257.97,294.15L265.04,297.08L262.12,290.01L259.19,282.94L253.78,277.52L248.36,272.11L245.44,265.04L248.36,272.11L253.78,277.52L246.13,277.52L238.48,277.52L246.13,277.52L253.78,277.52L250.86,270.46L253.78,277.52L246.71,280.45L253.78,277.52L259.19,282.94L262.12,290.01L265.04,297.08L265.04,304.73L257.39,304.73L249.74,304.73L242.67,301.81L235.60,298.88L230.19,293.47L235.60,298.88L242.67,301.81L235.60,304.73L228.53,307.65L235.60,304.73L242.67,301.81L237.25,296.39L242.67,301.81L237.25,307.22L242.67,301.81L249.74,304.73L257.39,304.73L265.04,304.73L267.96,311.80L270.88,318.86L276.3,324.28L281.72,329.70L287.13,335.11L292.55,340.53L292.55,332.88L292.55,325.23L292.55,317.58L292.55,309.93L292.55,302.28L292.55,294.63L292.55,286.98L292.55,279.33L289.63,272.26L286.70,265.19L283.78,258.12L280.86,251.06L277.94,243.99L275.01,236.92L272.09,229.85L269.17,222.78L269.17,215.13L269.17,207.48L269.17,199.83L269.17,192.18L272.09,185.11L275.01,178.05L280.43,172.63L275.01,178.05L272.09,185.11L269.17,178.05L266.25,170.98L269.17,178.05L272.09,185.11L277.51,179.70L272.09,185.11L266.68,179.70L272.09,185.11L272.09,177.47L272.09,169.81L275.01,162.75L277.94,155.68L283.35,150.26L277.94,155.68L275.01,162.75L272.09,155.68L269.17,148.61L272.09,155.68L275.01,162.75L280.43,157.33L275.01,162.75L269.60,157.33L275.01,162.75L272.09,169.81L272.09,177.47L272.09,185.11L269.17,192.18L269.17,199.83L269.17,207.48L263.75,202.07L258.34,196.65L252.92,191.23L247.51,185.82L252.92,191.23L258.34,196.65L263.75,202.07L269.17,207.48L272.09,200.41L275.01,193.35L280.43,187.93L275.01,193.35L272.09,200.41L269.17,193.35L266.25,186.28L269.17,193.35L272.09,200.41L277.51,195.00L272.09,200.41L266.68,195.00L272.09,200.41L272.09,192.76L272.09,185.11L269.17,178.05L266.25,170.98L266.25,163.33L266.25,170.98L269.17,178.05L262.10,175.12L255.03,172.20L262.10,175.12L269.17,178.05L269.17,170.40L269.17,178.05L261.52,178.05L269.17,178.05L272.09,185.11L272.09,192.76L272.09,200.41L269.17,207.48L262.10,204.56L255.03,201.64L249.62,196.22L244.20,190.81L241.28,183.74L244.20,190.81L249.62,196.22L241.97,196.22L234.32,196.22L241.97,196.22L249.62,196.22L246.69,189.15L249.62,196.22L242.55,199.14L249.62,196.22L255.03,201.64L262.10,204.56L269.17,207.48L266.25,200.41L263.33,193.35L260.40,186.28L257.48,179.21L257.48,171.56L257.48,163.91L257.48,156.26L257.48,148.61L260.40,141.54L263.33,134.47L268.74,129.06L263.33,134.47L260.40,141.54L257.48,134.47L254.56,127.40L257.48,134.47L260.40,141.54L265.82,136.13L260.40,141.54L254.99,136.13L260.40,141.54L260.40,133.89L260.40,126.24L263.33,119.17L266.25,112.11L271.66,106.69L266.25,112.11L263.33,119.17L260.40,112.11L257.48,105.04L260.40,112.11L263.33,119.17L268.74,113.76L263.33,119.17L257.91,113.76L263.33,119.17L260.40,126.24L260.40,133.89L260.40,141.54L257.48,148.61L257.48,156.26L257.48,163.91L252.06,158.49L246.65,153.08L241.23,147.66L235.82,142.25L241.23,147.66L246.65,153.08L252.06,158.49L257.48,163.91L260.40,156.84L263.33,149.77L268.74,144.36L263.33,149.77L260.40,156.84L257.48,149.77L254.56,142.70L257.48,149.77L260.40,156.84L265.82,151.43L260.40,156.84L254.99,151.43L260.40,156.84L260.40,149.19L260.40,141.54L257.48,134.47L254.56,127.40L254.56,119.75L254.56,127.40L257.48,134.47L250.41,131.55L243.34,128.63L250.41,131.55L257.48,134.47L257.48,126.82L257.48,134.47L249.83,134.47L257.48,134.47L260.40,141.54L260.40,149.19L260.40,156.84L257.48,163.91L250.41,160.99L243.34,158.06L237.93,152.65L232.51,147.23L229.59,140.16L232.51,147.23L237.93,152.65L230.28,152.65L222.63,152.65L230.28,152.65L237.93,152.65L235.01,145.58L237.93,152.65L230.86,155.57L237.93,152.65L243.34,158.06L250.41,160.99L257.48,163.91L257.48,171.56L257.48,179.21L260.40,186.28L263.33,193.35L266.25,200.41L269.17,207.48L269.17,215.13L269.17,222.78L272.09,229.85L275.01,236.92L277.94,243.99L280.86,251.06L273.79,248.13L266.72,245.21L259.65,242.29L252.59,239.37L245.52,236.44L238.45,233.52L231.38,230.60L224.31,227.68L231.38,230.60L238.45,233.52L245.52,236.44L252.59,239.37L259.65,242.29L266.72,245.21L273.79,248.13L280.86,251.06L280.86,243.41L280.86,235.76L280.86,228.11L280.86,220.46L283.78,213.39L286.70,206.32L292.12,200.90L286.70,206.32L283.78,213.39L280.86,206.32L277.94,199.25L280.86,206.32L283.78,213.39L289.20,207.97L283.78,213.39L278.37,207.97L283.78,213.39L283.78,205.74L283.78,198.09L286.70,191.02L289.63,183.95L295.04,178.53L289.63,183.95L286.70,191.02L283.78,183.95L280.86,176.88L283.78,183.95L286.70,191.02L292.12,185.60L286.70,191.02L281.29,185.60L286.70,191.02L283.78,198.09L283.78,205.74L283.78,213.39L280.86,220.46L280.86,228.11L280.86,235.76L275.44,230.34L270.03,224.92L264.61,219.51L259.19,214.09L264.61,219.51L270.03,224.92L275.44,230.34L280.86,235.76L283.78,228.69L286.70,221.62L292.12,216.20L286.70,221.62L283.78,228.69L280.86,221.62L277.94,214.55L280.86,221.62L283.78,228.69L289.20,223.27L283.78,228.69L278.37,223.27L283.78,228.69L283.78,221.04L283.78,213.39L280.86,206.32L277.94,199.25L277.94,191.60L277.94,199.25L280.86,206.32L273.79,203.40L266.72,200.48L273.79,203.40L280.86,206.32L280.86,198.67L280.86,206.32L273.21,206.32L280.86,206.32L283.78,213.39L283.78,221.04L283.78,228.69L280.86,235.76L273.79,232.83L266.72,229.91L261.31,224.50L255.89,219.08L252.97,212.01L255.89,219.08L261.31,224.50L253.66,224.50L246.01,224.50L253.66,224.50L261.31,224.50L258.38,217.43L261.31,224.50L254.24,227.42L261.31,224.50L266.72,229.91L273.79,232.83L280.86,235.76L277.94,228.69L275.01,221.62L272.09,214.55L269.17,207.48L263.75,202.07L258.34,196.65L252.92,191.23L247.51,185.82L244.58,178.75L241.66,171.68L241.66,164.03L241.66,171.68L244.58,178.75L237.52,175.83L230.45,172.90L237.52,175.83L244.58,178.75L244.58,171.10L244.58,178.75L236.93,178.75L244.58,178.75L239.17,173.33L233.75,167.92L230.83,160.85L227.91,153.78L227.91,146.13L227.91,153.78L230.83,160.85L223.76,157.93L216.69,155.00L223.76,157.93L230.83,160.85L230.83,153.20L230.83,160.85L223.18,160.85L230.83,160.85L233.75,167.92L239.17,173.33L244.58,178.75L247.51,185.82L252.92,191.23L258.34,196.65L250.69,196.65L243.04,196.65L235.39,196.65L227.74,196.65L235.39,196.65L243.04,196.65L250.69,196.65L258.34,196.65L255.42,189.58L252.49,182.51L252.49,174.86L252.49,182.51L255.42,189.58L248.35,186.66L241.28,183.74L248.35,186.66L255.42,189.58L255.42,181.93L255.42,189.58L247.77,189.58L255.42,189.58L250,184.17L244.58,178.75L237.52,175.83L230.45,172.90L225.03,167.49L230.45,172.90L237.52,175.83L230.45,178.75L223.38,181.67L230.45,178.75L237.52,175.83L232.10,170.41L237.52,175.83L232.10,181.24L237.52,175.83L244.58,178.75L250,184.17L255.42,189.58L258.34,196.65L251.27,199.57L244.20,202.50L236.55,202.50L228.90,202.50L221.83,199.57L228.90,202.50L236.55,202.50L231.14,207.91L225.72,213.33L231.14,207.91L236.55,202.50L229.48,199.57L236.55,202.50L233.63,209.56L236.55,202.50L244.20,202.50L251.27,199.57L258.34,196.65L263.75,202.07L269.17,207.48L272.09,214.55L275.01,221.62L277.94,228.69L280.86,235.76L280.86,243.41L280.86,251.06L273.21,251.06L265.56,251.06L257.91,251.06L250.26,251.06L243.19,248.13L236.12,245.21L229.06,242.29L221.99,239.37L216.57,233.95L211.15,228.54L208.23,221.47L211.15,228.54L216.57,233.95L208.92,233.95L201.27,233.95L208.92,233.95L216.57,233.95L213.65,226.88L216.57,233.95L209.50,236.87L216.57,233.95L209.50,231.03L202.43,228.11L197.02,222.69L191.60,217.27L188.68,210.21L191.60,217.27L197.02,222.69L189.37,222.69L181.72,222.69L189.37,222.69L197.02,222.69L194.09,215.62L197.02,222.69L189.95,225.61L197.02,222.69L202.43,228.11L209.50,231.03L216.57,233.95L221.99,239.37L229.06,242.29L236.12,245.21L229.06,248.13L221.99,251.06L214.92,253.98L207.85,256.9L214.92,253.98L221.99,251.06L229.06,248.13L236.12,245.21L230.71,239.80L225.29,234.38L222.37,227.31L225.29,234.38L230.71,239.80L223.06,239.80L215.41,239.80L223.06,239.80L230.71,239.80L227.78,232.73L230.71,239.80L223.64,242.72L230.71,239.80L223.64,236.87L216.57,233.95L208.92,233.95L201.27,233.95L194.20,231.03L201.27,233.95L208.92,233.95L203.50,239.37L198.09,244.78L203.50,239.37L208.92,233.95L201.85,231.03L208.92,233.95L206.00,241.02L208.92,233.95L216.57,233.95L223.64,236.87L230.71,239.80L236.12,245.21L230.71,250.63L225.29,256.04L218.22,258.97L211.15,261.89L203.50,261.89L211.15,261.89L218.22,258.97L215.3,266.03L212.38,273.10L215.3,266.03L218.22,258.97L210.57,258.97L218.22,258.97L218.22,266.62L218.22,258.97L225.29,256.04L230.71,250.63L236.12,245.21L243.19,248.13L250.26,251.06L257.91,251.06L265.56,251.06L273.21,251.06L280.86,251.06L283.78,258.12L286.70,265.19L289.63,272.26L292.55,279.33L292.55,286.98L292.55,294.63L292.55,302.28L292.55,309.93L292.55,317.58L292.55,325.23L292.55,332.88L292.55,340.53L289.63,347.60L286.70,354.67L283.78,361.73L280.86,368.80L273.79,365.88L266.72,362.96L259.65,360.03L252.59,357.11L245.52,354.19L238.45,351.27L231.38,348.35L224.31,345.42L218.90,340.01L213.48,334.59L208.06,329.18L202.65,323.76L197.23,318.34L191.82,312.93L186.40,307.51L180.98,302.10L178.06,295.03L175.14,287.96L172.22,280.89L169.30,273.82L169.30,266.17L169.30,258.52L172.22,251.45L169.30,258.52L169.30,266.17L163.88,260.76L158.46,255.34L163.88,260.76L169.30,266.17L172.22,259.10L169.30,266.17L162.23,263.25L169.30,266.17L166.37,259.10L163.45,252.03L163.45,244.38L163.45,236.74L166.37,229.67L163.45,236.74L163.45,244.38L158.03,238.97L152.62,233.55L158.03,238.97L163.45,244.38L166.37,237.32L163.45,244.38L156.38,241.46L163.45,244.38L163.45,252.03L166.37,259.10L169.30,266.17L169.30,273.82L172.22,280.89L175.14,287.96L168.07,285.04L161.00,282.11L153.93,279.19L146.87,276.27L153.93,279.19L161.00,282.11L168.07,285.04L175.14,287.96L175.14,280.31L175.14,272.66L178.06,265.59L175.14,272.66L175.14,280.31L169.72,274.89L164.31,269.48L169.72,274.89L175.14,280.31L178.06,273.24L175.14,280.31L168.07,277.39L175.14,280.31L172.22,273.24L169.30,266.17L163.88,260.76L158.46,255.34L155.54,248.27L158.46,255.34L163.88,260.76L156.23,260.76L148.58,260.76L156.23,260.76L163.88,260.76L160.96,253.69L163.88,260.76L156.81,263.68L163.88,260.76L169.30,266.17L172.22,273.24L175.14,280.31L175.14,287.96L167.49,287.96L159.84,287.96L152.77,285.04L145.70,282.11L140.29,276.70L145.70,282.11L152.77,285.04L145.70,287.96L138.63,290.88L145.70,287.96L152.77,285.04L147.36,279.62L152.77,285.04L147.36,290.45L152.77,285.04L159.84,287.96L167.49,287.96L175.14,287.96L169.72,282.54L164.31,277.13L158.89,271.71L153.47,266.29L150.55,259.23L147.63,252.16L144.71,245.09L141.79,238.02L141.79,230.37L141.79,222.72L144.71,215.65L141.79,222.72L141.79,230.37L136.37,224.95L130.95,219.54L136.37,224.95L141.79,230.37L144.71,223.30L141.79,230.37L134.72,227.45L141.79,230.37L138.86,223.30L135.94,216.23L135.94,208.58L135.94,200.93L138.86,193.87L135.94,200.93L135.94,208.58L130.53,203.17L125.11,197.75L130.53,203.17L135.94,208.58L138.86,201.52L135.94,208.58L128.87,205.66L135.94,208.58L135.94,216.23L138.86,223.30L141.79,230.37L141.79,238.02L144.71,245.09L147.63,252.16L140.56,249.24L133.49,246.31L126.42,243.39L119.36,240.47L126.42,243.39L133.49,246.31L140.56,249.24L147.63,252.16L147.63,244.51L147.63,236.86L150.55,229.79L147.63,236.86L147.63,244.51L142.21,239.09L136.80,233.68L142.21,239.09L147.63,244.51L150.55,237.44L147.63,244.51L140.56,241.58L147.63,244.51L144.71,237.44L141.79,230.37L136.37,224.95L130.95,219.54L128.03,212.47L130.95,219.54L136.37,224.95L128.72,224.95L121.07,224.95L128.72,224.95L136.37,224.95L133.45,217.89L136.37,224.95L129.30,227.88L136.37,224.95L141.79,230.37L144.71,237.44L147.63,244.51L147.63,252.16L139.98,252.16L132.33,252.16L125.26,249.24L118.19,246.31L112.78,240.90L118.19,246.31L125.26,249.24L118.19,252.16L111.13,255.08L118.19,252.16L125.26,249.24L119.85,243.82L125.26,249.24L119.85,254.65L125.26,249.24L132.33,252.16L139.98,252.16L147.63,252.16L150.55,259.23L153.47,266.29L158.89,271.71L164.31,277.13L169.72,282.54L175.14,287.96L178.06,295.03L180.98,302.10L186.40,307.51L191.82,312.93L197.23,318.34L202.65,323.76L195.00,323.76L187.35,323.76L179.70,323.76L172.05,323.76L164.40,323.76L156.75,323.76L149.10,323.76L141.45,323.76L149.10,323.76L156.75,323.76L164.40,323.76L172.05,323.76L179.70,323.76L187.35,323.76L195.00,323.76L202.65,323.76L199.72,316.69L196.80,309.62L193.88,302.55L190.96,295.49L190.96,287.84L190.96,280.19L193.88,273.12L190.96,280.19L190.96,287.84L185.54,282.42L180.13,277.00L185.54,282.42L190.96,287.84L193.88,280.77L190.96,287.84L183.89,284.91L190.96,287.84L188.04,280.77L185.11,273.70L185.11,266.05L185.11,258.40L188.04,251.33L185.11,258.40L185.11,266.05L179.70,260.63L174.28,255.22L179.70,260.63L185.11,266.05L188.04,258.98L185.11,266.05L178.05,263.13L185.11,266.05L185.11,273.70L188.04,280.77L190.96,287.84L190.96,295.49L193.88,302.55L196.80,309.62L189.74,306.7L182.67,303.78L175.60,300.86L168.53,297.93L175.60,300.86L182.67,303.78L189.74,306.7L196.80,309.62L196.80,301.97L196.80,294.32L199.72,287.25L196.80,294.32L196.80,301.97L191.39,296.56L185.97,291.14L191.39,296.56L196.80,301.97L199.72,294.90L196.80,301.97L189.74,299.05L196.80,301.97L193.88,294.90L190.96,287.84L185.54,282.42L180.13,277.00L177.20,269.94L180.13,277.00L185.54,282.42L177.89,282.42L170.24,282.42L177.89,282.42L185.54,282.42L182.62,275.35L185.54,282.42L178.47,285.34L185.54,282.42L190.96,287.84L193.88,294.90L196.80,301.97L196.80,309.62L189.15,309.62L181.50,309.62L174.44,306.7L167.37,303.78L161.95,298.36L167.37,303.78L174.44,306.7L167.37,309.62L160.30,312.55L167.37,309.62L174.44,306.7L169.02,301.28L174.44,306.7L169.02,312.12L174.44,306.7L181.50,309.62L189.15,309.62L196.80,309.62L191.39,304.21L185.97,298.79L180.56,293.37L175.14,287.96L168.07,285.04L161.00,282.11L153.93,279.19L146.87,276.27L141.45,270.85L136.03,265.44L133.11,258.37L136.03,265.44L141.45,270.85L133.80,270.85L126.15,270.85L133.80,270.85L141.45,270.85L138.53,263.78L141.45,270.85L134.38,273.78L141.45,270.85L134.38,267.93L127.31,265.01L121.90,259.59L116.48,254.18L113.56,247.11L116.48,254.18L121.90,259.59L114.25,259.59L106.60,259.59L114.25,259.59L121.90,259.59L118.97,252.52L121.90,259.59L114.83,262.51L121.90,259.59L127.31,265.01L134.38,267.93L141.45,270.85L146.87,276.27L153.93,279.19L161.00,282.11L153.93,285.04L146.87,287.96L139.80,290.88L132.73,293.80L139.80,290.88L146.87,287.96L153.93,285.04L161.00,282.11L155.59,276.70L150.17,271.28L147.25,264.21L150.17,271.28L155.59,276.70L147.94,276.70L140.29,276.70L147.94,276.70L155.59,276.70L152.66,269.63L155.59,276.70L148.52,279.62L155.59,276.70L148.52,273.78L141.45,270.85L133.80,270.85L126.15,270.85L119.08,267.93L126.15,270.85L133.80,270.85L128.38,276.27L122.97,281.69L128.38,276.27L133.80,270.85L126.73,267.93L133.80,270.85L130.88,277.92L133.80,270.85L141.45,270.85L148.52,273.78L155.59,276.70L161.00,282.11L155.59,287.53L150.17,292.95L143.10,295.87L136.03,298.79L128.38,298.79L136.03,298.79L143.10,295.87L140.18,302.94L137.26,310.00L140.18,302.94L143.10,295.87L135.45,295.87L143.10,295.87L143.10,303.52L143.10,295.87L150.17,292.95L155.59,287.53L161.00,282.11L168.07,285.04L175.14,287.96L180.56,293.37L185.97,298.79L191.39,304.21L196.80,309.62L199.72,316.69L202.65,323.76L195.58,326.68L188.51,329.60L181.44,332.53L174.37,335.45L166.72,335.45L159.07,335.45L151.43,335.45L143.78,335.45L136.71,332.53L129.64,329.60L124.22,324.19L129.64,329.60L136.71,332.53L129.64,335.45L122.57,338.37L129.64,335.45L136.71,332.53L131.29,327.11L136.71,332.53L131.29,337.94L136.71,332.53L129.06,332.53L121.41,332.53L114.34,329.60L107.27,326.68L101.85,321.27L107.27,326.68L114.34,329.60L107.27,332.53L100.20,335.45L107.27,332.53L114.34,329.60L108.92,324.19L114.34,329.60L108.92,335.02L114.34,329.60L121.41,332.53L129.06,332.53L136.71,332.53L143.78,335.45L151.43,335.45L159.07,335.45L153.66,340.86L148.24,346.28L142.83,351.70L137.41,357.11L142.83,351.70L148.24,346.28L153.66,340.86L159.07,335.45L152.01,332.53L144.94,329.60L139.52,324.19L144.94,329.60L152.01,332.53L144.94,335.45L137.87,338.37L144.94,335.45L152.01,332.53L146.59,327.11L152.01,332.53L146.59,337.94L152.01,332.53L144.36,332.53L136.71,332.53L129.64,335.45L122.57,338.37L114.92,338.37L122.57,338.37L129.64,335.45L126.72,342.52L123.79,349.58L126.72,342.52L129.64,335.45L121.99,335.45L129.64,335.45L129.64,343.10L129.64,335.45L136.71,332.53L144.36,332.53L152.01,332.53L159.07,335.45L156.15,342.52L153.23,349.58L147.81,355.00L142.40,360.42L135.33,363.34L142.40,360.42L147.81,355.00L147.81,362.65L147.81,370.30L147.81,362.65L147.81,355.00L140.75,357.92L147.81,355.00L150.74,362.07L147.81,355.00L153.23,349.58L156.15,342.52L159.07,335.45L166.72,335.45L174.37,335.45L181.44,332.53L188.51,329.60L195.58,326.68L202.65,323.76L208.06,329.18L213.48,334.59L218.90,340.01L224.31,345.42L231.38,348.35L238.45,351.27L245.52,354.19L252.59,357.11L259.65,360.03L266.72,362.96L273.79,365.88L280.86,368.80"/>

  </g>

 <style >
          path {

            stroke-dasharray: 21685;
            stroke-dashoffset: 21685;
            animation: draw 60s linear forwards;
          }
          
          @keyframes draw {
            from {
              stroke-dashoffset: 21685;
            }
          
            to {
              stroke-dashoffset: 0;
            }
          }

          @-webkit-keyframes draw {
              to {
                  stroke-dashoffset: 0;
              }
          }          
          </style>s 
</svg>
