<?xml version="1.0" standalone="no"?>
<!DOCTYPE svg PUBLIC "-//W3C//DTD SVG 1.1//EN" "http://www.w3.org/Graphics/SVG/1.1/DTD/svg11.dtd">
<svg width="500" height="500" title="polygons" version="1.1" viewBox="0 0 500 500" xmlns="http://www.w3.org/2000/svg" class="svg-paper">
  <g>
    <!--  Created by Sandify -->
    <!--  https://sandify.org -->
    <!--  Version: 0.2.8 -->

    <!--  Machine type: Rectangular -->
    <!--    Min X (mm): 0 -->
    <!--    Max X (mm): 500 -->
    <!--    Min Y (mm): 0 -->
    <!--    Max Y (mm): 500 -->
    <!--  Content type: shape -->
    <!--  Layer: -->
    <!--    Shape: Tessellation Twist -->
    <!--    Name: tessellation twist -->
    <!--    Number of sides: 9 -->
    <!--    Iterations: 3 -->
    <!--    Rotate and twist: 35 -->
    <!--    Visible: true -->
    <!--    Initial width: 20 -->
    <!--    Initial height: 20 -->
    <!--    X offset: 0 -->
    <!--    Y offset: 0 -->
    <!--    Rotate (degrees): 4 -->
    <!--    Reverse path: false -->
    <!--    Fine tuning: -->
    <!--      Connect to next layer: line -->
    <!--      Draw portion of path (%): 100 -->
    <!--      Backtrack at end (%): 0 -->
    <!--      Rotate starting point (%): 0 -->
    <!--  Reverse export path: false -->

    <!-- File name: 'sandify twist' -->
    <!-- File type: svg -->


    <desc>pwidth:500;pheight:500;</desc>
    <path
       stroke="white"
       stroke-width="0.2mm"
       fill="black"
       d="M456.14,209.93L456.14,209.93L432.52,228.80L453.66,230.89L428.41,249.04L401.72,263.22L423.80,268.29L428.41,249.04L450.57,250.90L423.80,268.29L395.70,281.59L366.76,290.72L359.63,307.20L389.66,299.00L366.76,290.72L337.48,295.64L359.63,307.20L383.92,315.52L389.66,299.00L395.70,281.59L418.99,286.56L414.29,303.89L389.66,299.00L418.99,286.56L443.64,288.03L414.29,303.89L383.92,315.52L353.06,322.91L329.46,311.19L359.63,307.20L353.06,322.91L322.28,326.16L330.06,347.61L304.66,334.08L313.27,356.25L297.22,364.29L325.49,377.30L313.27,356.25L341.31,367.86L325.49,377.30L310.47,386.27L297.22,364.29L287.67,341.19L313.27,356.25L330.06,347.61L341.31,367.86L355.96,386.63L341.22,396.88L325.49,377.30L355.96,386.63L373.89,403.60L341.22,396.88L310.47,386.27L282.08,372.10L271.54,347.95L297.22,364.29L282.08,372.10L256.41,354.80L248.59,376.23L237.83,349.55L230.17,372.06L212.70,367.90L226.00,396.04L230.17,372.06L244.19,398.97L226.00,396.04L208.73,393.26L212.70,367.90L220.24,344.07L230.17,372.06L248.59,376.23L244.19,398.97L243.34,422.77L225.46,421.15L226.00,396.04L243.34,422.77L246.18,447.30L225.46,421.15L208.73,393.26L196.09,364.15L203.54,338.88L212.70,367.90L196.09,364.15L187.54,334.40L167.78,345.79L176.69,318.43L156.35,330.76L145.64,316.35L137.74,346.45L156.35,330.76L149.79,360.38L137.74,346.45L126.3,333.22L145.64,316.35L166.73,302.93L156.35,330.76L167.78,345.79L149.79,360.38L133.84,378.07L121.19,365.34L137.74,346.45L133.84,378.07L120.25,398.68L121.19,365.34L126.3,333.22L135.33,302.80L157.28,288.22L145.64,316.35L135.33,302.80L147.90,274.51L125.44,270.53L149.85,255.30L126.35,251.67L127.41,233.75L102.01,251.72L126.35,251.67L102.28,270.14L102.01,251.72L101.75,234.24L127.41,233.75L152.19,237.03L126.35,251.67L125.44,270.53L102.28,270.14L78.69,273.45L77.19,255.55L102.01,251.72L78.69,273.45L55.03,280.49L77.19,255.55L101.75,234.24L128.22,216.73L154.41,219.68L127.41,233.75L128.22,216.73L156.03,203.15L141.38,185.66L169.88,189.69L154.21,171.80L166.54,158.75L135.53,156.19L154.21,171.80L123.89,170.48L135.53,156.19L146.57,142.63L166.54,158.75L183.41,177.19L154.21,171.80L141.38,185.66L123.89,170.48L103.70,157.85L114.05,143.17L135.53,156.19L103.70,157.85L81.05,148.04L114.05,143.17L146.57,142.63L178.09,146.24L196.26,165.32L166.54,158.75L178.09,146.24L208.13,153.71L208.15,130.90L227.39,152.29L226.88,128.52L244.72,126.45L222.60,104.56L226.88,128.52L204.51,108.02L222.60,104.56L239.78,101.26L244.72,126.45L245.79,151.42L226.88,128.52L208.15,130.90L204.51,108.02L197.16,85.37L214.52,80.78L222.60,104.56L197.16,85.37L186.12,63.29L214.52,80.78L239.78,101.26L261.61,124.29L263.26,150.59L244.72,126.45L261.61,124.29L279.82,149.32L294.50,131.86L295.49,160.62L310.38,142.08L322.50,120.97L325.37,151.96L339.70,161.17L325.37,151.96L337.78,129.49L322.50,120.97L306.42,112.00L310.38,142.08L310.14,171.78L325.37,151.96L324.06,182.38L339.70,161.17L337.78,129.49L331.60,97.56L315.35,89.92L322.50,120.97L331.60,97.56L321.07,65.91L315.35,89.92L306.42,112.00L294.50,131.86L277.57,121.68L289.36,102.88L280.04,74.14L298.19,82.02L289.36,102.88L306.42,112.00L298.19,82.02L285.71,52.63L280.04,74.14L271.24,93.94L289.36,102.88L271.24,93.94L277.57,121.68L279.82,149.32L295.49,160.62L310.14,171.78L324.06,182.38L337.56,192.05L339.70,161.17L353.60,169.42L352.41,137.28L366.58,144.10L352.41,137.28L361.88,111.03L347.06,104.68L352.41,137.28L337.78,129.49L347.06,104.68L352.96,77.87L361.88,111.03L366.58,144.10L353.60,169.42L337.56,192.05L318.79,211.67L324.06,182.38L305.82,200.60L285.36,215.59L292.39,188.68L305.82,200.60L310.14,171.78L292.39,188.68L272.39,202.52L285.36,215.59L297.68,228.02L299.2,246.37L297.68,228.02L305.82,200.60L318.79,211.67L297.68,228.02L274.61,240.86L262.98,227.18L285.36,215.59L274.61,240.86L250,250L274.73,258.82L250,250L262.98,227.18L272.39,202.52L278.06,176.42L295.49,160.62L292.39,188.68L278.06,176.42L279.82,149.32L263.26,150.59L245.79,151.42L227.39,152.29L208.13,153.71L188.63,133.98L208.15,130.90L185.58,112.00L159.97,95.98L178.94,90.34L185.58,112.00L204.51,108.02L178.94,90.34L150.49,75.85L159.97,95.98L165.96,116.80L185.58,112.00L188.63,133.98L165.96,116.80L140.38,102.53L131.62,83.18L159.97,95.98L140.38,102.53L112.23,91.51L131.62,83.18L150.49,75.85L168.70,69.30L197.16,85.37L178.94,90.34L168.70,69.30L186.12,63.29L202.65,57.59L214.52,80.78L230.94,76.28L246.38,71.63L256.00,97.82L230.94,76.28L239.78,101.26L256.00,97.82L271.24,93.94L260.82,66.57L246.38,71.63L260.82,66.57L266.54,46.11L280.04,74.14L260.82,66.57L246.34,40.03L266.54,46.11L285.71,52.63L303.87,59.31L315.35,89.92L298.19,82.02L303.87,59.31L321.07,65.91L337.40,72.17L331.60,97.56L347.06,104.68L337.40,72.17L352.96,77.87L367.84,82.80L376.19,116.44L361.88,111.03L367.84,82.80L382.16,86.80L376.19,116.44L366.58,144.10L386.05,134.59L374.72,162.60L394.89,152.30L386.05,134.59L404.23,121.76L394.89,152.30L381.92,180.55L365.62,206.14L370.75,223.35L388.48,197.76L365.62,206.14L346.35,228.74L370.75,223.35L394.70,214.11L388.48,197.76L381.92,180.55L402.96,169.38L410.49,185.68L388.48,197.76L402.96,169.38L422.78,154.66L410.49,185.68L394.70,214.11L375.81,239.61L350.2,245.80L370.75,223.35L375.81,239.61L354.32,261.89L374.07,273.31L345.92,279.27L366.76,290.72L374.07,273.31L395.70,281.59L401.72,263.22L407.38,243.82L428.41,249.04L432.52,228.80L407.38,243.82L381.16,254.87L374.07,273.31L401.72,263.22L381.16,254.87L354.32,261.89L345.92,279.27L337.48,295.64L329.46,311.19L322.28,326.16L304.66,334.08L287.67,341.19L271.54,347.95L256.41,354.80L237.83,349.55L220.24,344.07L203.54,338.88L187.54,334.40L176.69,318.43L166.73,302.93L157.28,288.22L147.90,274.51L149.85,255.30L152.19,237.03L154.41,219.68L156.03,203.15L169.88,189.69L183.41,177.19L196.26,165.32L208.13,153.71L224.20,175.60L227.39,152.29L243.06,175.78L254.97,200.92L261.01,176.27L243.06,175.78L245.79,151.42L261.01,176.27L272.39,202.52L254.97,200.92L236.63,199.23L243.06,175.78L224.20,175.60L236.63,199.23L245.27,224.18L262.98,227.18L254.97,200.92L245.27,224.18L250,250L229.78,233.26L245.27,224.18L222.25,209.21L211.04,186.45L196.98,197.61L222.25,209.21L207.13,219.7L196.98,197.61L183.41,177.19L211.04,186.45L196.26,165.32L224.20,175.60L211.04,186.45L236.63,199.23L222.25,209.21L229.78,233.26L207.13,219.7L182.41,209.59L169.88,189.69L196.98,197.61L182.41,209.59L156.03,203.15L128.42,200.57L141.38,185.66L111.95,185.69L82.03,189.88L92.94,173.37L111.95,185.69L123.89,170.48L92.94,173.37L61.83,180.56L82.03,189.88L100.00,201.98L111.95,185.69L128.42,200.57L100.00,201.98L71.23,207.49L52.09,198.30L42.59,217.15L52.09,198.30L82.03,189.88L71.23,207.49L42.59,217.15L46.28,231.55L71.23,207.49L73.71,222.59L75.62,238.60L101.18,217.67L73.71,222.59L100.00,201.98L101.18,217.67L128.42,200.57L128.22,216.73L101.18,217.67L101.75,234.24L75.62,238.60L49.45,246.90L73.71,222.59L46.28,231.55L49.45,246.90L52.29,263.22L77.19,255.55L75.62,238.60L52.29,263.22L55.03,280.49L57.92,298.69L78.69,273.45L80.43,292.25L82.68,311.92L102.91,289.47L80.43,292.25L102.28,270.14L102.91,289.47L104.23,309.64L82.68,311.92L61.21,317.76L80.43,292.25L57.92,298.69L61.21,317.76L65.16,337.62L85.74,332.35L82.68,311.92L65.16,337.62L70.00,358.16L85.74,332.35L104.23,309.64L125.09,290.29L125.44,270.53L102.91,289.47L125.09,290.29L147.90,274.51L172.25,262.49L149.85,255.30L175.70,243.95L202.53,236.59L179.31,226.36L175.70,243.95L152.19,237.03L179.31,226.36L154.41,219.68L182.41,209.59L179.31,226.36L207.13,219.7L202.53,236.59L197.68,254.35L175.70,243.95L172.25,262.49L197.68,254.35L223.75,250.17L229.78,233.26L202.53,236.59L223.75,250.17L250,250L230.00,267.00L223.75,250.17L205.01,270.24L180.65,277.33L189.19,293.12L205.01,270.24L212.72,286.96L189.19,293.12L166.73,302.93L180.65,277.33L157.28,288.22L172.25,262.49L180.65,277.33L197.68,254.35L205.01,270.24L230.00,267.00L212.72,286.96L198.47,309.55L176.69,318.43L189.19,293.12L198.47,309.55L187.54,334.40L180.20,361.15L167.78,345.79L162.69,374.79L161.63,404.98L147.26,391.37L162.69,374.79L149.79,360.38L147.26,391.37L148.94,423.25L161.63,404.98L176.67,389.39L162.69,374.79L180.20,361.15L176.67,389.39L177.10,418.67L164.72,435.93L161.63,404.98L177.10,418.67L181.63,448.56L164.72,435.93L181.63,448.56L196.45,447.42L177.10,418.67L192.39,418.85L208.49,419.76L192.32,390.95L192.39,418.85L176.67,389.39L192.32,390.95L180.20,361.15L196.09,364.15L192.32,390.95L208.73,393.26L208.49,419.76L212.13,446.97L192.39,418.85L196.45,447.42L212.13,446.97L228.69,447.00L225.46,421.15L208.49,419.76L228.69,447.00L246.18,447.30L264.60,447.61L243.34,422.77L262.17,424.33L281.92,425.53L263.33,401.71L262.17,424.33L244.19,398.97L263.33,401.71L283.42,403.91L281.92,425.53L283.94,447.68L262.17,424.33L264.60,447.61L283.94,447.68L304.19,447.25L302.57,426.07L281.92,425.53L304.19,447.25L325.26,446.05L302.57,426.07L283.42,403.91L267.98,380.01L248.59,376.23L263.33,401.71L267.98,380.01L256.41,354.80L248.80,328.74L237.83,349.55L231.14,322.12L228.55,294.43L214.44,315.51L231.14,322.12L220.24,344.07L214.44,315.51L203.54,338.88L198.47,309.55L214.44,315.51L212.72,286.96L228.55,294.43L245.20,302.28L231.14,322.12L248.80,328.74L245.20,302.28L245.61,275.88L230.00,267.00L228.55,294.43L245.61,275.88L250,250L263.27,272.65L245.61,275.88L262.12,297.82L264.87,323.05L281.90,317.37L262.12,297.82L279.93,293.14L281.90,317.37L287.67,341.19L264.87,323.05L271.54,347.95L248.80,328.74L264.87,323.05L245.20,302.28L262.12,297.82L263.27,272.65L279.93,293.14L299.69,311.09L304.66,334.08L281.90,317.37L299.69,311.09L329.46,311.19L308.34,296.40L290.02,278.84L317.75,281.1L308.34,296.40L337.48,295.64L317.75,281.1L300.65,263.81L290.02,278.84L263.27,272.65L274.73,258.82L290.02,278.84L274.73,258.82L300.65,263.81L327.34,264.86L345.92,279.27L317.75,281.1L327.34,264.86L354.32,261.89L350.2,245.80L346.35,228.74L342.30,210.77L360.03,188.11L365.62,206.14L342.30,210.77L318.79,211.67L321.89,230.28L299.2,246.37L324.52,248.04L321.89,230.28L346.35,228.74L324.52,248.04L350.2,245.80L327.34,264.86L324.52,248.04L300.65,263.81L299.2,246.37L274.73,258.82L274.61,240.86L299.2,246.37L274.73,258.82L250,250L274.61,240.86L262.98,227.18L285.36,215.59L305.82,200.60L292.39,188.68L285.36,215.59L272.39,202.52L292.39,188.68L310.14,171.78L325.37,151.96L310.38,142.08L322.50,120.97L325.37,151.96L337.78,129.49L322.50,120.97L306.42,112.00L310.38,142.08L310.14,171.78L295.49,160.62L294.50,131.86L310.38,142.08L295.49,160.62L278.06,176.42L263.26,150.59L261.01,176.27L278.06,176.42L292.39,188.68L295.49,160.62L279.82,149.32L294.50,131.86L306.42,112.00L315.35,89.92L331.60,97.56L322.50,120.97L315.35,89.92L321.07,65.91L331.60,97.56L337.78,129.49L339.70,161.17L324.06,182.38L325.37,151.96L339.70,161.17L337.56,192.05L324.06,182.38L310.14,171.78L305.82,200.60L297.68,228.02L285.36,215.59L274.61,240.86L297.68,228.02L318.79,211.67L324.06,182.38L305.82,200.60L318.79,211.67L337.56,192.05L353.60,169.42L339.70,161.17L352.41,137.28L361.88,111.03L347.06,104.68L352.41,137.28L337.78,129.49L347.06,104.68L352.96,77.87L361.88,111.03L366.58,144.10L352.41,137.28L353.60,169.42L366.58,144.10L376.19,116.44L367.84,82.80L361.88,111.03L376.19,116.44L382.16,86.80L367.84,82.80L352.96,77.87L337.40,72.17L331.60,97.56L347.06,104.68L337.40,72.17L321.07,65.91L303.87,59.31L315.35,89.92L298.19,82.02L280.04,74.14L289.36,102.88L298.19,82.02L306.42,112.00L289.36,102.88L294.50,131.86L277.57,121.68L261.61,124.29L256.00,97.82L277.57,121.68L289.36,102.88L271.24,93.94L246.38,71.63L218.22,51.96L230.94,76.28L202.65,57.59L218.22,51.96L232.80,46.17L260.82,66.57L280.04,74.14L285.71,52.63L298.19,82.02L303.87,59.31L285.71,52.63L266.54,46.11L280.04,74.14L271.24,93.94L246.38,71.63L232.80,46.17L246.34,40.03L260.82,66.57L280.04,74.14L289.36,102.88L306.42,112.00L310.38,142.08L310.14,171.78L305.82,200.60L297.68,228.02L321.89,230.28L342.30,210.77L337.56,192.05L360.03,188.11L381.92,180.55L374.72,162.60L360.03,188.11L353.60,169.42L374.72,162.60L366.58,144.10L353.60,169.42L337.56,192.05L318.79,211.67L297.68,228.02L274.61,240.86L274.73,258.82L290.02,278.84L279.93,293.14L308.34,296.40L299.69,311.09L322.28,326.16L347.35,338.04L330.06,347.61L357.73,357.65L387.28,363.94L371.38,375.73L357.73,357.65L341.31,367.86L371.38,375.73L403.07,379.62L387.28,363.94L374.53,346.42L357.73,357.65L347.35,338.04L374.53,346.42L403.45,351.08L418.30,366.27L433.67,351.81L418.30,366.27L387.28,363.94L403.45,351.08L433.67,351.81L435.12,337.02L403.45,351.08L406.28,336.05L409.97,320.35L378.79,331.28L406.28,336.05L374.53,346.42L378.79,331.28L347.35,338.04L353.06,322.91L378.79,331.28L383.92,315.52L409.97,320.35L437.40,321.50L406.28,336.05L435.12,337.02L437.40,321.50L440.31,305.20L414.29,303.89L409.97,320.35L440.31,305.20L443.64,288.03L447.14,269.94L418.99,286.56L423.80,268.29L447.14,269.94L450.57,250.90L453.66,230.89L456.14,209.93L447.75,197.66L432.52,228.80L425.03,215.46L417.77,201.07L400.91,229.48L425.03,215.46L407.38,243.82L400.91,229.48L381.16,254.87L375.81,239.61L400.91,229.48L394.70,214.11L417.77,201.07L439.52,184.32L425.03,215.46L447.75,197.66L439.52,184.32L431.26,169.95L410.49,185.68L417.77,201.07L431.26,169.95L422.78,154.66L413.84,138.55L402.96,169.38L394.89,152.30L413.84,138.55L404.23,121.76L393.73,104.45L376.19,116.44L386.05,134.59L393.73,104.45L382.16,86.80L376.19,116.44L366.58,144.10L353.60,169.42L337.56,192.05L318.79,211.67L297.68,228.02L274.61,240.86L250,250L245.61,275.88L262.12,297.82L281.90,317.37L304.66,334.08L330.06,347.61L357.73,357.65L387.28,363.94L418.30,366.27L403.07,379.62L388.20,392.00L355.96,386.63L371.38,375.73L388.20,392.00L373.89,403.60L360.31,414.61L341.22,396.88L327.32,406.72L314.41,416.38L296.41,395.05L327.32,406.72L310.47,386.27L296.41,395.05L267.98,380.01L282.08,372.10L296.41,395.05L283.42,403.91L314.41,416.38L347.59,425.23L327.32,406.72L360.31,414.61L347.59,425.23L335.88,435.65L302.57,426.07L314.41,416.38L335.88,435.65L325.26,446.05L302.57,426.07L281.92,425.53L262.17,424.33L243.34,422.77L225.46,421.15L208.49,419.76L192.39,418.85L177.10,418.67L164.72,435.93L148.94,423.25L134.16,410.76L133.84,378.07L147.26,391.37L134.16,410.76L120.25,398.68L107.04,387.21L121.19,365.34L109.09,353.36L97.33,342.32L115.21,320.90L109.09,353.36L126.3,333.22L115.21,320.90L125.09,290.29L135.33,302.80L115.21,320.90L104.23,309.64L97.33,342.32L94.38,376.54L109.09,353.36L107.04,387.21L94.38,376.54L82.08,366.81L85.74,332.35L97.33,342.32L82.08,366.81L70.00,358.16L85.74,332.35L82.68,311.92L80.43,292.25L78.69,273.45L77.19,255.55L75.62,238.60L73.71,222.59L71.23,207.49L52.09,198.30L61.83,180.56L71.56,163.83L103.70,157.85L92.94,173.37L71.56,163.83L81.05,148.04L90.05,133.04L114.05,143.17L123.74,129.18L132.57,115.68L156.78,129.57L123.74,129.18L146.57,142.63L156.78,129.57L188.63,133.98L178.09,146.24L156.78,129.57L165.96,116.80L132.57,115.68L98.36,118.72L123.74,129.18L90.05,133.04L98.36,118.72L105.80,104.91L140.38,102.53L132.57,115.68L105.80,104.91L112.23,91.51L140.38,102.53L159.97,95.98L185.58,112.00L204.51,108.02L226.88,128.52L244.72,126.45L263.26,150.59L279.82,149.32L294.50,131.86L310.38,142.08L325.37,151.96L337.78,129.49L352.41,137.28L339.70,161.17L325.37,151.96L310.38,142.08L306.42,112.00L289.36,102.88L294.50,131.86L310.38,142.08L325.37,151.96"/>

  </g>

      <style>
        path {

            stroke-dasharray: 26125;
            stroke-dashoffset: 26125;
            animation: draw 60s linear forwards;
          }
          
          @keyframes draw {
            from {
              stroke-dashoffset: 26125;
            }
          
            to {
              stroke-dashoffset: 0;
            }
          }

          @-webkit-keyframes draw {
              to {
                  stroke-dashoffset: 0;
              }
          }          
          
    </style> 
</svg>
