<?xml version="1.0" standalone="no"?>
<!DOCTYPE svg PUBLIC "-//W3C//DTD SVG 1.1//EN" "http://www.w3.org/Graphics/SVG/1.1/DTD/svg11.dtd">
<svg width="500" height="500" title="polygons" version="1.1" viewBox="0 0 500 500" xmlns="http://www.w3.org/2000/svg" class="svg-paper">
  <g>
    <!--  Created by Sandify -->
    <!--  https://sandify.org -->
    <!--  Version: 0.2.8 -->

    <!--  Machine type: Rectangular -->
    <!--    Min X (mm): 0 -->
    <!--    Max X (mm): 500 -->
    <!--    Min Y (mm): 0 -->
    <!--    Max Y (mm): 500 -->
    <!--  Content type: shape -->
    <!--  Layer: -->
    <!--    Shape: Fractal Spirograph -->
    <!--    Name: fractal spirograph -->
    <!--    Velocity: 9 -->
    <!--    Resolution: 3 -->
    <!--    Number of circles: 5 -->
    <!--    Relative size (parent to child circle): 3 -->
    <!--    Alternate rotation direction: true -->
    <!--    Visible: true -->
    <!--    Initial width: 22 -->
    <!--    Initial height: 22 -->
    <!--    X offset: 0 -->
    <!--    Y offset: 0 -->
    <!--    Rotate (degrees): 0 -->
    <!--    Reverse path: false -->
    <!--    Fine tuning: -->
    <!--      Connect to next layer: line -->
    <!--      Draw portion of path (%): 100 -->
    <!--      Backtrack at end (%): 0 -->
    <!--      Rotate starting point (%): 0 -->
    <!--  Reverse export path: false -->

    <!-- File name: 'spirograph' -->
    <!-- File type: svg -->


    <desc>pwidth:500;pheight:500;</desc>
    <path
       stroke="white"
       stroke-width="0.2mm"
       fill="black"
       d="M238.65,40.85L238.65,40.85L243.15,47.27L238.05,46.87L234.37,62.83L249.43,72.82L256.07,68.98L259.02,76.55L276.90,77.87L283.12,63.35L278.59,61.24L285.85,59.25L282.34,45.10L267.15,47.02L266.86,55.43L262.82,52.68L250.31,63.98L256.48,81.48L263.97,82.85L261.76,91.27L275.31,103.42L288.75,95.90L286.20,92.10L293.11,95.32L298.47,82.38L284.93,75.58L279.64,82.79L277.88,78.76L261.00,81.12L255.59,99.48L260.75,105.56L253.91,111.65L257.64,130.02L272.83,132.41L272.92,128.41L276.53,135.66L288.39,128.92L281.35,116.04L272.76,119.34L273.63,115.62L258.51,108.19L243.29,120.44L243.82,128.98L234.65,130.47L226.81,148.10L237.65,159.55L240.01,156.94L238.63,165.51L252.15,167.61L253.98,153.63L245.06,151.83L247.91,149.92L240.02,135.61L220.48,137.16L215.87,144.95L207.56,141.36L190.84,151.60L192.86,167.81L196.3,167.68L190.14,174.38L199.84,184.61L209.54,174.96L203.38,168.84L206.83,169.56L208.87,153.93L192.16,144.27L183.87,148.45L179.28,141.24L159.76,140.28L151.90,155.17L154.79,157.67L145.90,160.05L147.77,174.61L161.33,173.09L159.99,165.10L162.41,168.29L173.30,157.43L165.51,140.37L156.41,139.46L157.00,131.51L141.84,119.84L126.79,127.85L127.74,132.14L119.22,129.43L112.26,142.88L124.21,150.20L127.91,143.53L128.07,148.10L143.36,146.29L147.19,128.50L140.45,122.98L145.71,117.47L140.41,99.69L123.64,97.90L121.99,102.50L116.82,95.87L103.40,103.24L108.88,116.75L115.92,114.10L113.50,118.47L127.07,126.56L140.75,114.97L138.69,107.12L146.32,106.32L152.63,89.38L140.27,78.64L136.38,81.96L136.25,74.12L121.22,72.75L117.88,87.47L125.30,90.02L120.94,92.69L127.33,107.76L145.39,106.99L148.51,99.98L155.34,104.37L170.59,94.94L167.09,79.53L162.18,80.49L166.88,74.61L155.72,65.22L144.57,75.71L149.28,82.68L144.39,82.82L140.91,99.32L156.19,109.86L163.05,106.56L166.22,114.67L184.32,116.54L190.77,102.56L186.47,100.98L193.96,99.52L190.69,85.90L175.74,88.36L175.69,97.30L171.90,95.08L159.63,106.91L166.05,124.94L173.80,126.83L171.85,135.77L185.66,148.45L199.36,141.45L197.07,138.17L204.25,141.91L209.89,129.48L196.62,123.20L191.61,130.92L190.13,127.40L173.54,130.27L168.42,149.13L173.86,155.72L167.32,162.32L171.34,181.19L186.84,184.08L187.22,180.58L191.14,188.33L203.31,182.08L196.58,169.70L188.30,173.49L189.49,170.26L174.69,163.32L159.79,176.06L160.64,185.08L151.80,187.05L144.29,205.17L155.47,217.09L158.17,214.96L157.12,224.01L170.98,226.58L173.16,213.08L164.58,211.74L167.79,210.3L160.25,196.45L141.06,198.46L136.81,206.72L128.86,203.58L112.50,214.28L114.90,230.95L118.70,231.26L112.91,238.42L122.98,249.09L133.06,239.90L127.28,234.22L131.11,235.38L133.53,220.19L117.21,210.97L109.31,215.59L105.12,208.81L85.99,208.27L78.52,223.60L81.81,226.51L73.33,229.32L75.60,244.30L89.57,243.20L88.64,235.63L91.47,239.23L102.77,228.78L95.40,212.14L86.72,211.63L87.73,204.08L72.99,192.81L58.37,201.22L59.75,205.91L51.66,203.59L45.13,217.44L57.51,225.15L61.65,218.86L62.25,223.82L77.99,222.39L82.25,204.98L75.96,199.84L81.67,194.70L76.82,177.29L60.50,175.87L59.31,180.84L54.59,174.57L41.63,182.30L47.57,196.17L55.08,193.87L53.12,198.59L67.16,207.03L81.31,195.79L79.72,188.29L87.82,187.82L94.61,171.23L82.72,160.83L79.32,164.48L79.66,156.96L65.12,155.92L62.26,170.97L70.17,173.84L66.30,176.83L73.18,192.22L91.73,191.76L95.35,185.06L102.67,189.76L118.42,180.63L115.41,165.53L111.01,166.78L116.21,161.20L105.56,152.10L94.91,162.88L100.13,170.14L95.75,170.57L92.79,187.35L108.57,198.17L115.95,195.15L119.63,203.52L138.25,205.66L145.22,191.95L141.44,190.63L149.45,189.44L146.71,176.07L132.28,178.79L132.76,187.98L129.50,186.00L117.76,198.08L124.71,216.35L132.99,218.48L131.57,227.66L145.92,240.57L160.16,233.80L158.41,230.74L166.13,234.71L172.31,222.5L159.58,216.44L155.11,224.37L154.18,221.06L138.13,224.14L133.56,243.21L139.55,250L133.56,256.79L138.13,275.86L154.18,278.94L155.11,275.63L159.58,283.56L172.31,277.5L166.13,265.29L158.41,269.26L160.16,266.20L145.92,259.43L131.57,272.34L132.99,281.52L124.71,283.65L117.76,301.92L129.50,314.00L132.76,312.02L132.28,321.21L146.71,323.93L149.45,310.56L141.44,309.37L145.22,308.05L138.25,294.34L119.63,296.48L115.95,304.85L108.57,301.84L92.79,312.65L95.75,329.43L100.13,329.86L94.91,337.12L105.56,347.90L116.21,338.80L111.01,333.22L115.41,334.47L118.42,319.37L102.67,310.24L95.35,314.94L91.73,308.24L73.18,307.78L66.30,323.17L70.17,326.16L62.26,329.03L65.12,344.08L79.66,343.04L79.32,335.52L82.72,339.17L94.61,328.77L87.82,312.18L79.72,311.71L81.31,304.21L67.16,292.97L53.12,301.41L55.08,306.13L47.57,303.83L41.63,317.70L54.59,325.43L59.31,319.16L60.50,324.13L76.82,322.71L81.67,305.30L75.96,300.16L82.25,295.02L77.99,277.61L62.25,276.18L61.65,281.14L57.51,274.85L45.13,282.56L51.66,296.41L59.75,294.09L58.37,298.78L72.99,307.19L87.73,295.91L86.72,288.37L95.40,287.86L102.77,271.22L91.47,260.77L88.64,264.37L89.57,256.80L75.60,255.70L73.33,270.68L81.81,273.49L78.52,276.40L85.99,291.73L105.12,291.19L109.31,284.41L117.21,289.03L133.53,279.81L131.11,264.62L127.28,265.78L133.06,260.10L122.98,250.91L112.91,261.58L118.70,268.74L114.90,269.05L112.50,285.72L128.86,296.42L136.81,293.28L141.06,301.54L160.25,303.55L167.79,289.7L164.58,288.26L173.16,286.92L170.98,273.42L157.12,275.99L158.17,285.04L155.47,282.91L144.29,294.84L151.80,312.95L160.64,314.92L159.79,323.94L174.69,336.68L189.49,329.74L188.30,326.51L196.58,330.30L203.31,317.92L191.14,311.67L187.22,319.42L186.84,315.92L171.34,318.81L167.32,337.68L173.86,344.28L168.42,350.87L173.54,369.73L190.13,372.60L191.61,369.08L196.62,376.80L209.89,370.52L204.25,358.09L197.07,361.83L199.36,358.55L185.66,351.55L171.85,364.23L173.80,373.17L166.05,375.06L159.63,393.09L171.90,404.92L175.69,402.70L175.74,411.64L190.69,414.10L193.96,400.48L186.47,399.02L190.77,397.44L184.32,383.46L166.22,385.33L163.05,393.44L156.19,390.14L140.91,400.68L144.39,417.18L149.28,417.32L144.57,424.29L155.72,434.78L166.88,425.39L162.18,419.51L167.09,420.47L170.59,405.06L155.34,395.63L148.51,400.02L145.39,393.01L127.33,392.24L120.94,407.31L125.30,409.98L117.88,412.53L121.22,427.25L136.25,425.88L136.38,418.04L140.27,421.36L152.63,410.62L146.32,393.68L138.69,392.88L140.75,385.03L127.07,373.44L113.50,381.53L115.92,385.90L108.88,383.25L103.40,396.76L116.82,404.13L121.99,397.50L123.64,402.1L140.41,400.31L145.71,382.53L140.45,377.02L147.19,371.50L143.36,353.71L128.07,351.90L127.91,356.47L124.21,349.80L112.26,357.12L119.22,370.57L127.74,367.86L126.79,372.15L141.84,380.16L157.00,368.49L156.41,360.54L165.51,359.63L173.30,342.57L162.41,331.71L159.99,334.90L161.33,326.91L147.77,325.39L145.90,339.95L154.79,342.33L151.90,344.83L159.76,359.72L179.28,358.76L183.87,351.55L192.16,355.73L208.87,346.07L206.83,330.44L203.38,331.16L209.54,325.04L199.84,315.39L190.14,325.62L196.3,332.32L192.86,332.19L190.84,348.40L207.56,358.64L215.87,355.05L220.48,362.84L240.02,364.39L247.91,350.08L245.06,348.17L253.98,346.37L252.15,332.39L238.63,334.49L240.01,343.06L237.65,340.45L226.81,351.90L234.65,369.53L243.82,371.02L243.29,379.56L258.51,391.81L273.63,384.38L272.76,380.66L281.35,383.96L288.39,371.08L276.53,364.34L272.92,371.59L272.83,367.59L257.64,369.98L253.91,388.35L260.75,394.44L255.59,400.52L261.00,418.88L277.88,421.24L279.64,417.21L284.93,424.42L298.47,417.62L293.11,404.68L286.20,407.90L288.75,404.10L275.31,396.58L261.76,408.73L263.97,417.15L256.48,418.52L250.31,436.02L262.82,447.32L266.86,444.57L267.15,452.98L282.34,454.90L285.85,440.75L278.59,438.76L283.12,436.65L276.90,422.13L259.02,423.45L256.07,431.02L249.43,427.18L234.37,437.17L238.05,453.13L243.15,452.73L238.65,459.15L250,469.10L261.36,459.15L256.85,452.73L261.95,453.13L265.63,437.17L250.57,427.18L243.93,431.02L240.98,423.45L223.10,422.13L216.88,436.65L221.41,438.76L214.15,440.75L217.66,454.90L232.85,452.98L233.14,444.57L237.18,447.32L249.69,436.02L243.52,418.52L236.03,417.15L238.24,408.73L224.69,396.58L211.25,404.10L213.80,407.90L206.89,404.68L201.53,417.62L215.07,424.42L220.36,417.21L222.12,421.24L239.00,418.88L244.41,400.52L239.25,394.44L246.09,388.35L242.36,369.98L227.17,367.59L227.09,371.59L223.47,364.34L211.61,371.08L218.65,383.96L227.24,380.66L226.37,384.38L241.49,391.81L256.71,379.56L256.18,371.02L265.35,369.53L273.19,351.90L262.35,340.45L259.99,343.06L261.37,334.49L247.85,332.39L246.02,346.37L254.94,348.17L252.09,350.08L259.98,364.39L279.52,362.84L284.13,355.05L292.44,358.64L309.17,348.40L307.14,332.19L303.7,332.32L309.86,325.62L300.16,315.39L290.46,325.04L296.62,331.16L293.17,330.44L291.13,346.07L307.84,355.73L316.13,351.55L320.72,358.76L340.24,359.72L348.10,344.83L345.21,342.33L354.10,339.95L352.23,325.39L338.67,326.91L340.01,334.90L337.59,331.71L326.70,342.57L334.49,359.63L343.59,360.54L343.00,368.49L358.16,380.16L373.21,372.15L372.26,367.86L380.78,370.57L387.74,357.12L375.79,349.80L372.10,356.47L371.93,351.90L356.64,353.71L352.81,371.50L359.55,377.02L354.29,382.53L359.59,400.31L376.36,402.1L378.01,397.50L383.18,404.13L396.61,396.76L391.12,383.25L384.08,385.90L386.50,381.53L372.93,373.44L359.25,385.03L361.31,392.88L353.68,393.68L347.37,410.62L359.73,421.36L363.62,418.04L363.75,425.88L378.78,427.25L382.12,412.53L374.70,409.98L379.06,407.31L372.67,392.24L354.61,393.01L351.49,400.02L344.66,395.63L329.41,405.06L332.91,420.47L337.82,419.51L333.12,425.39L344.28,434.78L355.43,424.29L350.72,417.32L355.61,417.18L359.09,400.68L343.81,390.14L336.95,393.44L333.78,385.33L315.68,383.46L309.23,397.44L313.53,399.02L306.04,400.48L309.31,414.10L324.26,411.64L324.31,402.70L328.10,404.92L340.37,393.09L333.95,375.06L326.20,373.17L328.15,364.23L314.34,351.55L300.64,358.55L302.93,361.83L295.75,358.09L290.11,370.52L303.38,376.80L308.39,369.08L309.87,372.60L326.46,369.73L331.58,350.87L326.14,344.28L332.68,337.68L328.66,318.81L313.16,315.92L312.78,319.42L308.86,311.67L296.69,317.92L303.42,330.30L311.70,326.51L310.51,329.74L325.31,336.68L340.21,323.94L339.36,314.92L348.20,312.95L355.71,294.84L344.53,282.91L341.83,285.04L342.88,275.99L329.02,273.42L326.84,286.92L335.42,288.26L332.21,289.7L339.75,303.55L358.94,301.54L363.19,293.28L371.14,296.42L387.50,285.72L385.10,269.05L381.30,268.74L387.09,261.58L377.02,250.91L366.94,260.10L372.72,265.78L368.89,264.62L366.47,279.81L382.79,289.03L390.69,284.41L394.88,291.19L414.01,291.73L421.48,276.40L418.19,273.49L426.67,270.68L424.39,255.70L410.43,256.80L411.36,264.37L408.53,260.77L397.23,271.22L404.60,287.86L413.28,288.37L412.27,295.91L427.01,307.19L441.63,298.78L440.25,294.09L448.34,296.41L454.87,282.56L442.49,274.85L438.35,281.14L437.75,276.18L422.01,277.61L417.75,295.02L424.04,300.16L418.33,305.30L423.18,322.71L439.50,324.13L440.69,319.16L445.41,325.43L458.37,317.70L452.43,303.83L444.92,306.13L446.88,301.41L432.84,292.97L418.69,304.21L420.28,311.71L412.18,312.18L405.39,328.77L417.28,339.17L420.68,335.52L420.34,343.04L434.88,344.08L437.74,329.03L429.83,326.16L433.70,323.17L426.82,307.78L408.27,308.24L404.65,314.94L397.33,310.24L381.58,319.37L384.59,334.47L388.99,333.22L383.79,338.80L394.44,347.90L405.09,337.12L399.87,329.86L404.25,329.43L407.21,312.65L391.43,301.84L384.05,304.85L380.37,296.48L361.75,294.34L354.78,308.05L358.56,309.37L350.55,310.56L353.29,323.93L367.72,321.21L367.24,312.02L370.50,314.00L382.24,301.92L375.29,283.65L367.01,281.52L368.43,272.34L354.08,259.43L339.85,266.20L341.59,269.26L333.87,265.29L327.69,277.5L340.42,283.56L344.89,275.63L345.82,278.94L361.87,275.86L366.44,256.79L360.45,250L366.44,243.21L361.87,224.14L345.82,221.06L344.89,224.37L340.42,216.44L327.69,222.5L333.87,234.71L341.59,230.74L339.85,233.80L354.08,240.57L368.43,227.66L367.01,218.48L375.29,216.35L382.24,198.08L370.50,186.00L367.24,187.98L367.72,178.79L353.29,176.07L350.55,189.44L358.56,190.63L354.78,191.95L361.75,205.66L380.37,203.52L384.05,195.15L391.43,198.17L407.21,187.35L404.25,170.57L399.87,170.14L405.09,162.88L394.44,152.10L383.79,161.20L388.99,166.78L384.59,165.53L381.58,180.63L397.33,189.76L404.65,185.06L408.27,191.76L426.82,192.22L433.70,176.83L429.83,173.84L437.74,170.97L434.88,155.92L420.34,156.96L420.68,164.48L417.28,160.83L405.39,171.23L412.18,187.82L420.28,188.29L418.69,195.79L432.84,207.03L446.88,198.59L444.92,193.87L452.43,196.17L458.37,182.30L445.41,174.57L440.69,180.84L439.50,175.87L423.18,177.29L418.33,194.70L424.04,199.84L417.75,204.98L422.01,222.39L437.75,223.82L438.35,218.86L442.49,225.15L454.87,217.44L448.34,203.59L440.25,205.91L441.63,201.22L427.01,192.81L412.27,204.08L413.28,211.63L404.60,212.14L397.23,228.78L408.53,239.23L411.36,235.63L410.43,243.20L424.39,244.30L426.67,229.32L418.19,226.51L421.48,223.60L414.01,208.27L394.88,208.81L390.69,215.59L382.79,210.97L366.47,220.19L368.89,235.38L372.72,234.22L366.94,239.90L377.02,249.09L387.09,238.42L381.30,231.26L385.10,230.95L387.50,214.28L371.14,203.58L363.19,206.72L358.94,198.46L339.75,196.45L332.21,210.3L335.42,211.74L326.84,213.08L329.02,226.58L342.88,224.01L341.83,214.96L344.53,217.09L355.71,205.17L348.20,187.05L339.36,185.08L340.21,176.06L325.31,163.32L310.51,170.26L311.70,173.49L303.42,169.70L296.69,182.08L308.86,188.33L312.78,180.58L313.16,184.08L328.66,181.19L332.68,162.32L326.14,155.72L331.58,149.13L326.46,130.27L309.87,127.40L308.39,130.92L303.38,123.20L290.11,129.48L295.75,141.91L302.93,138.17L300.64,141.45L314.34,148.45L328.15,135.77L326.20,126.83L333.95,124.94L340.37,106.91L328.10,95.08L324.31,97.30L324.26,88.36L309.31,85.90L306.04,99.52L313.53,100.98L309.23,102.56L315.68,116.54L333.78,114.67L336.95,106.56L343.81,109.86L359.09,99.32L355.61,82.82L350.72,82.68L355.43,75.71L344.28,65.22L333.12,74.61L337.82,80.49L332.91,79.53L329.41,94.94L344.66,104.37L351.49,99.98L354.61,106.99L372.67,107.76L379.06,92.69L374.70,90.02L382.12,87.47L378.78,72.75L363.75,74.12L363.62,81.96L359.73,78.64L347.37,89.38L353.68,106.32L361.31,107.12L359.25,114.97L372.93,126.56L386.50,118.47L384.08,114.10L391.12,116.75L396.61,103.24L383.18,95.87L378.01,102.50L376.36,97.90L359.59,99.69L354.29,117.47L359.55,122.98L352.81,128.50L356.64,146.29L371.93,148.10L372.10,143.53L375.79,150.20L387.74,142.88L380.78,129.43L372.26,132.14L373.21,127.85L358.16,119.84L343.00,131.51L343.59,139.46L334.49,140.37L326.70,157.43L337.59,168.29L340.01,165.10L338.67,173.09L352.23,174.61L354.10,160.05L345.21,157.67L348.10,155.17L340.24,140.28L320.72,141.24L316.13,148.45L307.84,144.27L291.13,153.93L293.17,169.56L296.62,168.84L290.46,174.96L300.16,184.61L309.86,174.38L303.7,167.68L307.14,167.81L309.17,151.60L292.44,141.36L284.13,144.95L279.52,137.16L259.98,135.61L252.09,149.92L254.94,151.83L246.02,153.63L247.85,167.61L261.37,165.51L259.99,156.94L262.35,159.55L273.19,148.10L265.35,130.47L256.18,128.98L256.71,120.44L241.49,108.19L226.37,115.62L227.24,119.34L218.65,116.04L211.61,128.92L223.47,135.66L227.09,128.41L227.17,132.41L242.36,130.02L246.09,111.65L239.25,105.56L244.41,99.48L239.00,81.12L222.12,78.76L220.36,82.79L215.07,75.58L201.53,82.38L206.89,95.32L213.80,92.10L211.25,95.90L224.69,103.42L238.24,91.27L236.03,82.85L243.52,81.48L249.69,63.98L237.18,52.68L233.14,55.43L232.85,47.02L217.66,45.10L214.15,59.25L221.41,61.24L216.88,63.35L223.10,77.87L240.98,76.55L243.93,68.98L250.57,72.82L265.63,62.83L261.95,46.87L256.85,47.27L261.36,40.85L250,30.90L238.65,40.85L243.15,47.27L238.05,46.87"/>

  </g>
    <style>
        path {

            stroke-dasharray: 12721;
            stroke-dashoffset: 12721;
            animation: draw 60s linear forwards;
          }
          
          @keyframes draw {
            from {
              stroke-dashoffset: 12721;
            }
          
            to {
              stroke-dashoffset: 0;
            }
          }

          @-webkit-keyframes draw {
              to {
                  stroke-dashoffset: 0;
              }
          }          
          
    </style>  

</svg>
