<?xml version="1.0" standalone="no"?>
<!DOCTYPE svg PUBLIC "-//W3C//DTD SVG 1.1//EN" "http://www.w3.org/Graphics/SVG/1.1/DTD/svg11.dtd">
<svg width="500" height="500" title="polygons" version="1.1" viewBox="0 0 500 500" xmlns="http://www.w3.org/2000/svg" class="svg-paper">
  <g>
    <!--  Created by Sandify -->
    <!--  https://sandify.org -->
    <!--  Version: 0.2.8 -->

    <!--  Machine type: Rectangular -->
    <!--    Min X (mm): 0 -->
    <!--    Max X (mm): 500 -->
    <!--    Min Y (mm): 0 -->
    <!--    Max Y (mm): 500 -->
    <!--  Content type: shape -->
    <!--  Layer: -->
    <!--    Shape: Fractal Spirograph -->
    <!--    Name: fractal spirograph -->
    <!--    Velocity: 15 -->
    <!--    Resolution: 3 -->
    <!--    Number of circles: 3 -->
    <!--    Relative size (parent to child circle): 3 -->
    <!--    Alternate rotation direction: true -->
    <!--    Visible: true -->
    <!--    Initial width: 22 -->
    <!--    Initial height: 22 -->
    <!--    X offset: 0 -->
    <!--    Y offset: 0 -->
    <!--    Rotate (degrees): 0 -->
    <!--    Reverse path: false -->
    <!--    Number of loops: 2 -->
    <!--    When transforming shape: intact -->
    <!--    Scale: true -->
    <!--      Scale (+/-): 100 -->
    <!--      Scale by: constant -->
    <!--    Spin: true -->
    <!--      Spin (+/-): 0 -->
    <!--      Spin by: constant -->
    <!--        Switchbacks: 0 -->
    <!--    Track: false -->
    <!--    Fine tuning: -->
    <!--      Connect to next layer: line -->
    <!--      Draw portion of path (%): 100 -->
    <!--      Backtrack at end (%): 0 -->
    <!--      Rotate starting point (%): 0 -->
    <!--  Reverse export path: false -->

    <!-- File name: 'square spirograph' -->
    <!-- File type: svg -->


    <desc>pwidth:500;pheight:500;</desc>
    <path
       stroke="white"
       stroke-width="0.2mm"
       fill="black"
       d="M237.67,50.41L237.67,50.41L248.63,69.31L271.62,67.66L277.42,49.28L262.18,43.35L253.03,61.08L267.85,79.15L288.71,74.19L288.42,57.44L270.77,58.04L264.93,79.81L282.11,95.54L298.97,87.31L292.16,72.99L272.92,79.72L270.40,103.63L288.44,115.53L299.85,104.14L286.74,92.75L267.01,104.67L267.83,128.60L285.37,135.37L290.48,121.09L271.93,112.91L253.05,128.71L257.20,150.55L273.15,151.23L271.75,134.58L249.20,129.72L232.68,147.90L240.13,165.76L253.69,159.96L246.19,141.73L221.52,140.23L208.86,159.28L219.51,171.72L230.15,159.64L217.50,140.94L192.83,142.79L185.34,161.38L198.90,167.53L206.37,150.03L189.87,132.20L167.33,137.42L165.95,154.42L181.91,154.09L186.09,132.61L167.23,117.16L148.70,125.70L153.85,140.33L171.42,133.92L172.27,110.34L152.57,98.77L139.49,110.51L150.95,122.26L169.02,110.71L166.55,87.15L147.36,80.77L140.59,95.44L157.50,104.03L174.73,88.65L168.93,67.23L151.35,66.98L151.11,84.08L172.03,89.39L186.91,71.67L177.82,54.29L162.64,60.57L168.52,79.29L191.57,81.29L202.61,62.75L190.34,50.83L178.09,63.44L189.13,82.68L212.19,81.38L218.08,63.35L202.92,57.76L193.85,75.84L208.76,94.25L229.71,89.63L229.51,73.23L211.96,74.17L206.20,96.28L223.48,112.35L240.44,104.46L233.73,90.48L214.59,97.55L212.18,121.80L230.33,134.04L241.85,122.98L228.85,111.93L209.23,124.19L210.16,148.46L227.82,155.56L233.05,141.61L214.62,133.77L195.86,149.90L200.14,172.07L216.21,173.09L214.94,156.76L192.52,152.24L176.13,170.75L183.72,188.94L197.41,183.46L190.05,165.56L165.52,164.38L153.00,183.76L163.79,196.53L174.58,184.77L162.07,166.39L137.56,168.57L130.22,187.47L143.93,193.95L151.56,176.76L135.21,159.26L112.83,164.79L111.61,182.11L127.73,182.10L132.07,160.92L113.38,145.80L95.02,154.64L100.34,169.58L118.08,163.49L119.10,140.21L99.58,128.96L86.68,141.00L98.31,153.06L116.57,141.81L114.27,118.56L95.26,112.49L88.68,127.46L105.78,136.35L123.20,121.27L117.59,100.15L100.20,100.20L100.15,117.59L121.27,123.20L136.35,105.78L127.46,88.68L112.49,95.26L118.56,114.27L141.81,116.57L153.06,98.31L141.00,86.68L128.96,99.58L140.21,119.10L163.49,118.08L169.58,100.34L154.64,95.02L145.80,113.38L160.92,132.07L182.10,127.74L182.11,111.61L164.79,112.83L159.26,135.21L176.76,151.56L193.95,143.93L187.47,130.22L168.57,137.56L166.39,162.07L184.77,174.58L196.53,163.79L183.76,153.00L164.38,165.52L165.56,190.05L183.46,197.41L188.94,183.72L170.75,176.13L152.24,192.52L156.76,214.94L173.09,216.21L172.07,200.14L149.90,195.86L133.77,214.62L141.61,233.05L155.56,227.82L148.46,210.16L124.19,209.23L111.93,228.85L122.98,241.85L134.04,230.33L121.80,212.18L97.55,214.59L90.48,233.73L104.46,240.44L112.35,223.48L96.28,206.20L74.17,211.96L73.23,229.51L89.63,229.71L94.25,208.76L75.84,193.85L57.76,202.92L63.35,218.08L81.38,212.19L82.68,189.13L63.44,178.09L50.83,190.35L62.75,202.61L81.29,191.57L79.29,168.52L60.57,162.64L54.29,177.82L71.67,186.91L89.39,172.03L84.08,151.11L66.98,151.35L67.23,168.93L88.65,174.73L104.03,157.50L95.44,140.59L80.77,147.36L87.15,166.55L110.71,169.02L122.26,150.95L110.51,139.49L98.77,152.57L110.34,172.27L133.92,171.42L140.33,153.85L125.70,148.70L117.16,167.23L132.61,186.09L154.09,181.91L154.42,165.95L137.42,167.33L132.20,189.87L150.03,206.37L167.53,198.90L161.38,185.34L142.79,192.83L140.94,217.50L159.64,230.15L171.72,219.51L159.28,208.86L140.23,221.52L141.73,246.19L159.96,253.69L165.76,240.13L147.90,232.68L129.72,249.20L134.58,271.75L151.23,273.15L150.55,257.20L128.71,253.05L112.91,271.93L121.09,290.48L135.37,285.37L128.60,267.83L104.67,267.01L92.75,286.74L104.14,299.85L115.53,288.44L103.63,270.40L79.72,272.92L72.99,292.16L87.31,298.97L95.54,282.11L79.81,264.93L58.04,270.77L57.44,288.42L74.19,288.71L79.15,267.85L61.08,253.03L43.35,262.18L49.28,277.42L67.66,271.62L69.31,248.63L50.41,237.67L38.15,250L50.41,262.33L69.31,251.37L67.66,228.38L49.28,222.58L43.35,237.82L61.08,246.97L79.15,232.15L74.19,211.29L57.44,211.58L58.04,229.23L79.81,235.07L95.54,217.89L87.31,201.03L72.99,207.84L79.72,227.08L103.63,229.60L115.53,211.56L104.14,200.15L92.75,213.26L104.67,232.99L128.60,232.17L135.37,214.63L121.09,209.52L112.91,228.07L128.71,246.95L150.55,242.80L151.23,226.85L134.58,228.25L129.72,250.80L147.90,267.32L165.76,259.87L159.96,246.31L141.73,253.81L140.23,278.48L159.28,291.14L171.72,280.49L159.64,269.85L140.94,282.50L142.79,307.17L161.38,314.66L167.53,301.10L150.03,293.63L132.20,310.13L137.42,332.67L154.42,334.05L154.09,318.09L132.61,313.91L117.16,332.77L125.70,351.30L140.33,346.15L133.92,328.58L110.34,327.73L98.77,347.43L110.51,360.51L122.26,349.05L110.71,330.98L87.15,333.45L80.77,352.64L95.44,359.41L104.03,342.50L88.65,325.27L67.23,331.07L66.98,348.65L84.08,348.89L89.39,327.97L71.67,313.09L54.29,322.18L60.57,337.36L79.29,331.48L81.29,308.43L62.75,297.39L50.83,309.65L63.44,321.91L82.68,310.87L81.38,287.81L63.35,281.92L57.76,297.08L75.84,306.15L94.25,291.24L89.63,270.29L73.23,270.49L74.17,288.04L96.28,293.80L112.35,276.52L104.46,259.56L90.48,266.27L97.55,285.41L121.80,287.82L134.04,269.67L122.98,258.15L111.93,271.15L124.19,290.77L148.46,289.84L155.56,272.18L141.61,266.95L133.77,285.38L149.90,304.14L172.07,299.86L173.09,283.79L156.76,285.06L152.24,307.48L170.75,323.87L188.94,316.28L183.46,302.59L165.56,309.95L164.38,334.48L183.76,347.00L196.53,336.21L184.77,325.42L166.39,337.93L168.57,362.44L187.47,369.78L193.95,356.07L176.76,348.44L159.26,364.79L164.79,387.17L182.11,388.39L182.10,372.26L160.92,367.93L145.80,386.62L154.64,404.98L169.58,399.66L163.49,381.92L140.21,380.90L128.96,400.42L141.00,413.32L153.06,401.69L141.81,383.43L118.56,385.73L112.49,404.74L127.46,411.32L136.35,394.22L121.27,376.80L100.15,382.41L100.20,399.80L117.59,399.85L123.20,378.73L105.78,363.65L88.68,372.54L95.26,387.51L114.27,381.44L116.57,358.19L98.31,346.94L86.68,359.00L99.58,371.04L119.10,359.79L118.08,336.51L100.34,330.42L95.02,345.36L113.38,354.20L132.07,339.08L127.73,317.90L111.61,317.89L112.83,335.21L135.21,340.74L151.56,323.24L143.93,306.05L130.22,312.53L137.56,331.43L162.07,333.61L174.58,315.23L163.79,303.47L153.00,316.24L165.52,335.62L190.05,334.44L197.41,316.54L183.72,311.06L176.13,329.25L192.52,347.76L214.94,343.24L216.21,326.91L200.14,327.93L195.86,350.10L214.62,366.23L233.05,358.39L227.82,344.44L210.16,351.54L209.23,375.81L228.85,388.07L241.85,377.02L230.33,365.96L212.18,378.20L214.59,402.45L233.73,409.52L240.44,395.54L223.48,387.65L206.20,403.72L211.96,425.83L229.51,426.77L229.71,410.37L208.76,405.75L193.85,424.16L202.92,442.24L218.08,436.65L212.19,418.63L189.13,417.32L178.09,436.56L190.34,449.17L202.61,437.25L191.57,418.71L168.52,420.71L162.64,439.43L177.82,445.71L186.91,428.33L172.03,410.61L151.11,415.92L151.35,433.02L168.93,432.77L174.73,411.35L157.50,395.97L140.59,404.56L147.36,419.23L166.55,412.85L169.02,389.29L150.95,377.74L139.49,389.49L152.57,401.23L172.27,389.66L171.42,366.08L153.85,359.67L148.70,374.30L167.23,382.84L186.09,367.39L181.91,345.91L165.95,345.58L167.33,362.58L189.87,367.80L206.37,349.97L198.90,332.47L185.34,338.63L192.83,357.21L217.50,359.06L230.15,340.36L219.51,328.28L208.86,340.72L221.52,359.77L246.19,358.27L253.69,340.04L240.13,334.24L232.68,352.10L249.20,370.28L271.75,365.42L273.15,348.77L257.20,349.45L253.05,371.29L271.93,387.09L290.48,378.91L285.37,364.63L267.83,371.40L267.01,395.33L286.74,407.25L299.85,395.86L288.44,384.47L270.40,396.37L272.92,420.28L292.16,427.01L298.97,412.69L282.11,404.46L264.93,420.19L270.77,441.96L288.42,442.56L288.71,425.81L267.85,420.85L253.03,438.92L262.18,456.65L277.42,450.72L271.62,432.34L248.63,430.69L237.67,449.59L250,461.85L262.33,449.59L251.37,430.69L228.38,432.34L222.58,450.72L237.82,456.65L246.97,438.92L232.15,420.85L211.29,425.81L211.58,442.56L229.22,441.96L235.07,420.19L217.89,404.46L201.03,412.69L207.84,427.01L227.08,420.28L229.60,396.37L211.56,384.47L200.15,395.86L213.26,407.25L232.99,395.33L232.17,371.40L214.63,364.63L209.52,378.91L228.07,387.09L246.95,371.29L242.80,349.45L226.85,348.77L228.25,365.42L250.80,370.28L267.32,352.10L259.87,334.24L246.31,340.04L253.81,358.27L278.48,359.77L291.14,340.72L280.49,328.28L269.85,340.36L282.50,359.06L307.17,357.21L314.66,338.63L301.10,332.47L293.63,349.97L310.13,367.80L332.67,362.58L334.05,345.58L318.09,345.91L313.91,367.39L332.77,382.84L351.30,374.30L346.15,359.67L328.58,366.08L327.73,389.66L347.43,401.23L360.51,389.49L349.05,377.74L330.98,389.29L333.45,412.85L352.64,419.23L359.41,404.56L342.50,395.97L325.27,411.35L331.07,432.77L348.65,433.02L348.89,415.92L327.97,410.61L313.09,428.33L322.18,445.71L337.36,439.43L331.48,420.71L308.43,418.71L297.39,437.25L309.65,449.17L321.91,436.56L310.87,417.32L287.81,418.63L281.92,436.65L297.08,442.24L306.15,424.16L291.24,405.75L270.29,410.37L270.49,426.77L288.04,425.83L293.80,403.72L276.52,387.65L259.56,395.54L266.27,409.52L285.41,402.45L287.82,378.20L269.67,365.96L258.15,377.02L271.15,388.07L290.77,375.81L289.84,351.54L272.18,344.44L266.95,358.39L285.38,366.23L304.14,350.10L299.86,327.93L283.79,326.91L285.06,343.24L307.48,347.76L323.87,329.25L316.28,311.06L302.59,316.54L309.95,334.44L334.48,335.62L347.00,316.24L336.21,303.47L325.42,315.23L337.93,333.61L362.44,331.43L369.78,312.53L356.07,306.05L348.44,323.24L364.79,340.74L387.17,335.21L388.39,317.89L372.26,317.90L367.93,339.08L386.62,354.20L404.98,345.36L399.66,330.42L381.92,336.51L380.90,359.79L400.42,371.04L413.32,359.00L401.69,346.94L383.43,358.19L385.73,381.44L404.74,387.51L411.32,372.54L394.22,363.65L376.80,378.73L382.41,399.85L399.80,399.80L399.85,382.41L378.73,376.80L363.65,394.22L372.54,411.32L387.51,404.74L381.44,385.73L358.19,383.43L346.94,401.69L359.00,413.32L371.04,400.42L359.79,380.90L336.51,381.92L330.42,399.66L345.36,404.98L354.20,386.62L339.08,367.93L317.90,372.26L317.89,388.39L335.21,387.17L340.74,364.79L323.24,348.44L306.05,356.07L312.53,369.78L331.43,362.44L333.61,337.93L315.23,325.42L303.47,336.21L316.24,347.00L335.62,334.48L334.44,309.95L316.54,302.59L311.06,316.28L329.25,323.87L347.76,307.48L343.24,285.06L326.91,283.79L327.93,299.86L350.10,304.14L366.23,285.38L358.39,266.95L344.44,272.18L351.54,289.84L375.81,290.77L388.07,271.15L377.02,258.15L365.96,269.67L378.20,287.82L402.45,285.41L409.52,266.27L395.54,259.56L387.65,276.52L403.72,293.80L425.83,288.04L426.77,270.49L410.37,270.29L405.75,291.24L424.16,306.15L442.24,297.08L436.65,281.92L418.63,287.81L417.32,310.87L436.56,321.91L449.17,309.65L437.25,297.39L418.71,308.43L420.71,331.48L439.43,337.36L445.71,322.18L428.33,313.09L410.61,327.97L415.92,348.89L433.02,348.65L432.77,331.07L411.35,325.27L395.97,342.50L404.56,359.41L419.23,352.64L412.85,333.45L389.29,330.98L377.74,349.05L389.49,360.51L401.23,347.43L389.66,327.73L366.08,328.58L359.67,346.15L374.30,351.30L382.84,332.77L367.39,313.91L345.91,318.09L345.58,334.05L362.58,332.67L367.80,310.13L349.97,293.63L332.47,301.10L338.63,314.66L357.21,307.17L359.06,282.50L340.36,269.85L328.28,280.49L340.72,291.14L359.77,278.48L358.27,253.81L340.04,246.31L334.24,259.87L352.10,267.32L370.28,250.80L365.42,228.25L348.77,226.85L349.45,242.80L371.29,246.95L387.09,228.07L378.91,209.52L364.63,214.63L371.40,232.17L395.33,232.99L407.25,213.26L395.86,200.15L384.47,211.56L396.37,229.60L420.28,227.08L427.01,207.84L412.69,201.03L404.46,217.89L420.19,235.07L441.96,229.23L442.56,211.58L425.81,211.29L420.85,232.15L438.92,246.97L456.65,237.82L450.72,222.58L432.34,228.38L430.69,251.37L449.59,262.33L461.85,250L449.59,237.67L430.69,248.63L432.34,271.62L450.72,277.42L456.65,262.18L438.92,253.03L420.85,267.85L425.81,288.71L442.56,288.42L441.96,270.77L420.19,264.93L404.46,282.11L412.69,298.97L427.01,292.16L420.28,272.92L396.37,270.40L384.47,288.44L395.86,299.85L407.25,286.74L395.33,267.01L371.40,267.83L364.63,285.37L378.91,290.48L387.09,271.93L371.29,253.05L349.45,257.20L348.77,273.15L365.42,271.75L370.28,249.20L352.10,232.68L334.24,240.13L340.04,253.69L358.27,246.19L359.77,221.52L340.72,208.86L328.28,219.51L340.36,230.15L359.06,217.50L357.21,192.83L338.63,185.34L332.47,198.90L349.97,206.37L367.80,189.87L362.58,167.33L345.58,165.95L345.91,181.91L367.39,186.09L382.84,167.23L374.30,148.70L359.67,153.85L366.08,171.42L389.66,172.27L401.23,152.57L389.49,139.49L377.74,150.95L389.29,169.02L412.85,166.55L419.23,147.36L404.56,140.59L395.97,157.50L411.35,174.73L432.77,168.93L433.02,151.35L415.92,151.11L410.61,172.03L428.33,186.91L445.71,177.82L439.43,162.64L420.71,168.52L418.71,191.57L437.25,202.61L449.17,190.35L436.56,178.09L417.32,189.13L418.63,212.19L436.65,218.08L442.24,202.92L424.16,193.85L405.75,208.76L410.37,229.71L426.77,229.51L425.83,211.96L403.72,206.20L387.65,223.48L395.54,240.44L409.52,233.73L402.45,214.59L378.20,212.18L365.96,230.33L377.02,241.85L388.07,228.85L375.81,209.23L351.54,210.16L344.44,227.82L358.39,233.05L366.23,214.62L350.10,195.86L327.93,200.14L326.91,216.21L343.24,214.94L347.76,192.52L329.25,176.13L311.06,183.72L316.54,197.41L334.44,190.05L335.62,165.52L316.24,153.00L303.47,163.79L315.23,174.58L333.61,162.07L331.43,137.56L312.53,130.22L306.05,143.93L323.24,151.56L340.74,135.21L335.21,112.83L317.89,111.61L317.90,127.74L339.08,132.07L354.20,113.38L345.36,95.02L330.42,100.34L336.51,118.08L359.79,119.10L371.04,99.58L359.00,86.68L346.94,98.31L358.19,116.57L381.44,114.27L387.51,95.26L372.54,88.68L363.65,105.78L378.73,123.20L399.85,117.59L399.80,100.20L382.41,100.15L376.80,121.27L394.22,136.35L411.32,127.46L404.74,112.49L385.73,118.56L383.43,141.81L401.69,153.06L413.32,141.00L400.42,128.96L380.90,140.21L381.92,163.49L399.66,169.58L404.98,154.64L386.62,145.80L367.93,160.92L372.26,182.10L388.39,182.11L387.17,164.79L364.79,159.26L348.44,176.76L356.07,193.95L369.78,187.47L362.44,168.57L337.93,166.39L325.42,184.77L336.21,196.53L347.00,183.76L334.48,164.38L309.95,165.56L302.59,183.46L316.28,188.94L323.87,170.75L307.48,152.24L285.06,156.76L283.79,173.09L299.86,172.07L304.14,149.90L285.38,133.77L266.95,141.61L272.18,155.56L289.84,148.46L290.77,124.19L271.15,111.93L258.15,122.98L269.67,134.04L287.82,121.80L285.41,97.55L266.27,90.48L259.56,104.46L276.52,112.35L293.80,96.28L288.04,74.17L270.49,73.23L270.29,89.63L291.24,94.25L306.15,75.84L297.08,57.76L281.92,63.35L287.81,81.38L310.87,82.68L321.91,63.44L309.65,50.83L297.39,62.75L308.43,81.29L331.48,79.29L337.36,60.57L322.18,54.29L313.09,71.67L327.97,89.39L348.89,84.08L348.65,66.98L331.07,67.23L325.27,88.65L342.50,104.03L359.41,95.44L352.64,80.77L333.45,87.15L330.98,110.71L349.05,122.26L360.51,110.51L347.43,98.77L327.73,110.34L328.58,133.92L346.15,140.33L351.30,125.70L332.77,117.16L313.91,132.61L318.09,154.09L334.05,154.42L332.67,137.42L310.13,132.20L293.63,150.03L301.10,167.53L314.66,161.38L307.17,142.79L282.50,140.94L269.85,159.64L280.49,171.72L291.14,159.28L278.48,140.23L253.81,141.73L246.31,159.96L259.87,165.76L267.32,147.90L250.80,129.72L228.25,134.58L226.85,151.23L242.80,150.55L246.95,128.71L228.07,112.91L209.52,121.09L214.63,135.37L232.17,128.60L232.99,104.67L213.26,92.75L200.15,104.14L211.56,115.53L229.60,103.63L227.08,79.72L207.84,72.99L201.03,87.31L217.89,95.54L235.07,79.81L229.22,58.04L211.58,57.44L211.29,74.19L232.15,79.15L246.97,61.08L237.82,43.35L222.58,49.28L228.38,67.66L251.37,69.31L262.33,50.41L250,38.15L237.67,50.41L248.63,69.31L271.62,67.66L257.18,0L285.40,0L285.65,7.21L320.74,20.73L328.16,0L264.96,0L256.10,7.41L264.40,51.09L296.30,52.46L293.50,19.16L248.39,9.44L215.36,45.80L230.27,81.52L257.37,69.91L242.38,33.46L193.04,30.45L167.72,68.57L189.01,93.45L210.30,69.28L185.00,31.87L135.66,35.58L120.69,72.75L147.81,85.07L162.74,50.06L129.73,14.41L84.65,24.83L81.89,58.85L113.83,58.19L122.17,15.21L103.60,0L50.43,0L47.41,1.39L57.69,30.66L92.84,17.84L93.48,0L183.86,0L210.66,18.08L229.50,0L168.52,0L170.32,46.92L205.64,61.12L216.11,33.23L179.24,17.54L141.72,49.79L150.28,94.14L182.43,96.18L179.89,63.53L135.03,54.48L102.27,91.49L117.44,127.87L144.82,116.92L130.10,81.12L81.04,78.76L56.01,117.53L77.58,143.06L99.16,119.54L74.15,82.78L25.11,87.13L10.44,124.94L37.87,137.90L53.11,103.53L20.42,68.52L0,73.56L0,114.20L5.47,114.19L14.15,71.85L0,60.39L0,0L60.40,0L71.85,14.15L114.19,5.47L114.20,0L73.56,0L68.52,20.42L103.53,53.11L137.90,37.87L124.94,10.44L87.13,25.11L82.78,74.15L119.54,99.16L143.06,77.58L117.53,56.01L78.76,81.04L81.12,130.10L116.92,144.82L127.87,117.44L91.49,102.27L54.48,135.03L63.53,179.89L96.18,182.43L94.14,150.28L49.79,141.73L17.54,179.24L33.23,216.11L61.12,205.64L46.92,170.32L0,168.52L0,229.50L18.08,210.65L0,183.86L0,93.48L17.84,92.84L30.66,57.69L1.39,47.41L0,50.43L0,103.60L15.21,122.18L58.19,113.83L58.85,81.89L24.83,84.65L14.41,129.73L50.06,162.74L85.07,147.81L72.75,120.69L35.58,135.66L31.87,185.00L69.28,210.30L93.45,189.01L68.57,167.72L30.45,193.04L33.46,242.38L69.91,257.37L81.52,230.27L45.80,215.36L9.44,248.39L19.16,293.50L52.46,296.30L51.09,264.40L7.41,256.10L0,264.96L0,328.16L20.73,320.74L7.21,285.65L0,285.40L0,214.60L7.21,214.35L20.73,179.26L0,171.84L0,235.04L7.41,243.90L51.09,235.60L52.46,203.70L19.16,206.50L9.44,251.61L45.80,284.64L81.52,269.73L69.91,242.63L33.46,257.62L30.45,306.96L68.57,332.28L93.45,310.99L69.28,289.70L31.87,315.00L35.58,364.34L72.75,379.31L85.07,352.19L50.06,337.26L14.41,370.27L24.83,415.35L58.85,418.11L58.19,386.17L15.21,377.82L0,396.40L0,449.57L1.39,452.59L30.66,442.31L17.84,407.16L0,406.52L0,316.14L18.08,289.35L0,270.50L0,331.48L46.92,329.68L61.12,294.36L33.23,283.89L17.54,320.76L49.79,358.27L94.14,349.72L96.18,317.57L63.53,320.11L54.48,364.97L91.49,397.73L127.87,382.56L116.92,355.18L81.12,369.90L78.76,418.96L117.53,443.99L143.06,422.42L119.54,400.84L82.78,425.85L87.13,474.89L124.94,489.56L137.90,462.13L103.53,446.89L68.52,479.58L73.56,500L114.20,500L114.19,494.53L71.85,485.85L60.40,500L0,500L0,439.61L14.15,428.15L5.47,385.81L0,385.80L0,426.44L20.42,431.48L53.11,396.47L37.87,362.10L10.44,375.06L25.11,412.87L74.15,417.22L99.16,380.46L77.58,356.94L56.01,382.47L81.04,421.24L130.10,418.88L144.82,383.08L117.44,372.13L102.27,408.51L135.03,445.52L179.89,436.47L182.43,403.82L150.28,405.86L141.72,450.21L179.24,482.46L216.11,466.77L205.64,438.88L170.32,453.08L168.52,500L229.50,500L210.66,481.92L183.86,500L93.48,500L92.84,482.16L57.69,469.34L47.41,498.61L50.43,500L103.60,500L122.17,484.79L113.83,441.81L81.89,441.15L84.65,475.17L129.73,485.59L162.74,449.94L147.81,414.93L120.69,427.25L135.66,464.42L185.00,468.13L210.30,430.72L189.01,406.55L167.72,431.43L193.04,469.55L242.38,466.54L257.37,430.09L230.27,418.48L215.36,454.20L248.39,490.56L293.50,480.84L296.30,447.54L264.40,448.91L256.10,492.59L264.96,500L328.16,500L320.74,479.27L285.65,492.79L285.40,500L214.59,500L214.35,492.79L179.26,479.27L171.84,500L235.04,500L243.90,492.59L235.59,448.91L203.70,447.54L206.50,480.84L251.61,490.56L284.64,454.20L269.73,418.48L242.63,430.09L257.62,466.54L306.96,469.55L332.28,431.43L310.99,406.55L289.70,430.72L315.00,468.13L364.34,464.42L379.31,427.25L352.19,414.93L337.26,449.94L370.27,485.59L415.35,475.17L418.11,441.15L386.17,441.81L377.82,484.79L396.40,500L449.57,500L452.59,498.61L442.31,469.34L407.16,482.16L406.52,500L316.14,500L289.35,481.92L270.50,500L331.48,500L329.68,453.08L294.36,438.88L283.89,466.77L320.76,482.46L358.27,450.21L349.72,405.86L317.57,403.82L320.11,436.47L364.97,445.52L397.73,408.51L382.56,372.13L355.18,383.08L369.90,418.88L418.96,421.24L443.99,382.47L422.42,356.94L400.84,380.46L425.85,417.22L474.89,412.87L489.56,375.06L462.13,362.10L446.89,396.47L479.58,431.48L500,426.44L500,385.80L494.53,385.81L485.85,428.15L500,439.61L500,500L439.61,500L428.15,485.85L385.81,494.53L385.80,500L426.44,500L431.48,479.58L396.47,446.89L362.10,462.13L375.06,489.56L412.87,474.89L417.22,425.85L380.46,400.84L356.94,422.42L382.47,443.99L421.24,418.96L418.88,369.90L383.08,355.18L372.13,382.56L408.51,397.73L445.52,364.97L436.47,320.11L403.82,317.57L405.86,349.72L450.21,358.27L482.46,320.76L466.77,283.89L438.88,294.36L453.08,329.68L500,331.48L500,270.50L481.92,289.35L500,316.14L500,406.52L482.16,407.16L469.34,442.31L498.61,452.59L500,449.57L500,396.40L484.79,377.82L441.81,386.17L441.15,418.11L475.17,415.35L485.59,370.27L449.94,337.26L414.93,352.19L427.25,379.31L464.42,364.34L468.13,315.00L430.72,289.70L406.55,310.99L431.43,332.28L469.55,306.96L466.54,257.62L430.09,242.63L418.48,269.73L454.20,284.64L490.56,251.61L480.84,206.50L447.54,203.70L448.91,235.60L492.59,243.90L500,235.04L500,171.84L479.27,179.26L492.79,214.35L500,214.60L500,285.40L492.79,285.65L479.27,320.74L500,328.16L500,264.96L492.59,256.10L448.91,264.40L447.54,296.30L480.84,293.50L490.56,248.39L454.20,215.36L418.48,230.27L430.09,257.37L466.54,242.38L469.55,193.04L431.43,167.72L406.55,189.01L430.72,210.30L468.13,185.00L464.42,135.66L427.25,120.69L414.93,147.81L449.94,162.74L485.59,129.73L475.17,84.65L441.15,81.89L441.81,113.83L484.79,122.18L500,103.60L500,50.43L498.61,47.41L469.34,57.69L482.16,92.84L500,93.48L500,183.86L481.92,210.65L500,229.50L500,168.52L453.08,170.32L438.88,205.64L466.77,216.11L482.46,179.24L450.21,141.73L405.86,150.28L403.82,182.43L436.47,179.89L445.52,135.03L408.51,102.27L372.13,117.44L383.08,144.82L418.88,130.10L421.24,81.04L382.47,56.01L356.94,77.58L380.46,99.16L417.22,74.15L412.87,25.11L375.06,10.44L362.10,37.87L396.47,53.11L431.48,20.42L426.44,0L385.80,0L385.81,5.47L428.15,14.15L439.61,0L500,0L500,60.39L485.85,71.85L494.53,114.19L500,114.20L500,73.56L479.58,68.52L446.89,103.53L462.13,137.90L489.56,124.94L474.89,87.13L425.85,82.78L400.84,119.54L422.42,143.06L443.99,117.53L418.96,78.76L369.90,81.12L355.18,116.92L382.56,127.87L397.73,91.49L364.97,54.48L320.11,63.53L317.57,96.18L349.72,94.14L358.27,49.79L320.76,17.54L283.89,33.23L294.36,61.12L329.68,46.92L331.48,0L270.50,0L289.35,18.08L316.14,0L406.52,0L407.16,17.84L442.31,30.66L452.59,1.39L449.57,0L396.40,0L377.82,15.21L386.17,58.19L418.11,58.85L415.35,24.83L370.27,14.41L337.26,50.06L352.19,85.07L379.31,72.75L364.34,35.58L315.00,31.87L289.70,69.28L310.99,93.45L332.28,68.57L306.96,30.45L257.62,33.46L242.63,69.91L269.73,81.52L284.64,45.80L251.61,9.44L206.50,19.16L203.70,52.46L235.59,51.09L243.90,7.41L235.04,0L171.84,0L179.26,20.73L214.35,7.21L214.59,0"/>

  </g>
<style >
          path {

            stroke-dasharray: 42163;
            stroke-dashoffset: 42163;
            animation: draw 60s linear forwards;
          }
          
          @keyframes draw {
            from {
              stroke-dashoffset: 42163;
            }
          
            to {
              stroke-dashoffset: 0;
            }
          }

          @-webkit-keyframes draw {
              to {
                  stroke-dashoffset: 0;
              }
          }          
          </style>
</svg>
