<?xml version="1.0" standalone="no"?>
<!DOCTYPE svg PUBLIC "-//W3C//DTD SVG 1.1//EN" "http://www.w3.org/Graphics/SVG/1.1/DTD/svg11.dtd">
<svg width="500" height="500" title="polygons" version="1.1" viewBox="0 0 500 500" xmlns="http://www.w3.org/2000/svg" class="svg-paper">
  <g>
    <!--  Created by Sandify -->
    <!--  https://sandify.org -->
    <!--  Version: 0.2.8 -->

    <!--  Machine type: Rectangular -->
    <!--    Min X (mm): 0 -->
    <!--    Max X (mm): 500 -->
    <!--    Min Y (mm): 0 -->
    <!--    Max Y (mm): 500 -->
    <!--  Content type: shape -->
    <!--  Layer: -->
    <!--    Shape: Fancy Text -->
    <!--    Name: The -->
    <!--    Text: The -->
    <!--    Font: Garamond -->
    <!--    Line spacing: 1 -->
    <!--    Connect rows: inside -->
    <!--    Alignment: left -->
    <!--    Visible: true -->
    <!--    Initial width: 19 -->
    <!--    Initial height: 19 -->
    <!--    X offset: -13 -->
    <!--    Y offset: 126 -->
    <!--    Rotate (degrees): 0 -->
    <!--    Reverse path: false -->
    <!--    Fine tuning: -->
    <!--      Connect to next layer: line -->
    <!--      Draw portion of path (%): 100 -->
    <!--      Backtrack at end (%): 0 -->
    <!--      Rotate starting point (%): 0 -->
    <!--  Layer: -->
    <!--    Shape: Fancy Text -->
    <!--    Name: Bamford -->
    <!--    Text: Bamford -->
    <!--    Font: Garamond -->
    <!--    Line spacing: 1 -->
    <!--    Connect rows: inside -->
    <!--    Alignment: center -->
    <!--    Visible: true -->
    <!--    Initial width: 20 -->
    <!--    Initial height: 20 -->
    <!--    X offset: 0 -->
    <!--    Y offset: 0 -->
    <!--    Rotate (degrees): 0 -->
    <!--    Reverse path: false -->
    <!--    Fine tuning: -->
    <!--      Connect to next layer: line -->
    <!--      Draw portion of path (%): 100 -->
    <!--      Backtrack at end (%): 0 -->
    <!--      Rotate starting point (%): 0 -->
    <!--  Layer: -->
    <!--    Shape: Fancy Text -->
    <!--    Name: Family -->
    <!--    Text: Family -->
    <!--    Font: Garamond -->
    <!--    Line spacing: 1 -->
    <!--    Connect rows: inside -->
    <!--    Alignment: left -->
    <!--    Visible: true -->
    <!--    Initial width: 20 -->
    <!--    Initial height: 20 -->
    <!--    X offset: 0 -->
    <!--    Y offset: -146 -->
    <!--    Rotate (degrees): 0 -->
    <!--    Reverse path: false -->
    <!--    Fine tuning: -->
    <!--      Connect to next layer: line -->
    <!--      Draw portion of path (%): 100 -->
    <!--      Backtrack at end (%): 0 -->
    <!--      Rotate starting point (%): 0 -->
    <!--  Reverse export path: false -->

    <!-- File name: 'text-the-bamford-family' -->
    <!-- File type: svg -->


    <desc>pwidth:500;pheight:500;</desc>
    <path
       stroke="white"
       stroke-width="0.2mm"
       fill="black"
       d="M169.64,90.85L169.64,90.85L170.12,91.13L171.59,93.03L172.12,93.88L173.02,94.74L174.58,95.40L178.37,95.75L178.76,95.78L182.56,95.78L186.37,95.78L190.16,95.78L193.97,95.78L197.76,95.78L201.56,95.78L205.37,95.78L209.16,95.78L212.20,95.78L215.15,95.69L217.53,95.40L219.47,94.93L221.13,94.26L223.03,93.13L223.89,92.56L224.94,92.37L225.13,92.56L225.31,93.13L225.50,94.64L224.94,98.40L224.89,98.78L224.56,99.77L224.18,101.11L224.18,104.14L223.80,106.04L223.32,106.76L222.66,107.00L222.13,106.76L221.70,106.04L220.94,103.19L220.19,101.34L218.66,99.97L217.55,99.47L216.1,99.11L214.32,98.90L212.20,98.82L208.41,98.82L204.60,98.82L202.51,98.82L200.71,98.97L199.47,99.39L198.57,100.39L198.15,102.25L197.98,103.56L197.86,105.24L197.79,107.27L197.76,109.65L197.76,113.46L197.76,117.25L197.76,121.06L197.76,124.86L197.76,128.65L197.76,132.45L197.76,136.25L197.76,140.06L197.76,143.86L197.76,147.08L197.90,148.69L198.29,150.08L198.94,151.25L199.85,152.22L202.13,153.64L205.18,154.50L207.65,155.06L208.22,155.54L208.41,156.20L208.22,156.68L207.65,156.97L206.74,157.25L205.56,157.35L203.28,157.30L199.48,157.04L198.34,156.97L194.54,156.77L194.53,156.77L192.25,156.82L190.35,156.97L186.75,157.15L184.80,157.30L182.38,157.35L180.28,156.97L179.86,156.68L179.72,156.20L179.86,155.54L180.28,155.06L182.75,154.50L185.94,153.64L188.26,152.22L189.10,151.25L189.69,150.08L190.05,148.69L190.16,147.08L190.16,143.28L190.16,139.49L190.16,135.69L190.16,131.88L190.16,128.08L190.16,124.28L190.16,120.49L190.16,116.69L190.16,112.88L190.16,110.23L190.12,106.43L190.12,106.38L189.97,103.57L189.74,101.49L189.41,100.15L188.93,99.54L188.26,99.21L185.42,98.82L181.62,98.82L177.81,98.82L177.06,98.82L174.78,99.06L172.50,99.77L170.55,100.87L169.26,102.63L168.84,103.15L168.31,103.96L166.80,105.48L165.28,106.04L164.70,105.66L164.70,104.90L165.08,103.00L166.22,100.35L166.99,98.06L167.56,95.78L168.13,93.13L168.36,91.75L168.69,91.03L169.64,90.85L170.12,91.13L171.59,93.03L172.12,93.88L173.02,94.74L174.58,95.40L178.37,95.75L178.76,95.78L182.56,95.78L186.37,95.78L190.16,95.78L193.97,95.78L197.76,95.78L201.56,95.78L205.37,95.78L209.16,95.78L212.20,95.78L215.15,95.69L217.53,95.40L219.47,94.93L221.13,94.26L223.03,93.13L223.89,92.56L224.94,92.37L225.13,92.56L225.31,93.13L225.50,94.64L228.74,94.84L228.93,94.07L229.50,93.69L232.72,92.56L236.37,91.46L236.53,91.41L240.03,89.94L240.13,89.89L241.09,89.89L241.28,90.47L241.09,91.99L240.52,95.74L240.51,95.78L240.51,99.59L240.51,103.38L240.51,107.19L240.51,110.99L240.51,114.78L240.51,118.59L240.51,122.19L241.09,123.33L244.27,121.26L244.88,120.87L247.16,119.58L249.82,118.39L252.68,117.68L255.53,117.44L257.79,117.67L259.85,118.35L261.69,119.48L263.31,121.06L264.64,122.99L265.60,125.19L266.17,127.65L266.36,130.37L266.36,134.17L266.36,137.97L266.36,141.76L266.36,145.56L266.36,149.37L266.36,150.31L266.64,151.98L267.50,153.17L268.87,153.97L271.87,155.06L272.29,155.49L272.44,156.01L271.96,156.73L270.54,156.97L267.69,156.97L265.79,156.58L261.99,156.58L260.65,156.58L258.56,156.97L255.72,156.97L254.29,156.73L253.81,156.01L253.96,155.49L254.38,155.06L256.10,154.50L257.38,153.97L258.56,153.17L259.42,151.98L259.70,150.31L259.70,146.51L259.70,142.72L259.70,138.92L259.70,135.12L259.70,131.31L259.70,130.94L259.37,128.61L258.38,126.56L256.86,124.86L254.96,123.52L252.96,122.67L250.78,122.38L248.92,122.53L246.78,122.95L244.6,123.52L242.99,124.48L241.70,125.71L240.90,127.13L240.61,128.75L240.51,131.31L240.51,135.12L240.51,138.92L240.51,142.72L240.51,146.51L240.51,150.31L240.51,150.50L240.8,152.17L241.66,153.36L244.13,154.50L245.07,154.83L245.65,155.06L246.22,156.01L245.74,156.73L244.31,156.97L241.47,156.97L239.56,156.58L235.76,156.58L234.44,156.58L232.34,156.97L229.31,156.97L228.02,156.73L227.59,156.01L228.12,155.16L231.61,153.67L232.34,153.36L233.34,152.17L233.68,150.50L233.68,146.70L233.68,142.90L233.68,139.11L233.68,135.31L233.68,131.50L233.68,127.70L233.68,123.90L233.68,120.11L233.68,116.31L233.68,112.50L233.68,108.71L233.68,104.90L233.68,103.00L233.49,100.63L232.91,98.44L231.73,96.93L229.69,96.16L228.97,95.74L228.74,94.84L228.93,94.07L229.50,93.69L232.72,92.56L236.37,91.46L236.53,91.41L240.03,89.94L240.13,89.89L241.09,89.89L241.28,90.47L241.09,91.99L240.52,95.74L240.51,95.78L240.51,99.59L240.51,103.38L240.51,107.19L240.51,110.99L240.51,114.78L240.51,118.59L240.51,122.19L241.09,123.33L244.27,121.26L244.88,120.87L247.16,119.58L249.82,118.39L252.68,117.68L255.53,117.44L257.79,117.67L259.85,118.35L261.69,119.48L263.31,121.06L264.64,122.99L265.60,125.19L266.17,127.65L280.04,127.51L281.38,125.34L282.93,123.38L284.70,121.64L286.69,120.11L288.82,118.94L291.06,118.11L293.38,117.61L295.81,117.44L299.42,117.82L302.64,118.97L305.21,120.77L307.20,123.14L308.49,126.04L308.92,129.42L308.74,130.75L308.20,131.69L307.31,132.26L306.06,132.45L302.26,132.45L298.47,132.45L294.67,132.45L290.87,132.45L287.06,132.45L285.93,132.45L284.78,132.60L284.02,133.02L283.74,134.12L283.64,135.88L284.06,139.65L284.12,140.25L285.40,143.82L285.55,144.24L287.77,147.31L287.92,147.51L290.76,150.03L290.87,150.13L294.29,151.77L294.43,151.83L298.19,152.39L298.27,152.40L300.98,152.12L303.40,151.26L305.59,149.89L307.58,148.03L308.15,147.47L308.53,147.47L309.11,147.65L309.30,148.23L308.87,150.17L307.58,152.22L306.06,153.97L304.17,155.44L302.12,156.63L299.80,157.53L297.42,157.96L294.86,158.11L292.36,157.95L290.01,157.49L287.80,156.72L285.74,155.63L283.93,154.19L282.31,152.5L280.89,150.58L279.65,148.42L278.74,145.94L278.09,143.28L277.70,140.44L277.56,137.39L277.72,134.78L278.18,132.26L278.95,129.84L280.04,127.51L281.38,125.34L282.93,123.38L284.70,121.64L286.69,120.11L288.82,118.94L291.06,118.11L293.38,117.61L295.81,117.44L299.42,117.82L302.64,118.97L305.21,120.77L307.20,123.14L308.49,126.04L308.92,129.42L308.74,130.75L308.20,131.69L307.31,132.26L306.06,132.45L302.26,132.45L298.47,132.45L294.67,132.45L290.87,132.45L287.06,132.45L285.93,132.45L284.98,128.47L285.26,129.18L286.12,129.42L289.92,129.42L293.72,129.42L294.86,129.42L296.94,129.37L298.65,129.23L301.88,128.85L302.22,128.70L302.45,128.27L302.64,126.94L302.49,125.58L302.03,124.33L301.26,123.20L300.18,122.19L297.51,120.63L294.48,120.11L292.24,120.44L290.11,121.44L288.06,122.91L286.50,124.67L285.36,126.56L284.98,128.47L285.93,132.45L284.78,132.60L284.02,133.02L283.74,134.12L283.64,135.88L284.06,139.65L284.12,140.25L285.40,143.82L285.55,144.24L287.77,147.31L287.92,147.51L290.76,150.03L290.87,150.13L294.29,151.77L294.43,151.83L298.19,152.39L298.27,152.40L300.98,152.12L303.40,151.26L305.59,149.89L307.58,148.03L308.15,147.47L308.53,147.47L309.11,147.65L309.30,148.23L308.87,150.17L307.58,152.22L306.06,153.97L304.17,155.44L302.12,156.63L299.80,157.53L297.42,157.96L294.86,158.11L294.86,158.11L163.9,350.9L105.70,218.5L109.70,218.65L111.21,218.71L115.18,219.25L115.95,219.35L119.81,220.39L119.91,220.41L123.1,221.90L125.64,223.90L127.45,226.5L128.54,229.7L128.9,233.5L128.6,236.7L127.7,239.5L126.65,241.60L125.5,243.10L123.95,244.5L122.5,245.5L120.95,246.4L118.70,247.5L118.30,247.9L118.70,248.5L122.50,249.76L123.5,250.1L125.95,251.45L128.1,253.1L130.1,255.05L131.7,257.7L132.6,260.9L132.90,264.89L132.9,264.9L132.8,267.46L132.5,269.75L132,271.76L131.3,273.5L129.35,276.35L127.1,278.5L123.68,280.58L122.5,281.3L119.20,282.7L115.32,283.69L115.30,283.7L111.36,284.37L110.85,284.45L106.85,284.64L105.5,284.7L103.95,284.65L101.70,284.5L97.70,284.36L96.1,284.3L93.70,284.35L91.70,284.5L87.9,284.7L85.80,284.85L83.1,284.9L81.1,284.5L80.5,284.2L80.30,283.7L80.5,283.14L81.1,282.65L82.1,282.24L83.5,281.9L86.85,281L89.30,279.5L90.18,278.59L90.80,277.45L91.18,276.09L91.30,274.5L91.30,270.5L91.30,266.5L91.30,262.5L91.30,258.5L91.30,254.5L91.30,250.5L91.30,246.5L91.30,242.5L91.30,238.5L91.30,234.5L91.30,230.5L91.30,229.3L90.95,226.2L89.9,224.10L88.97,223.3L87.80,222.7L86.38,222.3L84.70,222.10L83.15,221.8L82.1,221.3L81.5,220.7L81.30,220.10L81.5,219.60L82.1,219.3L84.1,218.90L88.1,218.90L88.5,218.90L91.30,219.10L94.70,219.10L98.69,218.84L102.68,218.58L103.15,218.55L105.70,218.5L103.15,218.55L102.68,218.58L98.69,218.84L94.70,219.10L91.30,219.10L88.5,218.90L88.1,218.90L84.1,218.90L82.1,219.3L81.5,219.60L81.30,220.10L81.5,220.7L82.1,221.3L83.15,221.8L84.70,222.10L86.38,222.3L87.80,222.7L88.97,223.3L89.9,224.10L90.95,226.2L91.30,229.3L91.30,230.5L91.30,234.5L91.30,238.5L91.30,242.5L91.30,246.5L91.30,250.5L104.70,249.9L102.1,250.25L100.30,251.3L99.4,252.55L99.1,253.5L99.1,257.5L99.1,261.5L99.1,265.5L99.1,269.5L99.1,273.5L99.22,275.43L99.6,277L100.22,278.23L101.1,279.1L103.70,280.3L107.1,280.7L111.07,280.18L111.30,280.15L114.97,278.56L115.1,278.5L118.44,276.29L118.65,276.15L121.27,273.13L121.30,273.1L122.35,271.34L123.1,269.45L123.55,267.44L123.7,265.3L123.35,261.8L122.3,258.9L120.95,256.55L119.30,254.7L117.75,253.45L116.30,252.5L114.55,251.7L112.1,250.9L108.85,250.15L104.86,249.91L104.70,249.9L91.30,250.5L91.30,246.5L99.55,245.6L100.11,246.28L100.9,246.7L102.4,247.15L103.70,247.3L106.55,247.1L109.5,246.5L112.70,245.65L115.9,244.3L117.1,243.25L118.70,241.3L119.4,240.06L119.9,238.55L120.20,236.76L120.30,234.7L120,231.85L119.1,228.90L117.55,226L114.9,223.7L113.20,222.74L111.1,222.05L108.6,221.64L105.70,221.5L103.86,221.57L102.35,221.8L101.16,222.18L100.30,222.7L99.4,224.15L99.1,226.10L99.1,230.10L99.1,234.10L99.1,238.10L99.1,242.10L99.1,243.5L99.21,244.68L99.55,245.6L91.30,246.5L91.30,250.5L91.30,254.5L91.30,258.5L91.30,262.5L91.30,266.5L91.30,270.5L91.30,274.5L91.18,276.09L90.80,277.45L90.18,278.59L89.30,279.5L86.85,281L83.5,281.9L82.1,282.24L81.1,282.65L80.5,283.14L80.30,283.7L80.5,284.2L81.1,284.5L83.1,284.9L85.80,284.85L87.9,284.7L91.70,284.5L93.70,284.35L96.1,284.3L97.70,284.36L101.70,284.5L103.95,284.65L105.5,284.7L106.85,284.64L110.85,284.45L111.36,284.37L115.30,283.7L115.32,283.69L119.20,282.7L122.5,281.3L123.68,280.58L127.1,278.5L129.35,276.35L131.3,273.5L132,271.76L132.5,269.75L132.8,267.46L132.9,264.9L132.90,264.89L132.6,260.9L131.7,257.7L141.35,255.25L142.1,253.5L143.3,251.6L144.9,249.9L148.15,247.56L149.9,246.3L152.65,244.9L155.3,243.90L157.75,243.15L159.9,242.90L161.63,243.06L163.2,243.55L164.63,244.36L165.9,245.5L166.94,246.86L167.65,248.35L168.04,249.96L168.1,251.7L168.00,255.70L167.90,259.70L167.80,263.70L167.70,267.69L167.60,271.69L167.50,275.69L167.5,275.9L167.75,277.7L168.5,279.1L169.75,280.15L171.1,280.5L173.35,280.25L174.9,279.5L175.4,279.05L175.7,278.9L176.5,279.1L176.7,280.1L176.45,281.15L175.7,282.3L172.43,284.61L172.3,284.7L170.55,285.45L168.9,285.7L166.64,285.38L164.65,284.4L162.94,282.77L161.5,280.5L161.1,280.5L157.95,282.8L154.9,284.5L151.85,285.4L148.7,285.7L146.9,285.35L145.1,284.3L143.4,282.75L141.9,280.9L141,278.95L140.7,277.1L141.15,274.25L142.5,272.1L144.65,270.35L147.9,268.7L151.62,267.24L155.35,265.78L158.1,264.7L159.55,263.95L160.3,263.3L160.65,262.3L160.9,260.5L160.9,256.5L160.9,254.1L160.65,251.7L159.5,249.7L157.7,248.35L155.1,247.9L152.1,248.3L149.5,249.5L148.7,250.7L148.7,254.3L148.4,254.85L147.5,255.7L144.7,257.1L143.25,257.7L142.1,257.9L141.3,257.5L141.1,256.9L141.35,255.25L141.1,256.9L141.3,257.5L142.1,257.9L143.25,257.7L144.7,257.1L147.5,255.7L148.4,254.85L148.7,254.3L148.7,250.7L149.5,249.5L152.1,248.3L155.1,247.9L157.7,248.35L159.5,249.7L160.65,251.7L160.9,254.1L160.9,256.5L160.9,260.5L160.65,262.3L160.3,263.3L159.55,263.95L158.1,264.7L155.35,265.78L151.62,267.24L151.71,270.9L150.5,271.9L149,273.85L148.5,275.7L148.9,277.95L150.1,279.5L151.7,280.55L153.3,280.9L155.15,280.75L156.7,280.3L158.15,279.45L159.3,278.5L160.1,277.1L160.45,276.05L160.7,274.5L160.86,270.50L160.9,269.5L160.85,268.5L160.7,267.9L159.9,267.5L159.1,267.5L157.9,267.9L155.41,268.9L153.35,269.9L151.71,270.9L151.62,267.24L147.9,268.7L144.65,270.35L142.5,272.1L141.15,274.25L140.7,277.1L141,278.95L141.9,280.9L143.4,282.75L145.1,284.3L146.9,285.35L148.7,285.7L151.85,285.4L154.9,284.5L157.95,282.8L161.1,280.5L161.5,280.5L162.94,282.77L164.65,284.4L166.64,285.38L168.9,285.7L170.55,285.45L172.3,284.7L172.43,284.61L175.7,282.3L176.45,281.15L179.45,282.95L179.9,282.5L181.7,281.9L184.5,280.7L185.55,279.75L185.9,278.1L185.9,274.1L185.9,270.1L185.9,266.1L185.9,262.1L185.9,258.1L185.9,256.5L185.75,254.05L185.3,251.9L184.88,250.91L184.2,250.15L183.28,249.61L182.1,249.3L181.5,248.9L181.1,248.1L181.3,247.3L181.9,246.9L184.4,246.15L186.3,245.5L189.1,243.7L192.1,241.7L192.5,241.5L193.1,241.3L193.55,241.45L193.7,241.90L193.65,243.05L193.35,246.9L193.3,249.5L193.5,249.5L196.25,247.4L199.58,245.18L199.7,245.1L201.64,244.14L203.85,243.45L206.34,243.04L209.1,242.90L212.4,243.3L215.1,244.5L216.25,245.35L217.3,246.5L218.25,247.95L219.1,249.7L219.5,249.7L222.68,247.27L222.9,247.1L226.36,245.10L226.7,244.9L230.49,243.61L231.1,243.40L235.08,242.99L235.9,242.90L238.85,243.40L241.3,244.9L243.25,247.2L244.7,250.1L245.6,253.35L245.9,256.7L245.9,260.7L245.9,264.7L245.9,268.7L245.9,272.7L245.9,276.7L245.9,278.1L246.25,279.75L247.3,280.7L250.1,281.9L251.7,282.5L252.3,282.95L252.5,283.5L252.35,284L251.9,284.3L251.35,284.45L250.5,284.5L247.3,284.5L245.3,284.1L241.3,284.1L239.7,284.1L237.5,284.5L234.1,284.5L232.7,284.3L232.3,283.5L232.45,282.8L232.9,282.3L234.5,281.9L237.5,280.7L238.55,279.75L238.9,278.1L238.9,274.1L238.9,270.1L238.9,266.1L238.9,262.1L238.9,258.1L238.9,257.1L238.6,254.75L237.7,252.5L236.35,250.5L234.7,248.9L232.85,248L230.9,247.7L228.4,247.85L226.1,248.3L224.1,249L222.1,250.3L220.88,251.57L220,253.2L219.47,255.18L219.3,257.5L219.3,261.5L219.3,265.5L219.3,269.5L219.3,273.5L219.3,277.5L219.3,278.1L219.7,279.75L220.9,280.7L223.9,281.9L225.5,282.5L225.95,282.95L226.1,283.5L225.7,284.3L224.1,284.5L220.9,284.5L218.7,284.1L214.7,284.1L213.1,284.1L210.9,284.5L207.5,284.5L206.1,284.3L205.7,283.5L205.85,282.85L206.3,282.5L207.9,281.9L210.9,280.7L211.95,279.75L212.3,278.1L212.3,274.1L212.3,270.1L212.3,266.1L212.3,262.1L212.3,258.1L212.3,257.1L212,254.75L211.1,252.5L209.9,250.5L208.3,248.9L206.4,248L204.3,247.7L201.85,247.85L199.7,248.3L197.6,249L195.7,250.3L194.47,251.5L193.6,253.1L193.07,255.1L192.9,257.5L192.9,261.5L192.9,265.5L192.9,269.5L192.9,273.5L192.9,277.5L192.9,278.1L193.25,279.75L194.3,280.7L197.3,281.9L198.7,282.5L199.3,282.85L199.5,283.5L199.35,284L198.9,284.3L197.5,284.5L194.3,284.5L192.1,284.1L188.1,284.1L186.7,284.1L184.5,284.5L181.3,284.5L179.9,284.5L179.45,284.05L179.3,283.5L179.45,282.95L179.9,282.5L181.7,281.9L184.5,280.7L185.55,279.75L185.9,278.1L185.9,274.1L185.9,270.1L185.9,266.1L185.9,262.1L185.9,258.1L185.9,256.5L185.75,254.05L185.3,251.9L184.88,250.91L184.2,250.15L183.28,249.61L182.1,249.3L181.5,248.9L181.1,248.1L181.3,247.3L181.9,246.9L184.4,246.15L186.3,245.5L189.1,243.7L192.1,241.7L192.5,241.5L193.1,241.3L193.55,241.45L193.7,241.90L193.65,243.05L193.35,246.9L193.3,249.5L193.5,249.5L196.25,247.4L199.58,245.18L199.7,245.1L201.64,244.14L203.85,243.45L206.34,243.04L209.1,242.90L212.4,243.3L215.1,244.5L216.25,245.35L217.3,246.5L218.25,247.95L219.1,249.7L219.5,249.7L222.68,247.27L222.9,247.1L226.36,245.10L226.7,244.9L230.49,243.61L231.1,243.40L235.08,242.99L235.9,242.90L238.85,243.40L241.3,244.9L243.25,247.2L244.7,250.1L245.6,253.35L245.9,256.7L245.9,260.7L245.9,264.7L245.9,268.7L245.9,272.7L245.9,276.7L245.9,278.1L246.25,279.75L247.3,280.7L250.1,281.9L251.7,282.5L252.3,282.95L252.5,283.5L257.1,283.5L257.25,282.8L257.7,282.3L261.35,281.35L262.7,280.5L263.45,279.25L263.7,277.5L263.7,273.5L263.7,269.5L263.7,265.5L263.7,261.5L263.7,257.5L263.7,253.5L263.7,249.5L263.7,249.3L261.5,249.3L258.5,249.1L257.7,248.5L257.1,247.3L257.7,246.7L261.28,244.91L263.7,243.7L263.83,239.70L263.84,239.57L264.25,235.8L264.94,232.38L265.9,229.3L267,226.55L268.3,224.10L269.8,221.95L271.5,220.10L274.52,217.47L275,217.05L278.54,215.19L278.7,215.10L282.35,214.05L285.7,213.7L288.32,213.8L290.6,214.10L292.52,214.60L294.1,215.3L295.24,216.25L296.05,217.3L296.54,218.45L296.7,219.7L296.45,221.45L295.7,222.7L294.6,223.45L293.3,223.7L291.7,223.10L289.9,221.3L288.5,220.10L286.7,218.90L284.5,218L281.5,217.7L279.29,217.96L277.25,218.75L275.39,220.06L273.7,221.90L272.39,224.19L271.45,227.05L270.89,230.49L270.70,234.48L270.7,234.5L270.7,238.5L270.7,242.5L270.7,243.3L271.1,244.1L271.9,244.3L275.9,244.3L279.9,244.3L283.9,244.3L284.3,244.3L285.3,244.5L285.7,245.3L285.5,246.9L285.1,248.3L284.65,248.9L284.1,249.1L280.1,249.1L276.1,249.1L272.5,249.1L271.65,249.2L271.1,249.5L270.7,250.3L270.7,254.3L270.7,258.3L270.7,262.3L270.7,266.3L270.7,270.3L270.7,274.3L270.7,277.5L271.05,279.25L272.1,280.5L272.88,280.96L274,281.35L275.48,281.66L277.3,281.9L278.35,282.15L279.1,282.5L279.55,282.95L279.7,283.5L279.55,284L279.1,284.3L278.5,284.45L277.5,284.5L274.7,284.45L272.3,284.3L268.30,284.13L267.5,284.1L264.5,284.1L262.3,284.5L259.1,284.5L257.5,284.3L257.1,283.5L257.5,284.3L259.1,284.5L262.3,284.5L264.5,284.1L267.5,284.1L268.30,284.13L272.3,284.3L274.7,284.45L277.5,284.5L278.5,284.45L279.1,284.3L279.55,284L279.7,283.5L279.55,282.95L291.56,273.52L290.75,271L290.26,268.32L290.1,265.5L290.49,261.52L290.5,261.4L291.68,257.58L291.7,257.5L293.51,253.93L293.65,253.65L296.04,250.44L296.3,250.1L299.24,247.39L299.55,247.1L303,245.08L303.3,244.9L307.06,243.54L307.45,243.40L311.43,242.95L311.9,242.90L314.73,243.07L317.4,243.60L319.93,244.47L322.3,245.7L324.56,247.21L326.55,248.95L328.26,250.91L329.7,253.1L330.93,255.45L331.8,257.9L332.32,260.45L332.5,263.1L332.34,265.88L331.85,268.6L331.04,271.27L329.9,273.9L328.54,276.39L326.85,278.65L324.84,280.69L322.5,282.5L319.84,283.9L316.85,284.9L313.54,285.5L309.9,285.7L307.16,285.54L304.55,285.05L302.06,284.24L299.7,283.1L297.61,281.68L295.75,280L294.11,278.07L292.7,275.9L291.56,273.52L292.7,275.9L299.87,271.89L300.1,272.7L301.96,276.24L302.2,276.7L304.78,279.76L304.9,279.9L306.48,281.13L308.2,282L310.07,282.52L312.1,282.7L315.3,282.4L318.1,281.5L320.55,279.75L322.3,277.3L323.3,274.65L323.9,271.5L324.16,267.51L324.3,265.3L323.92,261.32L323.85,260.6L322.70,256.77L322.5,256.1L320.71,252.52L320.5,252.1L317.87,249.09L317.7,248.9L316.04,247.59L314.25,246.65L312.34,246.09L310.3,245.9L307.65,246.15L305.3,246.9L303.3,248.05L301.3,249.9L299.7,252.75L298.9,256.1L298.57,260.09L298.3,263.3L298.68,267.28L298.75,268.05L299.87,271.89L292.7,275.9L294.11,278.07L295.75,280L297.61,281.68L299.7,283.1L302.06,284.24L304.55,285.05L307.16,285.54L309.9,285.7L313.54,285.5L316.85,284.9L319.84,283.9L322.5,282.5L324.84,280.69L326.85,278.65L328.54,276.39L338.9,283.5L339.05,282.85L339.5,282.5L341.1,281.9L342.85,281.35L344.1,280.5L344.7,279.4L344.9,278.1L344.9,274.1L344.9,270.1L344.9,266.1L344.9,262.1L344.9,258.1L344.9,256.5L344.7,254.05L344.1,251.9L342.9,250.25L340.9,249.3L340.3,248.9L339.9,248.1L340.15,247.3L340.9,246.9L343.45,245.9L346.3,244.5L348.8,243.15L350.7,241.90L351.7,241.5L352.3,241.3L352.6,241.45L352.7,241.90L352.7,243.5L352.5,246.3L352.5,249.7L355.33,246.87L356.1,246.1L359.61,244.17L360.1,243.90L362.2,243.15L364.1,242.90L365.95,243.15L367.5,243.90L368.55,244.85L368.9,246.1L368.75,247.15L368.3,248.3L366.9,250.3L365.9,251.05L364.9,251.3L363.7,251.1L362.3,250.3L360.7,249.7L359.1,249.5L356.6,249.9L354.3,251.1L353.34,252.2L352.65,253.7L352.24,255.6L352.1,257.9L352.1,261.9L352.1,265.9L352.1,269.9L352.1,273.9L352.1,277.9L352.1,278.1L352.45,279.35L353.5,280.3L355.2,281.1L357.5,281.9L359.1,282.5L359.55,282.95L359.7,283.5L359.2,284.25L357.7,284.5L355.05,284.45L351.3,284.15L349.1,284.1L346.3,284.1L344.1,284.5L340.9,284.5L339.3,284.3L338.9,283.5L339.3,284.3L340.9,284.5L344.1,284.5L346.3,284.1L349.1,284.1L351.3,284.15L355.05,284.45L357.7,284.5L359.2,284.25L359.7,283.5L359.55,282.95L373.77,271.13L373.45,270.2L373.00,266.23L372.9,265.3L373.07,262.44L373.6,259.65L374.48,256.94L375.7,254.3L377.15,251.91L378.9,249.75L380.95,247.81L383.3,246.1L385.94,244.7L388.85,243.7L392.04,243.10L395.5,242.90L399.48,243.30L399.5,243.3L401.25,243.55L402.5,243.90L403.35,244.2L403.9,244.3L404.25,244.15L404.5,243.7L404.7,241.90L404.7,237.90L404.7,233.90L404.7,229.90L404.7,227.7L404.61,225.79L404.35,224.25L403.91,223.09L403.3,222.3L401.7,221L399.7,220.3L398.95,219.90L398.7,219.10L398.9,218.3L399.5,217.90L403.34,216.78L403.45,216.75L406.5,215.7L408.65,214.85L410.3,214.3L411.1,213.90L411.5,213.90L412.1,214.05L412.3,214.5L412.25,215.3L412.1,216.5L411.95,218.35L411.9,220.7L411.6,223.95L411.50,227.95L411.5,228.10L411.5,232.10L411.5,236.10L411.5,240.10L411.5,244.1L411.5,248.1L411.5,252.1L411.5,256.1L411.5,260.1L411.5,264.1L411.5,268.1L411.5,272.1L411.5,273.3L411.65,276.25L412.1,278.3L412.7,279.35L413.7,279.7L415.5,279.7L417.9,279.5L419.25,279.7L419.7,280.3L419.3,281.7L418.85,282.15L418.3,282.3L415.55,282.65L412.9,283.3L409.95,284.3L406.28,285.90L406.05,286L405.1,286.3L404.85,286.15L404.5,285.7L404.1,285.1L404.15,283.9L404.3,282.3L404.5,279.1L404.5,278.5L402.5,280.9L399.7,283.3L397.9,284.35L395.9,285.1L393.7,285.55L391.3,285.7L388.59,285.51L386.05,284.95L383.69,284.01L381.5,282.7L378.61,279.93L377.9,279.25L375.74,275.89L375.1,274.9L373.77,271.13L380.91,270.26L381.7,272.1L383.55,275.2L385.9,277.3L388.35,278.85L390.9,279.9L393.1,280.35L394.9,280.5L397.5,280.15L400.1,279.1L402.4,277.55L404.5,275.7L404.54,271.7L404.59,267.7L404.63,263.70L404.68,259.70L404.7,257.7L404.3,254.95L403.1,252.3L401.2,249.95L398.7,248.1L395.7,246.75L392.3,246.3L389.8,246.7L387.1,247.9L385.66,248.65L384.35,249.7L383.16,251.05L382.1,252.7L381.14,254.7L380.45,257.1L380.04,259.9L379.9,263.1L380.01,265.76L380.35,268.15L380.91,270.26L373.77,271.13L375.1,274.9L375.74,275.89L377.9,279.25L378.61,279.93L381.5,282.7L383.69,284.01L386.05,284.95L388.59,285.51L391.3,285.7L393.7,285.55L395.9,285.1L397.9,284.35L399.7,283.3L402.5,280.9L404.5,278.5L404.5,279.1L404.3,282.3L404.15,283.9L404.1,285.1L404.5,285.7L404.85,286.15L405.1,286.3L405.1,286.3L163.9,350.9L163.9,350.9L165.1,351.1L165.55,351.4L165.7,351.9L165.9,353.2L166.1,355.1L166.1,359.1L166.25,360.8L166.3,361.9L166.05,363.4L165.3,363.9L164.3,363.7L162.75,360.01L162.2,358.7L161.5,357.9L160.05,356.55L158.5,355.7L154.7,355.3L150.7,355.3L146.7,355.3L142.7,355.3L142.1,355.3L140.2,355.65L139.3,356.7L138.85,358.3L138.56,362.29L138.55,362.35L138.5,364.9L138.5,368.9L138.5,372.9L138.5,375.3L138.55,377.7L138.7,379.7L138.9,381.1L139.1,381.7L139.7,381.9L143.70,381.78L146.3,381.7L149.15,381.55L151.3,381.5L153.35,381.25L155.1,380.5L156.5,379.05L157.5,377.5L158.1,376.5L158.8,375.9L159.3,375.7L160.1,376.3L160.5,376.75L160.5,377.3L160.3,380.5L160.3,384.5L160.3,385.9L160.45,387.65L160.5,389.7L160.3,390.9L160.15,391.2L159.7,391.3L158.7,391.1L158.1,390.5L157.3,389.1L156.5,387.1L155.3,385.9L153.85,385.3L152.7,385.1L148.7,385.1L144.7,385.1L144.3,385.1L141.1,385.3L139.3,385.9L138.85,386.55L138.7,387.7L138.7,391.7L138.7,395.7L138.7,397.1L138.78,401.10L138.87,405.10L138.9,406.7L139.4,409.6L140.5,411.9L141.35,412.81L142.5,413.55L143.95,414.11L145.7,414.5L148.1,415.1L148.7,415.6L148.9,416.3L148.7,416.8L148.1,417.1L146.1,417.5L143.65,417.4L141.9,417.1L137.91,416.81L136.3,416.7L132.31,416.9L128.31,417.1L128.3,417.1L126.1,417.4L123.5,417.5L121.5,417.1L120.9,416.8L120.70,416.3L120.91,415.74L121.55,415.25L122.61,414.84L125.85,414.13L127.3,413.6L128.45,412.93L129.3,412.1L130.35,410L130.7,406.9L130.7,402.9L130.7,398.9L130.7,394.9L130.7,390.9L130.7,386.9L130.7,382.9L130.7,378.9L130.7,374.9L130.7,370.9L130.7,366.9L130.7,364.7L130.4,360.75L129.5,357.7L128.82,356.61L127.8,355.75L126.42,355.11L123.15,354.3L122.1,353.9L121.5,353.3L121.30,352.7L121.5,352.2L122.1,351.9L123.05,351.6L124.3,351.5L127.65,351.55L130.5,351.7L134.50,351.86L135.5,351.9L139.5,351.9L143.5,351.9L147.5,351.9L151.5,351.9L153.9,351.9L157.05,351.8L159.7,351.5L161.95,351.05L163.9,350.9L165.1,351.1L165.55,351.4L165.7,351.9L165.9,353.2L166.1,355.1L166.1,359.1L166.25,360.8L166.3,361.9L166.05,363.4L165.3,363.9L164.3,363.7L162.75,360.01L162.2,358.7L161.5,357.9L160.05,356.55L158.5,355.7L154.7,355.3L150.7,355.3L146.7,355.3L142.7,355.3L142.1,355.3L140.2,355.65L139.3,356.7L138.85,358.3L138.56,362.29L138.55,362.35L138.5,364.9L138.5,368.9L138.5,372.9L138.5,375.3L138.55,377.7L138.7,379.7L138.9,381.1L139.1,381.7L139.7,381.9L143.70,381.78L146.3,381.7L149.15,381.55L151.3,381.5L153.35,381.25L155.1,380.5L156.5,379.05L157.5,377.5L158.1,376.5L158.8,375.9L159.3,375.7L160.1,376.3L160.5,376.75L160.5,377.3L181.9,378.9L184.65,377.5L187.3,376.5L189.65,375.75L191.9,375.5L193.54,375.66L195.05,376.15L196.44,376.96L197.7,378.1L198.75,379.46L199.5,380.95L199.95,382.56L200.1,384.3L200.00,388.30L199.90,392.30L199.80,396.30L199.70,400.29L199.60,404.29L199.50,408.29L199.5,408.5L199.65,410.3L200.5,411.7L201.65,412.75L203.1,413.1L205.25,412.85L206.9,412.1L207.7,411.5L208.5,411.7L208.7,412.7L208.45,413.75L207.7,414.9L204.37,417.12L204.1,417.3L202.35,418.05L200.7,418.3L198.53,417.98L196.6,417L194.93,415.38L193.5,413.1L193.1,413.1L189.85,415.4L186.9,417.1L183.85,418L180.7,418.3L178.85,417.95L176.9,416.9L175.25,415.35L173.9,413.5L173,411.55L172.7,409.7L173.1,406.85L174.3,404.7L176.55,402.95L179.7,401.3L183.42,399.84L187.15,398.38L189.9,397.3L191.5,396.55L192.3,395.9L192.6,394.9L192.7,393.1L192.82,389.10L192.9,386.7L192.65,384.3L191.5,382.3L189.55,380.95L186.9,380.5L183.9,380.9L181.5,382.1L180.7,383.3L180.5,385.1L180.5,386.1L180.7,386.9L180.35,387.45L179.3,388.3L176.5,389.7L175.15,390.3L173.9,390.5L173.1,390.1L172.9,389.5L173.15,387.85L173.9,386.1L175.25,384.2L176.9,382.5L180.15,380.16L181.9,378.9L180.15,380.16L176.9,382.5L175.25,384.2L173.9,386.1L173.15,387.85L172.9,389.5L173.1,390.1L173.9,390.5L175.15,390.3L176.5,389.7L179.3,388.3L180.35,387.45L180.7,386.9L180.5,386.1L180.5,385.1L180.7,383.3L181.5,382.1L183.9,380.9L186.9,380.5L189.55,380.95L191.5,382.3L192.65,384.3L192.9,386.7L192.82,389.10L192.7,393.1L192.6,394.9L192.3,395.9L191.5,396.55L189.9,397.3L189.7,400.5L187.3,401.5L185.3,402.5L183.7,403.5L182.5,404.5L181,406.45L180.5,408.3L180.85,410.55L181.9,412.1L183.55,413.15L185.3,413.5L187.15,413.35L188.7,412.9L191.1,411.1L192.1,409.7L192.4,408.65L192.5,407.1L192.66,403.10L192.7,402.1L192.7,400.5L191.9,400.1L191.1,400.1L189.7,400.5L189.9,397.3L187.15,398.38L183.42,399.84L179.7,401.3L176.55,402.95L174.3,404.7L173.1,406.85L172.7,409.7L173,411.55L173.9,413.5L175.25,415.35L176.9,416.9L178.85,417.95L180.7,418.3L183.85,418L186.9,417.1L189.85,415.4L193.1,413.1L193.5,413.1L194.93,415.38L196.6,417L198.53,417.98L200.7,418.3L202.35,418.05L204.1,417.3L204.37,417.12L207.7,414.9L208.45,413.75L208.7,412.7L208.5,411.7L217.7,398.7L217.7,394.7L217.7,390.7L217.7,389.1L217.55,386.65L217.1,384.5L216.68,383.51L216,382.75L215.07,382.21L213.9,381.9L213.3,381.5L213.1,380.7L213.3,379.9L213.9,379.5L216.25,378.75L218.1,378.1L221.1,376.3L224.1,374.3L224.5,374.1L225.1,373.9L225.4,374.05L225.5,374.5L225.45,375.65L225.15,379.5L225.1,381.1L225.15,381.75L225.3,382.1L225.5,382.1L228.1,380L231.41,377.76L231.5,377.7L233.53,376.74L235.8,376.05L238.32,375.64L241.1,375.5L244.4,375.9L247.1,377.1L248.25,377.95L249.3,379.1L250.25,380.55L251.1,382.3L251.3,382.3L254.49,379.89L254.75,379.7L258.25,377.75L258.7,377.5L262.47,376.17L262.95,376L266.93,375.58L267.7,375.5L270.7,376L273.3,377.5L275.1,379.8L276.5,382.7L277.4,385.95L277.7,389.3L277.7,393.3L277.7,397.3L277.7,401.3L277.7,405.3L277.7,409.3L277.7,410.7L278.05,412.35L279.1,413.3L281.9,414.5L283.7,415.1L284.15,415.55L284.3,416.1L283.9,416.9L283.3,417.05L282.3,417.1L279.1,417.1L277.1,416.7L273.1,416.7L271.7,416.7L269.3,417.1L266.1,417.1L264.7,416.9L264.25,416.6L264.1,416.1L264.25,415.4L264.7,414.9L266.3,414.5L269.3,413.3L270.35,412.35L270.7,410.7L270.7,406.7L270.7,402.7L270.7,398.7L270.7,394.7L270.7,390.7L270.7,389.7L270.4,387.35L269.5,385.1L268.3,383.1L266.7,381.5L264.8,380.6L262.7,380.3L260.35,380.45L258.1,380.9L255.95,381.6L253.9,382.9L252.68,384.18L251.8,385.8L251.28,387.77L251.1,390.1L251.1,394.1L251.1,398.1L251.1,402.1L251.1,406.1L251.1,410.1L251.1,410.7L251.5,412.35L252.7,413.3L255.7,414.5L257.3,415.1L257.75,415.55L257.9,416.1L257.5,416.9L255.9,417.1L252.9,417.1L250.7,416.7L246.7,416.7L245.1,416.7L242.7,417.1L239.5,417.1L238.1,416.9L237.65,416.6L237.5,416.1L237.7,415.45L238.3,415.1L239.7,414.5L242.7,413.3L243.75,412.35L244.1,410.7L244.1,406.7L244.1,402.7L244.1,398.7L244.1,394.7L244.1,390.7L244.1,389.7L243.85,387.35L243.1,385.1L241.8,383.1L240.3,381.5L238.35,380.6L236.1,380.3L233.75,380.45L231.5,380.9L229.4,381.6L227.5,382.9L226.28,384.1L225.4,385.7L224.88,387.7L224.7,390.1L224.7,394.1L224.7,398.1L224.7,402.1L224.7,406.1L224.7,410.1L224.7,410.7L225.05,412.35L226.1,413.3L229.1,414.5L230.7,415.1L231.15,415.45L231.3,416.1L230.9,416.9L229.3,417.1L226.3,417.1L224.1,416.7L220.1,416.7L218.5,416.7L216.3,417.1L213.1,417.1L211.9,417.1L211.3,416.65L211.1,416.1L211.3,415.55L211.9,415.1L213.5,414.5L216.3,413.3L217.35,412.35L217.7,410.7L217.7,406.7L217.7,402.7L217.7,398.7L217.7,394.7L217.7,390.7L217.7,389.1L217.55,386.65L217.1,384.5L216.68,383.51L216,382.75L215.07,382.21L213.9,381.9L213.3,381.5L213.1,380.7L213.3,379.9L213.9,379.5L216.25,378.75L218.1,378.1L221.1,376.3L224.1,374.3L224.5,374.1L225.1,373.9L225.4,374.05L225.5,374.5L225.45,375.65L225.15,379.5L225.1,381.1L225.15,381.75L225.3,382.1L225.5,382.1L228.1,380L231.41,377.76L231.5,377.7L233.53,376.74L235.8,376.05L238.32,375.64L241.1,375.5L244.4,375.9L247.1,377.1L248.25,377.95L249.3,379.1L250.25,380.55L251.1,382.3L251.3,382.3L254.49,379.89L254.75,379.7L258.25,377.75L258.7,377.5L262.47,376.17L262.95,376L266.93,375.58L267.7,375.5L270.7,376L273.3,377.5L275.1,379.8L276.5,382.7L277.4,385.95L277.7,389.3L277.7,393.3L277.7,397.3L277.7,401.3L277.7,405.3L277.7,409.3L277.7,410.7L278.05,412.35L279.1,413.3L281.9,414.5L283.7,415.1L284.15,415.55L284.3,416.1L288.9,416.1L289.1,415.4L289.7,414.9L293.2,414L294.5,413.3L295.25,412.25L295.5,410.7L295.5,406.7L295.5,402.7L295.5,398.7L295.5,394.7L295.5,390.7L295.5,388.9L295.3,386.4L294.7,384.1L293.3,382.5L291.1,381.7L290.3,381.3L290.1,380.5L290.35,379.55L291.1,379.1L294.75,378.1L297.7,376.7L299.95,375.35L301.5,374.1L302.25,373.65L302.9,373.5L303.35,373.6L303.5,373.9L303.45,375.2L303.14,379.19L302.9,382.3L302.75,385.1L302.7,387.5L302.7,391.5L302.7,395.5L302.7,399.5L302.7,403.5L302.7,407.5L302.7,410.7L302.95,412.15L303.7,413.3L305.1,414L306.9,414.5L308.5,414.9L309.1,415.4L309.3,416.1L308.75,416.85L307.1,417.1L304.1,417.1L301.9,416.7L297.9,416.7L296.3,416.7L294.1,417.1L291.1,417.1L289.5,416.9L289.05,416.6L288.9,416.1L289.1,415.4L289.7,414.9L293.2,414L294.5,413.3L295.25,412.25L295.5,410.7L295.5,406.7L295.5,402.7L295.5,398.7L295.5,394.7L295.5,390.7L295.5,388.9L295.3,386.4L294.7,384.1L293.3,382.5L291.1,381.7L290.3,381.3L290.1,380.5L290.35,379.55L291.1,379.1L294.75,378.1L297.7,376.7L299.95,375.35L301.5,374.1L302.25,373.65L298.9,365.3L297.05,364.95L295.5,363.9L294.3,362.2L293.9,360.3L294.3,358.3L295.5,356.7L297.05,355.65L298.9,355.3L301.05,355.65L302.7,356.7L303.75,358.3L304.1,360.3L303.75,362.2L302.7,363.9L301.05,364.95L298.9,365.3L302.25,373.65L302.9,373.5L303.35,373.6L303.5,373.9L319.7,374.7L319.7,370.7L319.7,366.7L319.7,362.7L319.7,360.3L319.4,357.6L318.5,355.5L317.15,353.85L315.1,352.9L314.35,352.5L314.1,351.7L314.3,350.9L314.9,350.5L318.77,349.49L319.5,349.3L323.20,347.78L326.3,346.5L326.9,346.5L327.1,346.7L327.3,347.1L327.2,348.45L326.9,350.9L326.81,352.64L326.73,356.64L326.71,357.54L326.71,361.54L326.71,365.54L326.71,369.54L326.71,373.54L326.71,377.54L326.71,381.54L326.71,385.54L326.70,389.54L326.70,393.54L326.70,397.54L326.70,401.54L326.70,405.54L326.7,409.54L326.7,410.7L327.05,412.35L328.1,413.3L330.9,414.5L332.5,415.1L333.1,415.6L333.3,416.3L333.1,416.8L332.5,417.1L328.5,417.1L328.1,417.1L325.9,416.7L321.9,416.7L320.3,416.7L318.1,417.1L315.1,417.1L313.7,417.1L313.25,416.8L313.1,416.3L313.25,415.6L313.7,415.1L315.3,414.5L318.3,413.3L319.35,412.35L319.7,410.7L319.7,406.7L319.7,402.7L319.7,398.7L319.7,394.7L319.7,390.7L319.7,386.7L319.7,382.7L319.7,378.7L319.7,374.7L319.7,370.7L319.7,366.7L319.7,362.7L319.7,360.3L319.4,357.6L318.5,355.5L317.15,353.85L315.1,352.9L314.35,352.5L314.1,351.7L314.3,350.9L314.9,350.5L318.77,349.49L319.5,349.3L323.20,347.78L326.3,346.5L326.9,346.5L327.1,346.7L327.3,347.1L327.2,348.45L326.9,350.9L326.81,352.64L326.73,356.64L326.71,357.54L326.71,361.54L326.71,365.54L326.71,369.54L326.71,373.54L326.71,377.54L335.5,377.3L335.7,376.8L336.3,376.5L340.3,376.5L340.5,376.5L342.3,376.7L343.35,376.85L344.9,376.9L346.45,376.85L347.5,376.7L349.5,376.5L352.5,376.5L353.7,376.7L354.3,377L354.5,377.5L354.25,378.15L353.5,378.9L351.5,379.7L350.1,380.7L349.65,381.65L349.5,382.9L349.9,384.3L350.2,385.15L350.3,385.7L351.82,389.40L353.33,393.10L354.85,396.80L356.37,400.50L357.89,404.21L358.5,405.7L359.1,406.3L359.5,405.7L360.92,401.96L362.35,398.22L363.77,394.48L365.19,390.75L366.5,387.3L367.1,385.5L367.3,383.7L367.15,382.05L366.7,381.1L365.3,379.9L363.5,378.9L362.6,378.15L362.3,377.5L362.5,377L363.1,376.7L364.3,376.5L367.3,376.7L369.05,376.85L371.5,376.9L373.2,376.85L375.7,376.5L378.7,376.5L379.15,376.8L379.3,377.3L379.15,377.85L378.7,378.3L375.5,379.9L373.9,381.5L372.3,383.5L371.1,385.9L369.55,389.59L368.00,393.28L366.46,396.97L364.91,400.65L363.36,404.34L361.81,408.03L360.26,411.72L358.72,415.41L357.5,418.3L357.25,419.05L356.5,420.9L355.4,423.4L353.85,427.09L352.31,430.78L350.76,434.47L349.22,438.16L347.9,441.3L346.85,443.05L345.3,444.3L343.55,445.2L341.5,445.5L339.6,445.25L337.9,444.5L336.7,443.2L336.3,441.3L336.55,439.6L337.3,438.1L338.3,437.05L339.7,436.7L341.9,437.1L343.7,437.3L344.7,437.1L345.5,436.3L346.75,434.25L348.1,431.7L349.55,428.9L351.1,425.7L352.64,422.01L354.1,418.5L354.25,417.5L354.3,416.1L354.3,414.7L353.9,413.3L352.43,409.58L350.96,405.86L349.50,402.14L348.03,398.42L346.56,394.70L345.09,390.98L343.62,387.25L342.3,383.9L341.55,382.25L340.5,380.9L339.25,379.75L336.3,378.3L335.7,377.85L335.5,377.3L335.7,377.85L336.3,378.3L339.25,379.75L340.5,380.9L341.55,382.25L342.3,383.9L343.62,387.25L345.09,390.98L346.56,394.70L348.03,398.42L349.50,402.14L350.96,405.86L352.43,409.58L353.9,413.3L354.3,414.7L354.3,416.1L354.25,417.5L354.1,418.5L352.64,422.01L351.1,425.7L349.55,428.9L348.1,431.7L346.75,434.25L345.5,436.3L344.7,437.1L343.7,437.3L341.9,437.1L339.7,436.7L338.3,437.05L337.3,438.1L336.55,439.6L336.3,441.3L336.7,443.2L337.9,444.5L339.6,445.25L341.5,445.5"/>

  </g>

  <style >
          path {

            stroke-dasharray: 6737;
            stroke-dashoffset: 6737;
            animation: draw 30s linear forwards;
          }
          
          @keyframes draw {
            from {
              stroke-dashoffset: 6737;
            }
          
            to {
              stroke-dashoffset: 0;
            }
          }

          @-webkit-keyframes draw {
              to {
                  stroke-dashoffset: 0;
              }
          }          
          </style>


</svg>
