<?xml version="1.0" standalone="no"?>
<!DOCTYPE svg PUBLIC "-//W3C//DTD SVG 1.1//EN" "http://www.w3.org/Graphics/SVG/1.1/DTD/svg11.dtd">
<svg width="500" height="500" title="polygons" version="1.1" viewBox="0 0 500 500" xmlns="http://www.w3.org/2000/svg" class="svg-paper">
  <g>
    <!--  Created by Sandify -->
    <!--  https://sandify.org -->
    <!--  Version: 0.2.8 -->

    <!--  Machine type: Rectangular -->
    <!--    Min X (mm): 0 -->
    <!--    Max X (mm): 500 -->
    <!--    Min Y (mm): 0 -->
    <!--    Max Y (mm): 500 -->
    <!--  Content type: shape -->
    <!--  Layer: -->
    <!--    Shape: Web -->
    <!--    Name: web -->
    <!--    Large circle radius: 9 -->
    <!--    Small circle radius: 2 -->
    <!--    Visible: true -->
    <!--    Initial width: 20 -->
    <!--    Initial height: 20 -->
    <!--    X offset: 0 -->
    <!--    Y offset: 0 -->
    <!--    Rotate (degrees): 0 -->
    <!--    Reverse path: false -->
    <!--    Number of loops: 12 -->
    <!--    When transforming shape: intact -->
    <!--    Scale: true -->
    <!--      Scale (+/-): 100 -->
    <!--      Scale by: constant -->
    <!--    Spin: true -->
    <!--      Spin (+/-): 2.8 -->
    <!--      Spin by: constant -->
    <!--        Switchbacks: 0 -->
    <!--    Track: false -->
    <!--    Fine tuning: -->
    <!--      Connect to next layer: line -->
    <!--      Draw portion of path (%): 100 -->
    <!--      Backtrack at end (%): 0 -->
    <!--      Rotate starting point (%): 0 -->
    <!--  Reverse export path: false -->

    <!-- File name: 'web' -->
    <!-- File type: svg -->


    <desc>pwidth:500;pheight:500;</desc>
    <path
       stroke="white"
       stroke-width="0.2mm"
       fill="black"
       d="M270,250L270,250L269.92,250.00L269.67,249.97L269.25,249.91L268.69,249.78L267.99,249.59L267.17,249.30L266.25,248.91L265.24,248.41L264.17,247.79L263.07,247.06L261.95,246.22L260.84,245.28L259.76,244.24L258.73,243.12L257.77,241.93L256.89,240.70L256.11,239.45L255.43,238.19L254.85,236.96L254.39,235.78L254.03,234.66L253.76,233.63L253.59,232.72L253.48,231.93L253.44,231.29L253.44,230.80L253.45,230.48L253.47,230.32L253.47,230.33L253.43,230.50L253.32,230.83L253.14,231.30L252.87,231.90L252.49,232.62L252.00,233.43L251.39,234.31L250.65,235.24L249.80,236.19L248.82,237.15L247.74,238.10L246.57,239.00L245.31,239.85L244.00,240.63L242.65,241.32L241.28,241.92L239.91,242.41L238.58,242.81L237.3,243.11L236.10,243.31L234.99,243.43L234.00,243.47L233.15,243.45L232.44,243.40L231.88,243.32L231.50,243.24L231.27,243.18L231.21,243.16L231.30,243.2L231.55,243.32L231.92,243.53L232.42,243.85L233.02,244.29L233.70,244.86L234.44,245.56L235.22,246.38L236.02,247.34L236.80,248.41L237.56,249.60L238.28,250.88L238.93,252.23L239.5,253.64L239.99,255.09L240.38,256.54L240.68,257.99L240.88,259.39L240.99,260.74L241.01,262.00L240.96,263.16L240.85,264.20L240.70,265.11L240.53,265.86L240.35,266.46L240.19,266.90L240.07,267.19L240.00,267.31L240.02,267.29L240.13,267.13L240.35,266.84L240.70,266.45L241.17,265.97L241.79,265.42L242.54,264.82L243.43,264.20L244.46,263.58L245.60,262.98L246.86,262.41L248.20,261.90L249.62,261.46L251.10,261.10L252.60,260.83L254.11,260.66L255.59,260.57L257.04,260.58L258.42,260.68L259.71,260.84L260.90,261.07L261.97,261.34L262.89,261.64L263.68,261.95L264.31,262.24L264.78,262.5L265.11,262.7L265.28,262.82L265.32,262.85L265.23,262.77L265.03,262.56L264.74,262.22L264.37,261.73L263.95,261.09L263.50,260.31L263.05,259.39L262.60,258.33L262.19,257.14L261.82,255.85L261.52,254.47L261.30,253.02L261.16,251.52L261.11,250L261.16,248.48L261.30,246.98L261.52,245.53L261.82,244.15L262.19,242.86L262.60,241.67L263.05,240.61L263.50,239.69L263.95,238.91L264.37,238.27L264.74,237.78L265.03,237.44L265.23,237.23L265.32,237.15L265.28,237.18L265.11,237.3L264.78,237.5L264.31,237.76L263.68,238.05L262.89,238.36L261.97,238.66L260.90,238.93L259.71,239.16L258.42,239.32L257.04,239.42L255.59,239.43L254.11,239.34L252.60,239.17L251.10,238.90L249.62,238.54L248.20,238.10L246.86,237.59L245.60,237.02L244.46,236.42L243.43,235.80L242.54,235.18L241.79,234.58L241.17,234.03L240.70,233.55L240.35,233.16L240.13,232.87L240.02,232.71L240.00,232.69L240.07,232.81L240.19,233.10L240.35,233.54L240.53,234.14L240.70,234.89L240.85,235.80L240.96,236.84L241.01,238.00L240.99,239.26L240.88,240.61L240.68,242.01L240.38,243.46L239.99,244.91L239.5,246.36L238.93,247.77L238.28,249.12L237.56,250.40L236.80,251.59L236.02,252.66L235.22,253.62L234.44,254.44L233.70,255.14L233.02,255.71L232.42,256.15L231.92,256.47L231.55,256.68L231.30,256.8L231.21,256.84L231.27,256.82L231.50,256.76L231.88,256.68L232.44,256.60L233.15,256.55L234.00,256.53L234.99,256.57L236.10,256.69L237.3,256.89L238.58,257.19L239.91,257.59L241.28,258.08L242.65,258.68L244.00,259.37L245.31,260.15L246.57,261.00L247.74,261.90L248.82,262.85L249.80,263.81L250.65,264.76L251.39,265.69L252.00,266.57L252.49,267.38L252.87,268.10L253.14,268.70L253.32,269.17L253.43,269.50L253.47,269.67L253.47,269.68L253.45,269.52L253.44,269.20L253.44,268.71L253.48,268.07L253.59,267.28L253.76,266.37L254.03,265.34L254.39,264.22L254.85,263.04L255.43,261.81L256.11,260.55L256.89,259.30L257.77,258.07L258.73,256.88L259.76,255.76L260.84,254.72L261.95,253.78L263.07,252.94L264.17,252.21L265.24,251.59L266.25,251.09L267.17,250.70L267.99,250.41L268.69,250.22L269.25,250.09L269.67,250.03L269.92,250.00L289.95,248.05L289.78,248.05L289.28,248.02L288.45,247.94L287.32,247.74L285.90,247.41L284.23,246.92L282.35,246.23L280.29,245.33L278.09,244.21L275.81,242.86L273.50,241.29L271.19,239.51L268.93,237.54L266.77,235.40L264.74,233.12L262.86,230.75L261.18,228.32L259.69,225.88L258.43,223.48L257.38,221.16L256.55,218.96L255.92,216.94L255.48,215.13L255.19,213.57L255.04,212.29L254.99,211.32L254.99,210.67L255.01,210.35L255.01,210.37L254.94,210.72L254.76,211.38L254.45,212.34L253.97,213.57L253.28,215.04L252.38,216.70L251.24,218.52L249.86,220.45L248.24,222.44L246.39,224.45L244.33,226.44L242.07,228.37L239.65,230.18L237.10,231.86L234.47,233.38L231.79,234.70L229.11,235.83L226.48,236.75L223.96,237.47L221.57,237.99L219.38,238.33L217.40,238.51L215.69,238.57L214.27,238.53L213.16,238.42L212.37,238.30L211.92,238.21L211.79,238.17L211.99,238.24L212.48,238.45L213.26,238.84L214.28,239.43L215.53,240.25L216.94,241.32L218.49,242.64L220.13,244.22L221.81,246.05L223.48,248.12L225.12,250.41L226.67,252.90L228.10,255.54L229.38,258.30L230.50,261.14L231.42,264.01L232.16,266.86L232.69,269.65L233.04,272.33L233.21,274.85L233.23,277.18L233.11,279.26L232.90,281.08L232.63,282.61L232.33,283.83L232.05,284.73L231.84,285.30L231.72,285.56L231.75,285.51L231.96,285.18L232.37,284.58L233.02,283.76L233.93,282.76L235.10,281.60L236.55,280.34L238.27,279.01L240.25,277.67L242.48,276.35L244.94,275.10L247.57,273.95L250.37,272.94L253.28,272.07L256.25,271.39L259.25,270.89L262.21,270.58L265.1,270.45L267.87,270.50L270.47,270.71L272.86,271.05L275.01,271.49L276.90,272L278.49,272.54L279.78,273.06L280.75,273.52L281.42,273.89L281.78,274.13L281.86,274.18L281.67,274.02L281.25,273.63L280.63,272.97L279.85,272.03L278.96,270.80L277.98,269.28L276.98,267.48L275.99,265.40L275.04,263.08L274.19,260.54L273.45,257.81L272.86,254.93L272.44,251.95L272.20,248.91L272.14,245.87L272.27,242.86L272.58,239.94L273.04,237.15L273.65,234.54L274.36,232.13L275.14,229.97L275.97,228.08L276.79,226.48L277.56,225.17L278.24,224.15L278.80,223.44L279.17,223.00L279.34,222.83L279.27,222.89L278.93,223.15L278.31,223.59L277.38,224.15L276.15,224.79L274.62,225.48L272.80,226.17L270.70,226.82L268.35,227.39L265.78,227.85L263.03,228.17L260.14,228.33L257.16,228.31L254.13,228.11L251.11,227.71L248.13,227.14L245.25,226.40L242.51,225.51L239.95,224.50L237.60,223.41L235.50,222.27L233.65,221.12L232.09,220.01L230.81,218.97L229.81,218.05L229.08,217.30L228.61,216.75L228.37,216.44L228.34,216.39L228.48,216.64L228.75,217.19L229.11,218.06L229.53,219.24L229.95,220.73L230.34,222.52L230.66,224.59L230.87,226.90L230.94,229.43L230.86,232.13L230.60,234.96L230.15,237.87L229.50,240.82L228.67,243.75L227.66,246.63L226.49,249.39L225.19,252.02L223.79,254.46L222.33,256.68L220.84,258.67L219.36,260.40L217.95,261.86L216.64,263.06L215.49,264.00L214.52,264.69L213.79,265.15L213.31,265.41L213.13,265.5L213.25,265.45L213.69,265.31L214.47,265.12L215.56,264.91L216.97,264.73L218.68,264.61L220.66,264.60L222.88,264.73L225.30,265.01L227.89,265.48L230.59,266.14L233.37,267L236.16,268.06L238.93,269.31L241.63,270.73L244.22,272.30L246.65,274.00L248.90,275.77L250.94,277.60L252.75,279.43L254.31,281.21L255.62,282.91L256.68,284.48L257.50,285.87L258.11,287.05L258.51,287.97L258.75,288.62L258.85,288.96L258.86,288.97L258.81,288.66L258.74,288.01L258.70,287.04L258.72,285.75L258.85,284.17L259.12,282.33L259.54,280.25L260.16,277.99L260.97,275.57L262.00,273.05L263.24,270.48L264.68,267.90L266.31,265.36L268.12,262.90L270.06,260.56L272.11,258.38L274.24,256.38L276.39,254.59L278.52,253.03L280.60,251.69L282.56,250.60L284.37,249.73L285.98,249.07L287.36,248.60L288.47,248.30L289.29,248.13L289.78,248.06L309.71,244.15L309.46,244.16L308.71,244.16L307.46,244.09L305.75,243.88L303.60,243.50L301.06,242.87L298.18,241.98L295.03,240.78L291.66,239.26L288.15,237.41L284.57,235.23L280.98,232.73L277.45,229.94L274.05,226.89L270.84,223.63L267.86,220.22L265.15,216.71L262.75,213.16L260.68,209.65L258.94,206.25L257.53,203.02L256.44,200.03L255.65,197.36L255.11,195.04L254.79,193.13L254.64,191.68L254.59,190.70L254.6,190.23L254.59,190.25L254.52,190.78L254.31,191.79L253.91,193.25L253.27,195.13L252.35,197.38L251.12,199.93L249.55,202.74L247.63,205.73L245.35,208.84L242.72,211.99L239.78,215.12L236.53,218.17L233.04,221.07L229.34,223.77L225.51,226.23L221.59,228.42L217.66,230.31L213.80,231.88L210.06,233.14L206.53,234.09L203.26,234.76L200.32,235.18L197.76,235.39L195.63,235.43L193.96,235.36L192.77,235.23L192.08,235.12L191.89,235.08L192.18,235.17L192.94,235.45L194.14,235.97L195.72,236.79L197.64,237.92L199.84,239.42L202.25,241.28L204.82,243.53L207.47,246.15L210.13,249.13L212.75,252.44L215.25,256.05L217.59,259.90L219.72,263.94L221.59,268.12L223.20,272.35L224.50,276.57L225.51,280.71L226.23,284.70L226.67,288.46L226.86,291.94L226.84,295.08L226.66,297.82L226.36,300.13L226.01,301.98L225.66,303.35L225.38,304.22L225.22,304.62L225.26,304.54L225.55,304.02L226.12,303.11L227.04,301.83L228.32,300.25L229.99,298.43L232.07,296.43L234.55,294.32L237.43,292.17L240.67,290.03L244.25,287.98L248.12,286.06L252.24,284.34L256.53,282.83L260.93,281.59L265.38,280.62L269.80,279.93L274.12,279.54L278.27,279.41L282.18,279.53L285.79,279.86L289.05,280.37L291.91,280.99L294.33,281.68L296.30,282.36L297.80,282.99L298.82,283.50L299.38,283.82L299.50,283.89L299.21,283.67L298.55,283.11L297.57,282.16L296.34,280.81L294.91,279.04L293.34,276.84L291.70,274.21L290.06,271.18L288.48,267.76L287.01,264.02L285.70,259.98L284.61,255.72L283.76,251.28L283.17,246.75L282.87,242.19L282.84,237.67L283.09,233.27L283.58,229.06L284.29,225.10L285.18,221.45L286.20,218.15L287.30,215.26L288.41,212.79L289.47,210.77L290.42,209.21L291.19,208.10L291.73,207.41L291.97,207.14L291.87,207.24L291.38,207.66L290.48,208.35L289.13,209.26L287.34,210.32L285.09,211.46L282.41,212.63L279.31,213.75L275.83,214.78L272.02,215.66L267.93,216.34L263.61,216.79L259.14,216.98L254.59,216.89L250.03,216.53L245.52,215.88L241.15,214.99L236.98,213.86L233.07,212.54L229.48,211.08L226.24,209.52L223.40,207.93L220.97,206.38L218.97,204.92L217.41,203.62L216.26,202.54L215.52,201.75L215.14,201.30L215.09,201.24L215.31,201.59L215.76,202.40L216.37,203.67L217.07,205.41L217.81,207.62L218.53,210.28L219.16,213.35L219.64,216.80L219.94,220.58L220.01,224.63L219.83,228.89L219.37,233.28L218.62,237.75L217.59,242.20L216.28,246.58L214.74,250.81L212.98,254.84L211.06,258.59L209.03,262.03L206.94,265.12L204.86,267.82L202.85,270.12L200.98,272.02L199.32,273.51L197.92,274.61L196.86,275.36L196.16,275.78L195.89,275.92L196.07,275.85L196.73,275.6L197.87,275.25L199.50,274.86L201.60,274.48L204.15,274.19L207.11,274.02L210.45,274.05L214.10,274.30L218.01,274.81L222.11,275.60L226.32,276.69L230.59,278.07L234.83,279.74L238.98,281.67L242.97,283.84L246.74,286.20L250.25,288.70L253.43,291.28L256.27,293.88L258.74,296.45L260.83,298.89L262.53,301.16L263.87,303.19L264.86,304.91L265.53,306.26L265.93,307.21L266.11,307.72L266.12,307.74L266.02,307.27L265.88,306.31L265.75,304.85L265.69,302.92L265.77,300.55L266.03,297.76L266.51,294.62L267.27,291.18L268.31,287.51L269.67,283.66L271.33,279.72L273.30,275.75L275.56,271.82L278.08,268.00L280.83,264.35L283.74,260.93L286.78,257.78L289.87,254.94L292.96,252.44L295.96,250.30L298.82,248.51L301.47,247.07L303.84,245.97L305.87,245.17L307.51,244.64L308.72,244.32L309.46,244.18L329.14,238.31L328.81,238.35L327.80,238.40L326.14,238.39L323.84,238.23L320.95,237.85L317.53,237.18L313.65,236.18L309.37,234.79L304.79,232.98L299.99,230.75L295.07,228.07L290.13,224.98L285.25,221.49L280.53,217.66L276.04,213.53L271.84,209.18L268.01,204.67L264.58,200.11L261.60,195.57L259.06,191.15L256.97,186.94L255.33,183.04L254.09,179.52L253.23,176.47L252.68,173.95L252.38,172.03L252.26,170.73L252.23,170.10L252.23,170.13L252.16,170.84L251.94,172.20L251.51,174.17L250.78,176.72L249.71,179.76L248.23,183.25L246.32,187.09L243.96,191.20L241.12,195.49L237.84,199.86L234.11,204.22L229.99,208.49L225.53,212.58L220.78,216.42L215.84,219.94L210.76,223.11L205.66,225.88L200.61,228.22L195.72,230.14L191.07,231.64L186.76,232.75L182.88,233.5L179.48,233.94L176.64,234.13L174.41,234.15L172.82,234.06L171.90,233.96L171.64,233.92L172.04,234.02L173.07,234.34L174.69,234.96L176.85,235.94L179.48,237.33L182.51,239.17L185.85,241.50L189.41,244.33L193.11,247.65L196.85,251.44L200.55,255.68L204.12,260.32L207.48,265.30L210.58,270.54L213.35,275.98L215.76,281.51L217.78,287.05L219.39,292.49L220.60,297.76L221.44,302.74L221.92,307.36L222.10,311.54L222.03,315.21L221.78,318.30L221.43,320.79L221.06,322.63L220.74,323.81L220.56,324.35L220.61,324.24L220.95,323.54L221.66,322.28L222.80,320.52L224.40,318.33L226.51,315.80L229.15,313.01L232.32,310.03L236.00,306.98L240.18,303.92L244.82,300.95L249.85,298.15L255.21,295.58L260.83,293.30L266.62,291.35L272.48,289.77L278.32,288.57L284.05,287.76L289.56,287.32L294.78,287.23L299.61,287.44L303.98,287.90L307.83,288.54L311.11,289.30L313.77,290.09L315.80,290.82L317.19,291.43L317.96,291.82L318.12,291.91L317.72,291.63L316.81,290.93L315.45,289.73L313.72,288.02L311.70,285.75L309.46,282.91L307.11,279.52L304.73,275.59L302.40,271.15L300.20,266.26L298.2,260.97L296.47,255.36L295.04,249.51L293.97,243.51L293.26,237.45L292.93,231.44L292.97,225.57L293.36,219.93L294.05,214.61L295.00,209.68L296.14,205.23L297.41,201.30L298.73,197.95L300.01,195.19L301.18,193.04L302.13,191.51L302.80,190.57L303.10,190.19L302.97,190.32L302.35,190.92L301.19,191.90L299.46,193.19L297.14,194.72L294.22,196.39L290.73,198.12L286.67,199.82L282.11,201.42L277.09,202.83L271.68,204.01L265.96,204.89L260.02,205.43L253.95,205.61L247.85,205.42L241.82,204.86L235.94,203.95L230.31,202.72L225.02,201.22L220.13,199.5L215.72,197.64L211.83,195.71L208.50,193.80L205.74,191.98L203.57,190.35L201.98,189.00L200.94,188.00L200.40,187.42L200.33,187.33L200.65,187.79L201.30,188.84L202.19,190.49L203.25,192.77L204.38,195.66L205.50,199.15L206.54,203.20L207.41,207.76L208.06,212.78L208.41,218.17L208.44,223.85L208.11,229.73L207.41,235.73L206.32,241.73L204.88,247.64L203.09,253.38L201.02,258.85L198.71,263.98L196.22,268.70L193.64,272.94L191.04,276.68L188.52,279.87L186.15,282.51L184.04,284.61L182.25,286.17L180.88,287.23L179.99,287.84L179.63,288.05L179.87,287.93L180.72,287.56L182.22,287.02L184.36,286.39L187.13,285.76L190.51,285.20L194.45,284.79L198.89,284.60L203.77,284.70L209.01,285.12L214.52,285.91L220.21,287.08L225.98,288.65L231.74,290.59L237.39,292.90L242.84,295.52L248.02,298.42L252.85,301.52L257.26,304.75L261.21,308.03L264.66,311.28L267.60,314.41L270.02,317.32L271.93,319.93L273.36,322.15L274.35,323.92L274.95,325.16L275.22,325.81L275.23,325.85L275.07,325.23L274.81,323.96L274.54,322.02L274.34,319.46L274.29,316.29L274.45,312.56L274.9,308.35L275.68,303.72L276.83,298.76L278.38,293.55L280.34,288.19L282.71,282.77L285.47,277.39L288.57,272.14L291.99,267.1L295.65,262.35L299.49,257.96L303.42,253.99L307.37,250.46L311.23,247.40L314.93,244.84L318.36,242.75L321.44,241.13L324.09,239.93L326.24,239.11L327.83,238.62L328.81,238.38L348.10,230.58L347.68,230.64L346.43,230.77L344.35,230.85L341.47,230.79L337.85,230.49L333.53,229.87L328.62,228.86L323.19,227.38L317.36,225.41L311.24,222.91L304.94,219.87L298.58,216.31L292.27,212.26L286.14,207.76L280.28,202.88L274.78,197.70L269.72,192.31L265.16,186.82L261.15,181.33L257.71,175.97L254.85,170.85L252.56,166.07L250.81,161.76L249.54,158.00L248.7,154.89L248.21,152.51L247.98,150.90L247.91,150.11L247.91,150.15L247.86,151.04L247.68,152.75L247.25,155.24L246.50,158.46L245.35,162.33L243.72,166.77L241.57,171.69L238.87,176.96L235.59,182.48L231.75,188.14L227.37,193.81L222.49,199.39L217.16,204.77L211.47,209.86L205.51,214.56L199.37,218.82L193.16,222.59L187.00,225.83L181.01,228.52L175.31,230.68L170.00,232.33L165.19,233.50L160.98,234.26L157.45,234.67L154.66,234.83L152.67,234.82L151.51,234.74L151.18,234.70L151.69,234.80L152.99,235.15L155.06,235.82L157.81,236.91L161.18,238.49L165.07,240.61L169.39,243.31L174.01,246.62L178.83,250.53L183.74,255.04L188.61,260.11L193.35,265.69L197.85,271.69L202.04,278.06L205.83,284.67L209.17,291.43L212.03,298.22L214.38,304.92L216.22,311.42L217.56,317.59L218.44,323.33L218.92,328.54L219.06,333.12L218.94,337.00L218.66,340.12L218.3,342.44L217.98,343.94L217.79,344.62L217.84,344.49L218.22,343.59L219.03,341.97L220.34,339.71L222.21,336.88L224.69,333.59L227.81,329.94L231.59,326.03L236.00,321.99L241.04,317.92L246.64,313.93L252.75,310.13L259.29,306.59L266.17,303.40L273.27,300.61L280.49,298.28L287.71,296.43L294.81,295.07L301.68,294.18L308.18,293.75L314.23,293.71L319.71,294.02L324.56,294.59L328.69,295.33L332.06,296.15L334.65,296.95L336.42,297.62L337.40,298.06L337.61,298.16L337.10,297.85L335.91,297.02L334.14,295.61L331.88,293.57L329.21,290.86L326.25,287.46L323.11,283.37L319.89,278.61L316.71,273.21L313.67,267.23L310.85,260.75L308.34,253.85L306.21,246.63L304.50,239.21L303.25,231.69L302.47,224.21L302.16,216.87L302.29,209.81L302.83,203.12L303.72,196.92L304.88,191.29L306.22,186.31L307.66,182.04L309.10,178.51L310.42,175.76L311.51,173.79L312.29,172.57L312.65,172.08L312.49,172.26L311.75,173.04L310.37,174.33L308.28,176.06L305.48,178.10L301.94,180.37L297.68,182.74L292.72,185.11L287.12,187.38L280.94,189.46L274.26,191.25L267.18,192.7L259.79,193.74L252.23,194.34L244.60,194.47L237.03,194.14L229.63,193.36L222.53,192.17L215.83,190.62L209.63,188.77L204.00,186.72L199.03,184.55L194.75,182.36L191.20,180.26L188.39,178.37L186.32,176.77L184.96,175.58L184.26,174.90L184.16,174.79L184.59,175.35L185.46,176.61L186.68,178.62L188.13,181.40L189.72,184.94L191.34,189.23L192.88,194.23L194.25,199.87L195.36,206.09L196.14,212.80L196.52,219.89L196.47,227.26L195.95,234.78L194.97,242.34L193.52,249.81L191.65,257.09L189.39,264.04L186.81,270.59L184.00,276.63L181.03,282.09L178.02,286.91L175.06,291.05L172.27,294.49L169.76,297.23L167.62,299.29L165.97,300.7L164.90,301.51L164.47,301.8L164.75,301.64L165.80,301.13L167.64,300.36L170.27,299.44L173.69,298.48L177.88,297.57L182.77,296.83L188.30,296.32L194.40,296.14L200.97,296.35L207.90,297.00L215.07,298.12L222.37,299.72L229.68,301.80L236.88,304.33L243.85,307.27L250.49,310.57L256.7,314.15L262.41,317.91L267.54,321.77L272.05,325.62L275.91,329.34L279.11,332.83L281.65,335.97L283.57,338.66L284.91,340.80L285.74,342.31L286.11,343.11L286.13,343.15L285.89,342.40L285.50,340.82L285.04,338.43L284.63,335.23L284.37,331.28L284.35,326.62L284.65,321.33L285.34,315.50L286.48,309.24L288.10,302.64L290.22,295.82L292.84,288.91L295.95,282.03L299.51,275.28L303.47,268.79L307.75,262.64L312.27,256.92L316.94,251.71L321.65,247.07L326.29,243.02L330.74,239.59L334.90,236.77L338.65,234.56L341.89,232.90L344.53,231.75L346.48,231.04L347.69,230.68L366.44,220.97L365.94,221.07L364.45,221.30L361.96,221.52L358.51,221.62L354.15,221.47L348.94,220.98L342.99,220.05L336.40,218.60L329.30,216.58L321.81,213.94L314.08,210.67L306.25,206.77L298.46,202.28L290.84,197.25L283.53,191.75L276.63,185.86L270.25,179.70L264.47,173.38L259.34,167.05L254.91,160.82L251.18,154.84L248.15,149.26L245.79,144.19L244.06,139.76L242.87,136.09L242.14,133.25L241.76,131.34L241.64,130.39L241.64,130.45L241.64,131.51L241.52,133.57L241.16,136.58L240.44,140.48L239.28,145.19L237.59,150.61L235.31,156.63L232.37,163.11L228.77,169.92L224.50,176.93L219.58,183.98L214.06,190.96L207.99,197.72L201.47,204.14L194.60,210.13L187.49,215.60L180.27,220.48L173.08,224.72L166.06,228.30L159.34,231.23L153.07,233.51L147.38,235.19L142.38,236.35L138.17,237.05L134.84,237.40L132.45,237.51L131.06,237.48L130.66,237.46L131.27,237.55L132.86,237.88L135.37,238.57L138.74,239.71L142.87,241.40L147.66,243.72L152.99,246.71L158.72,250.40L164.73,254.81L170.87,259.93L177.01,265.72L183.02,272.12L188.77,279.06L194.16,286.44L199.09,294.14L203.50,302.05L207.32,310.02L210.52,317.92L213.11,325.60L215.08,332.92L216.48,339.75L217.35,345.96L217.79,351.44L217.88,356.10L217.72,359.86L217.42,362.66L217.12,364.48L216.94,365.30L216.99,365.14L217.40,364.03L218.28,362.05L219.71,359.26L221.79,355.76L224.57,351.67L228.10,347.11L232.39,342.21L237.45,337.11L243.24,331.94L249.72,326.83L256.82,321.90L264.45,317.28L272.50,313.05L280.86,309.30L289.38,306.08L297.93,303.44L306.36,301.39L314.53,299.93L322.30,299.02L329.54,298.63L336.14,298.67L341.98,299.07L346.97,299.72L351.06,300.51L354.21,301.31L356.38,302.01L357.58,302.48L357.83,302.59L357.19,302.24L355.73,301.32L353.53,299.74L350.69,297.43L347.33,294.33L343.59,290.43L339.58,285.71L335.45,280.19L331.32,273.91L327.32,266.92L323.56,259.32L320.15,251.20L317.17,242.67L314.69,233.87L312.75,224.94L311.38,216.01L310.57,207.24L310.32,198.76L310.57,190.71L311.27,183.23L312.33,176.41L313.65,170.36L315.13,165.16L316.64,160.86L318.06,157.48L319.26,155.05L320.12,153.55L320.52,152.94L320.35,153.16L319.51,154.14L317.92,155.77L315.52,157.96L312.28,160.57L308.17,163.49L303.20,166.59L297.40,169.72L290.82,172.77L283.53,175.62L275.63,178.17L267.23,180.32L258.44,182.00L249.41,183.16L240.27,183.76L231.18,183.81L222.27,183.31L213.69,182.30L205.56,180.83L198.02,178.98L191.16,176.85L185.07,174.54L179.81,172.17L175.44,169.86L171.96,167.75L169.38,165.96L167.68,164.62L166.80,163.84L166.68,163.72L167.23,164.36L168.35,165.82L169.92,168.16L171.83,171.40L173.94,175.56L176.13,180.60L178.27,186.50L180.24,193.18L181.94,200.57L183.26,208.57L184.14,217.05L184.50,225.88L184.33,234.93L183.59,244.04L182.29,253.09L180.47,261.91L178.18,270.39L175.47,278.38L172.45,285.78L169.22,292.50L165.89,298.45L162.59,303.59L159.45,307.88L156.59,311.32L154.16,313.91L152.26,315.69L151.02,316.73L150.52,317.1L150.86,316.89L152.08,316.22L154.24,315.19L157.34,313.93L161.38,312.58L166.34,311.25L172.16,310.07L178.77,309.14L186.07,308.57L193.95,308.43L202.29,308.80L210.95,309.72L219.80,311.21L228.68,313.27L237.46,315.89L245.98,319.01L254.13,322.57L261.79,326.49L268.85,330.67L275.23,335.00L280.86,339.34L285.70,343.58L289.74,347.57L292.98,351.18L295.44,354.30L297.17,356.78L298.24,358.54L298.74,359.48L298.77,359.53L298.44,358.64L297.87,356.77L297.18,353.93L296.51,350.13L295.96,345.4L295.66,339.82L295.71,333.46L296.20,326.44L297.19,318.86L298.75,310.85L300.89,302.56L303.63,294.13L306.95,285.69L310.82,277.40L315.19,269.38L319.96,261.76L325.04,254.65L330.33,248.13L335.71,242.28L341.03,237.16L346.17,232.79L350.99,229.17L355.35,226.30L359.13,224.12L362.23,222.59L364.53,221.62L365.95,221.11L384.02,209.54L383.45,209.68L381.73,210.03L378.84,210.43L374.83,210.74L369.73,210.82L363.64,210.55L356.65,209.80L348.89,208.49L340.50,206.53L331.62,203.88L322.43,200.51L313.08,196.42L303.75,191.64L294.58,186.20L285.75,180.21L277.38,173.74L269.60,166.93L262.50,159.90L256.16,152.80L250.63,145.80L245.95,139.05L242.10,132.71L239.07,126.94L236.79,121.88L235.19,117.66L234.18,114.40L233.64,112.19L233.44,111.10L233.44,111.17L233.50,112.41L233.48,114.81L233.23,118.34L232.62,122.93L231.54,128.48L229.88,134.89L227.55,142.03L224.51,149.75L220.70,157.90L216.12,166.30L210.79,174.81L204.75,183.25L198.07,191.47L190.84,199.33L183.17,206.70L175.19,213.48L167.06,219.57L158.92,224.93L150.95,229.50L143.29,233.29L136.12,236.31L129.58,238.60L123.81,240.23L118.95,241.29L115.09,241.88L112.32,242.14L110.68,242.19L110.23,242.19L110.94,242.26L112.81,242.56L115.78,243.21L119.76,244.35L124.68,246.09L130.39,248.51L136.77,251.69L143.66,255.67L150.91,260.47L158.36,266.08L165.84,272.48L173.21,279.60L180.31,287.35L187.01,295.64L193.19,304.34L198.78,313.30L203.68,322.37L207.87,331.39L211.32,340.19L214.03,348.61L216.05,356.49L217.43,363.68L218.25,370.04L218.61,375.46L218.64,379.85L218.46,383.14L218.21,385.27L218.05,386.24L218.10,386.05L218.51,384.74L219.42,382.37L220.93,379.04L223.15,374.85L226.16,369.92L230.01,364.41L234.73,358.45L240.34,352.22L246.79,345.86L254.05,339.54L262.05,333.40L270.68,327.58L279.82,322.19L289.34,317.34L299.08,313.11L308.89,309.54L318.60,306.67L328.04,304.50L337.04,303.01L345.46,302.13L353.15,301.81L359.97,301.94L365.83,302.41L370.65,303.09L374.35,303.85L376.92,304.55L378.35,305.02L378.65,305.14L377.89,304.76L376.13,303.77L373.47,302.06L370.03,299.52L365.95,296.11L361.36,291.78L356.42,286.51L351.29,280.31L346.12,273.23L341.06,265.31L336.25,256.67L331.81,247.40L327.85,237.63L324.46,227.52L321.69,217.22L319.58,206.89L318.15,196.72L317.37,186.85L317.21,177.46L317.59,168.7L318.44,160.70L319.63,153.57L321.06,147.43L322.57,142.32L324.03,138.31L325.30,135.41L326.21,133.61L326.64,132.88L326.45,133.14L325.53,134.33L323.77,136.33L321.11,139.01L317.48,142.25L312.86,145.88L307.24,149.77L300.66,153.75L293.17,157.68L284.84,161.42L275.77,164.83L266.10,167.82L255.96,170.28L245.50,172.14L234.89,173.37L224.29,173.94L213.88,173.87L203.83,173.18L194.28,171.93L185.38,170.21L177.27,168.12L170.04,165.77L163.78,163.31L158.55,160.87L154.38,158.61L151.27,156.67L149.21,155.20L148.14,154.34L147.99,154.21L148.67,154.92L150.05,156.56L152.02,159.20L154.43,162.87L157.13,167.59L159.96,173.34L162.79,180.09L165.47,187.77L167.87,196.28L169.87,205.52L171.37,215.35L172.31,225.62L172.62,236.18L172.27,246.84L171.28,257.46L169.66,267.85L167.47,277.85L164.77,287.32L161.68,296.12L158.29,304.13L154.75,311.26L151.20,317.43L147.78,322.61L144.65,326.77L141.96,329.93L139.85,332.12L138.46,333.40L137.90,333.86L138.28,333.60L139.67,332.74L142.12,331.42L145.67,329.78L150.31,327.97L156.01,326.14L162.72,324.43L170.37,322.97L178.84,321.89L188.02,321.28L197.76,321.24L207.90,321.82L218.30,323.05L228.76,324.94L239.14,327.49L249.25,330.64L258.95,334.33L268.10,338.46L276.56,342.93L284.24,347.61L291.05,352.35L296.94,357.01L301.87,361.43L305.85,365.46L308.89,368.94L311.05,371.74L312.40,373.73L313.04,374.80L313.07,374.86L312.63,373.83L311.86,371.69L310.90,368.42L309.90,364.02L309.00,358.55L308.33,352.06L308.02,344.65L308.19,336.44L308.92,327.55L310.27,318.13L312.29,308.35L315.01,298.37L318.4,288.35L322.44,278.46L327.06,268.87L332.19,259.72L337.71,251.14L343.50,243.24L349.43,236.12L355.34,229.85L361.08,224.46L366.49,219.97L371.41,216.37L375.70,213.62L379.21,211.66L381.84,210.40L383.47,209.73L400.73,196.33L400.09,196.53L398.13,197.02L394.86,197.64L390.30,198.22L384.49,198.59L377.52,198.62L369.5,198.16L360.57,197.09L350.88,195.33L340.60,192.80L329.91,189.47L319.01,185.32L308.09,180.38L297.33,174.69L286.91,168.34L277.00,161.42L267.73,154.08L259.23,146.45L251.60,138.71L244.91,131.02L239.18,123.58L234.44,116.56L230.65,110.14L227.77,104.49L225.71,99.77L224.38,96.10L223.63,93.61L223.34,92.37L223.35,92.45L223.49,93.86L223.59,96.61L223.51,100.65L223.07,105.92L222.15,112.32L220.61,119.73L218.35,128.01L215.30,136.99L211.41,146.50L206.66,156.35L201.05,166.36L194.62,176.33L187.45,186.09L179.64,195.46L171.30,204.31L162.57,212.49L153.63,219.90L144.64,226.46L135.79,232.13L127.26,236.88L119.24,240.73L111.90,243.70L105.41,245.89L99.92,247.37L95.55,248.26L92.40,248.72L90.54,248.87L90.01,248.88L90.84,248.93L92.98,249.16L96.41,249.75L101.02,250.83L106.72,252.53L113.38,254.98L120.84,258.25L128.93,262.41L137.48,267.48L146.29,273.47L155.19,280.36L164.00,288.07L172.53,296.53L180.64,305.62L188.19,315.20L195.06,325.12L201.17,335.20L206.45,345.26L210.88,355.11L214.45,364.57L217.19,373.45L219.17,381.58L220.46,388.80L221.18,394.97L221.45,399.98L221.43,403.73L221.27,406.18L221.13,407.30L221.18,407.08L221.58,405.56L222.48,402.81L224.02,398.92L226.32,394.01L229.48,388.22L233.57,381.71L238.63,374.65L244.67,367.22L251.69,359.61L259.63,351.98L268.41,344.53L277.93,337.40L288.07,330.74L298.66,324.67L309.55,319.30L320.55,314.68L331.47,310.86L342.12,307.86L352.32,305.65L361.88,304.18L370.63,303.38L378.43,303.15L385.15,303.36L390.68,303.87L394.96,304.53L397.93,305.18L399.58,305.64L399.93,305.76L399.04,305.37L396.98,304.34L393.85,302.53L389.78,299.83L384.93,296.16L379.45,291.48L373.52,285.73L367.31,278.94L361.02,271.14L354.8,262.40L348.82,252.80L343.24,242.46L338.18,231.54L333.74,220.18L330.00,208.58L327.02,196.91L324.82,185.37L323.38,174.16L322.67,163.45L322.62,153.42L323.13,144.24L324.10,136.04L325.38,128.95L326.83,123.04L328.27,118.38L329.56,115.00L330.5,112.89L330.95,112.03L330.75,112.34L329.76,113.75L327.87,116.13L324.97,119.34L321.01,123.23L315.94,127.64L309.75,132.39L302.46,137.30L294.12,142.21L284.82,146.94L274.67,151.34L263.79,155.29L252.35,158.66L240.51,161.38L228.47,163.37L216.41,164.62L204.52,165.11L193.00,164.88L182.03,163.99L171.78,162.53L162.40,160.59L154.02,158.32L146.74,155.85L140.63,153.36L135.75,151.01L132.09,148.97L129.66,147.41L128.39,146.49L128.21,146.35L129.02,147.13L130.70,148.92L133.09,151.82L136.04,155.88L139.38,161.11L142.94,167.52L146.55,175.07L150.04,183.68L153.25,193.27L156.05,203.70L158.31,214.84L159.95,226.51L160.89,238.54L161.10,250.74L160.56,262.91L159.29,274.86L157.34,286.40L154.80,297.36L151.75,307.57L148.34,316.91L144.69,325.24L140.98,332.49L137.37,338.59L134.03,343.52L131.13,347.27L128.85,349.89L127.33,351.43L126.72,351.98L127.14,351.66L128.68,350.61L131.41,348.96L135.36,346.89L140.55,344.57L146.96,342.16L154.53,339.83L163.17,337.74L172.78,336.03L183.22,334.83L194.34,334.24L205.96,334.33L217.89,335.15L229.94,336.74L241.93,339.06L253.65,342.09L264.93,345.76L275.60,349.97L285.51,354.60L294.54,359.50L302.57,364.54L309.56,369.53L315.43,374.3L320.19,378.68L323.86,382.49L326.49,385.56L328.14,387.76L328.92,388.94L328.97,389.00L328.41,387.86L327.41,385.46L326.13,381.77L324.74,376.81L323.40,370.61L322.28,363.25L321.52,354.81L321.25,345.42L321.58,335.23L322.60,324.41L324.37,313.13L326.90,301.58L330.22,289.95L334.28,278.45L339.02,267.24L344.36,256.50L350.18,246.40L356.36,237.06L362.73,228.61L369.12,221.12L375.37,214.65L381.29,209.22L386.71,204.84L391.45,201.46L395.36,199.02L398.28,197.43L400.10,196.58L416.42,181.41L415.71,181.67L413.54,182.33L409.90,183.20L404.80,184.10L398.29,184.85L390.46,185.26L381.43,185.18L371.33,184.48L360.35,183.03L348.65,180.75L336.47,177.59L323.99,173.53L311.45,168.58L299.05,162.78L286.99,156.21L275.47,148.99L264.65,141.24L254.68,133.14L245.69,124.86L237.74,116.59L230.90,108.54L225.18,100.91L220.57,93.91L217.02,87.72L214.45,82.52L212.75,78.48L211.78,75.72L211.38,74.35L211.39,74.43L211.63,76.01L211.90,79.09L212.02,83.63L211.82,89.58L211.13,96.82L209.81,105.24L207.73,114.66L204.80,124.93L200.95,135.82L196.15,147.15L190.40,158.70L183.73,170.26L176.21,181.62L167.94,192.59L159.05,202.98L149.70,212.65L140.06,221.47L130.32,229.34L120.68,236.20L111.36,242.00L102.56,246.76L94.48,250.51L87.31,253.32L81.22,255.29L76.35,256.54L72.84,257.22L70.75,257.49L70.17,257.54L71.09,257.54L73.52,257.69L77.40,258.16L82.65,259.12L89.15,260.72L96.76,263.10L105.32,266.37L114.64,270.59L124.52,275.82L134.76,282.07L145.14,289.32L155.45,297.50L165.51,306.54L175.12,316.31L184.13,326.66L192.40,337.42L199.81,348.42L206.30,359.43L211.82,370.26L216.35,380.69L219.92,390.52L222.59,399.54L224.43,407.58L225.58,414.48L226.16,420.09L226.35,424.31L226.30,427.08L226.20,428.34L226.25,428.09L226.61,426.36L227.47,423.22L228.99,418.76L231.31,413.12L234.54,406.44L238.78,398.90L244.07,390.69L250.46,382.01L257.92,373.07L266.42,364.06L275.88,355.20L286.19,346.67L297.21,338.63L308.78,331.23L320.72,324.59L332.83,318.80L344.89,313.91L356.69,309.95L368.03,306.90L378.69,304.73L388.48,303.35L397.23,302.66L404.79,302.53L411.04,302.80L415.88,303.31L419.25,303.87L421.13,304.30L421.54,304.41L420.51,304.03L418.14,302.98L414.52,301.12L409.81,298.31L404.15,294.46L397.74,289.49L390.75,283.36L383.41,276.08L375.91,267.66L368.44,258.17L361.20,247.71L354.36,236.40L348.07,224.41L342.45,211.89L337.62,199.06L333.63,186.11L330.52,173.27L328.28,160.75L326.90,148.75L326.29,137.49L326.37,127.14L327.00,117.88L328.05,109.83L329.35,103.12L330.72,97.80L331.97,93.93L332.92,91.51L333.38,90.52L333.17,90.88L332.13,92.52L330.14,95.29L327.06,99.06L322.82,103.65L317.37,108.89L310.67,114.56L302.75,120.49L293.65,126.45L283.46,132.28L272.30,137.79L260.29,142.82L247.62,147.24L234.47,150.94L221.05,153.84L207.56,155.91L194.23,157.11L181.28,157.49L168.90,157.09L157.31,156.01L146.66,154.35L137.11,152.25L128.80,149.89L121.80,147.42L116.18,145.05L111.96,142.96L109.14,141.34L107.66,140.37L107.45,140.23L108.41,141.05L110.39,142.98L113.24,146.10L116.78,150.50L120.82,156.20L125.17,163.21L129.64,171.49L134.03,180.98L138.17,191.57L141.88,203.14L145.04,215.53L147.53,228.56L149.25,242.02L150.15,255.71L150.21,269.42L149.44,282.91L147.89,295.99L145.63,308.44L142.77,320.09L139.44,330.77L135.81,340.33L132.03,348.68L128.31,355.74L124.83,361.45L121.78,365.83L119.36,368.90L117.74,370.71L117.09,371.37L117.53,370.99L119.20,369.72L122.18,367.72L126.51,365.18L132.22,362.28L139.28,359.22L147.66,356.19L157.26,353.36L167.96,350.92L179.63,348.99L192.09,347.71L205.15,347.18L218.60,347.45L232.23,348.56L245.82,350.52L259.16,353.28L272.04,356.78L284.26,360.92L295.65,365.58L306.06,370.60L315.37,375.81L323.49,381.04L330.35,386.07L335.95,390.73L340.28,394.81L343.39,398.12L345.37,400.50L346.32,401.78L346.37,401.85L345.68,400.60L344.43,397.95L342.79,393.88L340.95,388.38L339.11,381.49L337.44,373.28L336.12,363.84L335.31,353.31L335.12,341.84L335.67,329.62L337.03,316.85L339.25,303.73L342.33,290.49L346.26,277.33L350.98,264.48L356.39,252.12L362.38,240.45L368.80,229.62L375.49,219.77L382.26,211.00L388.93,203.38L395.29,196.96L401.13,191.74L406.27,187.68L410.53,184.73L413.73,182.78L415.73,181.73L430.97,164.84L430.19,165.17L427.82,166.02L423.83,167.19L418.22,168.47L411.04,169.64L402.37,170.53L392.34,170.93L381.10,170.70L368.82,169.69L355.73,167.80L342.03,164.95L327.97,161.12L313.77,156.30L299.70,150.54L285.96,143.90L272.78,136.51L260.36,128.51L248.86,120.06L238.42,111.35L229.15,102.61L221.12,94.05L214.36,85.89L208.87,78.37L204.60,71.69L201.46,66.07L199.35,61.67L198.12,58.66L197.61,57.16L197.63,57.25L197.97,58.99L198.44,62.39L198.82,67.43L198.92,74.04L198.55,82.12L197.54,91.53L195.75,102.10L193.05,113.65L189.37,125.95L184.66,138.79L178.90,151.92L172.12,165.11L164.39,178.12L155.81,190.74L146.51,202.76L136.66,214.00L126.44,224.31L116.06,233.57L105.73,241.70L95.70,248.65L86.20,254.41L77.43,259.01L69.63,262.52L62.97,265.03L57.64,266.68L53.78,267.63L51.48,268.04L50.83,268.13L51.86,268.08L54.56,268.11L58.89,268.42L64.77,269.2L72.07,270.63L80.65,272.86L90.33,276.02L100.90,280.20L112.15,285.47L123.85,291.85L135.76,299.33L147.65,307.85L159.30,317.33L170.50,327.65L181.06,338.65L190.82,350.15L199.65,361.94L207.44,373.82L214.15,385.53L219.75,396.87L224.24,407.58L227.69,417.45L230.18,426.27L231.83,433.86L232.78,440.06L233.21,444.74L233.31,447.80L233.27,449.21L233.31,448.93L233.62,446.99L234.40,443.46L235.85,438.43L238.11,432.04L241.33,424.46L245.63,415.86L251.06,406.46L257.67,396.48L265.47,386.15L274.42,375.70L284.43,365.35L295.41,355.32L307.20,345.80L319.64,336.96L332.53,328.94L345.65,321.86L358.77,315.78L371.66,310.74L384.08,306.75L395.79,303.75L406.58,301.69L416.26,300.45L424.64,299.89L431.58,299.86L436.98,300.16L440.75,300.60L442.87,300.98L443.32,301.08L442.17,300.71L439.47,299.67L435.36,297.8L429.97,294.94L423.49,290.97L416.10,285.81L408.02,279.39L399.47,271.70L390.69,262.76L381.89,252.64L373.28,241.42L365.08,229.25L357.44,216.27L350.54,202.69L344.47,188.71L339.34,174.56L335.19,160.48L332.03,146.70L329.84,133.46L328.56,121.00L328.08,109.51L328.28,99.20L329.01,90.21L330.09,82.68L331.32,76.71L332.50,72.35L333.42,69.61L333.87,68.48L333.66,68.90L332.60,70.77L330.54,73.96L327.33,78.31L322.88,83.63L317.10,89.74L309.98,96.40L301.51,103.40L291.74,110.52L280.75,117.54L268.65,124.26L255.60,130.50L241.78,136.09L227.39,140.91L212.65,144.86L197.80,147.88L183.07,149.94L168.71,151.07L154.96,151.30L142.03,150.72L130.12,149.45L119.41,147.65L110.06,145.47L102.15,143.12L95.79,140.79L91.00,138.70L87.77,137.06L86.08,136.06L85.85,135.91L86.95,136.78L89.25,138.81L92.58,142.12L96.75,146.81L101.55,152.91L106.76,160.45L112.17,169.40L117.55,179.69L122.72,191.23L127.47,203.87L131.65,217.44L135.11,231.76L137.75,246.61L139.49,261.76L140.31,276.97L140.19,291.99L139.17,306.58L137.34,320.53L134.8,333.61L131.69,345.63L128.17,356.45L124.44,365.92L120.69,373.95L117.13,380.49L113.99,385.51L111.47,389.04L109.77,391.14L109.08,391.91L109.56,391.46L111.34,389.96L114.53,387.58L119.20,384.52L125.38,381.00L133.06,377.22L142.19,373.40L152.69,369.75L164.44,366.45L177.28,363.68L191.03,361.58L205.50,360.28L220.44,359.85L235.63,360.35L250.82,361.78L265.77,364.12L280.25,367.31L294.04,371.24L306.93,375.79L318.76,380.79L329.38,386.08L338.67,391.43L346.56,396.65L353.02,401.51L358.05,405.81L361.69,409.31L364.01,411.84L365.13,413.22L365.19,413.29L364.36,411.94L362.82,409.07L360.78,404.64L358.45,398.64L356.03,391.09L353.73,382.06L351.76,371.66L350.28,360.02L349.45,347.30L349.39,333.71L350.21,319.46L351.96,304.79L354.67,289.92L358.31,275.11L362.85,260.59L368.18,246.58L374.19,233.30L380.73,220.94L387.62,209.64L394.67,199.54L401.65,190.73L408.36,183.26L414.56,177.14L420.05,172.36L424.61,168.85L428.05,166.52L430.22,165.23L444.25,146.72L443.41,147.12L440.86,148.18L436.53,149.68L430.44,151.38L422.61,153.06L413.14,154.50L402.14,155.48L389.77,155.83L376.24,155.38L361.74,154.00L346.54,151.61L330.88,148.16L315.03,143.63L299.26,138.05L283.81,131.50L268.93,124.09L254.85,115.96L241.76,107.29L229.82,98.29L219.17,89.18L209.89,80.21L202.03,71.61L195.59,63.64L190.53,56.54L186.79,50.52L184.23,45.81L182.72,42.57L182.08,40.94L182.10,41.04L182.57,42.94L183.27,46.65L183.96,52.16L184.43,59.42L184.45,68.31L183.85,78.71L182.45,90.42L180.10,103.25L176.72,116.97L172.23,131.32L166.61,146.06L159.87,160.91L152.08,175.63L143.33,189.95L133.76,203.65L123.54,216.53L112.86,228.41L101.95,239.15L91.05,248.64L80.41,256.81L70.27,263.65L60.89,269.18L52.5,273.45L45.33,276.56L39.56,278.66L35.36,279.91L32.86,280.49L32.15,280.62L33.28,280.51L36.25,280.40L41.02,280.51L47.52,281.05L55.62,282.23L65.16,284.22L75.97,287.16L87.81,291.19L100.45,296.38L113.65,302.76L127.14,310.33L140.66,319.06L153.97,328.85L166.83,339.58L179.02,351.10L190.36,363.21L200.69,375.70L209.90,388.32L217.90,400.84L224.65,412.99L230.17,424.51L234.49,435.17L237.70,444.73L239.91,452.98L241.29,459.74L242.02,464.86L242.29,468.22L242.32,469.76L242.35,469.46L242.59,467.31L243.26,463.39L244.58,457.79L246.72,450.65L249.85,442.14L254.10,432.46L259.57,421.84L266.30,410.52L274.31,398.75L283.58,386.79L294.03,374.88L305.55,363.27L318.00,352.18L331.19,341.80L344.92,332.30L358.95,323.81L373.04,316.42L386.93,310.20L400.36,305.14L413.06,301.23L424.81,298.38L435.38,296.50L444.56,295.43L452.18,295.02L458.13,295.06L462.30,295.34L464.64,295.64L465.15,295.73L463.86,295.39L460.84,294.39L456.22,292.56L450.15,289.70L442.81,285.69L434.41,280.41L425.19,273.80L415.39,265.81L405.26,256.46L395.04,245.81L384.99,233.95L375.32,221.02L366.24,207.17L357.92,192.62L350.50,177.59L344.11,162.31L338.79,147.06L334.58,132.10L331.46,117.67L329.38,104.04L328.24,91.45L327.91,80.11L328.23,70.19L329.00,61.87L330.04,55.24L331.10,50.38L331.96,47.33L332.40,46.06L332.19,46.53L331.13,48.64L329.03,52.26L325.74,57.21L321.13,63.30L315.11,70.32L307.65,78.02L298.72,86.17L288.37,94.51L276.67,102.82L263.74,110.85L249.74,118.40L234.85,125.29L219.30,131.36L203.31,136.49L187.16,140.61L171.09,143.67L155.37,145.67L140.28,146.66L126.04,146.72L112.89,145.97L101.03,144.56L90.63,142.68L81.82,140.52L74.70,138.30L69.32,136.26L65.70,134.63L63.78,133.63L63.52,133.47L64.78,134.37L67.41,136.47L71.25,139.93L76.08,144.86L81.68,151.31L87.81,159.31L94.23,168.85L100.71,179.87L107,192.27L112.90,205.90L118.22,220.59L122.79,236.14L126.49,252.31L129.22,268.86L130.93,285.52L131.60,302.03L131.28,318.12L130.01,333.54L127.92,348.05L125.15,361.43L121.87,373.50L118.28,384.10L114.59,393.13L111.03,400.50L107.85,406.19L105.27,410.21L103.52,412.61L102.80,413.48L103.30,412.97L105.18,411.22L108.56,408.44L113.52,404.83L120.12,400.62L128.35,396.06L138.18,391.37L149.52,386.79L162.25,382.54L176.21,378.80L191.21,375.76L207.03,373.55L223.42,372.28L240.14,372.01L256.91,372.77L273.46,374.53L289.54,377.26L304.9,380.84L319.31,385.14L332.57,390.01L344.52,395.24L355.02,400.63L363.97,405.94L371.33,410.93L377.08,415.38L381.27,419.03L383.96,421.69L385.26,423.14L385.34,423.22L384.35,421.77L382.50,418.71L380.02,413.95L377.13,407.48L374.07,399.32L371.07,389.52L368.34,378.20L366.08,365.48L364.49,351.56L363.70,336.63L363.84,320.93L364.97,304.71L367.14,288.24L370.35,271.77L374.55,255.57L379.66,239.89L385.55,224.98L392.07,211.04L399.04,198.26L406.23,186.78L413.44,176.73L420.40,168.16L426.89,161.11L432.66,155.56L437.48,151.46L441.14,148.71L443.45,147.18L456.15,127.11L455.26,127.59L452.53,128.88L447.90,130.75L441.35,132.93L432.91,135.18L422.66,137.24L410.73,138.90L397.28,139.94L382.50,140.17L366.64,139.44L349.95,137.65L332.70,134.72L315.19,130.63L297.70,125.40L280.52,119.08L263.92,111.80L248.14,103.69L233.42,94.94L219.93,85.77L207.84,76.41L197.25,67.13L188.22,58.18L180.78,49.84L174.90,42.37L170.49,36.02L167.46,31.02L165.64,27.56L164.85,25.83L164.88,25.94L165.50,27.98L166.45,31.99L167.50,37.96L168.40,45.84L168.9,55.53L168.80,66.88L167.89,79.72L166.02,93.82L163.06,108.95L158.94,124.83L153.60,141.19L147.05,157.73L139.35,174.18L130.58,190.25L120.88,205.70L110.43,220.28L99.43,233.79L88.11,246.07L76.74,256.98L65.57,266.46L54.89,274.45L44.96,280.97L36.05,286.07L28.40,289.85L22.23,292.45L17.72,294.03L15.03,294.79L14.26,294.97L15.49,294.79L18.72,294.51L23.92,294.38L31.03,294.62L39.92,295.47L50.43,297.13L62.35,299.77L75.47,303.53L89.52,308.50L104.24,314.75L119.34,322.29L134.54,331.07L149.56,341.03L164.15,352.04L178.05,363.94L191.05,376.53L202.97,389.59L213.68,402.85L223.06,416.06L231.07,428.94L237.69,441.21L242.97,452.59L246.97,462.84L249.83,471.71L251.69,479.00L252.75,484.53L253.23,488.19L253.35,489.86L253.36,489.53L253.50,487.18L254.03,482.87L255.16,476.70L257.12,468.80L260.08,459.36L264.20,448.59L269.58,436.73L276.32,424.04L284.42,410.78L293.88,397.26L304.63,383.73L316.56,370.46L329.53,357.71L343.36,345.70L357.81,334.61L372.65,324.62L387.61,315.82L402.41,308.29L416.77,302.07L430.41,297.13L443.06,293.40L454.46,290.78L464.41,289.14L472.70,288.28L479.18,288.01L483.74,288.09L486.31,288.29L486.86,288.36L485.44,288.06L482.10,287.13L476.97,285.38L470.20,282.60L461.99,278.62L452.56,273.31L442.16,266.59L431.05,258.41L419.51,248.77L407.82,237.71L396.23,225.32L385.00,211.74L374.37,197.14L364.53,181.73L355.65,165.74L347.87,149.44L341.26,133.11L335.87,117.02L331.71,101.47L328.71,86.74L326.8,73.08L325.83,60.73L325.65,49.91L326.06,40.80L326.83,33.52L327.73,28.17L328.50,24.80L328.91,23.40L328.71,23.92L327.66,26.28L325.57,30.32L322.25,35.90L317.55,42.78L311.37,50.75L303.65,59.54L294.35,68.89L283.52,78.54L271.21,88.21L257.55,97.65L242.7,106.62L226.85,114.92L210.22,122.36L193.08,128.81L175.69,134.15L158.35,138.34L141.34,141.37L124.94,143.25L109.43,144.07L95.06,143.96L82.06,143.06L70.63,141.56L60.92,139.67L53.04,137.64L47.07,135.70L43.03,134.11L40.90,133.12L40.60,132.97L42.02,133.87L45.00,136.03L49.37,139.60L54.89,144.70L61.34,151.44L68.44,159.83L75.95,169.88L83.59,181.54L91.11,194.71L98.27,209.25L104.84,224.98L110.66,241.67L115.55,259.1L119.40,276.99L122.15,295.05L123.77,313.00L124.27,330.55L123.71,347.42L122.21,363.34L119.90,378.07L116.97,391.39L113.62,403.14L110.08,413.17L106.60,421.39L103.44,427.76L100.84,432.28L99.06,434.99L98.32,435.98L98.84,435.39L100.79,433.38L104.33,430.17L109.55,425.97L116.51,421.04L125.24,415.63L135.69,410.00L147.80,404.40L161.45,399.09L176.46,394.28L192.64,390.16L209.76,386.91L227.56,384.65L245.76,383.47L264.07,383.40L282.20,384.44L299.87,386.55L316.79,389.64L332.72,393.56L347.44,398.15L360.73,403.22L372.46,408.53L382.49,413.84L390.78,418.89L397.28,423.42L402.04,427.19L405.11,429.94L406.61,431.45L406.69,431.52L405.54,430.01L403.37,426.76L400.41,421.71L396.92,414.82L393.15,406.09L389.35,395.57L385.77,383.38L382.64,369.65L380.16,354.56L378.51,338.34L377.82,321.22L378.19,303.49L379.68,285.42L382.30,267.30L386.01,249.43L390.74,232.08L396.37,215.51L402.73,199.98L409.63,185.68L416.87,172.80L424.18,161.45L431.31,151.75L438.00,143.72L443.99,137.36L449.03,132.64L452.87,129.45L455.30,127.66"/>

  </g>

<style >
          path {

            stroke-dasharray: 19632;
            stroke-dashoffset: 19632;
            animation: draw 60s linear forwards;
          }
          
          @keyframes draw {
            from {
              stroke-dashoffset: 19632;
            }
          
            to {
              stroke-dashoffset: 0;
            }
          }

          @-webkit-keyframes draw {
              to {
                  stroke-dashoffset: 0;
              }
          }          
          </style>  
</svg>
