<?xml version="1.0" standalone="no"?>
<!DOCTYPE svg PUBLIC "-//W3C//DTD SVG 1.1//EN" "http://www.w3.org/Graphics/SVG/1.1/DTD/svg11.dtd">
<svg width="500" height="500" title="polygons" version="1.1" viewBox="0 0 500 500" xmlns="http://www.w3.org/2000/svg" class="svg-paper">
  <g>
    <!--  Created by Sandify -->
    <!--  https://sandify.org -->
    <!--  Version: 0.2.8 -->

    <!--  Machine type: Rectangular -->
    <!--    Min X (mm): 0 -->
    <!--    Max X (mm): 500 -->
    <!--    Min Y (mm): 0 -->
    <!--    Max Y (mm): 500 -->
    <!--  Content type: shape -->
    <!--  Layer: -->
    <!--    Shape: FileImport -->
    <!--    Name: wormhole.thr -->
    <!--    From file:: wormhole.thr -->
    <!--    Aspect Ratio: true -->
    <!--    Comments:  -->
    <!--    Visible: true -->
    <!--    Initial width: 9 -->
    <!--    Initial height: 9 -->
    <!--    X offset: 0 -->
    <!--    Y offset: 0 -->
    <!--    Rotate (degrees): 180 -->
    <!--    Reverse path: false -->
    <!--    Fine tuning: -->
    <!--      Connect to next layer: line -->
    <!--      Draw portion of path (%): 100 -->
    <!--      Backtrack at end (%): 0 -->
    <!--      Rotate starting point (%): 0 -->
    <!--  Reverse export path: false -->

    <!-- File name: 'wormhole' -->
    <!-- File type: svg -->


    <desc>pwidth:500;pheight:500;</desc>
    <path
       stroke="white"
       stroke-width="0.2mm"
       fill="black"
       d="M250,250L250,250L250.00,250.06L249.99,250.11L249.99,250.11L249.97,250.17L249.95,250.23L249.95,250.23L249.92,250.30L249.88,250.37L249.88,250.38L249.84,250.44L249.79,250.49L249.79,250.49L249.75,250.52L249.71,250.54L249.71,250.54L249.66,250.55L249.62,250.56L249.62,250.56L249.54,250.6L249.47,250.64L249.46,250.64L249.36,250.69L249.25,250.74L249.24,250.74L249.15,250.75L249.06,250.75L249.06,250.75L249.02,250.70L248.99,250.65L248.98,250.65L248.94,250.61L248.90,250.56L248.90,250.56L248.78,250.55L248.66,250.52L248.65,250.52L248.50,250.50L248.34,250.46L248.33,250.46L248.25,250.39L248.18,250.32L248.17,250.31L248.19,250.22L248.21,250.13L248.21,250.13L248.21,250.04L248.2,249.95L248.2,249.95L248.07,249.85L247.95,249.74L247.95,249.73L247.80,249.60L247.66,249.46L247.65,249.45L247.64,249.33L247.64,249.20L247.64,249.19L247.74,249.10L247.85,249.02L247.85,249.02L247.9,248.91L247.95,248.81L247.96,248.80L247.88,248.61L247.81,248.41L247.81,248.40L247.74,248.18L247.70,247.95L247.69,247.94L247.79,247.82L247.88,247.70L247.89,247.69L248.07,247.67L248.25,247.66L248.25,247.66L248.36,247.57L248.48,247.48L248.48,247.48L248.51,247.22L248.56,246.97L248.56,246.96L248.64,246.70L248.73,246.45L248.74,246.44L248.92,246.40L249.10,246.37L249.10,246.37L249.31,246.46L249.50,246.56L249.51,246.56L249.68,246.51L249.85,246.47L249.85,246.47L250.03,246.22L250.23,245.98L250.24,245.97L250.46,245.78L250.69,245.61L250.70,245.60L250.91,245.70L251.10,245.8L251.11,245.80L251.26,246.01L251.40,246.23L251.41,246.24L251.61,246.26L251.82,246.29L251.83,246.30L252.15,246.14L252.49,246.00L252.50,245.99L252.81,245.96L253.13,245.94L253.14,245.94L253.27,246.18L253.38,246.42L253.39,246.43L253.43,246.72L253.45,247.01L253.45,247.02L253.66,247.14L253.87,247.27L253.88,247.27L254.29,247.29L254.71,247.34L254.72,247.34L255.01,247.50L255.30,247.67L255.31,247.68L255.28,247.99L255.22,248.30L255.22,248.31L255.11,248.62L254.99,248.91L254.98,248.93L255.16,249.15L255.33,249.39L255.34,249.40L255.73,249.64L256.11,249.91L256.12,249.92L256.28,250.23L256.42,250.55L256.43,250.56L256.19,250.85L255.94,251.12L255.93,251.13L255.68,251.37L255.42,251.59L255.41,251.6L255.50,251.93L255.57,252.26L255.57,252.28L255.82,252.72L256.03,253.18L256.04,253.20L255.98,253.56L255.91,253.92L255.90,253.93L255.50,254.07L255.10,254.17L255.08,254.17L254.73,254.29L254.38,254.38L254.37,254.39L254.31,254.78L254.22,255.17L254.22,255.19L254.21,255.73L254.16,256.28L254.16,256.30L253.88,256.57L253.60,256.82L253.59,256.83L253.12,256.73L252.67,256.59L252.65,256.58L252.27,256.54L251.9,256.48L251.89,256.48L251.64,256.86L251.35,257.23L251.34,257.25L251.04,257.74L250.7,258.22L250.69,258.24L250.28,258.29L249.88,258.32L249.86,258.32L249.47,257.96L249.13,257.57L249.11,257.56L248.77,257.37L248.44,257.16L248.43,257.15L247.98,257.42L247.50,257.66L247.49,257.67L246.95,257.95L246.39,258.20L246.37,258.21L245.98,257.99L245.61,257.76L245.60,257.75L245.43,257.19L245.31,256.64L245.31,256.62L245.05,256.30L244.81,255.97L244.81,255.96L244.22,256.01L243.62,256.01L243.59,256.01L242.97,255.98L242.34,255.90L242.31,255.89L242.12,255.45L241.94,255.00L241.94,254.99L242.07,254.38L242.25,253.8L242.26,253.78L242.13,253.37L242.02,252.97L242.02,252.95L241.41,252.70L240.81,252.40L240.79,252.39L240.26,252.02L239.76,251.61L239.74,251.59L239.85,251.07L239.98,250.56L239.99,250.54L240.42,250.05L240.88,249.60L240.90,249.58L240.92,249.13L240.96,248.69L240.96,248.67L240.50,248.12L240.06,247.52L240.05,247.50L239.80,246.9L239.59,246.27L239.59,246.25L240.02,245.84L240.46,245.46L240.48,245.45L241.12,245.21L241.76,245.01L241.78,245.01L241.97,244.56L242.18,244.13L242.19,244.11L242.02,243.35L241.91,242.55L241.91,242.52L242.04,241.88L242.21,241.24L242.22,241.21L242.87,241.10L243.50,241.03L243.53,241.03L244.23,241.11L244.91,241.24L244.93,241.24L245.29,240.86L245.68,240.50L245.69,240.48L245.93,239.67L246.23,238.87L246.24,238.84L246.71,238.38L247.22,237.94L247.24,237.92L247.91,238.20L248.54,238.52L248.56,238.54L249.16,238.93L249.72,239.35L249.74,239.37L250.26,239.12L250.82,238.90L250.84,238.90L251.47,238.26L252.16,237.67L252.19,237.65L252.84,237.54L253.51,237.47L253.54,237.47L253.99,238.12L254.40,238.78L254.41,238.81L254.78,239.43L255.09,240.05L255.11,240.08L255.76,240.05L256.42,240.06L256.45,240.06L257.35,239.80L258.29,239.62L258.32,239.61L258.92,239.92L259.51,240.25L259.54,240.27L259.59,241.13L259.59,241.96L259.59,242.00L259.66,242.71L259.69,243.41L259.69,243.44L260.37,243.69L261.05,244.00L261.07,244.02L262.01,244.25L262.95,244.56L262.99,244.58L263.30,245.20L263.58,245.84L263.59,245.86L263.18,246.69L262.71,247.46L262.70,247.49L262.48,248.16L262.22,248.81L262.21,248.83L262.78,249.41L263.32,250.03L263.34,250.06L264.05,250.75L264.72,251.52L264.75,251.55L264.62,252.26L264.46,252.97L264.45,253.00L263.64,253.53L262.81,254.00L262.77,254.01L262.31,254.54L261.83,255.04L261.81,255.06L262.11,255.90L262.35,256.79L262.36,256.82L262.62,257.80L262.81,258.81L262.81,258.85L262.25,259.38L261.67,259.88L261.65,259.90L260.63,259.97L259.63,259.97L259.59,259.97L258.97,260.29L258.34,260.57L258.32,260.58L258.20,261.56L258.01,262.54L258,262.58L257.71,263.55L257.34,264.52L257.33,264.56L256.50,264.67L255.69,264.74L255.66,264.75L254.69,264.30L253.79,263.79L253.76,263.77L253.06,263.86L252.36,263.90L252.33,263.90L251.74,264.79L251.07,265.65L251.04,265.68L250.28,266.34L249.46,266.97L249.43,266.99L248.63,266.59L247.86,266.14L247.83,266.13L247.18,265.25L246.61,264.36L246.59,264.33L245.89,264.16L245.19,263.96L245.16,263.95L244.16,264.50L243.09,264.99L243.05,265.00L242.06,265.14L241.04,265.22L241.00,265.23L240.53,264.37L240.11,263.51L240.10,263.48L239.92,262.39L239.83,261.32L239.83,261.28L239.20,260.86L238.58,260.41L238.56,260.39L237.34,260.41L236.10,260.33L236.05,260.32L235.16,259.90L234.27,259.40L234.24,259.38L234.31,258.33L234.45,257.30L234.45,257.26L234.80,256.22L235.21,255.22L235.22,255.18L234.74,254.52L234.29,253.83L234.27,253.80L233.14,253.21L232.03,252.51L231.99,252.49L231.50,251.63L231.06,250.74L231.04,250.71L231.72,249.78L232.43,248.93L232.46,248.90L233.23,248.12L234.03,247.41L234.06,247.38L233.83,246.52L233.65,245.63L233.64,245.60L232.91,244.49L232.26,243.30L232.23,243.25L232.33,242.28L232.48,241.30L232.49,241.26L233.62,240.80L234.76,240.42L234.80,240.41L235.81,240.04L236.82,239.75L236.86,239.74L236.99,238.77L237.18,237.79L237.19,237.76L237.10,236.39L237.11,235.00L237.11,234.94L237.77,234.21L238.47,233.5L238.50,233.48L239.79,233.67L241.02,233.94L241.07,233.95L242.12,234.04L243.13,234.19L243.17,234.2L243.73,233.28L244.36,232.38L244.38,232.34L244.99,231.10L245.71,229.87L245.74,229.82L246.74,229.62L247.74,229.46L247.77,229.46L248.84,230.31L249.82,231.22L249.85,231.25L250.75,231.74L251.60,232.27L251.63,232.29L252.61,231.63L253.66,231.02L253.69,231.00L254.86,230.22L256.12,229.52L256.16,229.50L257.12,229.94L258.05,230.42L258.09,230.44L258.61,231.77L259.02,233.09L259.04,233.14L259.67,233.92L260.24,234.71L260.26,234.74L261.53,234.55L262.85,234.44L262.90,234.44L264.30,234.38L265.73,234.42L265.78,234.43L266.33,235.40L266.82,236.38L266.83,236.42L266.64,237.88L266.35,239.28L266.33,239.33L266.63,240.26L266.88,241.20L266.89,241.23L268.21,241.65L269.54,242.18L269.58,242.21L270.80,242.88L271.98,243.67L272.03,243.70L271.90,244.88L271.72,246.03L271.71,246.08L270.83,247.28L269.88,248.40L269.84,248.44L269.80,249.41L269.71,250.38L269.70,250.42L270.76,251.46L271.76,252.61L271.80,252.66L272.44,253.86L273.02,255.13L273.05,255.18L272.22,256.16L271.35,257.06L271.32,257.10L269.96,257.75L268.59,258.29L268.54,258.31L268.15,259.23L267.73,260.14L267.71,260.17L268.19,261.67L268.56,263.24L268.58,263.30L268.46,264.64L268.25,265.99L268.25,266.04L266.93,266.43L265.62,266.72L265.57,266.73L264.06,266.68L262.60,266.52L262.54,266.51L261.84,267.29L261.09,268.03L261.06,268.06L260.76,269.68L260.33,271.32L260.31,271.38L259.48,272.4L258.57,273.39L258.54,273.43L257.13,273.01L255.78,272.51L255.73,272.49L254.42,271.77L253.2,270.98L253.16,270.95L252.16,271.46L251.13,271.92L251.09,271.93L250.01,273.26L248.81,274.54L248.76,274.59L247.51,274.94L246.22,275.24L246.17,275.25L245.13,274.07L244.20,272.86L244.16,272.81L243.32,271.62L242.59,270.39L242.56,270.35L241.36,270.46L240.13,270.51L240.08,270.51L238.45,271.17L236.73,271.71L236.66,271.73L235.45,271.29L234.24,270.79L234.20,270.77L233.90,269.13L233.72,267.52L233.72,267.46L233.48,266.06L233.34,264.68L233.33,264.63L232.07,264.24L230.81,263.76L230.77,263.74L228.99,263.50L227.20,263.12L227.13,263.10L226.40,262.02L225.73,260.90L225.70,260.86L226.31,259.22L227.01,257.67L227.04,257.62L227.39,256.29L227.81,255.01L227.82,254.97L226.74,254.02L225.70,252.98L225.66,252.94L224.23,251.84L222.86,250.60L222.81,250.55L222.87,249.22L222.99,247.89L223.00,247.84L224.39,246.68L225.84,245.66L225.89,245.62L226.70,244.57L227.56,243.60L227.59,243.56L226.95,242.14L226.40,240.63L226.39,240.58L225.72,238.90L225.17,237.14L225.15,237.07L226.02,235.99L226.93,234.96L226.97,234.92L228.81,234.59L230.63,234.40L230.69,234.40L231.80,233.75L232.93,233.18L232.97,233.16L233.02,231.48L233.19,229.76L233.20,229.69L233.50,227.94L233.94,226.16L233.96,226.10L235.37,225.7L236.78,225.38L236.83,225.37L238.64,225.99L240.35,226.72L240.41,226.75L241.65,226.55L242.89,226.42L242.93,226.41L243.78,224.82L244.78,223.26L244.81,223.20L245.98,221.89L247.26,220.63L247.31,220.59L248.78,221.10L250.2,221.69L250.25,221.71L251.56,223.12L252.73,224.60L252.77,224.65L254,224.89L255.21,225.19L255.26,225.21L256.83,224.12L258.52,223.12L258.59,223.09L260.24,222.63L261.96,222.26L262.02,222.25L263.02,223.59L263.91,224.95L263.94,225.00L264.44,226.87L264.79,228.71L264.80,228.78L265.89,229.44L266.96,230.15L267.00,230.18L268.99,229.94L271.05,229.84L271.13,229.84L272.72,230.36L274.32,230.98L274.38,231.01L274.48,232.79L274.48,234.52L274.48,234.59L274.07,236.45L273.54,238.23L273.51,238.30L274.36,239.33L275.15,240.43L275.18,240.47L277.13,241.23L279.06,242.15L279.13,242.19L280.13,243.49L281.07,244.87L281.10,244.92L280.19,246.58L279.19,248.14L279.15,248.19L277.97,249.64L276.73,250.97L276.68,251.02L277.12,252.37L277.50,253.77L277.51,253.82L278.89,255.47L280.17,257.26L280.22,257.34L280.29,258.94L280.27,260.58L280.26,260.64L278.52,261.63L276.75,262.47L276.69,262.50L275.04,263.27L273.39,263.90L273.33,263.92L273.23,265.46L273.04,267.02L273.03,267.08L273.43,269.23L273.68,271.46L273.69,271.55L272.8,272.88L271.84,274.18L271.80,274.23L269.70,274.18L267.65,273.98L267.57,273.97L265.83,273.97L264.12,273.85L264.06,273.85L263.31,275.34L262.44,276.81L262.41,276.87L261.69,278.96L260.79,281.04L260.75,281.12L259.23,281.67L257.68,282.16L257.62,282.17L255.76,281.01L254.03,279.76L253.97,279.71L252.43,279.02L250.97,278.26L250.92,278.23L249.52,279.37L248.00,280.45L247.94,280.49L246.27,281.93L244.44,283.27L244.37,283.32L242.78,282.85L241.21,282.31L241.16,282.29L240.08,280.30L239.18,278.28L239.15,278.21L238.05,277.03L237.04,275.81L237.00,275.76L235.10,276.24L233.13,276.59L233.05,276.60L230.89,276.97L228.66,277.19L228.57,277.20L227.51,275.83L226.53,274.42L226.50,274.37L226.54,272.05L226.74,269.80L226.75,269.72L226.19,268.27L225.71,266.81L225.69,266.75L223.64,266.32L221.57,265.73L221.50,265.70L219.49,264.90L217.50,263.94L217.43,263.90L217.35,262.08L217.38,260.28L217.38,260.22L218.54,258.18L219.82,256.28L219.87,256.22L219.86,254.69L219.92,253.18L219.92,253.12L218.18,251.73L216.50,250.18L216.44,250.12L215.2,248.41L214.05,246.59L214.01,246.51L215.04,244.87L216.15,243.32L216.19,243.27L218.18,242.02L220.21,240.96L220.29,240.92L220.80,239.49L221.37,238.07L221.40,238.02L220.44,235.88L219.62,233.61L219.59,233.53L219.49,231.48L219.51,229.38L219.51,229.30L221.40,228.45L223.29,227.74L223.36,227.72L225.69,227.55L227.96,227.55L228.04,227.55L229.03,226.34L230.09,225.18L230.13,225.13L230.29,222.69L230.64,220.20L230.66,220.11L231.68,218.39L232.83,216.71L232.88,216.64L235.05,216.98L237.15,217.45L237.22,217.47L239.33,218.36L241.32,219.37L241.39,219.41L242.80,218.58L244.27,217.81L244.33,217.79L245.68,215.64L247.22,213.56L247.28,213.49L249.06,212.68L250.91,211.96L250.98,211.94L252.74,213.46L254.35,215.06L254.41,215.12L255.86,216.81L257.16,218.55L257.21,218.62L258.93,218.33L260.70,218.14L260.76,218.14L263.03,216.89L265.44,215.79L265.53,215.75L267.42,216.12L269.30,216.59L269.37,216.61L270.12,218.94L270.68,221.26L270.70,221.35L271.26,223.43L271.67,225.49L271.68,225.56L273.52,225.98L275.36,226.52L275.43,226.54L278.05,226.57L280.72,226.80L280.82,226.81L282.13,228.21L283.36,229.69L283.41,229.74L282.83,232.24L282.10,234.62L282.07,234.70L281.72,236.74L281.25,238.70L281.23,238.77L282.88,239.97L284.48,241.31L284.54,241.36L286.80,242.69L289.01,244.23L289.09,244.29L289.31,246.22L289.44,248.15L289.44,248.22L287.63,250.15L285.73,251.9L285.65,251.96L284.57,253.61L283.41,255.16L283.37,255.21L284.45,257.13L285.42,259.16L285.45,259.24L286.72,261.52L287.85,263.95L287.88,264.04L286.89,265.77L285.82,267.44L285.78,267.50L283.19,268.31L280.61,268.90L280.51,268.92L278.95,269.98L277.35,270.93L277.29,270.96L277.46,273.32L277.46,275.74L277.46,275.84L277.37,278.41L277.09,281.03L277.07,281.13L275.17,281.99L273.26,282.74L273.19,282.76L270.49,282.19L267.90,281.44L267.81,281.41L266.03,281.81L264.25,282.11L264.19,282.12L263.24,284.46L262.09,286.78L262.05,286.86L260.65,288.96L259.07,291.00L259.00,291.07L256.85,290.66L254.75,290.14L254.67,290.12L252.56,288.32L250.64,286.41L250.58,286.34L248.8,286.10L247.05,285.77L246.98,285.75L244.97,287.50L242.78,289.14L242.70,289.20L240.45,290.18L238.09,291.04L238.00,291.07L236.35,289.42L234.84,287.71L234.78,287.65L233.78,285.07L232.98,282.50L232.96,282.40L231.37,281.57L229.81,280.65L229.76,280.62L227.04,281.27L224.22,281.73L224.11,281.74L221.76,281.35L219.39,280.80L219.31,280.77L218.81,278.34L218.47,275.94L218.46,275.85L218.75,273.15L219.23,270.53L219.25,270.44L218.00,269.07L216.81,267.64L216.77,267.58L213.97,266.86L211.16,265.89L211.06,265.86L209.39,264.25L207.78,262.53L207.72,262.46L208.66,260.01L209.74,257.68L209.78,257.60L211.23,255.37L212.80,253.3L212.86,253.23L212.13,251.42L211.49,249.56L211.46,249.49L209.30,247.46L207.24,245.21L207.16,245.12L206.72,242.91L206.40,240.64L206.39,240.55L208.60,238.88L210.86,237.40L210.94,237.35L213.16,236.03L215.40,234.90L215.49,234.86L215.46,232.78L215.55,230.66L215.56,230.58L214.64,227.71L213.92,224.70L213.89,224.58L214.82,222.56L215.86,220.56L215.90,220.49L218.78,220.18L221.61,220.09L221.71,220.09L224.18,219.86L226.59,219.79L226.68,219.79L227.51,217.71L228.49,215.64L228.53,215.56L229.15,212.59L230.02,209.59L230.05,209.48L232.00,208.40L234.00,207.40L234.08,207.37L236.82,208.62L239.40,210.03L239.49,210.08L241.72,210.85L243.85,211.74L243.93,211.78L245.66,210.08L247.53,208.46L247.61,208.40L249.63,206.15L251.87,204.00L251.96,203.92L254.21,204.2L256.43,204.59L256.51,204.61L258.32,207.13L259.89,209.72L259.94,209.81L261.61,211.33L263.15,212.92L263.20,212.98L265.65,212.09L268.22,211.36L268.32,211.34L271.18,210.44L274.17,209.74L274.29,209.72L275.99,211.32L277.59,213.00L277.65,213.06L277.98,216.20L278.08,219.29L278.08,219.40L279.01,221.35L279.81,223.31L279.84,223.38L282.62,223.67L285.43,224.16L285.54,224.18L288.39,224.89L291.26,225.82L291.36,225.86L291.83,228.26L292.17,230.65L292.18,230.74L290.94,233.69L289.52,236.46L289.46,236.56L289.63,238.64L289.68,240.70L289.68,240.78L292.18,242.36L294.62,244.16L294.71,244.23L296.70,246.29L298.60,248.54L298.67,248.62L297.63,250.99L296.47,253.25L296.43,253.34L293.93,255.33L291.36,257.10L291.26,257.16L290.71,259.14L290.06,261.08L290.03,261.15L291.62,263.83L293.04,266.69L293.08,266.80L293.63,269.52L294.00,272.35L294.01,272.45L291.70,273.92L289.34,275.21L289.25,275.25L286.15,275.85L283.08,276.20L282.97,276.21L281.76,277.90L280.48,279.54L280.43,279.60L280.59,282.84L280.51,286.16L280.50,286.28L279.48,288.77L278.28,291.25L278.23,291.34L275.32,291.30L272.49,291.08L272.39,291.07L269.41,290.19L266.58,289.12L266.48,289.07L264.71,290.30L262.86,291.44L262.79,291.48L261.32,294.32L261.20,294.53L259.60,297.58L257.41,299.01L255.10,300.34L255.01,300.39L252.44,298.71L250.04,296.91L249.96,296.84L247.76,294.78L245.76,292.62L245.69,292.54L243.49,293.09L241.22,293.52L241.13,293.53L238.42,295.35L238.21,295.48L235.28,297.43L232.72,297.33L230.14,297.09L230.05,297.08L228.67,294.17L227.52,291.24L227.48,291.13L226.45,288.42L225.62,285.71L225.59,285.61L223.18,285.28L220.75,284.80L220.66,284.78L217.36,285.04L217.11,285.05L213.57,285.32L211.58,283.75L209.66,282.08L209.59,282.01L210.03,278.67L210.45,275.53L210.49,275.32L210.68,272.56L211.06,269.87L211.07,269.77L208.82,268.43L206.61,266.92L206.53,266.86L203.53,265.44L203.31,265.33L200.09,263.81L199.42,261.36L198.86,258.87L198.84,258.78L200.99,256.03L202.99,253.45L203.14,253.28L204.38,250.95L205.75,248.75L205.80,248.67L204.17,246.37L202.67,243.90L202.61,243.80L200.74,241.08L200.62,240.88L198.63,237.97L199.55,235.54L200.59,233.17L200.63,233.09L203.94,231.74L207.03,230.47L207.25,230.39L209.21,228.81L211.22,227.37L211.29,227.32L210.76,224.34L210.43,221.25L210.42,221.14L210.21,217.88L210.21,217.67L210.00,214.19L212.25,212.72L214.56,211.38L214.64,211.33L218.24,211.78L221.60,212.19L221.84,212.23L224.14,211.52L226.45,210.94L226.53,210.92L227.41,207.81L228.53,204.71L228.58,204.59L230.08,201.76L230.18,201.59L231.77,198.59L234.60,198.70L237.37,198.96L237.47,198.97L240.42,201.10L243.18,203.09L243.37,203.24L245.71,203.38L248.03,203.63L248.11,203.65L250.41,201.31L250.58,201.15L253.04,198.65L255.77,196.97L258.66,195.43L258.77,195.38L261.17,197.16L263.42,199.04L263.50,199.12L265.08,202.38L266.56,205.42L266.66,205.63L268.80,206.56L270.88,207.58L270.95,207.62L274.20,206.56L274.45,206.49L277.94,205.36L281.04,205.43L284.20,205.70L284.31,205.72L285.38,208.69L286.25,211.67L286.27,211.78L286.16,215.35L286.07,218.68L286.05,218.91L287.78,220.53L289.43,222.24L289.49,222.31L292.98,222.91L293.24,222.96L296.99,223.62L299.43,225.36L301.82,227.27L301.91,227.34L301.16,230.60L300.21,233.73L300.17,233.84L298.49,236.89L296.93,239.76L296.81,239.94L297.92,242.14L298.92,244.43L298.96,244.51L301.81,246.76L302.02,246.94L305.07,249.36L306.07,252.10L306.92,254.94L306.95,255.05L304.36,257.46L301.92,259.74L301.77,259.87L299.09,261.88L296.34,263.66L296.24,263.72L296.50,266.32L296.61,268.97L296.61,269.07L298.04,272.47L298.14,272.73L299.67,276.39L298.89,279.14L297.97,281.88L297.93,281.98L294.30,282.72L290.90,283.43L290.68,283.47L287.53,284.09L284.42,284.50L284.3,284.51L283.51,287.19L282.53,289.88L282.49,289.98L282.06,293.67L282.02,293.94L281.55,297.90L279.32,299.66L276.99,301.31L276.90,301.37L273.27,300.11L269.87,298.93L269.64,298.84L266.67,298.13L263.80,297.25L263.7,297.22L261.77,299.53L259.65,301.77L259.56,301.85L257.35,304.83L257.19,305.04L254.81,308.22L251.94,308.31L249.08,308.26L248.97,308.26L246.4,305.26L243.99,302.47L243.82,302.26L241.50,300.51L239.34,298.65L239.26,298.59L236.34,299.99L233.26,301.23L233.15,301.27L229.76,302.70L229.52,302.79L225.90,304.31L223.47,302.65L221.15,300.88L221.07,300.81L220.30,296.86L219.56,293.17L219.52,292.91L218.12,290.52L216.87,288.09L216.83,288.00L213.49,287.91L213.26,287.89L209.70,287.79L206.12,287.27L205.89,287.23L202.07,286.68L201.04,283.79L200.17,280.90L200.14,280.79L201.40,276.93L202.56,273.31L202.65,273.06L202.23,270.43L201.95,267.81L201.95,267.72L198.82,266.06L198.60,265.94L195.26,264.16L192.55,261.89L192.39,261.75L189.52,259.34L190.37,256.23L191.37,253.23L191.41,253.12L194.36,250.33L197.11,247.71L197.32,247.53L197.82,244.98L198.45,242.48L198.48,242.38L196.34,239.35L196.20,239.13L193.91,235.87L192.87,232.59L192.82,232.41L191.73,228.94L194.40,226.79L196.95,224.73L197.07,224.64L200.95,223.58L204.58,222.57L204.84,222.51L206.18,220.28L207.63,218.12L207.68,218.04L207.17,214.23L207.14,213.94L206.60,209.83L207.51,206.61L207.56,206.46L208.52,203.08L212.12,202.74L215.55,202.41L215.73,202.40L219.59,203.22L223.20,203.99L223.44,204.05L225.51,202.37L227.68,200.78L227.76,200.73L229.15,197.01L229.26,196.73L230.77,192.73L233.25,190.64L233.36,190.56L235.96,188.38L239.35,190.12L242.57,191.76L242.75,191.86L245.74,194.26L248.54,196.52L248.72,196.67L251.36,195.78L254.08,195.02L254.19,194.99L257.25,192.34L257.49,192.14L260.79,189.30L263.98,188.93L267.23,188.73L267.35,188.72L269.42,192.15L271.37,195.38L271.48,195.58L273.04,198.93L274.52,202.07L274.60,202.27L277.57,202.41L280.58,202.73L280.69,202.74L284.70,201.90L285.01,201.85L289.33,200.97L292.08,202.51L294.78,204.2L294.88,204.27L294.87,208.44L294.88,212.35L294.87,212.60L294.85,216.13L294.85,219.47L294.84,219.66L297.72,221.02L300.57,222.59L300.68,222.65L304.59,223.91L304.88,224.02L309.08,225.38L310.39,228.25L311.55,231.18L311.59,231.29L309.40,235.00L307.36,238.48L307.21,238.71L305.93,241.79L304.49,244.72L304.43,244.82L306.54,247.41L306.65,247.56L308.87,250.30L311.61,253.34L311.80,253.57L314.73,256.83L314.07,259.96L313.26,263.04L313.23,263.15L309.39,265.32L305.80,267.36L305.54,267.50L303.27,269.70L300.92,271.73L300.83,271.80L301.71,275.25L301.76,275.47L302.68,279.13L303.48,283.10L303.52,283.37L304.36,287.60L301.91,289.81L299.37,291.87L299.28,291.94L294.8,291.94L290.62,291.96L290.32,291.95L287.53,293.08L284.72,294.05L284.61,294.08L283.86,297.78L283.80,298.02L282.99,301.97L281.63,305.69L281.54,305.92L280.09,309.88L276.63,310.18L276.62,310.18L273.28,310.47L273.16,310.48L269.22,308.31L265.54,306.29L265.27,306.14L262.37,306.19L259.49,306.10L259.38,306.10L256.94,309.23L256.75,309.44L254.13,312.79L251.08,315.17L250.90,315.30L247.67,317.81L244.5,315.99L241.46,314.24L241.33,314.17L238.91,310.40L236.63,306.89L236.48,306.63L233.78,305.70L231.13,304.64L231.03,304.60L227.27,306.35L226.99,306.46L222.95,308.32L219.21,308.66L219.01,308.67L215.08,309.02L213.37,305.56L211.74,302.26L211.67,302.10L211.29,297.7L210.93,293.59L210.91,293.30L208.66,291.50L206.5,289.59L206.42,289.51L202.14,289.30L201.81,289.27L197.21,289.02L194.00,287.28L193.86,287.20L190.51,285.38L191.00,281.34L191.46,277.5L191.49,277.30L193.12,273.31L194.65,269.57L194.76,269.32L193.21,266.79L191.79,264.14L191.74,264.04L187.97,261.76L187.69,261.58L183.65,259.11L182.03,255.96L181.97,255.83L180.30,252.54L183.01,249.23L185.55,246.09L185.71,245.91L188.85,243.17L191.79,240.59L191.99,240.43L191.41,237.35L191.00,234.20L190.99,234.08L188.75,230.20L188.59,229.90L186.19,225.73L186.69,222.29L186.72,222.18L187.23,218.64L187.23,218.63L191.45,217.15L195.43,215.75L195.68,215.68L199.53,214.62L203.17,213.61L203.39,213.56L204.12,210.36L204.16,210.21L204.93,206.87L204.88,202.35L204.89,202.02L204.84,197.17L207.24,194.70L207.31,194.64L209.74,192.14L209.77,192.11L214.32,193.05L218.58,193.91L218.86,193.98L222.62,194.61L226.18,195.21L226.38,195.25L228.44,192.41L228.55,192.26L230.73,189.28L232.92,185.34L233.09,185.06L235.45,180.84L238.87,180.27L238.94,180.26L242.36,179.70L242.43,179.69L245.98,182.88L249.31,185.86L249.53,186.07L252.55,188.06L255.44,189.96L255.57,190.05L258.82,188.19L259.02,188.09L262.46,186.13L266.31,183.85L266.58,183.71L270.70,181.29L273.87,182.89L273.91,182.91L277.04,184.50L277.11,184.54L278.64,189.17L280.09,193.48L280.18,193.79L282.09,196.64L283.94,199.38L284.01,199.50L287.98,199.18L288.23,199.17L292.46,198.84L296.86,198.87L297.14,198.88L301.83,198.92L303.51,202.20L303.52,202.22L305.16,205.42L305.21,205.52L304.28,210.36L303.43,214.87L303.35,215.19L304.13,218.35L304.74,221.51L304.76,221.62L308.67,223.16L308.94,223.27L313.12,224.93L316.77,227.20L316.99,227.35L320.85,229.77L320.30,233.61L319.77,237.30L319.75,237.44L316.61,241.24L313.69,244.78L313.47,245.03L313.10,248.17L312.57,251.25L312.55,251.37L315.50,254.66L315.70,254.90L318.84,258.43L320.66,262.20L320.75,262.41L322.67,266.39L319.9,269.39L317.26,272.26L317.13,272.39L312.62,274.23L308.40,275.96L308.10,276.07L306.70,278.87L305.17,281.59L305.11,281.69L306.25,286.13L306.32,286.46L307.54,291.24L307.02,295.26L306.99,295.46L306.44,299.68L302.26,300.70L298.28,301.68L298.08,301.72L293.31,301.27L288.85,300.86L288.55,300.81L286.25,303.00L283.83,305.09L283.74,305.16L282.64,309.76L282.54,310.11L281.34,315.05L278.74,318.01L278.62,318.13L275.91,321.21L271.63,319.73L267.57,318.33L267.35,318.25L263.42,315.75L259.73,313.42L259.49,313.26L256.46,314.48L256.36,314.52L253.24,315.77L253.22,315.77L249.99,319.37L249.73,319.63L246.25,323.49L242.53,324.41L242.39,324.44L238.53,325.39L238.53,325.39L235.54,321.69L232.72,318.21L232.56,318.00L230.23,314.16L228.04,310.56L227.91,310.33L224.47,310.38L224.32,310.37L220.74,310.41L216.11,312.01L215.76,312.12L210.78,313.82L207.28,312.43L207.17,312.38L203.59,310.96L203.57,310.95L202.91,306.04L202.29,301.44L202.26,301.14L201.83,296.88L201.41,292.85L201.40,292.61L197.99,291.26L197.83,291.19L194.26,289.77L189.43,288.88L189.07,288.80L183.89,287.83L181.89,284.66L181.84,284.58L179.83,281.38L179.8,281.33L181.80,276.62L183.67,272.21L183.81,271.92L185.12,268.06L186.36,264.39L186.43,264.20L183.67,261.43L183.52,261.27L180.62,258.35L176.89,255.18L176.64,254.94L172.66,251.53L172.93,247.74L172.94,247.68L173.22,243.91L173.22,243.83L177.42,240.68L181.34,237.74L181.62,237.54L184.22,234.68L186.69,231.94L186.81,231.81L185.37,227.91L185.28,227.67L183.76,223.52L182.18,218.95L182.09,218.64L180.42,213.75L182.95,210.78L182.98,210.75L185.47,207.83L185.54,207.75L190.82,207.07L195.75,206.43L196.10,206.40L199.43,204.82L202.62,203.29L202.75,203.23L203.14,198.83L203.18,198.55L203.61,193.86L204.61,189.23L204.68,188.93L205.75,184.00L209.72,183.03L209.73,183.03L213.57,182.08L213.70,182.05L218.68,184.04L223.33,185.88L223.66,186.02L227.17,185.76L227.18,185.76L230.60,185.50L230.71,185.49L233.13,181.52L233.31,181.25L235.92,177.01L239.13,173.69L239.32,173.50L242.73,169.98L246.73,171.53L250.57,173.02L250.72,173.08L254.13,177.19L257.33,181.01L257.55,181.30L260.83,182.23L260.87,182.25L264.12,183.17L264.20,183.19L268.34,180.65L268.64,180.48L273.09,177.76L277.46,176.72L277.69,176.67L282.29,175.58L284.86,179.29L287.31,182.84L287.42,183.01L288.49,188.17L289.50,192.98L289.56,193.32L292.32,195.30L292.37,195.34L295.14,197.33L295.19,197.36L300.21,197.01L300.58,197.00L305.98,196.64L310.07,198.13L310.26,198.20L314.54,199.76L314.65,204.52L314.76,209.04L314.76,209.27L313.36,214.23L312.07,218.87L311.97,219.19L313.93,222.04L313.98,222.12L315.98,225.03L315.99,225.05L320.71,227.17L321.06,227.34L326.13,229.63L328.59,233.06L328.69,233.20L331.25,236.77L328.67,241.05L326.22,245.09L326.08,245.32L322.71,249.00L319.56,252.46L319.35,252.68L320.21,256.17L320.24,256.30L321.14,259.92L321.14,259.92L324.32,264.11L324.54,264.44L327.95,268.96L328.00,273.08L328.00,273.22L328.04,277.47L328.04,277.48L323.39,279.86L319.01,282.11L318.74,282.24L314.28,284.00L310.09,285.66L309.83,285.75L309.33,289.52L309.30,289.69L308.76,293.62L309.50,298.88L309.55,299.27L310.32,304.92L307.99,308.25L307.92,308.34L305.53,311.72L305.51,311.75L300.10,311.38L295.01,311.03L294.68,311.00L290.13,310.71L285.82,310.44L285.58,310.42L283.53,313.91L283.42,314.09L281.26,317.76L279.3,322.69L279.14,323.05L277.03,328.34L273.17,329.63L273.09,329.66L269.22,330.96L269.15,330.98L264.54,327.82L260.22,324.87L259.93,324.66L256.10,322.64L252.46,320.72L252.28,320.62L248.77,323.14L248.56,323.28L244.85,325.94L240.70,329.19L240.41,329.41L235.96,332.88L232.02,331.62L231.97,331.60L228.06,330.35L227.97,330.31L225.49,325.17L223.17,320.37L223.02,320.02L220.43,316.84L217.95,313.80L217.84,313.66L213.33,314.52L213.04,314.56L208.24,315.47L203.10,316.14L202.76,316.17L197.27,316.87L194.74,313.41L194.72,313.38L192.25,310.00L192.18,309.90L192.56,304.13L192.89,298.75L192.93,298.37L191.77,294.63L190.65,291.03L190.61,290.90L185.92,289.64L185.60,289.55L180.59,288.19L175.96,286.13L175.68,285.99L170.76,283.79L170.71,279.30L170.71,279.30L170.66,274.97L170.66,274.81L173.78,269.93L176.67,265.37L176.89,265.05L177.12,261.31L177.13,261.28L177.35,257.62L177.36,257.51L173.54,254.13L173.28,253.88L169.20,250.25L166.45,246.15L166.30,245.91L163.4,241.58L166.04,237.68L168.57,233.93L168.68,233.78L173.70,230.98L178.38,228.36L178.72,228.19L180.18,224.83L180.20,224.78L181.66,221.44L181.69,221.37L179.77,216.42L179.64,216.05L177.59,210.73L177.50,205.95L177.51,205.70L177.43,200.68L182.03,198.81L186.41,197.03L186.62,196.95L192.27,196.82L197.54,196.69L197.91,196.69L200.42,194.02L200.48,193.96L203.02,191.26L203.06,191.22L203.69,185.78L203.75,185.37L204.44,179.52L206.94,175.62L207.06,175.45L209.68,171.38L214.81,172.37L219.67,173.30L219.93,173.36L224.88,175.76L229.51,177.99L229.82,178.15L233.19,176.46L233.29,176.41L236.75,174.68L236.77,174.67L239.97,170.07L240.23,169.73L243.69,164.79L247.84,163.05L248.01,162.99L252.32,161.19L256.31,164.94L260.10,168.47L260.31,168.68L263.54,172.88L266.59,176.81L266.78,177.07L270.70,176.68L270.86,176.67L274.94,176.25L280.04,173.74L280.43,173.56L285.92,170.87L290.22,171.84L290.35,171.87L294.77,172.87L294.79,172.87L296.30,178.38L297.73,183.56L297.81,183.89L298.86,188.84L299.85,193.52L299.9,193.80L303.92,194.97L304.10,195.03L308.31,196.26L314.01,196.56L314.44,196.60L320.56,196.95L323.45,200.22L323.52,200.31L326.44,203.63L326.47,203.67L324.89,209.37L323.43,214.71L323.32,215.06L322.24,219.76L321.22,224.21L321.16,224.45L324.61,227.28L324.78,227.44L328.41,230.42L333.19,233.52L333.53,233.75L338.65,237.08L339.03,241.46L339.03,241.54L339.42,245.92L339.42,246L335.08,250.23L331.03,254.20L330.73,254.47L328.00,258.13L325.41,261.62L325.27,261.78L327.39,266.04L327.50,266.30L329.73,270.81L332.26,275.84L332.42,276.19L335.11,281.58L332.77,285.42L332.74,285.47L330.44,289.26L330.38,289.35L324.41,290.90L318.83,292.37L318.43,292.46L314.71,294.66L311.13,296.79L310.98,296.87L311.08,301.91L311.08,302.23L311.17,307.60L310.76,313.11L310.72,313.47L310.26,319.34L305.95,321.15L305.93,321.15L301.74,322.92L301.60,322.97L295.59,321.40L289.97,319.95L289.57,319.83L285.49,320.49L285.48,320.49L281.53,321.13L281.39,321.15L279.15,325.97L278.99,326.29L276.58,331.44L273.42,335.80L273.22,336.06L269.85,340.68L265.06,339.62L260.45,338.61L260.28,338.56L255.76,334.31L251.54,330.35L251.24,330.06L247.34,329.28L247.30,329.27L243.46,328.50L243.35,328.48L238.99,331.92L238.67,332.16L233.98,335.83L229.12,337.77L228.85,337.86L223.71,339.90L220.19,336.14L216.82,332.54L216.67,332.38L214.72,326.56L212.88,321.14L212.76,320.75L209.41,318.72L209.34,318.69L205.99,316.66L205.93,316.62L200.27,317.70L199.84,317.77L193.76,318.92L188.79,317.91L188.55,317.85L183.34,316.78L182.44,311.43L181.57,306.34L181.54,306.09L182.47,300.16L183.34,294.61L183.41,294.23L180.91,291.15L180.85,291.07L178.31,287.95L178.29,287.91L172.62,286.17L172.20,286.02L166.12,284.12L162.68,280.62L162.53,280.47L158.95,276.81L161.19,271.56L163.30,266.59L163.43,266.32L166.84,261.61L170.04,257.19L170.26,256.90L168.94,253.02L168.90,252.89L167.54,248.89L167.54,248.87L163.31,244.55L163.01,244.21L158.48,239.55L157.69,234.84L157.66,234.67L156.84,229.79L156.84,229.79L161.73,226.37L166.33,223.14L166.62,222.95L171.56,220.35L176.21,217.88L176.51,217.74L176.69,213.43L176.71,213.25L176.91,208.76L175.29,202.88L175.19,202.43L173.47,196.10L175.54,191.88L175.6,191.76L177.71,187.45L177.73,187.42L183.91,187.02L189.72,186.63L190.10,186.62L195.43,186.39L200.46,186.18L200.75,186.17L202.68,182.02L202.78,181.82L204.81,177.46L206.31,171.54L206.44,171.11L208.06,164.75L212.20,162.57L212.30,162.52L216.46,160.33L216.53,160.30L222.23,163.19L227.58,165.88L227.93,166.08L232.62,167.99L237.07,169.78L237.31,169.89L240.96,166.65L241.16,166.48L245.03,163.07L249.26,158.72L249.57,158.42L254.13,153.77L258.81,154.48L258.88,154.50L263.53,155.20L263.63,155.22L267.20,160.70L270.54,165.81L270.76,166.18L274.12,169.59L277.34,172.85L277.48,173.01L282.45,171.49L282.75,171.41L288.02,169.82L293.80,168.26L294.20,168.17L300.37,166.51L303.82,169.94L303.86,169.97L307.25,173.34L307.34,173.44L307.75,180.05L308.15,186.22L308.16,186.66L309.89,190.87L311.55,194.92L311.62,195.08L317.05,195.91L317.40,195.98L323.19,196.87L328.82,198.49L329.17,198.60L335.15,200.34L335.99,205.35L335.99,205.37L336.81,210.22L336.83,210.39L333.98,216.39L331.33,222.00L331.12,222.40L331.21,226.75L331.21,226.77L331.31,231.00L331.30,231.14L336.03,234.44L336.36,234.69L341.41,238.24L345.22,242.47L345.44,242.73L349.47,247.22L347.18,252.03L344.99,256.66L344.89,256.85L339.55,260.74L334.57,264.38L334.20,264.63L332.83,268.62L332.81,268.67L331.46,272.62L331.43,272.71L334.25,278.02L334.44,278.42L337.46,284.12L338.36,289.57L338.39,289.86L339.33,295.60L334.50,298.45L329.89,301.17L329.67,301.29L323.23,302.21L317.21,303.09L316.79,303.13L314.17,306.40L314.11,306.47L311.48,309.75L311.43,309.81L311.47,316.02L311.46,316.49L311.48,323.17L309.30,328.05L309.19,328.28L306.89,333.38L301.00,333.10L295.41,332.84L295.11,332.81L289.12,330.72L283.51,328.78L283.13,328.63L279.49,330.86L279.38,330.92L275.66,333.19L275.63,333.21L274.02,336.23L272.42,339.26L270.81,342.29L269.20,345.31L264.79,348.02L264.60,348.13L260.01,350.94L254.95,347.38L250.16,344.02L249.89,343.81L245.63,339.41L241.62,335.29L241.37,335.01L237.00,335.84L236.84,335.87L232.31,336.72L232.31,336.72L229.41,338.64L226.50,340.55L223.59,342.46L220.68,344.37L215.64,344.05L215.47,344.03L210.27,343.7L210.25,343.70L207.71,337.76L205.31,332.18L205.17,331.83L203.35,326.25L201.62,320.99L201.53,320.67L196.92,319.78L196.72,319.74L191.90,318.81L188.41,319.06L184.92,319.31L181.43,319.57L177.94,319.82L174.09,316.64L173.99,316.56L170.08,313.33L170.04,313.30L170.95,306.67L171.80,300.45L171.87,300.04L172.55,294.50L173.18,289.25L173.23,288.96L169.08,286.19L168.87,286.04L164.51,283.12L161.36,281.62L158.22,280.11L155.07,278.61L151.92,277.10L150.70,272.26L150.68,272.16L149.45,267.31L149.43,267.22L151.56,264.52L153.69,261.82L155.81,259.12L157.94,256.42L160.67,251.89L163.27,247.58L163.40,247.37L160.56,242.88L160.41,242.61L157.41,237.86L155.47,235.01L153.54,232.16L151.60,229.31L149.67,226.47L151.58,221.76L151.61,221.70L153.50,217.03L153.55,216.92L156.80,215.62L160.05,214.31L163.30,213.00L166.56,211.69L170.61,208.76L174.49,205.94L174.66,205.82L173.94,200.23L173.91,199.87L173.15,193.92L172.76,187.61L172.75,187.19L172.35,180.46L176.82,177.69L176.85,177.67L181.21,174.96L181.35,174.88L184.86,175.34L188.36,175.79L191.87,176.25L195.38,176.70L200.00,175.54L200.00,175.54L204.46,174.42L204.63,174.38L206.51,168.73L206.65,168.36L208.68,162.33L211.57,156.88L211.76,156.55L214.85,150.76L220.34,151.11L225.64,151.44L225.84,151.46L228.69,153.55L231.55,155.64L234.40,157.73L237.25,159.82L241.79,160.34L241.82,160.35L246.26,160.86L246.39,160.88L250.81,156.47L251.13,156.17L255.88,151.47L261.07,148.48L261.37,148.32L266.87,145.17L271.40,148.75L275.75,152.17L275.94,152.33L277.44,155.49L278.95,158.65L280.46,161.81L281.96,164.97L285.96,166.96L286.02,167.00L289.99,168.98L290.07,169.02L293.39,167.98L296.71,166.93L300.02,165.88L303.34,164.84L309.13,165.15L309.43,165.17L315.51,165.50L317.39,171.28L319.18,176.79L319.26,177.06L319.13,180.49L318.99,183.92L318.86,187.35L318.72,190.78L321.81,194.02L321.88,194.10L325.01,197.36L325.05,197.41L328.58,198.05L332.11,198.69L335.63,199.33L339.16,199.98L343.66,203.35L343.85,203.50L348.54,207.02L346.89,213.19L345.34,219.04L345.24,219.36L341.97,225.17L338.92,230.62L338.70,230.98L340.54,235.19L340.59,235.32L342.48,239.64L342.49,239.67L345.35,241.96L348.21,244.25L351.07,246.54L353.93,248.83L355.65,254.00L355.72,254.20L357.50,259.56L352.61,264.11L348.00,268.42L347.71,268.66L342.40,272.27L337.42,275.66L337.09,275.87L337.31,280.67L337.32,280.86L337.54,285.86L338.96,289.28L340.37,292.71L341.79,296.13L343.2,299.56L341.64,304.66L341.59,304.82L339.99,310.05L339.98,310.08L336.57,310.77L333.17,311.47L329.76,312.16L326.35,312.85L320.29,313.75L314.57,314.62L314.23,314.66L312.54,319.46L312.45,319.68L310.67,324.71L310.22,328.39L309.77,332.08L309.32,335.77L308.87,339.45L304.65,342.64L304.54,342.71L300.27,345.93L300.22,345.97L296.82,344.78L293.43,343.59L290.04,342.40L286.65,341.22L281.07,339.59L275.77,338.05L275.49,337.96L271.82,341.95L271.62,342.15L267.74,346.35L265.53,349.30L263.32,352.25L261.11,355.20L258.90,358.15L253.57,358.20L253.48,358.20L248.16,358.26L248.06,358.26L245.67,355.46L243.28,352.67L240.89,349.87L238.50,347.07L234.29,343.54L230.26,340.17L230.07,340.00L224.76,342.26L224.44,342.38L218.82,344.75L215.47,346.16L212.13,347.56L208.78,348.96L205.43,350.36L201.00,347.18L200.96,347.15L196.59,344.02L196.48,343.93L195.78,340.26L195.07,336.60L194.37,332.93L193.67,329.26L191.26,324.63L188.95,320.19L188.86,320.01L182.76,319.76L182.36,319.73L175.87,319.46L172.37,318.95L168.86,318.44L165.36,317.93L161.85,317.41L160.06,312.04L160.05,312.02L158.30,306.80L158.25,306.62L159.42,303.06L160.60,299.49L161.78,295.92L162.96,292.36L162.43,287.42L162.43,287.40L161.92,282.61L161.91,282.45L158.89,280.81L155.88,279.16L152.86,277.52L149.85,275.88L147.22,273.68L144.59,271.47L141.96,269.26L139.33,267.06L141.03,261.37L142.66,255.89L142.73,255.68L145.47,253.13L148.20,250.57L150.93,248.01L153.66,245.46L154.84,240.82L154.86,240.77L156.02,236.2L156.06,236.08L154.02,233.12L151.97,230.16L149.94,227.20L147.89,224.24L145.99,218.26L145.89,217.93L143.90,211.62L148.74,207.69L153.37,203.94L153.58,203.77L157.15,202.82L160.71,201.86L164.28,200.91L167.84,199.96L170.49,196.05L170.54,195.98L173.19,192.07L173.24,192.00L172.78,188.30L172.31,184.60L171.85,180.90L171.39,177.20L173.02,171.35L173.11,171.06L174.83,164.94L181.36,164.30L187.56,163.69L187.88,163.67L191.40,164.45L194.91,165.23L198.43,166.02L201.95,166.80L205.81,163.99L205.91,163.92L209.83,161.06L209.87,161.03L211.24,157.45L212.61,153.88L213.98,150.30L215.35,146.72L219.83,142.92L220.02,142.76L224.7,138.81L227.76,140.37L230.83,141.94L233.89,143.50L236.95,145.07L239.64,147.28L242.34,149.5L245.03,151.72L247.72,153.93L252.47,152.59L252.64,152.55L257.54,151.18L257.55,151.17L260.52,148.64L263.48,146.11L266.44,143.57L269.41,141.04L275.10,140.51L275.31,140.50L281.19,139.95L281.20,139.95L283.06,143.03L284.91,146.11L286.76,149.19L288.62,152.26L291.38,158.36L293.98,164.09L294.13,164.45L299.30,164.96L299.52,164.99L304.90,165.52L308.75,164.74L312.60,163.96L316.45,163.18L320.3,162.40L325.15,165.24L325.29,165.32L330.23,168.22L330.27,168.25L330.26,171.98L330.25,175.71L330.25,179.43L330.24,183.16L330.13,189.53L330.03,195.55L330.02,195.90L334.88,198.49L335.11,198.63L340.21,201.36L343.93,202.58L347.66,203.80L351.39,205.01L355.12,206.23L357.34,211.37L357.39,211.48L359.63,216.65L359.66,216.73L357.70,220.03L355.75,223.33L353.79,226.64L351.83,229.94L349.24,235.39L346.79,240.57L346.65,240.83L350.28,245.44L350.48,245.70L354.30,250.57L356.88,253.46L359.47,256.35L362.06,259.24L364.65,262.13L363.38,267.66L363.36,267.74L362.10,273.23L362.06,273.35L358.65,275.27L355.23,277.19L351.82,279.11L348.40,281.03L344.12,284.79L340.02,288.4L339.83,288.56L341.29,294.61L341.37,294.98L342.9,301.41L343.64,305.14L344.37,308.88L345.11,312.61L345.85,316.34L341.44,320.17L341.40,320.20L337.08,323.94L336.95,324.05L332.99,324.04L329.02,324.03L325.06,324.02L321.10,324.01L315.98,325.79L311.06,327.50L310.87,327.57L310.13,330.99L309.39,334.42L308.65,337.85L307.91,341.27L306.63,344.75L305.36,348.23L304.09,351.71L302.82,355.19L296.75,355.75L296.74,355.75L290.87,356.29L290.67,356.31L287.20,354.38L283.73,352.44L280.26,350.51L276.79,348.58L271.62,348.42L271.59,348.42L266.55,348.26L266.40,348.25L264.09,351.13L261.79,354.02L259.49,356.90L257.19,359.79L254.36,361.99L251.54,364.19L248.71,366.40L245.89,368.6L240.34,365.45L235.01,362.43L234.79,362.30L232.68,358.97L230.56,355.65L228.45,352.33L226.34,349.00L221.68,347.13L221.62,347.1L217.01,345.24L216.90,345.20L213.39,346.78L209.88,348.37L206.37,349.95L202.86,351.54L199.43,351.85L195.99,352.17L192.56,352.48L189.13,352.80L186.15,346.79L183.29,341.06L183.16,340.78L182.86,336.93L182.55,333.07L182.24,329.21L181.93,325.36L178.21,322.04L178.13,321.96L174.38,318.63L174.32,318.57L170.35,318.34L166.38,318.10L162.40,317.87L158.43,317.64L152.85,314.64L152.59,314.49L146.76,311.35L147.17,307.85L147.59,304.35L148.00,300.85L148.42,297.35L149.87,293.88L151.33,290.41L152.79,286.93L154.24,283.46L151.82,278.99L151.76,278.85L149.29,274.28L149.27,274.24L145.8,272.11L142.33,269.97L138.86,267.84L135.39,265.71L132.57,260.25L132.47,260.03L129.54,254.36L131.87,251.50L134.20,248.63L136.52,245.76L138.85,242.90L141.61,240.54L144.37,238.17L147.12,235.81L149.88,233.45L149.17,228.20L149.15,228.01L148.42,222.56L146.37,218.97L144.33,215.39L142.29,211.80L140.24,208.21L141.07,202.28L141.10,202.08L141.95,195.98L141.95,195.96L145.59,194.68L149.22,193.41L152.85,192.14L156.48,190.87L159.83,189.99L163.19,189.11L166.55,188.23L169.91,187.35L171.26,181.93L171.33,181.69L172.76,176.02L172.72,171.88L172.69,167.73L172.66,163.58L172.63,159.44L176.72,155.18L176.83,155.07L180.99,150.74L181.04,150.69L184.93,151.50L188.83,152.3L192.73,153.10L196.63,153.91L203.11,155.09L209.26,156.20L209.60,156.27L213.17,151.53L213.36,151.29L217.13,146.30L219.14,142.71L221.16,139.11L223.18,135.51L225.20,131.92L231.03,130.90L231.15,130.89L236.99,129.87L237.09,129.86L240.13,132.59L243.16,135.32L246.2,138.05L249.24,140.78L254.38,144.30L259.29,147.65L259.53,147.82L265.05,144.76L265.38,144.59L271.23,141.36L274.74,139.31L278.24,137.25L281.75,135.19L285.25,133.13L290.66,135.82L290.72,135.86L296.06,138.51L296.19,138.58L297.49,142.53L298.78,146.47L300.08,150.42L301.38,154.36L304.57,159.32L307.63,164.08L307.76,164.29L311.31,164.05L314.87,163.81L318.42,163.57L321.97,163.33L325.94,163.36L329.92,163.39L333.89,163.43L337.87,163.46L340.75,168.99L340.77,169.02L343.58,174.42L343.67,174.59L342.86,178.70L342.06,182.81L341.26,186.91L340.45,191.02L341.53,196.53L341.53,196.53L342.57,201.85L342.60,202.05L346.09,203.46L349.58,204.88L353.07,206.29L356.56,207.71L359.84,209.75L363.11,211.79L366.38,213.83L369.65,215.88L368.76,222.35L367.91,228.58L367.87,228.82L365.20,232.02L362.52,235.23L359.84,238.44L357.17,241.64L356.27,246.94L356.26,246.99L355.38,252.19L355.35,252.34L357.96,255.31L360.57,258.28L363.18,261.25L365.78,264.22L367.40,267.57L369.02,270.92L370.64,274.27L372.27,277.62L369.96,280.15L367.65,282.68L365.34,285.20L363.03,287.73L359.20,289.27L355.38,290.81L351.55,292.35L347.72,293.89L345.12,298.47L345.08,298.54L342.50,303.1L342.44,303.19L343.43,307.18L344.42,311.17L345.41,315.15L346.41,319.14L345.96,322.69L345.51,326.24L345.06,329.79L344.61,333.34L341.12,334.21L337.63,335.07L334.14,335.94L330.64,336.80L326.63,336.40L322.61,335.99L318.59,335.58L314.57,335.17L310.57,338.62L310.47,338.70L306.42,342.18L306.37,342.22L305.35,346.33L304.33,350.43L303.32,354.54L302.3,358.65L300.04,361.24L297.78,363.83L295.52,366.43L293.26,369.02L289.69,367.80L286.12,366.57L282.55,365.34L278.97,364.12L275.68,361.99L272.39,359.87L269.11,357.74L265.81,355.61L260.74,357.52L260.57,357.58L255.36,359.53L255.33,359.54L252.43,362.73L249.52,365.92L246.62,369.11L243.71,372.29L237.52,373.87L237.28,373.92L230.85,375.55L228.37,372.49L225.88,369.42L223.40,366.35L220.91,363.28L218.99,360.04L217.07,356.81L215.14,353.57L213.22,350.34L207.55,350.29L207.32,350.28L201.42,350.23L197.29,351.63L193.17,353.03L189.04,354.43L184.92,355.83L179.08,353.56L178.91,353.49L172.93,351.17L172.89,351.15L172.35,347.08L171.80,343.02L171.25,338.95L170.71,334.88L170.39,331.31L170.07,327.74L169.75,324.16L169.43,320.59L163.88,318.28L163.63,318.16L157.82,315.73L153.54,314.93L149.26,314.12L144.97,313.31L140.69,312.51L137.34,307.28L137.26,307.15L133.88,301.87L133.83,301.80L135.49,297.91L137.15,294.02L138.81,290.12L140.47,286.23L141.61,283.03L142.75,279.82L143.89,276.62L145.03,273.41L140.58,268.82L140.35,268.57L135.68,263.72L132.40,260.91L129.12,258.10L125.84,255.29L122.56,252.48L122.97,246.24L122.97,246.13L123.38,239.91L123.39,239.78L126.85,237.19L130.32,234.60L133.78,232.01L137.25,229.42L141.65,224.74L145.84,220.26L146.05,220.05L144.85,216.66L143.64,213.27L142.44,209.88L141.24,206.49L139.86,202.48L138.49,198.46L137.11,194.45L135.74,190.44L139.85,185.52L139.90,185.47L143.94,180.64L144.06,180.51L148.41,179.96L152.76,179.42L157.11,178.87L161.46,178.32L167.01,175.81L172.33,173.40L172.55,173.31L172.94,169.50L173.33,165.70L173.72,161.90L174.11,158.10L174.98,154.05L175.85,150.01L176.72,145.97L177.59,141.93L184.06,140.28L184.08,140.28L190.35,138.68L190.56,138.63L194.64,140.28L198.73,141.92L202.81,143.57L206.89,145.21L212.68,144.91L212.70,144.91L218.33,144.60L218.51,144.60L220.65,141.18L222.79,137.76L224.93,134.35L227.06,130.93L229.84,128.05L232.62,125.16L235.40,122.28L238.18,119.39L241.44,120.64L244.70,121.88L247.96,123.12L251.22,124.36L254.00,127.74L256.79,131.12L259.57,134.50L262.35,137.87L267.69,139.54L267.75,139.56L273.01,141.19L273.15,141.24L276.76,139.06L280.37,136.89L283.98,134.72L287.59,132.54L291.34,131.63L295.08,130.73L298.83,129.82L302.58,128.92L304.68,131.92L306.77,134.93L308.87,137.93L310.97,140.93L311.82,145.15L312.68,149.38L313.53,153.60L314.38,157.83L318.78,161.15L318.87,161.22L323.27,164.55L323.35,164.61L327.71,164.34L332.06,164.07L336.42,163.80L340.78,163.53L344.26,164.78L347.75,166.03L351.24,167.29L354.73,168.54L354.83,172.38L354.93,176.23L355.03,180.08L355.14,183.92L353.98,187.96L352.81,192.00L351.65,196.04L350.49,200.08L353.53,204.75L353.62,204.88L356.71,209.64L356.74,209.69L360.82,211.55L364.89,213.40L368.96,215.26L373.04,217.12L375.13,220.00L377.23,222.88L379.33,225.76L381.43,228.64L379.35,232.10L377.27,235.56L375.19,239.01L373.12,242.47L370.35,245.44L367.59,248.41L364.82,251.39L362.06,254.36L363.33,260.00L363.37,260.19L364.67,266.02L364.67,266.03L367.40,269.67L370.13,273.31L372.86,276.95L375.59,280.59L375.65,284.03L375.72,287.47L375.78,290.92L375.85,294.36L372.10,296.28L368.36,298.20L364.62,300.13L360.88,302.05L357.24,303.44L353.61,304.83L349.98,306.22L346.35,307.61L345.43,313.61L345.38,313.87L344.41,320.13L345.03,324.66L345.65,329.20L346.27,333.73L346.88,338.27L343.17,343.65L343.06,343.80L339.27,349.28L339.23,349.33L334.88,349.03L330.53,348.73L326.19,348.43L321.84,348.13L318.15,347.85L314.46,347.57L310.78,347.29L307.09,347.01L305.33,349.90L303.56,352.79L301.80,355.67L300.04,358.56L298.34,362.79L296.65,367.03L294.95,371.26L293.26,375.50L287.09,377.63L286.96,377.68L280.77,379.82L280.67,379.86L276.97,377.32L273.28,374.79L269.58,372.25L265.89,369.72L262.82,368.04L259.75,366.36L256.68,364.69L253.61,363.01L250.64,365.07L247.67,367.14L244.70,369.21L241.73,371.28L238.18,374.06L234.63,376.83L231.09,379.61L227.54,382.38L221.22,380.43L221.13,380.39L214.87,378.45L214.73,378.40L212.76,374.29L210.78,370.17L208.81,366.05L206.84,361.93L202.75,356.73L198.84,351.76L198.67,351.53L194.87,352.20L191.07,352.88L187.28,353.55L183.48,354.23L179.10,354.79L174.72,355.36L170.35,355.92L165.97,356.49L163.93,353.73L161.88,350.98L159.83,348.22L157.78,345.47L158.09,340.87L158.40,336.27L158.71,331.67L159.01,327.06L157.28,321.03L155.59,315.23L155.54,315.01L151.60,313.90L147.66,312.80L143.72,311.70L139.79,310.60L135.87,308.86L131.95,307.12L128.03,305.38L124.11,303.63L124.05,300.07L123.98,296.52L123.91,292.96L123.85,289.40L126.34,285.52L128.83,281.64L131.33,277.76L133.82,273.88L134.33,267.91L134.33,267.88L134.82,262.05L134.84,261.87L131.65,258.99L128.46,256.11L125.27,253.23L122.08,250.35L119.76,246.92L117.45,243.48L115.13,240.05L112.81,236.62L114.88,233.52L116.94,230.43L119.01,227.33L121.08,224.24L125.08,222.03L129.08,219.82L133.08,217.62L137.08,215.41L139.53,210.13L139.57,210.06L142.00,204.83L142.06,204.71L140.47,200.52L138.88,196.34L137.29,192.15L135.70,187.97L135.61,183.98L135.53,180.00L135.44,176.02L135.36,172.03L138.97,170.55L142.59,169.06L146.20,167.57L149.82,166.09L154.30,166.01L158.78,165.93L163.26,165.85L167.74,165.77L171.81,161.65L171.90,161.56L176.00,157.42L176.06,157.35L176.62,152.77L177.18,148.18L177.74,143.59L178.30,139.01L180.35,135.77L182.40,132.54L184.45,129.31L186.50,126.08L190.53,126.85L194.56,127.61L198.59,128.37L202.63,129.14L206.53,131.06L210.44,132.99L214.34,134.92L218.25,136.84L223.59,134.31L223.75,134.24L229.21,131.65L229.25,131.63L231.97,127.77L234.69,123.92L237.42,120.06L240.14,116.20L243.53,114.75L246.91,113.31L250.30,111.86L253.69,110.41L256.83,113.34L259.97,116.27L263.11,119.20L266.25,122.13L268.78,125.47L271.32,128.81L273.85,132.16L276.38,135.50L282.51,135L282.74,134.99L289.11,134.48L293.40,132.38L297.7,130.29L302.00,128.19L306.29,126.09L309.78,126.85L313.27,127.60L316.76,128.36L320.25,129.11L321.44,133.42L322.63,137.72L323.83,142.03L325.02,146.34L325.80,150.26L326.58,154.19L327.37,158.11L328.15,162.04L331.39,163.05L334.64,164.05L337.88,165.06L341.12,166.07L345.90,166.34L350.69,166.61L355.47,166.89L360.25,167.16L362.59,169.77L364.93,172.38L367.27,174.98L369.60,177.59L368.38,182.04L367.15,186.49L365.92,190.94L364.69,195.39L363.79,199.08L362.89,202.77L362.00,206.46L361.10,210.15L363.87,212.50L366.64,214.84L369.41,217.19L372.18,219.53L376.16,222.13L380.15,224.73L384.14,227.32L388.13,229.92L388.47,233.39L388.80,236.86L389.14,240.33L389.48,243.81L386.09,247.11L382.70,250.41L379.32,253.71L375.93,257.01L373.74,259.85L371.55,262.70L369.36,265.54L367.17,268.38L368.85,271.88L370.52,275.38L372.20,278.87L373.87,282.37L375.97,286.56L378.07,290.75L380.17,294.94L382.27,299.12L380.46,302.16L378.65,305.19L376.85,308.23L375.04,311.27L370.39,312.47L365.74,313.67L361.09,314.88L356.44,316.08L353.49,317.76L350.54,319.43L347.59,321.11L344.64,322.78L344.67,326.91L344.71,331.04L344.74,335.16L344.77,339.29L344.43,343.85L344.09,348.41L343.75,352.97L343.40,357.53L340.06,358.97L336.73,360.40L333.39,361.84L330.05,363.28L325.38,362.05L320.70,360.82L316.03,359.59L311.36,358.36L304.97,359.26L304.96,359.26L298.78,360.13L298.56,360.15L296.68,364.09L294.81,368.02L292.93,371.96L291.05,375.89L288.45,379.49L285.86,383.08L283.26,386.67L280.66,390.27L276.96,389.48L273.26,388.69L269.56,387.91L265.87,387.12L262.37,383.81L258.88,380.49L255.38,377.18L251.88,373.87L245.85,372.52L245.79,372.51L239.87,371.19L239.70,371.14L236.09,373.94L232.48,376.74L228.87,379.54L225.26,382.34L221.30,383.93L217.33,385.52L213.36,387.11L209.40,388.7L206.67,385.83L203.94,382.95L201.21,380.08L198.49,377.21L196.99,372.69L195.50,368.18L194.00,363.67L192.50,359.16L187.40,355.91L187.31,355.85L182.22,352.61L182.12,352.54L177.45,353.40L172.79,354.26L168.13,355.11L163.46,355.97L159.44,355.17L155.41,354.37L151.38,353.57L147.35,352.77L146.64,348.67L145.92,344.57L145.21,340.47L144.49,336.37L145.25,331.79L146.00,327.21L146.75,322.62L147.50,318.04L143.78,313.23L143.69,313.11L139.92,308.24L139.87,308.18L135.22,306.71L130.57,305.25L125.92,303.78L121.27,302.32L118.49,299.52L115.71,296.72L112.93,293.92L110.15,291.13L111.85,287.11L113.55,283.09L115.24,279.06L116.94,275.04L119.61,271.42L122.27,267.80L124.94,264.18L127.60,260.56L125.71,254.59L125.66,254.40L123.72,248.26L123.71,248.24L120.26,244.67L116.81,241.10L113.36,237.53L109.91,233.96L109.25,230.22L108.58,226.47L107.92,222.73L107.26,218.98L110.99,216.36L114.72,213.74L118.44,211.12L122.17,208.49L126.01,206.51L129.84,204.53L133.68,202.56L137.51,200.58L137.72,197.18L137.94,193.77L138.15,190.37L138.37,186.97L137.06,182.14L135.76,177.31L134.46,172.48L133.16,167.64L134.75,164.30L136.34,160.97L137.94,157.63L139.53,154.29L144.25,153.97L148.97,153.66L153.69,153.34L158.41,153.03L162.52,152.90L166.63,152.77L170.73,152.65L174.84,152.52L176.42,149.25L178.01,145.99L179.59,142.72L181.18,139.45L182.42,134.61L183.66,129.76L184.9,124.92L186.14,120.08L189.35,118.35L192.56,116.61L195.77,114.88L198.98,113.15L203.33,115.35L207.68,117.55L212.02,119.75L216.37,121.95L219.95,123.46L223.54,124.97L227.12,126.48L230.70,127.99L233.65,125.46L236.59,122.93L239.54,120.39L242.48,117.86L245.94,114.32L249.40,110.78L252.86,107.25L256.32,103.71L259.94,104.22L263.55,104.73L267.17,105.23L270.79,105.74L273.50,109.91L276.22,114.08L278.93,118.25L281.65,122.43L284.18,125.08L286.71,127.74L289.25,130.40L291.78,133.06L295.76,131.90L299.74,130.75L303.72,129.59L307.70,128.43L312.39,127.17L317.07,125.90L321.76,124.64L326.45,123.37L329.12,125.97L331.78,128.56L334.45,131.16L337.12,133.75L337.42,138.78L337.73,143.81L338.03,148.83L338.34,153.86L339.6,157.10L340.86,160.34L342.12,163.58L343.38,166.83L347.72,167.53L352.06,168.24L356.40,168.94L360.75,169.65L365.29,170.95L369.83,172.26L374.38,173.56L378.92,174.87L379.59,178.66L380.26,182.44L380.93,186.23L381.6,190.02L379.42,194.57L377.24,199.12L375.06,203.68L372.88,208.23L372.88,214.85L372.88,214.88L372.89,221.32L372.88,221.53L376.66,224.22L380.43,226.91L384.20,229.60L387.98,232.29L391.04,235.68L394.11,239.06L397.18,242.45L400.25,245.84L398.55,249.48L396.86,253.12L395.16,256.76L393.47,260.39L389.41,263.33L385.35,266.27L381.29,269.21L377.23,272.14L375.01,278.14L374.99,278.21L372.80,284.13L372.75,284.28L374.98,288.57L377.22,292.86L379.46,297.14L381.70,301.43L382.43,305.77L383.16,310.11L383.89,314.44L384.63,318.78L381.01,320.94L377.40,323.1L373.78,325.26L370.17,327.42L365.29,328.09L360.41,328.77L355.53,329.44L350.65,330.12L346.59,334.95L346.50,335.05L342.43,339.89L342.36,339.98L342.36,344.98L342.36,349.98L342.36,354.99L342.36,359.99L340.65,363.85L338.95,367.72L337.25,371.58L335.54,375.44L331.13,375.25L326.71,375.07L322.29,374.88L317.87,374.69L313.35,373.08L308.83,371.48L304.31,369.87L299.79,368.26L294.26,371.47L294.10,371.56L288.47,374.82L288.42,374.85L286.00,379.37L283.58,383.89L281.17,388.41L278.75,392.93L275.30,395.08L271.86,397.23L268.42,399.38L264.97,401.53L261.18,398.87L257.38,396.22L253.58,393.57L249.79,390.92L246.59,387.57L243.40,384.22L240.21,380.87L237.01,377.52L233.63,378.09L230.25,378.66L226.87,379.24L223.48,379.81L219.13,382.66L214.79,385.50L210.44,388.35L206.09,391.20L202.17,390.99L198.25,390.77L194.33,390.56L190.41,390.35L188.50,385.91L186.59,381.48L184.68,377.05L182.77,372.62L181.44,368.40L180.10,364.18L178.76,359.96L177.43,355.74L173.87,354.99L170.31,354.24L166.76,353.49L163.20,352.74L157.99,353.11L152.78,353.48L147.57,353.85L142.36,354.23L139.38,351.82L136.40,349.41L133.42,347L130.43,344.59L131.11,339.64L131.78,334.70L132.45,329.75L133.12,324.8L133.68,320.63L134.24,316.47L134.80,312.30L135.36,308.13L132.17,305.93L128.97,303.72L125.78,301.52L122.59,299.32L117.90,297.07L113.21,294.83L108.52,292.59L103.82,290.35L102.85,286.67L101.88,283L100.91,279.33L99.94,275.65L103.11,271.62L106.28,267.60L109.45,263.56L112.62,259.54L114.72,256.16L116.82,252.79L118.92,249.41L121.02,246.04L118.84,242.51L116.67,238.97L114.50,235.44L112.33,231.90L109.44,227.67L106.56,223.43L103.67,219.19L100.78,214.95L102.18,211.39L103.59,207.83L105.00,204.26L106.4,200.70L111.24,198.76L116.08,196.81L120.92,194.87L125.76,192.92L128.84,190.77L131.92,188.62L134.99,186.47L138.07,184.31L137.55,179.93L137.03,175.54L136.52,171.15L136.00,166.76L135.69,161.75L135.38,156.75L135.07,151.74L134.77,146.73L138.08,144.63L141.39,142.53L144.70,140.43L148.01,138.33L153.23,139.02L158.44,139.70L163.66,140.39L168.88,141.07L172.35,140.27L175.82,139.47L179.29,138.66L182.76,137.86L184.29,133.44L185.81,129.02L187.34,124.60L188.86,120.18L191.14,115.87L193.41,111.57L195.69,107.26L197.96,102.95L202.03,103.17L206.09,103.39L210.15,103.62L214.21,103.84L218.44,106.95L222.68,110.06L226.91,113.18L231.14,116.29L234.53,116.76L237.92,117.23L241.31,117.69L244.71,118.16L248.21,114.72L251.72,111.29L255.22,107.85L258.73,104.41L262.79,102.06L266.86,99.70L270.93,97.35L274.99,94.99L278.36,97.60L281.72,100.21L285.08,102.82L288.44,105.43L290.66,110.13L292.88,114.83L295.10,119.53L297.32,124.23L303.17,127.32L303.25,127.36L309.06,130.43L309.19,130.50L314.06,128.99L318.94,127.47L323.82,125.95L328.70,124.44L333.21,124.66L337.72,124.88L342.23,125.10L346.74,125.31L348.14,129.56L349.55,133.80L350.95,138.04L352.36,142.28L352.13,147.36L351.91,152.45L351.69,157.54L351.46,162.62L355.91,167.49L356.01,167.60L360.49,172.51L360.55,172.58L365.73,173.54L370.90,174.5L376.08,175.46L381.25,176.42L384.74,179.00L388.23,181.58L391.71,184.15L395.20,186.73L394.01,191.26L392.82,195.80L391.63,200.33L390.45,204.87L388.00,209.15L385.54,213.44L383.09,217.74L380.64,222.02L381.96,225.23L383.28,228.44L384.60,231.65L385.92,234.86L390.11,238.23L394.29,241.59L398.48,244.96L402.66,248.33L404.02,252.28L405.38,256.22L406.73,260.17L408.09,264.12L404.51,267.46L400.94,270.81L397.36,274.16L393.78,277.51L389.83,280.15L385.88,282.78L381.93,285.42L377.98,288.06L378.07,291.70L378.17,295.34L378.27,298.98L378.37,302.62L380.43,307.64L382.50,312.66L384.56,317.69L386.63,322.71L385.49,326.59L384.34,330.47L383.2,334.35L382.06,338.24L377.07,339.26L372.08,340.29L367.09,341.32L362.10,342.34L357.62,342.97L353.13,343.59L348.64,344.22L344.16,344.84L342.81,348.47L341.46,352.10L340.11,355.73L338.76,359.36L338.10,364.76L337.44,370.15L336.78,375.55L336.12,380.94L332.97,383.37L329.83,385.79L326.68,388.22L323.53,390.64L318.57,388.91L313.61,387.18L308.65,385.45L303.68,383.72L299.58,382.47L295.47,381.22L291.37,379.97L287.26,378.72L284.41,381.72L281.56,384.72L278.71,387.72L275.87,390.73L272.64,395.04L269.41,399.36L266.18,403.68L262.95,408.00L258.99,408.08L255.03,408.17L251.07,408.26L247.11,408.35L243.62,404.26L240.12,400.17L236.63,396.09L233.13,392.00L230.06,389.35L227.00,386.70L223.93,384.05L220.86,381.40L216.77,383.08L212.68,384.76L208.59,386.43L204.50,388.11L199.62,390.16L194.73,392.22L189.85,394.28L184.96,396.34L181.68,394.03L178.39,391.73L175.10,389.42L171.81,387.12L170.79,381.76L169.77,376.41L168.74,371.05L167.72,365.69L166.01,362.26L164.30,358.83L162.59,355.40L160.88,351.98L156.19,351.74L151.5,351.50L146.81,351.26L142.12,351.02L137.00,350.29L131.88,349.56L126.77,348.83L121.65,348.10L120.30,344.19L118.95,340.29L117.60,336.38L116.25,332.48L117.97,327.28L119.70,322.08L121.43,316.88L123.16,311.68L122.84,308.04L122.53,304.41L122.21,300.77L121.90,297.14L117.56,294.74L113.22,292.34L108.88,289.94L104.55,287.54L100.70,284.34L96.85,281.14L93.00,277.94L89.15,274.74L90.35,270.61L91.55,266.48L92.74,262.35L93.94,258.22L97.93,254.50L101.92,250.78L105.92,247.07L109.91,243.35L110.86,239.95L111.80,236.56L112.75,233.16L113.70,229.76L110.77,225.48L107.85,221.19L104.93,216.91L102.01,212.62L100.53,208.03L99.04,203.44L97.56,198.86L96.08,194.27L99.56,191.41L103.04,188.54L106.52,185.68L110,182.82L115.20,181.45L120.39,180.08L125.59,178.71L130.79,177.34L132.81,174.50L134.83,171.65L136.85,168.81L138.87,165.98L138.23,160.64L137.58,155.30L136.94,149.96L136.29,144.62L137.51,140.16L138.73,135.69L139.95,131.23L141.17,126.76L145.87,126.27L150.58,125.79L155.28,125.30L159.99,124.82L165.1,125.98L170.22,127.14L175.33,128.31L180.45,129.48L183.35,127.46L186.25,125.44L189.15,123.43L192.05,121.41L194.03,116.26L196.02,111.11L198.01,105.96L199.99,100.81L203.36,97.90L206.73,95.00L210.10,92.10L213.47,89.20L217.89,91.44L222.31,93.68L226.74,95.91L231.16,98.15L235.06,101.39L238.96,104.64L242.85,107.89L246.75,111.14L250.30,110.22L253.84,109.30L257.39,108.38L260.94,107.46L265.21,103.82L269.49,100.18L273.76,96.54L278.03,92.90L282.30,92.46L286.56,92.02L290.83,91.59L295.09,91.15L297.77,95.57L300.46,99.99L303.14,104.41L305.83,108.83L307.80,113.28L309.76,117.72L311.73,122.17L313.70,126.61L317.55,127.06L321.39,127.51L325.23,127.96L329.07,128.41L334.61,127.29L340.15,126.17L345.69,125.05L351.24,123.93L354.86,126.00L358.48,128.07L362.11,130.14L365.73,132.21L365.73,137.57L365.73,142.94L365.73,148.30L365.73,153.66L365.60,158.28L365.48,162.90L365.35,167.52L365.22,172.14L368.83,174.15L372.43,176.14L376.04,178.14L379.64,180.15L385.00,181.90L390.36,183.65L395.73,185.40L401.09,187.15L402.77,190.91L404.45,194.66L406.13,198.42L407.81,202.18L405,206.93L402.19,211.67L399.38,216.42L396.57,221.17L394.65,225.09L392.73,229.02L390.80,232.95L388.88,236.88L391.56,240.37L394.24,243.87L396.92,247.37L399.60,250.86L403.32,255.01L407.04,259.16L410.77,263.31L414.49,267.46L413.61,271.50L412.74,275.53L411.86,279.56L410.98,283.6L406.08,286.36L401.17,289.11L396.27,291.87L391.36,294.62L388.22,297.30L385.08,299.98L381.94,302.66L378.80,305.33L379.85,309.91L380.90,314.49L381.94,319.07L382.99,323.65L384.06,329.01L385.13,334.37L386.21,339.72L387.28,345.08L384.13,347.87L380.98,350.66L377.83,353.45L374.68,356.25L368.99,356.23L363.31,356.21L357.62,356.19L351.93,356.17L348.22,357.39L344.51,358.61L340.79,359.82L337.08,361.04L335.99,365.90L334.90,370.76L333.81,375.62L332.73,380.48L330.92,385.48L329.11,390.48L327.31,395.47L325.50,400.47L321.17,400.91L316.84,401.36L312.51,401.80L308.18,402.25L303.22,399.47L298.25,396.69L293.28,393.91L288.31,391.14L284.58,390.94L280.84,390.75L277.11,390.55L273.38,390.36L270.09,394.43L266.79,398.51L263.50,402.59L260.20,406.66L256.17,409.84L252.14,413.01L248.11,416.19L244.08,419.37L240.11,417.16L236.14,414.95L232.17,412.75L228.20,410.54L225.19,405.77L222.17,401.00L219.16,396.23L216.14,391.46L212.80,390.02L209.45,388.59L206.11,387.15L202.76,385.72L197.77,387.95L192.78,390.17L187.79,392.4L182.80,394.63L177.89,395.11L172.98,395.59L168.07,396.07L163.16,396.56L161.00,392.31L158.86,388.05L156.71,383.80L154.56,379.55L154.14,374.03L153.72,368.5L153.30,362.97L152.88,357.45L150.23,354.98L147.57,352.50L144.92,350.03L142.27,347.56L136.63,347.21L131.00,346.86L125.37,346.50L119.73,346.15L115.54,343.94L111.36,341.73L107.17,339.51L102.98,337.30L103.54,332.33L104.10,327.37L104.66,322.4L105.22,317.43L107.33,312.47L109.44,307.51L111.55,302.56L113.66,297.60L111.97,294.30L110.28,291.00L108.58,287.69L106.89,284.39L101.98,281.36L97.07,278.32L92.16,275.29L87.25,272.25L85.12,268.22L83.00,264.20L80.87,260.17L78.75,256.15L82.03,252.07L85.31,248.00L88.59,243.92L91.87,239.85L95.83,236.49L99.80,233.14L103.77,229.79L107.73,226.44L107.29,222.59L106.85,218.74L106.40,214.89L105.96,211.05L103.07,205.96L100.18,200.87L97.29,195.79L94.40,190.70L94.96,186.33L95.53,181.97L96.09,177.60L96.65,173.23L101.78,171.42L106.92,169.60L112.05,167.78L117.18,165.97L121.99,164.75L126.80,163.53L131.61,162.32L136.42,161.10L137.49,157.14L138.55,153.17L139.62,149.20L140.68,145.24L140.64,139.37L140.60,133.50L140.55,127.63L140.51,121.76L143.46,118.62L146.40,115.48L149.34,112.34L152.29,109.20L157.81,110.32L163.32,111.45L168.83,112.57L174.35,113.69L178.97,114.59L183.60,115.49L188.22,116.38L192.84,117.28L195.53,113.82L198.22,110.37L200.91,106.91L203.60,103.45L206.45,98.36L209.30,93.27L212.16,88.18L215.01,83.09L219.20,82.29L223.40,81.50L227.60,80.71L231.79,79.92L236.09,83.78L240.38,87.63L244.68,91.48L248.97,95.34L252.61,97.90L256.25,100.47L259.88,103.04L263.52,105.61L267.64,103.40L271.76,101.19L275.88,98.99L280.00,96.78L284.96,93.86L289.91,90.93L294.87,88.01L299.82,85.08L303.71,86.94L307.59,88.80L311.48,90.66L315.36,92.52L317.20,98.09L319.03,103.66L320.87,109.23L322.70,114.80L324.91,118.38L327.11,121.96L329.32,125.55L331.53,129.13L336.49,128.85L341.45,128.57L346.42,128.29L351.38,128.01L357.00,128.03L362.63,128.05L368.25,128.07L373.88,128.09L375.98,131.97L378.09,135.84L380.19,139.72L382.29,143.59L381.15,149.39L380.01,155.19L378.88,160.99L377.74,166.79L378.40,170.73L379.07,174.67L379.74,178.61L380.40,182.55L385.25,184.57L390.11,186.59L394.96,188.60L399.81,190.62L404.46,193.48L409.11,196.34L413.76,199.20L418.41,202.05L417.87,206.59L417.32,211.13L416.77,215.67L416.22,220.21L412.43,224.73L408.64,229.25L404.85,233.77L401.06,238.29L400.31,242.06L399.55,245.82L398.80,249.59L398.04,253.36L401.64,257.52L405.25,261.69L408.85,265.86L412.45,270.03L414.79,274.75L417.14,279.47L419.48,284.19L421.82,288.90L418.65,292.48L415.49,296.06L412.32,299.64L409.16,303.22L403.74,305.37L398.32,307.53L392.90,309.68L387.48,311.84L385.51,315.05L383.54,318.25L381.57,321.46L379.61,324.67L380.96,330.24L382.31,335.80L383.65,341.37L385.00,346.93L384.44,351.96L383.87,357.00L383.31,362.03L382.74,367.06L377.89,368.33L373.05,369.61L368.21,370.88L363.36,372.15L357.68,371.54L352,370.93L346.32,370.32L340.64,369.71L337.69,372.06L334.74,374.42L331.78,376.78L328.83,379.14L327.39,384.86L325.95,390.57L324.51,396.29L323.07,402.01L319.94,405.73L316.81,409.45L313.68,413.18L310.56,416.90L305.57,415.26L300.58,413.61L295.59,411.97L290.61,410.33L285.98,407.28L281.35,404.23L276.72,401.17L272.09,398.12L268.41,399.35L264.72,400.59L261.04,401.82L257.36,403.05L253.30,407.49L249.24,411.92L245.18,416.36L241.12,420.80L236.61,422.05L232.10,423.30L227.59,424.55L223.08,425.80L219.58,421.58L216.08,417.35L212.59,413.12L209.09,408.90L206.43,404.28L203.76,399.66L201.09,395.04L198.43,390.42L194.36,390.25L190.29,390.08L186.23,389.91L182.16,389.73L176.40,391.69L170.65,393.64L164.89,395.59L159.14,397.54L154.86,396.01L150.59,394.48L146.32,392.94L142.05,391.41L141.25,385.77L140.44,380.13L139.63,374.49L138.83,368.85L138.46,363.78L138.09,358.70L137.73,353.63L137.36,348.55L133.43,346.76L129.49,344.98L125.56,343.20L121.62,341.41L115.64,340.30L109.66,339.18L103.68,338.07L97.69,336.96L95.18,333.28L92.66,329.61L90.15,325.94L87.64,322.27L89.91,316.85L92.18,311.43L94.44,306.01L96.71,300.59L98.43,296.08L100.15,291.57L101.87,287.06L103.59,282.55L100.47,279.15L97.36,275.75L94.25,272.35L91.13,268.95L86.53,265.05L81.93,261.14L77.33,257.23L72.72,253.32L72.86,248.90L73.00,244.47L73.14,240.04L73.28,235.61L78.08,231.99L82.88,228.37L87.69,224.75L92.49,221.13L95.70,217.90L98.92,214.67L102.14,211.44L105.35,208.21L103.81,203.54L102.26,198.87L100.72,194.20L99.18,189.53L97.21,183.93L95.24,178.33L93.27,172.72L91.30,167.12L94.06,163.59L96.83,160.06L99.59,156.52L102.35,152.99L108.40,152.22L114.45,151.45L120.50,150.68L126.55,149.90L130.54,148.27L134.53,146.64L138.52,145.01L142.51,143.38L143.13,138.20L143.75,133.01L144.38,127.83L145,122.64L146.16,116.97L147.32,111.29L148.47,105.61L149.63,99.93L154.06,98.65L158.48,97.37L162.90,96.09L167.33,94.81L173.01,97.10L178.70,99.39L184.38,101.69L190.07,103.98L194.17,103.95L198.27,103.91L202.37,103.88L206.47,103.85L209.46,99.22L212.45,94.59L215.44,89.97L218.43,85.34L222.26,81.23L226.09,77.13L229.93,73.02L233.76,68.91L238.28,70.48L242.80,72.04L247.32,73.60L251.85,75.17L255.71,79.89L259.58,84.62L263.45,89.35L267.31,94.07L271.02,95.44L274.73,96.81L278.44,98.19L282.16,99.56L287.13,96.64L292.10,93.72L297.07,90.80L302.04,87.88L307.27,86.50L312.51,85.12L317.74,83.74L322.98,82.36L325.95,86.38L328.93,90.41L331.91,94.43L334.89,98.46L336.04,104.37L337.19,110.28L338.35,116.19L339.50,122.10L342.47,124.63L345.44,127.15L348.41,129.67L351.38,132.19L357.35,131.87L363.32,131.55L369.29,131.23L375.26,130.90L380.2,132.53L385.14,134.15L390.08,135.78L395.02,137.41L395.29,142.65L395.55,147.89L395.82,153.13L396.09,158.38L394.40,164.02L392.71,169.66L391.02,175.30L389.34,180.94L391.29,184.35L393.24,187.76L395.19,191.17L397.15,194.58L402.72,197.16L408.30,199.74L413.87,202.32L419.45,204.89L422.52,208.83L425.59,212.77L428.67,216.71L431.74,220.64L429.00,225.41L426.26,230.18L423.53,234.95L420.79,239.71L416.85,243.83L412.90,247.95L408.96,252.06L405.01,256.18L405.69,260.19L406.36,264.19L407.03,268.20L407.7,272.20L411.44,277.21L415.18,282.22L418.93,287.23L422.67,292.23L422.95,297.03L423.23,301.84L423.50,306.65L423.78,311.45L418.73,314.15L413.67,316.86L408.61,319.56L403.55,322.27L398.40,324.12L393.25,325.97L388.10,327.82L382.95,329.68L382.09,333.86L381.23,338.04L380.37,342.22L379.51,346.41L380.38,352.65L381.24,358.89L382.10,365.14L382.96,371.38L380.48,375.34L378.00,379.31L375.51,383.27L373.03,387.23L367.09,386.90L361.15,386.57L355.21,386.24L349.27,385.91L344.09,385.37L338.90,384.83L333.72,384.30L328.53,383.76L326.00,387.53L323.47,391.30L320.95,395.07L318.42,398.84L316.11,404.70L313.80,410.56L311.49,416.41L309.17,422.27L304.91,423.99L300.64,425.71L296.38,427.43L292.11,429.15L287.03,425.73L281.94,422.32L276.86,418.90L271.78,415.49L267.53,412.97L263.29,410.45L259.04,407.93L254.79,405.41L250.72,408.03L246.65,410.65L242.58,413.28L238.51,415.90L233.63,419.79L228.76,423.68L223.88,427.56L219.01,431.45L214.55,430.32L210.10,429.18L205.65,428.05L201.19,426.92L198.46,421.29L195.72,415.67L192.99,410.05L190.25,404.43L187.54,400.63L184.83,396.84L182.12,393.04L179.41,389.25L174.30,390.00L169.19,390.75L164.09,391.51L158.98,392.26L152.92,393.12L146.86,393.99L140.80,394.86L134.74,395.72L131.77,392.13L128.80,388.53L125.83,384.93L122.85,381.33L123.26,375.02L123.66,368.7L124.07,362.38L124.48,356.07L123.49,351.77L122.51,347.47L121.53,343.17L120.54,338.87L115.31,337.27L110.07,335.67L104.83,334.07L99.59,332.48L94.10,330.15L88.60,327.84L83.11,325.52L77.62,323.20L77.30,318.40L76.97,313.61L76.65,308.81L76.33,304.02L79.77,298.68L83.21,293.35L86.65,288.01L90.09,282.67L90.72,278.52L91.35,274.36L91.99,270.20L92.62,266.04L88.41,262.09L84.20,258.15L80.00,254.21L75.79,250.27L72.44,245.57L69.09,240.87L65.75,236.17L62.40,231.47L64.99,227.19L67.58,222.91L70.17,218.63L72.77,214.36L78.31,211.34L83.85,208.32L89.39,205.31L94.93,202.29L96.92,198.73L98.91,195.18L100.89,191.62L102.88,188.06L100.82,182.40L98.76,176.75L96.70,171.09L94.64,165.43L94.34,159.88L94.04,154.34L93.75,148.79L93.45,143.24L98.21,141.07L102.97,138.89L107.74,136.72L112.50,134.54L118.71,134.49L124.92,134.44L131.13,134.40L137.34,134.35L140.39,131.71L143.44,129.07L146.49,126.44L149.55,123.80L150.36,117.62L151.17,111.44L151.97,105.27L152.78,99.09L155.46,94.47L158.13,89.86L160.81,85.24L163.48,80.63L168.91,81.47L174.33,82.32L179.76,83.16L185.18,84.00L190.57,86.77L195.96,89.53L201.35,92.29L206.74,95.06L210.56,93.60L214.38,92.13L218.20,90.67L222.03,89.21L225.74,84.01L229.44,78.81L233.15,73.61L236.86,68.41L241.47,66.17L246.07,63.93L250.68,61.69L255.29,59.45L259.60,63.25L263.91,67.06L268.22,70.86L272.52,74.66L275.95,79.41L279.38,84.15L282.81,88.89L286.25,93.63L290.49,93.60L294.73,93.56L298.98,93.52L303.22,93.48L309.05,90.64L314.88,87.80L320.72,84.96L326.55,82.12L331.43,82.88L336.31,83.65L341.20,84.41L346.08,85.18L347.81,90.91L349.53,96.65L351.25,102.38L352.97,108.12L353.90,113.65L354.84,119.18L355.77,124.71L356.71,130.23L360.89,131.83L365.07,133.42L369.26,135.02L373.44,136.61L379.96,136.95L386.47,137.30L392.99,137.65L399.50,137.99L402.94,141.37L406.38,144.74L409.82,148.11L413.25,151.48L411.70,157.48L410.15,163.49L408.60,169.49L407.05,175.49L405.59,180.62L404.13,185.75L402.67,190.88L401.21,196.01L404.68,199.28L408.14,202.55L411.61,205.82L415.07,209.09L420.56,212.58L426.04,216.08L431.52,219.58L437.01,223.08L437.79,227.77L438.57,232.46L439.36,237.14L440.14,241.83L435.63,246.33L431.12,250.83L426.61,255.33L422.10,259.83L418.83,263.67L415.55,267.51L412.28,271.34L409.00,275.18L411.00,279.86L412.99,284.54L414.98,289.22L416.97,293.89L419.93,299.6L422.90,305.30L425.86,311.01L428.82,316.71L426.68,320.97L424.53,325.22L422.38,329.47L420.24,333.73L413.97,335.40L407.69,337.07L401.42,338.74L395.15,340.41L390.86,342.50L386.58,344.59L382.30,346.68L378.02,348.76L377.87,354.18L377.72,359.59L377.57,365.00L377.42,370.41L377.08,376.70L376.74,382.99L376.40,389.28L376.06,395.57L371.74,397.78L367.42,400.00L363.10,402.21L358.78,404.43L352.44,402.77L346.09,401.12L339.74,399.47L333.40,397.82L328.89,398.10L324.39,398.38L319.89,398.67L315.39,398.95L312.77,404.05L310.16,409.15L307.55,414.25L304.93,419.36L301.49,424.42L298.04,429.48L294.59,434.54L291.14,439.61L286.18,438.87L281.22,438.13L276.26,437.4L271.31,436.66L266.55,432.14L261.80,427.61L257.05,423.08L252.3,418.55L248.19,417.24L244.08,415.93L239.97,414.62L235.86,413.31L231.02,416.90L226.18,420.49L221.34,424.07L216.5,427.66L211.09,430.06L205.68,432.46L200.27,434.86L194.86,437.26L191.06,433.68L187.25,430.09L183.45,426.51L179.65,422.93L177.65,416.73L175.66,410.54L173.66,404.34L171.67,398.15L168.36,395.56L165.06,392.98L161.75,390.39L158.45,387.80L152.26,388.84L146.07,389.88L139.88,390.92L133.69,391.97L128.06,391.11L122.43,390.26L116.80,389.40L111.17,388.55L109.97,383.21L108.78,377.87L107.58,372.52L106.38,367.18L107.51,360.89L108.63,354.6L109.76,348.31L110.89,342.02L108.67,338.48L106.46,334.94L104.24,331.40L102.03,327.86L95.87,325.85L89.70,323.84L83.54,321.83L77.38,319.82L73.31,316.17L69.25,312.52L65.19,308.86L61.13,305.20L63.14,299.83L65.16,294.46L67.18,289.09L69.19,283.72L72.99,278.79L76.78,273.86L80.57,268.93L84.37,264.00L83.48,259.84L82.59,255.68L81.70,251.51L80.81,247.35L76.22,242.56L71.63,237.78L67.04,232.99L62.45,228.21L61.20,223.11L59.94,218.01L58.69,212.91L57.43,207.81L62.22,204.20L67.01,200.59L71.81,196.98L76.60,193.37L82.01,190.78L87.42,188.19L92.83,185.60L98.24,183.01L98.90,178.63L99.56,174.24L100.22,169.86L100.88,165.47L99.12,158.99L97.36,152.5L95.60,146.01L93.84,139.53L95.68,134.80L97.51,130.06L99.34,125.33L101.17,120.60L107.39,120.02L113.60,119.44L119.82,118.86L126.04,118.29L131.77,118.34L137.51,118.39L143.24,118.45L148.98,118.50L151.33,114.45L153.69,110.40L156.05,106.34L158.40,102.29L160.03,95.74L161.66,89.20L163.28,82.65L164.91,76.11L169.06,73.39L173.21,70.69L177.36,67.98L181.50,65.27L187.32,68.07L193.13,70.87L198.94,73.67L204.75,76.47L209.66,78.85L214.56,81.22L219.46,83.60L224.36,85.97L228.34,82.96L232.33,79.94L236.31,76.93L240.30,73.91L244.92,69.05L249.55,64.19L254.17,59.33L258.80,54.47L263.70,54.73L268.60,54.98L273.50,55.24L278.40,55.49L282.08,60.99L285.76,66.49L289.44,71.98L293.13,77.48L296.42,81.44L299.72,85.39L303.01,89.35L306.31,93.30L311.50,92.08L316.68,90.86L321.87,89.63L327.06,88.41L333.41,86.56L339.76,84.70L346.11,82.84L352.46,80.99L356.28,84.11L360.11,87.23L363.93,90.35L367.76,93.48L368.22,100.19L368.68,106.90L369.13,113.62L369.59,120.33L370.98,124.99L372.36,129.65L373.74,134.31L375.12,138.97L380.67,140.11L386.23,141.25L391.78,142.39L397.33,143.53L403.6,145.13L409.87,146.74L416.14,148.35L422.40,149.96L423.69,154.84L424.98,159.72L426.26,164.60L427.55,169.48L426.09,172.54L424.63,175.60L423.17,178.66L421.71,181.72L420.25,184.78L418.79,187.85L417.33,190.91L415.87,193.97L415.42,198.56L414.97,203.14L414.52,207.73L414.06,212.32L418.83,215.95L423.60,219.58L428.36,223.22L433.13,226.85L437.52,231.35L441.90,235.84L446.29,240.34L450.68,244.83L448.84,249.72L447.00,254.61L445.15,259.49L443.31,264.38L440.55,266.35L437.8,268.32L435.05,270.30L432.29,272.27L429.54,274.24L426.78,276.21L424.03,278.18L421.27,280.15L419.29,284.10L417.30,288.06L415.32,292.00L413.33,295.96L416.11,301.60L418.88,307.24L421.66,312.88L424.43,318.52L425.73,324.44L427.02,330.36L428.32,336.28L429.61,342.21L425.13,345.31L420.64,348.41L416.15,351.51L411.67,354.61L405.02,355.44L398.37,356.28L391.72,357.12L385.07,357.96L381.91,360.91L378.76,363.86L375.61,366.81L372.45,369.76L372.34,376.30L372.23,382.83L372.13,389.37L372.02,395.90L369.99,401.37L367.96,406.83L365.93,412.29L363.90,417.75L358.19,417.83L352.47,417.91L346.76,417.98L341.05,418.06L334.90,415.74L328.76,413.42L322.61,411.10L316.47,408.77L312.50,410.48L308.52,412.18L304.55,413.88L300.58,415.59L297.35,421.50L294.12,427.41L290.89,433.31L287.66,439.22L283.14,442.52L278.62,445.81L274.10,449.10L269.58,452.40L264.52,449.20L259.45,446.01L254.39,442.81L249.33,439.61L245.06,434.87L240.79,430.13L236.53,425.39L232.26,420.65L227.84,420.89L223.42,421.13L219.00,421.38L214.57,421.62L211.69,423.50L208.81,425.37L205.94,427.25L203.06,429.12L200.18,431.00L197.30,432.87L194.42,434.75L191.54,436.63L186.16,436.79L180.79,436.95L175.41,437.11L170.03,437.27L167.34,431.62L164.65,425.98L161.95,420.33L159.26,414.68L157.65,408.76L156.03,402.85L154.41,396.93L152.79,391.01L148.37,389.6L143.96,388.19L139.55,386.79L135.13,385.38L131.67,385.64L128.20,385.91L124.74,386.17L121.28,386.43L117.81,386.69L114.35,386.96L110.88,387.22L107.42,387.48L103.07,384.61L98.73,381.74L94.38,378.87L90.04,376.00L90.72,369.54L91.41,363.07L92.09,356.61L92.78,350.15L93.86,344.39L94.94,338.63L96.03,332.88L97.11,327.12L93.32,324.00L89.54,320.87L85.75,317.75L81.97,314.63L78.81,313.16L75.65,311.70L72.50,310.23L69.34,308.76L66.18,307.30L63.02,305.83L59.87,304.37L56.71,302.90L54.91,298.14L53.10,293.37L51.30,288.60L49.49,283.83L53.52,278.47L57.55,273.12L61.58,267.76L65.62,262.4L68.86,257.89L72.11,253.38L75.35,248.88L78.60,244.37L76.18,239.73L73.77,235.08L71.35,230.44L68.93,225.8L66.93,222.98L64.94,220.17L62.94,217.35L60.94,214.53L58.94,211.72L56.94,208.90L54.94,206.08L52.94,203.26L54.28,198.38L55.63,193.50L56.99,188.62L58.34,183.73L61.50,182.41L64.67,181.08L67.83,179.76L71.00,178.43L74.16,177.11L77.33,175.78L80.49,174.46L83.66,173.13L88.20,170.50L92.74,167.86L97.27,165.23L101.81,162.60L101.48,157.03L101.15,151.46L100.81,145.89L100.48,140.32L100.18,136.93L99.87,133.55L99.57,130.16L99.27,126.77L98.97,123.39L98.66,120L98.36,116.61L98.06,113.23L102.07,110.05L106.08,106.88L110.09,103.71L114.11,100.54L117.56,100.97L121.02,101.40L124.47,101.83L127.93,102.26L131.39,102.69L134.84,103.12L138.3,103.54L141.76,103.97L146.68,103.36L151.59,102.75L156.51,102.14L161.43,101.52L163.61,96.02L165.80,90.51L167.98,85.00L170.17,79.49L173.05,73.51L175.93,67.52L178.81,61.54L181.69,55.56L186.93,55.34L192.16,55.12L197.41,54.89L202.64,54.67L205.46,56.75L208.28,58.83L211.11,60.90L213.92,62.98L216.75,65.06L219.56,67.13L222.39,69.21L225.21,71.29L229.76,72.49L234.31,73.69L238.86,74.90L243.41,76.10L248.03,71.88L252.65,67.65L257.26,63.43L261.87,59.21L267.28,55.72L272.69,52.23L278.09,48.74L283.50,45.24L288.07,48.20L292.64,51.15L297.21,54.10L301.78,57.05L303.24,60.22L304.71,63.39L306.18,66.56L307.64,69.72L309.11,72.89L310.57,76.06L312.04,79.23L313.50,82.39L317.19,85.03L320.87,87.68L324.55,90.32L328.23,92.96L334.53,91.17L340.83,89.39L347.13,87.60L353.44,85.82L359.64,85.74L365.84,85.66L372.04,85.58L378.25,85.50L380.43,90.75L382.62,96.00L384.81,101.25L386.99,106.50L386.79,109.94L386.58,113.38L386.37,116.82L386.16,120.25L385.95,123.69L385.74,127.13L385.54,130.57L385.33,134.01L387.83,137.69L390.34,141.37L392.84,145.04L395.35,148.72L398.67,149.40L402.00,150.07L405.33,150.75L408.66,151.42L411.99,152.10L415.32,152.77L418.65,153.45L421.98,154.12L427.02,157.29L432.07,160.47L437.11,163.64L442.15,166.81L441.01,172.66L439.87,178.51L438.73,184.36L437.58,190.21L434.09,195.97L430.60,201.73L427.10,207.50L423.61,213.26L424.72,217.59L425.83,221.93L426.94,226.26L428.06,230.60L430.76,232.81L433.46,235.02L436.16,237.23L438.87,239.44L441.57,241.66L444.27,243.87L446.97,246.08L449.67,248.29L452.01,253.51L454.34,258.73L456.68,263.95L459.01,269.17L454.69,273.67L450.36,278.17L446.03,282.66L441.70,287.16L436.14,290.58L430.58,294.00L425.02,297.42L419.46,300.84L418.99,305.43L418.52,310.01L418.06,314.59L417.59,319.18L418.94,322.47L420.29,325.76L421.64,329.05L422.99,332.34L424.35,335.63L425.70,338.92L427.05,342.21L428.40,345.50L427.40,350.91L426.40,356.32L425.40,361.74L424.40,367.15L418.09,368.73L411.77,370.30L405.45,371.88L399.13,373.46L392.88,374.01L386.64,374.56L380.39,375.12L374.15,375.67L371.96,379.99L369.78,384.3L367.60,388.62L365.41,392.93L365.01,396.50L364.60,400.06L364.19,403.63L363.78,407.19L363.38,410.75L362.97,414.32L362.56,417.88L362.15,421.45L358.32,425.17L354.50,428.90L350.67,432.62L346.84,436.35L343.62,435.34L340.40,434.33L337.17,433.32L333.95,432.31L330.72,431.30L327.50,430.29L324.28,429.28L321.05,428.27L315.47,426.16L309.88,424.05L304.29,421.94L298.70,419.82L294.83,423.19L290.96,426.57L287.09,429.94L283.22,433.31L281.11,436.22L279.01,439.13L276.91,442.03L274.81,444.94L272.71,447.84L270.61,450.75L268.51,453.66L266.40,456.56L261.21,457.32L256.03,458.08L250.84,458.83L245.65,459.59L243.33,457.00L241.01,454.41L238.69,451.81L236.37,449.22L234.04,446.63L231.72,444.04L229.40,441.45L227.08,438.86L223.12,434.81L219.16,430.77L215.20,426.73L211.25,422.68L206.03,424.36L200.82,426.04L195.61,427.71L190.40,429.39L187.16,430.85L183.92,432.31L180.68,433.77L177.44,435.24L174.20,436.70L170.97,438.16L167.73,439.62L164.49,441.08L159.87,438.63L155.25,436.18L150.63,433.73L146.01,431.28L145.30,427.80L144.58,424.32L143.86,420.84L143.14,417.36L142.43,413.88L141.71,410.4L140.99,406.92L140.28,403.44L138.41,398.44L136.53,393.43L134.66,388.43L132.79,383.42L126.99,382.77L121.19,382.11L115.40,381.45L109.60,380.79L106.13,380.42L102.66,380.05L99.19,379.68L95.72,379.31L92.25,378.94L88.78,378.57L85.31,378.20L81.84,377.83L79.53,373.07L77.21,368.30L74.90,363.53L72.59,358.77L73.70,355.35L74.82,351.92L75.93,348.5L77.05,345.08L78.16,341.65L79.28,338.23L80.39,334.81L81.50,331.39L81.71,326.34L81.90,321.30L82.10,316.25L82.31,311.21L77.04,307.95L71.78,304.70L66.51,301.44L61.25,298.19L58.53,296.14L55.82,294.09L53.10,292.04L50.39,290.00L47.68,287.94L44.96,285.90L42.25,283.85L39.53,281.8L40.47,276.43L41.40,271.07L42.34,265.7L43.28,260.33L45.93,257.88L48.58,255.43L51.23,252.97L53.88,250.52L56.53,248.07L59.18,245.61L61.83,243.16L64.49,240.71L66.43,236.31L68.38,231.92L70.33,227.52L72.28,223.13L68.81,217.61L65.33,212.09L61.86,206.58L58.39,201.06L55.99,194.93L53.59,188.80L51.19,182.67L48.79,176.54L52.80,172.53L56.80,168.53L60.81,164.53L64.81,160.53L68.30,159.65L71.78,158.78L75.26,157.90L78.75,157.03L82.23,156.15L85.71,155.28L89.20,154.40L92.68,153.53L95.94,150.22L99.20,146.91L102.46,143.60L105.72,140.29L105.39,136.90L105.07,133.51L104.75,130.12L104.43,126.73L104.11,123.34L103.79,119.95L103.47,116.56L103.15,113.17L104.35,106.94L105.56,100.72L106.76,94.50L107.96,88.27L113.78,87.18L119.60,86.08L125.42,84.99L131.24,83.89L134.67,84.75L138.11,85.62L141.54,86.48L144.97,87.34L148.40,88.20L151.83,89.06L155.26,89.92L158.69,90.78L162.83,88.81L166.97,86.84L171.11,84.88L175.25,82.91L176.57,79.64L177.89,76.37L179.21,73.10L180.53,69.83L181.85,66.56L183.17,63.29L184.50,60.02L185.82,56.75L190.04,52.38L194.27,48L198.50,43.63L202.73,39.25L208.45,41.66L214.17,44.07L219.90,46.48L225.62,48.88L228.19,51.18L230.77,53.48L233.34,55.78L235.92,58.07L238.50,60.37L241.07,62.67L243.65,64.97L246.23,67.26L250.84,66.82L255.45,66.37L260.06,65.92L264.67,65.47L267.44,63.15L270.21,60.82L272.98,58.49L275.75,56.17L278.52,53.84L281.29,51.51L284.06,49.19L286.83,46.86L292.54,45.64L298.25,44.42L303.97,43.19L309.68,41.97L313.36,47.33L317.04,52.68L320.72,58.04L324.40,63.39L326.82,69.61L329.23,75.84L331.65,82.06L334.07,88.28L338.70,89.50L343.34,90.73L347.97,91.95L352.61,93.18L356.21,92.44L359.81,91.71L363.41,90.97L367.01,90.24L370.61,89.50L374.21,88.76L377.81,88.02L381.41,87.29L386.61,89.46L391.81,91.63L397.00,93.80L402.20,95.97L402.35,99.35L402.50,102.73L402.65,106.11L402.81,109.50L402.96,112.88L403.11,116.26L403.26,119.64L403.41,123.02L402.84,129.40L402.27,135.77L401.69,142.14L401.12,148.51L405.20,151.48L409.28,154.45L413.36,157.42L417.44,160.39L420.97,161.50L424.50,162.61L428.03,163.71L431.56,164.82L435.09,165.93L438.62,167.03L442.15,168.14L445.69,169.25L448.57,173.90L451.47,178.55L454.35,183.20L457.24,187.85L455.56,190.92L453.88,194.00L452.20,197.08L450.51,200.15L448.83,203.23L447.15,206.31L445.47,209.38L443.78,212.46L440.67,217.69L437.56,222.92L434.45,228.15L431.34,233.39L434.15,237.96L436.97,242.53L439.78,247.09L442.59,251.67L445.11,254.36L447.64,257.05L450.16,259.75L452.68,262.44L455.21,265.13L457.73,267.83L460.25,270.52L462.78,273.21L462.38,278.59L461.99,283.97L461.60,289.35L461.21,294.72L458.11,296.56L455.01,298.40L451.91,300.24L448.81,302.08L445.71,303.92L442.61,305.76L439.51,307.60L436.41,309.44L431.67,312.71L426.93,315.98L422.19,319.25L417.45,322.52L418.26,328.18L419.07,333.85L419.88,339.51L420.68,345.18L421.51,348.73L422.35,352.28L423.18,355.84L424.01,359.39L424.84,362.94L425.67,366.49L426.50,370.05L427.34,373.60L423.84,377.71L420.34,381.81L416.84,385.92L413.35,390.03L409.67,390.07L406.00,390.11L402.32,390.14L398.65,390.18L394.97,390.22L391.30,390.26L387.62,390.30L383.94,390.34L378.61,391.37L373.27,392.40L367.94,393.43L362.60,394.46L360.88,400.31L359.16,406.15L357.44,412L355.72,417.85L354.65,421.26L353.59,424.67L352.52,428.09L351.46,431.50L350.39,434.92L349.33,438.33L348.26,441.75L347.20,445.16L341.86,446.44L336.53,447.72L331.19,449.00L325.86,450.27L322.61,448.48L319.36,446.68L316.11,444.88L312.86,443.08L309.61,441.28L306.36,439.48L303.11,437.68L299.86,435.88L294.82,434.85L289.79,433.82L284.75,432.79L279.71,431.75L275.41,436.56L271.10,441.37L266.79,446.17L262.49,450.98L259.88,453.29L257.28,455.6L254.68,457.91L252.08,460.22L249.47,462.53L246.87,464.84L244.27,467.15L241.67,469.46L236.43,467.32L231.19,465.19L225.95,463.05L220.72,460.92L218.75,457.76L216.78,454.61L214.81,451.45L212.84,448.29L210.87,445.14L208.9,441.98L206.93,438.83L204.96,435.67L200.85,433L196.73,430.33L192.62,427.66L188.5,424.99L185.35,426.25L182.20,427.52L179.06,428.78L175.91,430.05L172.76,431.31L169.61,432.58L166.46,433.84L163.31,435.11L156.68,436.26L150.06,437.41L143.43,438.56L136.80,439.71L133.61,434.76L130.41,429.81L127.21,424.87L124.02,419.92L123.80,416.24L123.58,412.55L123.36,408.87L123.14,405.18L122.93,401.50L122.71,397.82L122.49,394.13L122.27,390.45L119.44,386.62L116.60,382.8L113.77,378.98L110.94,375.15L107.41,374.84L103.89,374.53L100.36,374.22L96.84,373.91L93.31,373.60L89.79,373.29L86.26,372.98L82.74,372.67L76.77,370.18L70.80,367.69L64.83,365.2L58.85,362.71L58.99,356.55L59.13,350.38L59.26,344.22L59.40,338.05L60.91,334.76L62.43,331.46L63.94,328.17L65.46,324.87L66.97,321.57L68.49,318.28L70.00,314.98L71.52,311.69L70.16,307.16L68.81,302.64L67.46,298.12L66.11,293.59L63.03,291.63L59.95,289.66L56.87,287.69L53.79,285.72L50.71,283.75L47.63,281.78L44.55,279.82L41.47,277.85L37.99,272.71L34.51,267.57L31.03,262.43L27.54,257.29L31.21,251.97L34.88,246.65L38.54,241.33L42.21,236.00L45,233.84L47.79,231.67L50.58,229.51L53.37,227.35L56.16,225.18L58.95,223.02L61.74,220.85L64.53,218.69L64.81,213.89L65.09,209.10L65.37,204.31L65.64,199.52L63.81,196.26L61.98,193.00L60.14,189.74L58.31,186.48L56.48,183.21L54.64,179.95L52.81,176.69L50.98,173.43L50.98,167.47L50.97,161.50L50.97,155.54L50.97,149.58L54.08,148.26L57.19,146.95L60.30,145.63L63.42,144.31L66.53,143.00L69.64,141.68L72.75,140.37L75.86,139.05L79.21,138.40L82.56,137.76L85.9,137.11L89.25,136.47L92.59,135.83L95.94,135.18L99.28,134.54L102.63,133.89L104.64,129.33L106.66,124.77L108.68,120.21L110.69,115.65L110.64,111.85L110.59,108.06L110.54,104.27L110.49,100.47L110.44,96.68L110.39,92.89L110.34,89.10L110.29,85.30L113.58,80.58L116.88,75.86L120.17,71.14L123.46,66.42L126.94,66.96L130.41,67.50L133.89,68.04L137.36,68.58L140.84,69.12L144.31,69.66L147.78,70.20L151.26,70.74L157.55,72.46L163.84,74.18L170.12,75.90L176.41,77.62L180.16,73.92L183.9,70.22L187.64,66.52L191.38,62.81L193.19,59.46L195,56.11L196.81,52.75L198.62,49.40L200.42,46.04L202.23,42.69L204.04,39.34L205.84,35.98L211.13,34.11L216.42,32.24L221.71,30.37L227.00,28.50L229.79,30.83L232.58,33.17L235.36,35.50L238.15,37.84L240.94,40.17L243.73,42.50L246.51,44.84L249.3,47.17L254.00,51.21L258.69,55.25L263.38,59.28L268.08,63.32L273.27,61.22L278.47,59.11L283.66,57.00L288.85,54.90L292.06,52.88L295.27,50.87L298.49,48.85L301.70,46.83L304.91,44.82L308.13,42.80L311.34,40.79L314.55,38.77L319.86,40.36L325.17,41.94L330.48,43.53L335.80,45.11L337.05,48.63L338.30,52.14L339.54,55.66L340.79,59.18L342.04,62.69L343.29,66.21L344.53,69.72L345.78,73.24L348.24,78.55L350.7,83.86L353.16,89.17L355.62,94.48L361.59,94.65L367.57,94.83L373.54,95.00L379.51,95.17L383.25,95.04L386.99,94.90L390.73,94.77L394.47,94.64L398.21,94.50L401.95,94.37L405.69,94.24L409.43,94.11L412.79,98.54L416.15,102.98L419.51,107.42L422.87,111.86L422.18,115.59L421.50,119.33L420.81,123.06L420.12,126.79L419.44,130.53L418.75,134.26L418.06,137.99L417.38,141.73L417.51,147.25L417.65,152.77L417.79,158.29L417.93,163.81L423.62,166.64L429.32,169.46L435.01,172.29L440.70,175.12L443.92,176.87L447.13,178.62L450.35,180.37L453.56,182.12L456.78,183.88L460.00,185.63L463.21,187.38L466.43,189.13L466.53,194.81L466.64,200.49L466.75,206.17L466.86,211.85L464.40,214.78L461.95,217.72L459.49,220.66L457.04,223.60L454.58,226.54L452.13,229.47L449.68,232.41L447.22,235.35L445.36,240.24L443.50,245.13L441.64,250.02L439.78,254.91L443.91,260.21L448.05,265.50L452.18,270.81L456.32,276.11L457.94,279.14L459.56,282.18L461.18,285.21L462.80,288.25L464.42,291.28L466.04,294.32L467.66,297.35"/>

  </g>

    <style>
        path {

            stroke-dasharray: 21904.4;
            stroke-dashoffset: 21904.4;
            animation: draw 60s linear forwards;
          }
          
          @keyframes draw {
            from {
              stroke-dashoffset: 21904.4;
            }
          
            to {
              stroke-dashoffset: 0;
            }
          }

          @-webkit-keyframes draw {
              to {
                  stroke-dashoffset: 0;
              }
          }          
          
    </style>

</svg>
